<svg width="210" height="40" viewBox="0 0 210 40" fill="none" xmlns="http://www.w3.org/2000/svg">
<path d="M89.8242 7.50208C85.6397 7.50208 82.2357 10.8662 82.2357 15.0017C82.2357 19.1373 85.6397 22.5014 89.8242 22.5014C94.0088 22.5014 97.4127 19.1373 97.4127 15.0017C97.4127 10.8662 94.0088 7.50208 89.8242 7.50208ZM89.8242 20.0012C87.0351 20.0012 84.7655 17.7582 84.7655 15.0017C84.7655 12.2452 87.0351 10.0022 89.8242 10.0022C92.6134 10.0022 94.883 12.2452 94.883 15.0017C94.883 17.7582 92.6134 20.0012 89.8242 20.0012ZM102.471 0H105V22.1266H102.471V0ZM148.001 7.87767V22.1266H145.472V10.377H140.413V22.1258H137.883V10.377H132.825V22.1258H130.296V7.87767H148.002H148.001ZM77.6375 5.28017L73.9815 8.89249C72.7413 8.01882 71.2252 7.50208 69.5885 7.50208C65.4048 7.50208 62 10.8662 62 15.0017C62 18.7114 64.7391 21.798 68.3236 22.3951V25.107C64.7399 25.704 62.0008 28.7915 62.0008 32.5004C62.0008 36.6359 65.4048 40 69.5893 40C73.7739 40 77.1778 36.6359 77.1778 32.5004C77.1778 28.7915 74.4387 25.704 70.8542 25.107V22.3951C74.4379 21.798 77.1778 18.7114 77.1778 15.0017C77.1778 13.3842 76.6558 11.8867 75.7709 10.6601L79.4269 7.04699L77.6383 5.27936L77.6375 5.28017ZM74.648 32.5012C74.648 35.2577 72.3785 37.5007 69.5893 37.5007C66.8002 37.5007 64.5306 35.2577 64.5306 32.5012C64.5306 29.7447 66.8002 27.5017 69.5893 27.5017C72.3785 27.5017 74.648 29.7447 74.648 32.5012ZM69.5893 20.002C66.8002 20.002 64.5306 17.759 64.5306 15.0025C64.5306 12.246 66.8002 10.003 69.5893 10.003C72.3785 10.003 74.648 12.246 74.648 15.0025C74.648 17.759 72.3785 20.002 69.5893 20.002ZM117.774 7.50289C115.623 7.50289 113.672 8.28084 112.283 9.69397C110.931 11.069 110.186 12.9534 110.186 15.0025C110.186 17.0517 110.912 18.9458 112.229 20.3046C113.623 21.7421 115.541 22.5022 117.774 22.5022C120.176 22.5022 122.666 21.347 123.971 19.6272L121.948 18.1273C121.11 19.2314 119.394 20.002 117.774 20.002C115.146 20.002 113.266 18.4859 112.818 16.1269H125.109V14.8768C125.109 12.8869 124.397 11.0454 123.104 9.69154C121.757 8.28003 119.864 7.50289 117.774 7.50289ZM112.879 13.6275C113.424 11.4381 115.285 10.003 117.774 10.003C120.263 10.003 121.957 11.4421 122.446 13.6275H112.879H112.879Z" fill="#F1F1F1"/>
</svg>
