<?xml version="1.0" encoding="utf-8"?>
<svg width="1374" height="2082" viewBox="0 0 1374.723 943.224" fill="none" xmlns="http://www.w3.org/2000/svg">
  <g style="" transform="matrix(1.000398, 0, 0, 0.461541, -0.000398, 0.538404)">
    <path d="M 1 1.499 C 4.314 104.616 43.87 196.927 81.797 281.387 C 119.331 364.976 160.709 445.293 194.443 532.326 C 218.226 593.681 240.938 663.073 239.95 734.998 C 239.144 793.701 222.153 848.209 200.311 896.739 C 153.193 1001.41 83.317 1083.27 43.559 1195.11 C -0.034 1317.75 28.976 1460.51 52.86 1585.72 C 83.747 1747.62 128.952 1911.26 131.533 2080.97" stroke="#1E1E1E" stroke-miterlimit="10"/>
    <path d="M 1373.23 27.519 C 1263.97 26.991 1154.71 27.809 1045.46 28.033 C 960.612 28.205 878.68 21.423 797.178 61.35 C 718.147 100.064 644.756 160.614 563.959 192.203 C 364.849 270.026 196.572 38.114 2.195 27.888" stroke="#1E1E1E" stroke-miterlimit="10"/>
    <path d="M 37.441 4.943 C 41.076 108.074 79.9 199.765 118.083 284.132 C 155.351 366.481 196.509 445.478 229.932 531.323 C 253.798 592.626 276.611 662.559 275.476 734.51 C 274.542 793.28 257.698 848.223 235.709 896.74 C 189.296 999.145 120.015 1078.18 80.953 1187.83 C 37.203 1310.65 66.827 1453.71 89.723 1579.52 C 119.264 1741.81 161.127 1904.97 165.759 2074.05" stroke="#1E1E1E" stroke-miterlimit="10"/>
    <path d="M 55.871 8.887 C 59.496 108.983 96.05 197.771 133.107 279.869 C 171.501 364.936 214.527 445.965 248.884 534.713 C 271.907 594.182 293.622 661.739 293.045 731.329 C 292.56 790.257 275.789 845.846 253.8 894.456 C 207.808 996.122 138.252 1073.26 99.666 1182.27 C 56.851 1303.2 85.861 1444.59 107.521 1568.79 C 136.055 1732.39 176.426 1896.32 181.653 2066.11" stroke="#1E1E1E" stroke-miterlimit="10"/>
    <path d="M 74.418 14.14 C 78.116 114.5 114.743 203.116 152.149 285.214 C 189.425 367.022 230.904 445.069 264.529 530.255 C 288.083 589.935 310.2 657.69 310.182 727.82 C 310.164 789.202 292.679 846.824 269.234 896.938 C 223.627 994.421 155.774 1068.81 118.561 1174.74 C 76.112 1295.58 106.01 1440.43 126.836 1564.54 C 153.979 1726.23 191.385 1888.29 196.822 2055.56" stroke="#1E1E1E" stroke-miterlimit="10"/>
    <path d="M 93.074 20.552 C 96.846 121.849 134.022 210.65 172.105 293.143 C 209.656 374.476 251.584 452.075 284.64 537.564 C 307.023 595.463 327.767 660.948 327.337 728.651 C 326.962 787.816 310.264 843.815 287.634 892.161 C 243.162 987.19 176.517 1058.4 139.387 1160.94 C 95.509 1282.11 125.582 1429.25 145.52 1554.68 C 171.098 1715.63 205.903 1876.76 211.35 2042.6" stroke="#1E1E1E" stroke-miterlimit="10"/>
    <path d="M 111.832 28.007 C 115.595 129.185 152.826 217.564 191.155 299.622 C 227.526 377.471 267.842 451.824 300.176 533.46 C 323.849 593.246 345.582 661.621 344.126 732.016 C 342.955 788.476 327.291 841.532 305.54 887.688 C 261.654 980.79 195.037 1049.26 158.712 1150.16 C 116.089 1268.57 145.099 1414.25 163.317 1537.32 C 187.301 1699.34 220.029 1861.29 225.329 2027.59" stroke="#1E1E1E" stroke-miterlimit="10"/>
    <path d="M 130.668 36.347 C 134.311 134.661 169.693 220.111 207.071 299.834 C 243.552 377.643 284.344 451.534 316.934 533.025 C 340.085 590.911 361.36 656.911 360.985 725.194 C 360.674 781.879 345.734 835.476 323.855 881.803 C 280.481 973.639 213.241 1039.26 177.795 1139.34 C 136.6 1255.65 165.327 1402.87 181.924 1523.85 C 204.014 1684.94 233.884 1846.01 238.8 2010.76" stroke="#1E1E1E" stroke-miterlimit="10"/>
    <path d="M 149.582 45.451 C 153.601 154.822 196.911 248.096 239.543 334.971 C 280.784 419.009 327.252 500.895 356.336 595.7 C 379.185 670.211 385.346 749.578 361.865 825.421 C 342.933 886.579 309.556 934.991 277.543 982.202 C 245.53 1029.41 212.153 1077.82 193.221 1138.98 C 170.061 1213.82 178.162 1295.45 185.449 1374.13 C 204.573 1580.64 246.253 1783.44 251.865 1992.36" stroke="#1E1E1E" stroke-miterlimit="10"/>
    <path d="M 168.562 55.189 C 172.536 164.969 216.459 257.768 259.668 344.379 C 299.92 425.052 344.978 503.878 373.11 595.383 C 395.3 667.546 401.946 745.342 379.71 819.299 C 361.502 879.85 328.198 926.903 296.231 972.649 C 264.263 1018.38 230.959 1065.43 212.751 1126 C 190.094 1201.34 199.321 1286.16 206.068 1365.09 C 223.398 1567.89 259.86 1767.93 264.593 1972.75" stroke="#1E1E1E" stroke-miterlimit="10"/>
    <path d="M 187.574 65.415 C 194.989 274.275 333.863 413.902 389.952 595.08 C 411.502 664.682 418.331 741.357 397.468 812.966 C 380.019 872.87 346.862 918.432 314.94 962.568 C 283.019 1006.7 249.852 1052.28 232.413 1112.17 C 211.724 1183.2 219.926 1263.37 225.281 1337.7 C 240.057 1542.8 273.178 1745.45 277.032 1952.07" stroke="#1E1E1E" stroke-miterlimit="10"/>
    <path d="M 206.625 75.996 C 213.765 281.716 351.421 417.002 406.632 594.789 C 428.145 664.088 434.974 741.146 413.415 812.279 C 396.287 868.792 364.521 911.081 333.68 952.157 C 301.813 994.591 268.83 1038.57 252.196 1097.79 C 232.138 1169.21 241.11 1252.73 245.834 1327.31 C 258.586 1528.6 286.507 1728.25 289.29 1930.74" stroke="#1E1E1E" stroke-miterlimit="10"/>
    <path d="M 225.695 86.803 C 232.561 289.792 368.697 419.642 423.413 594.526 C 444.881 663.139 451.591 741.305 429.428 811.514 C 412.703 864.504 382.081 903.667 352.421 941.536 C 322.778 979.405 292.138 1018.59 275.413 1071.56 C 253.442 1141.17 261.608 1224.74 265.288 1298.65 C 275.404 1502.26 299.663 1704.51 301.412 1908.93" stroke="#1E1E1E" stroke-miterlimit="10"/>
    <path d="M 244.77 97.69 C 251.342 297.657 386.133 422.519 440.052 594.249 C 460.796 660.329 467.91 736.991 447.138 804.997 C 431.164 857.314 400.771 894.708 371.174 930.822 C 341.587 966.923 311.185 1004.36 295.211 1056.65 C 273.688 1127.11 282.706 1213.57 285.681 1287.94 C 293.673 1487.7 312.851 1686.65 313.492 1886.96" stroke="#1E1E1E" stroke-miterlimit="10"/>
    <path d="M 263.848 108.521 C 270.155 305.559 403.481 425.381 456.842 593.971 C 477 657.649 484.077 732.503 464.816 798.569 C 449.747 850.253 419.419 885.958 389.932 920.172 C 360.381 954.453 330.245 990.105 315.049 1041.78 C 295.577 1107.96 303.486 1188.96 305.354 1258.99 C 310.746 1461.09 326.034 1662.7 325.604 1865.09" stroke="#1E1E1E" stroke-miterlimit="10"/>
    <path d="M 282.91 119.183 C 288.961 313.397 420.904 428.06 473.515 593.694 C 493.536 656.713 500.869 732.543 480.802 797.673 C 465.88 846.071 437.145 878.438 408.683 909.683 C 379.133 942.129 349.307 975.974 334.898 1027.1 C 316.196 1093.5 324.371 1179.09 325.524 1248.95 C 328.801 1447.19 339.265 1645.21 337.828 1843.58" stroke="#1E1E1E" stroke-miterlimit="10"/>
    <path d="M 301.934 129.515 C 307.756 320.971 438.271 430.778 490.351 593.391 C 510.234 655.472 517.768 733.15 496.887 796.947 C 482.176 841.902 454.667 871.313 427.395 899.523 C 400.152 927.707 372.514 957.066 357.904 1002.1 C 336.83 1067.04 345.051 1151.03 345.344 1220.64 C 346.195 1421.35 352.631 1622 350.214 1822.74" stroke="#1E1E1E" stroke-miterlimit="10"/>
    <path d="M 320.918 139.385 C 326.548 328.295 455.717 433.141 507.101 593.088 C 526.381 653.098 534.089 728.783 514.654 791.049 C 500.757 835.595 473.321 863.396 446.096 889.799 C 418.871 916.202 391.435 944.017 377.538 988.549 C 368.045 1018.96 366.974 1050.75 366.562 1083.58 C 366.022 1126.49 365.464 1169.4 365.207 1212.32 C 364.063 1409.13 366.068 1606 362.864 1802.79" stroke="#1E1E1E" stroke-miterlimit="10"/>
    <path d="M 339.852 148.674 C 345.344 335.301 473.095 435.357 524.067 592.731 C 542.852 650.736 550.477 724.93 532.425 785.455 C 519.206 829.789 492.072 855.954 464.746 880.668 C 437.521 905.29 410.121 931.587 397.067 975.882 C 378.749 1038.02 386.173 1119.59 385.093 1185.64 C 381.834 1385.11 379.765 1584.61 375.819 1784.05" stroke="#1E1E1E" stroke-miterlimit="10"/>
    <path d="M 358.711 157.237 C 364.121 341.766 490.608 437.27 540.958 592.375 C 559.715 650.155 567.506 725.233 548.611 785.296 C 535.493 826.991 509.641 849.911 483.358 872.25 C 455.867 895.618 429.1 919.817 416.494 964.323 C 408.96 990.937 408.227 1018.92 407.797 1047.2 C 407.12 1091.48 405.728 1135.78 404.584 1180.04 C 399.558 1375.63 393.571 1571.16 389.177 1766.78" stroke="#1E1E1E" stroke-miterlimit="10"/>
    <path d="M 377.492 164.943 C 382.774 346.028 505.847 437.534 556.81 588.087 C 576.245 645.497 584.584 721.486 566.175 781.839 C 553.716 822.664 527.918 844.343 501.91 864.689 C 475.839 885.089 450.252 906.768 437.646 947.539 C 428.858 975.948 428.537 1006.27 427.961 1036.82 C 427.183 1078.25 425.718 1119.68 424.308 1161.07 C 417.616 1357.83 407.748 1554.37 403.015 1751.26" stroke="#1E1E1E" stroke-miterlimit="10"/>
    <path d="M 396.176 171.646 C 401.614 354.658 527.789 441.44 576.5 595.331 C 594.068 650.815 601.144 725.352 582.506 782.38 C 569.964 820.764 545.558 839.883 520.383 858.092 C 493.982 877.185 468.716 897.584 456.65 938.752 C 448.823 965.484 448.448 993.972 447.972 1022.46 C 447.267 1064.64 445.491 1106.84 443.752 1148.96 C 435.659 1345.28 422.174 1541.13 417.378 1737.72" stroke="#1E1E1E" stroke-miterlimit="10"/>
    <path d="M 414.762 177.214 C 420.227 357.442 543.153 440.886 592.459 590.95 C 610.74 646.58 618.632 721.895 600.259 779.886 C 588.211 817.901 563.769 835.766 538.814 852.616 C 513.703 869.558 489.673 887.371 477.369 925.346 C 468.123 953.86 468.16 985.211 467.565 1015.99 C 466.741 1058.72 464.91 1101.43 462.868 1144.06 C 453.558 1338.3 436.952 1531.8 432.412 1726.49" stroke="#1E1E1E" stroke-miterlimit="10"/>
    <path d="M 433.219 181.515 C 438.803 359.341 558.461 439.975 608.664 586.463 C 628.081 643.122 637.198 723.834 616.445 782.723 C 604.123 817.689 580.963 833.628 557.143 848.38 C 531.94 863.99 508.102 881.024 496.293 919.065 C 487.138 948.568 487.386 980.157 486.809 1011.77 C 486.077 1051.59 484.328 1091.4 482.268 1131.13 C 472.153 1326.85 452.141 1521.47 448.086 1717.82" stroke="#1E1E1E" stroke-miterlimit="10"/>
    <path d="M 451.555 184.419 C 457.34 361.929 576.119 439.87 626.24 585.791 C 645.712 642.476 654.811 723.598 633.976 782.499 C 621.8 816.925 599.051 831.861 575.387 845.531 C 550.331 860.019 526.923 876.037 515.27 913.55 C 506.097 943.067 506.243 974.945 505.767 1006.6 C 505.172 1046.43 503.442 1086.26 501.273 1125.97 C 490.617 1321.52 467.74 1515.63 464.554 1711.97" stroke="#1E1E1E" stroke-miterlimit="10"/>
    <path d="M 469.734 185.792 C 475.932 365.201 596.13 440.464 645.271 588.919 C 663.507 644.007 671.197 719.152 653.583 776.879 C 641.966 814.959 618.915 830.173 593.521 844.212 C 568.236 858.185 544.874 873.531 533.459 911.545 C 525.238 938.924 524.624 968.995 524.341 998.327 C 523.956 1038.4 522.519 1078.42 520.359 1118.39 C 509.684 1315.65 483.823 1511.05 481.855 1709.25" stroke="#1E1E1E" stroke-miterlimit="10"/>
    <path d="M 487.762 185.475 C 493.721 363.024 612.006 439.514 662.118 585.33 C 681.69 642.278 690.679 723.492 669.716 782.618 C 657.604 816.766 635.167 831.333 611.603 844.568 C 586.63 858.594 563.552 874.256 551.953 911.492 C 542.753 941.035 542.67 973.191 542.341 1004.92 C 541.92 1044.84 540.317 1084.73 538.111 1124.52 C 527.291 1319.86 501.997 1513.44 500.02 1709.74" stroke="#1E1E1E" stroke-miterlimit="10"/>
    <path d="M 505.629 183.534 C 511.323 361.109 630.413 439.975 680.552 586.054 C 700.051 642.858 708.949 723.333 688.141 782.327 C 675.975 816.831 653.318 832.388 629.745 846.717 C 604.781 861.891 581.474 878.556 569.811 916.109 C 560.666 945.546 560.629 977.319 560.226 1008.92 C 559.713 1048.86 558.066 1088.79 555.896 1128.61 C 545.259 1323.63 521.402 1517.05 518.83 1712.96" stroke="#1E1E1E" stroke-miterlimit="10"/>
    <path d="M 523.359 180.091 C 528.889 358.128 648.895 439.883 699.153 586.688 C 718.67 643.703 727.412 723.532 706.751 782.763 C 694.502 817.861 671.616 834.764 647.97 850.518 C 622.951 867.17 599.387 885.194 587.642 923.314 C 578.552 952.804 578.497 984.327 578.048 1015.94 C 577.481 1055.88 575.833 1095.78 573.736 1135.61 C 563.465 1330.16 541.192 1523.28 538.235 1718.6" stroke="#1E1E1E" stroke-miterlimit="10"/>
    <path d="M 540.977 175.313 C 546.433 355.911 669.725 440.634 719.132 591.174 C 737.55 647.304 744.984 721.644 726.757 780.15 C 714.866 818.322 690.927 837.573 666.265 855.835 C 641.465 874.202 617.92 893.387 605.772 931.52 C 596.663 960.1 596.352 991.385 595.848 1022.22 C 595.144 1065.03 593.542 1107.78 591.354 1150.47 C 581.513 1342.67 561.309 1533.69 558.187 1726.56" stroke="#1E1E1E" stroke-miterlimit="10"/>
    <path d="M 558.457 169.311 C 563.913 352.851 690.492 441.045 739.331 595.542 C 757.081 651.699 763.554 725.155 745.226 782.935 C 732.968 821.582 709.313 842.47 684.596 862.499 C 658.68 883.506 634.183 905.739 622.373 947.091 C 614.73 973.89 613.96 1002.43 613.585 1030.96 C 613.036 1073.15 611.461 1115.32 609.493 1157.43 C 600.467 1350.61 581.773 1542.77 578.588 1736.5" stroke="#1E1E1E" stroke-miterlimit="10"/>
    <path d="M 575.855 162.224 C 581.183 343.943 704.686 436.966 755.786 588.244 C 775.468 646.513 783.076 721.301 765.133 782.63 C 753.086 823.798 728.35 847.707 703.002 870.362 C 677.598 893.071 653.055 916.98 640.87 958.095 C 632.384 986.741 631.67 1017.11 631.176 1047.81 C 630.517 1089.12 629.208 1130.39 627.441 1171.64 C 619.22 1363.98 602.504 1555.49 599.428 1748.26" stroke="#1E1E1E" stroke-miterlimit="10"/>
    <path d="M 593.156 154.188 C 598.631 339.47 725.566 436.597 776.081 592.546 C 795.131 651.368 802.034 725.14 783.862 786.43 C 771.357 828.627 746.823 854.186 721.438 879.282 C 694.881 905.526 669.504 932.47 657.457 977.385 C 650.262 1004.22 649.154 1032.39 648.815 1060.82 C 648.284 1104.78 646.92 1148.73 645.218 1192.65 C 637.857 1382.39 623.476 1571.51 620.647 1761.59" stroke="#1E1E1E" stroke-miterlimit="10"/>
    <path d="M 610.375 145.349 C 615.959 332.833 744.167 434.579 795.332 592.89 C 814.437 652.016 821.092 724.93 803.955 786.827 C 791.505 831.781 766.074 861.087 739.92 889.1 C 713.848 917.02 688.188 946.457 675.884 991.372 C 658.509 1054.8 665.705 1133.7 663.544 1200.63 C 657.347 1392.59 644.723 1584.04 642.187 1776.25" stroke="#1E1E1E" stroke-miterlimit="10"/>
    <path d="M 627.535 135.822 C 633.275 324.046 760.778 430.818 813.316 589.34 C 834.353 652.807 841.42 730.854 821.353 796.907 C 808.134 840.397 783.39 870.455 758.435 899.668 C 732.308 930.254 706.795 961.697 693.987 1007.96 C 675.761 1073.76 683.277 1154.92 681.391 1224.45 C 676.246 1413.7 666.094 1602.63 663.988 1792.05" stroke="#1E1E1E" stroke-miterlimit="10"/>
    <path d="M 644.648 125.767 C 650.69 319.968 783.677 431.24 835.134 597.481 C 854.414 659.76 859.723 733.506 841.533 797.738 C 828.25 844.633 802.783 878.134 776.976 910.857 C 750.117 944.9 723.679 980.024 710.844 1029.53 C 694.449 1092.77 700.948 1169.12 699.603 1235.37 C 695.712 1426.54 687.665 1617.5 686.008 1808.76" stroke="#1E1E1E" stroke-miterlimit="10"/>
    <path d="M 661.719 115.29 C 667.898 308.937 798.258 425.539 851.994 589.933 C 873.278 655.036 879.824 730.313 861.826 798.754 C 848.607 849.013 822.032 886.302 795.529 922.482 C 769 958.688 742.562 995.99 729.233 1046.21 C 711.299 1113.78 718.467 1194.44 717.424 1265.47 C 714.686 1452.37 709.285 1639.18 708.159 1826.14" stroke="#1E1E1E" stroke-miterlimit="10"/>
    <path d="M 678.766 104.563 C 685.311 304.438 821.044 425.817 873.865 598.062 C 893.905 663.415 898.793 738.098 880.557 805.55 C 866.743 856.666 840.369 896.053 814.096 934.423 C 787.841 972.781 761.449 1012.19 747.635 1063.3 C 729.527 1130.27 736.063 1207.82 735.523 1278.13 C 734.077 1466.75 731.019 1655.33 730.433 1843.97" stroke="#1E1E1E" stroke-miterlimit="10"/>
    <path d="M 695.805 93.69 C 702.515 293.156 835.786 419.879 890.795 590.474 C 913.388 660.552 919.448 739.536 899.299 812.464 C 884.908 864.557 858.745 905.949 832.691 946.483 C 806.656 986.991 780.383 1028.37 766.083 1080.5 C 746.658 1151.33 753.597 1234.04 753.514 1308.59 C 753.313 1493.05 752.81 1677.53 752.791 1861.99" stroke="#1E1E1E" stroke-miterlimit="10"/>
    <path d="M 712.828 82.818 C 719.932 286.968 856.526 418.52 911.379 594.71 C 932.956 664.01 938.302 739.972 919.984 812.029 C 905.639 868.45 878.332 914.024 851.253 958.57 C 824.174 1003.1 796.857 1048.72 782.521 1105.11 C 764.157 1177.33 771.105 1259.2 771.554 1334.56 C 772.634 1516.39 774.575 1698.22 775.097 1880.07" stroke="#1E1E1E" stroke-miterlimit="10"/>
    <path d="M 729.887 72.078 C 737.265 279.25 875.186 415.684 930.836 594.988 C 953.182 666.979 957.998 744.327 938.709 819.009 C 923.888 876.407 896.663 923.974 869.831 970.499 C 842.999 1017.02 815.765 1064.6 800.953 1121.99 C 782.507 1193.44 788.576 1272.86 789.519 1347.61 C 791.826 1531.04 796.33 1714.41 797.383 1897.88" stroke="#1E1E1E" stroke-miterlimit="10"/>
    <path d="M 746.949 61.615 C 754.584 271.426 894.007 413.164 950.123 595.279 C 972.442 667.705 977.422 744.274 958.921 819.656 C 943.926 880.761 915.986 931.918 888.386 982.137 C 859.851 1034.05 830.868 1087.15 816.303 1150.9 C 799.844 1222.96 806.188 1302.12 807.671 1376.71 C 811.241 1556.26 818.024 1735.64 819.544 1915.27" stroke="#1E1E1E" stroke-miterlimit="10"/>
    <path d="M 764.07 51.546 C 768.217 163.715 813.688 258.454 857.766 346.938 C 897.533 426.78 941.703 505.117 969.506 595.581 C 991.815 668.152 996.804 744.431 979.154 820.064 C 964.068 884.732 935.213 939.569 906.935 993.298 C 878.657 1047.03 849.802 1101.87 834.715 1166.53 C 818.018 1238.1 823.602 1314.64 825.515 1388.79 C 830.184 1569.9 839.604 1750.69 841.572 1931.95" stroke="#1E1E1E" stroke-miterlimit="10"/>
    <path d="M 781.227 42.034 C 785.41 153.714 830.221 248.902 873.687 337.571 C 914.451 420.737 960.032 502.083 988.694 595.898 C 1011.63 670.99 1016.33 748.404 997.748 826.57 C 982.167 892.082 953.477 948.49 925.437 1003.88 C 897.397 1059.27 868.707 1115.68 853.126 1181.19 C 835.174 1256.68 841.143 1337.39 843.724 1415.66 C 849.583 1593.1 861.053 1770.08 863.351 1947.76" stroke="#1E1E1E" stroke-miterlimit="10"/>
    <path d="M 798.453 33.192 C 802.701 145.216 847.484 241.327 890.721 330.722 C 932.694 417.504 979.995 502.412 1009.15 600.318 C 1030.95 673.536 1035.19 748.64 1018.16 824.656 C 1002.57 894.258 972.818 954.506 943.927 1013.71 C 915.035 1072.93 885.283 1133.16 869.693 1202.78 C 853.728 1274.03 858.57 1348.28 861.308 1421.85 C 868.009 1602.19 882.281 1781.79 884.899 1962.44" stroke="#1E1E1E" stroke-miterlimit="10"/>
    <path d="M 815.754 25.157 C 819.974 136.455 864.089 232.659 906.667 321.961 C 948.484 409.654 995.465 495.024 1025.8 592.718 C 1049.93 670.422 1055.2 749.169 1036.58 830.515 C 1020.52 900.685 990.989 962.133 962.363 1022.63 C 933.737 1083.13 904.204 1144.58 888.147 1214.75 C 870.983 1289.75 876.155 1368.1 879.551 1445.59 C 887.296 1622.48 903.362 1798.43 906.108 1975.77" stroke="#1E1E1E" stroke-miterlimit="10"/>
    <path d="M 833.141 18.072 C 836.949 118.551 873.466 206.679 911.073 288.737 C 948.276 369.911 989.764 447.286 1023.1 532.049 C 1046.5 591.584 1068.03 658.574 1068.04 728.414 C 1068.06 787.856 1054.79 845.834 1036.51 898.482 C 999.468 1005.19 941.273 1095 911.192 1207 C 880.616 1320.81 896.078 1451.08 903.877 1569.44 C 913.059 1708.67 924.731 1847.57 926.946 1987.53" stroke="#1E1E1E" stroke-miterlimit="10"/>
    <path d="M 850.633 12.067 C 854.395 112.374 890.839 200.752 928.107 282.93 C 966.483 367.535 1009.52 448.076 1043.67 536.547 C 1066.71 596.227 1087.23 662.623 1086.92 732.186 C 1086.65 791.681 1073.08 849.593 1054.94 902.425 C 1017.69 1010.97 959.955 1103.37 929.407 1216.92 C 898.849 1330.52 913.524 1458.34 922.001 1576.4 C 932.071 1716.61 945.189 1856.37 947.359 1997.47" stroke="#1E1E1E" stroke-miterlimit="10"/>
    <path d="M 868.234 7.278 C 872.043 110.778 910.821 202.363 949.279 286.968 C 986.501 368.855 1027.65 447.378 1060.88 532.919 C 1084.81 594.513 1106.67 663.574 1105.77 735.644 C 1105.03 795.06 1091.23 852.695 1073.22 905.514 C 1035.78 1015.4 978.491 1110.01 947.604 1224.74 C 916.542 1340.1 931.244 1468.85 940.555 1588.65 C 951.339 1727.38 965.345 1865.59 967.304 2005.39" stroke="#1E1E1E" stroke-miterlimit="10"/>
    <path d="M 885.969 3.848 C 889.685 107.625 928.867 199.764 967.26 284.686 C 1004.67 367.418 1045.97 446.824 1079.4 533.171 C 1103.3 594.896 1125.28 664.01 1124.38 736.186 C 1123.64 795.787 1109.68 853.58 1091.76 906.649 C 1054.04 1018.41 996.665 1115.26 965.457 1231.78 C 934.524 1347.28 948.887 1475.58 958.747 1595.38 C 970.135 1733.75 985.066 1871.49 986.714 2011.08" stroke="#1E1E1E" stroke-miterlimit="10"/>
    <path d="M 903.84 1.895 C 907.355 104.933 946.326 196.611 984.271 281.07 C 1022.73 366.665 1065.49 448.684 1099.53 538.277 C 1122.01 597.455 1142.8 663.06 1142.79 731.884 C 1142.79 793.358 1128.21 853.17 1109.8 907.863 C 1072.02 1020.12 1015.26 1118.04 983.749 1234.87 C 952.313 1351.43 966.594 1481.23 977.03 1602.15 C 988.867 1739.31 1004.35 1875.77 1005.54 2014.3" stroke="#1E1E1E" stroke-miterlimit="10"/>
    <path d="M 921.863 1.499 C 925.635 104.379 964.624 196.083 1002.38 280.595 C 1040.74 366.48 1083.37 448.855 1117.38 538.659 C 1139.7 597.614 1160.79 663.337 1160.79 731.91 C 1160.79 793.081 1145.92 852.814 1127.69 907.256 C 1089.9 1020.14 1033.48 1119.1 1001.86 1236.43 C 970.455 1352.91 984.37 1482.17 994.971 1602.99 C 1006.99 1740.08 1022.81 1876.4 1023.69 2014.93" stroke="#1E1E1E" stroke-miterlimit="10"/>
    <path d="M 939.934 1.499 C 944.731 104.102 982.868 195.608 1020.25 280.529 C 1057.97 366.243 1099.8 448.578 1133.3 538.026 C 1155.26 596.65 1177.05 663.271 1177.08 731.382 C 1177.1 792.184 1161.63 852.524 1143.73 906.688 C 1106.45 1019.5 1051.23 1119.07 1019.88 1236.12 C 988.516 1353.2 1002.11 1481.22 1012.57 1602.63 C 1024.4 1739.75 1039.87 1876.16 1041 2014.66" stroke="#1E1E1E" stroke-miterlimit="10"/>
    <path d="M 957.996 1.499 C 963.498 103.653 1000.56 194.961 1037.34 280.252 C 1074.18 365.715 1115 447.971 1147.77 536.983 C 1169.27 595.41 1191.33 662.624 1191.36 730.287 C 1191.4 790.785 1175.65 851.56 1158.16 905.619 C 1121.67 1018.4 1067.87 1118.65 1037.07 1235.41 C 1006.05 1353.03 1019.27 1480.07 1029.53 1601.95 C 1041.08 1739.13 1056.13 1875.63 1057.44 2014.11" stroke="#1E1E1E" stroke-miterlimit="10"/>
    <path d="M 976.066 1.511 C 981.98 103.058 1017.77 194.168 1053.72 279.763 C 1089.49 364.922 1129.11 447.033 1160.91 535.544 C 1181.89 593.905 1203.79 661.422 1203.85 728.65 C 1203.89 788.884 1188.18 849.95 1171.16 904.048 C 1135.68 1016.8 1083.53 1117.8 1053.55 1234.29 C 1023.15 1352.41 1035.95 1478.68 1045.93 1600.92 C 1057.15 1738.18 1071.72 1874.82 1073.13 2013.28" stroke="#1E1E1E" stroke-miterlimit="10"/>
    <path d="M 994.121 1.511 C 1000.25 103.111 1035.07 194.749 1070.32 281.188 C 1104 363.774 1141.04 443.722 1171.27 529.158 C 1192.78 589.973 1215.57 661.198 1214.53 731.038 C 1213.66 789.386 1199.16 848.076 1183.16 900.948 C 1148.78 1014.58 1097.91 1117.09 1068.97 1234.27 C 1040.03 1351.47 1052.11 1475.71 1061.59 1596.7 C 1072.43 1735.03 1086.65 1872.76 1088.12 2012.2" stroke="#1E1E1E" stroke-miterlimit="10"/>
    <path d="M 1012.18 1.511 C 1018.24 102.28 1051.42 193.667 1085.47 280.344 C 1117.74 362.521 1153.29 442.23 1182.21 527.086 C 1202.99 588.059 1224.91 659.113 1223.9 728.505 C 1223.05 786.707 1209.07 845.424 1193.66 898.559 C 1160.71 1012.21 1111.9 1115.59 1084.19 1232.51 C 1056.32 1350.1 1067.92 1474.01 1077.01 1595.13 C 1087.4 1733.57 1101 1871.46 1102.47 2010.93" stroke="#1E1E1E" stroke-miterlimit="10"/>
    <path d="M 1030.23 1.511 C 1041.38 193.39 1137.02 355.567 1192.2 524.725 C 1212.17 585.948 1232.92 656.607 1231.96 725.576 C 1231.16 783.672 1217.86 842.336 1203.12 895.815 C 1171.78 1009.49 1125.19 1113.77 1098.87 1230.44 C 1072.26 1348.41 1083.34 1472.12 1091.99 1593.31 C 1101.89 1731.88 1114.83 1869.95 1116.25 2009.44" stroke="#1E1E1E" stroke-miterlimit="10"/>
    <path d="M 1048.29 1.511 C 1058.59 191.239 1149 353.139 1201.38 522.125 C 1220.46 583.679 1239.82 653.743 1238.93 722.33 C 1238.17 780.347 1225.71 838.906 1211.7 892.767 C 1182.12 1006.49 1137.91 1111.68 1113.13 1228.11 C 1087.94 1346.44 1098.48 1470.07 1106.65 1591.27 C 1116.01 1729.98 1128.26 1868.24 1129.59 2007.78" stroke="#1E1E1E" stroke-miterlimit="10"/>
    <path d="M 1066.34 1.499 C 1075.56 188.931 1160.56 350.594 1209.9 519.329 C 1228.01 581.252 1245.79 650.604 1244.97 718.808 C 1244.28 776.772 1232.76 835.186 1219.54 889.482 C 1191.84 1003.27 1150.13 1109.4 1127.01 1225.61 C 1103.4 1344.27 1113.36 1467.9 1121.02 1589.08 C 1129.8 1727.93 1141.32 1866.4 1142.51 2005.99" stroke="#1E1E1E" stroke-miterlimit="10"/>
    <path d="M 1084.39 1.499 C 1092.33 186.543 1171.77 348.008 1217.85 516.373 C 1234.91 578.705 1250.97 647.226 1250.23 715.06 C 1249.61 772.999 1239.13 831.227 1226.75 885.986 C 1201.02 999.857 1161.94 1106.93 1140.56 1222.93 C 1118.64 1341.91 1128 1465.61 1135.13 1586.75 C 1143.32 1725.76 1154.07 1864.42 1155.12 2004.07" stroke="#1E1E1E" stroke-miterlimit="10"/>
    <path d="M 1102.43 1.499 C 1108.96 184.075 1182.73 345.382 1225.37 513.299 C 1241.3 576.04 1255.54 643.677 1254.9 711.155 C 1254.35 769.093 1244.96 827.111 1233.48 882.344 C 1209.79 996.307 1173.43 1104.31 1153.86 1220.13 C 1133.71 1339.41 1142.47 1463.22 1149.04 1584.32 C 1156.6 1723.49 1166.57 1862.36 1167.44 2002.08" stroke="#1E1E1E" stroke-miterlimit="10"/>
    <path d="M 1120.48 1.499 C 1125.56 182.809 1194.46 345.065 1233.43 513.721 C 1247.58 574.971 1259.36 639.533 1259.14 704.544 C 1258.94 762.971 1250.71 821.292 1240.13 877.462 C 1218.46 992.455 1184.53 1102.16 1166.81 1218.77 C 1148.86 1336.89 1156.79 1459.3 1162.69 1578.87 C 1169.62 1719.2 1178.93 1859.25 1179.61 2000.04" stroke="#1E1E1E" stroke-miterlimit="10"/>
    <path d="M 1138.54 1.499 C 1142.07 180.315 1205.11 342.426 1240.41 510.475 C 1266.24 633.45 1267.48 749.09 1246.34 873.622 C 1226.79 988.72 1195.74 1099.35 1179.9 1215.82 C 1163.78 1334.24 1171.09 1456.73 1176.43 1576.31 C 1182.71 1716.81 1191.21 1857.07 1191.69 1997.94" stroke="#1E1E1E" stroke-miterlimit="10"/>
    <path d="M 1156.57 1.486 C 1158.59 177.834 1215.73 339.827 1247.32 507.216 C 1270.34 629.162 1271.11 746.556 1252.48 869.769 C 1235.06 984.999 1206.91 1096.48 1192.94 1212.85 C 1178.67 1331.57 1185.35 1454.1 1190.13 1573.72 C 1195.76 1714.38 1203.44 1854.85 1203.71 1995.83" stroke="#1E1E1E" stroke-miterlimit="10"/>
    <path d="M 1174.62 1.486 C 1175.17 175.433 1226.45 337.32 1254.33 503.983 C 1274.56 624.966 1274.91 743.957 1258.71 865.956 C 1243.39 981.318 1218.16 1093.63 1206.03 1209.92 C 1193.59 1328.95 1199.65 1451.48 1203.88 1571.18 C 1208.86 1711.99 1215.72 1852.66 1215.8 1993.74" stroke="#1E1E1E" stroke-miterlimit="10"/>
    <path d="M 1192.67 1.486 C 1191.87 173.15 1237.35 334.932 1261.54 500.816 C 1279.07 620.968 1279.07 741.292 1265.19 862.222 C 1251.93 977.729 1229.6 1090.81 1219.24 1207.05 C 1208.6 1326.39 1214.02 1448.86 1217.72 1568.7 C 1222.07 1709.67 1228.12 1850.54 1228.01 1991.71" stroke="#1E1E1E" stroke-miterlimit="10"/>
    <path d="M 1210.71 1.486 C 1208.7 170.986 1248.47 332.662 1269.08 497.742 C 1284 617.234 1283.7 738.534 1272.01 858.607 C 1260.75 974.272 1241.27 1088.05 1232.63 1204.28 C 1223.73 1323.93 1228.53 1446.29 1231.7 1566.28 C 1235.42 1707.41 1240.69 1848.45 1240.4 1989.73" stroke="#1E1E1E" stroke-miterlimit="10"/>
    <path d="M 1228.77 1.486 C 1225.74 169.007 1259.94 330.538 1277.1 494.813 C 1289.54 613.843 1289.01 735.723 1279.36 855.163 C 1270.01 970.987 1253.31 1085.41 1246.29 1201.66 C 1239.04 1321.61 1243.22 1443.81 1245.89 1563.99 C 1249.02 1705.26 1253.52 1846.47 1253.08 1987.86" stroke="#1E1E1E" stroke-miterlimit="10"/>
    <path d="M 1246.82 1.486 C 1243.04 165.748 1271.3 325.735 1285.33 487.714 C 1295.71 607.576 1295.23 730.578 1287.43 850.769 C 1279.84 967.675 1265.66 1083.55 1260.18 1200.76 C 1248 1461.42 1267.13 1725.1 1266.11 1986.12" stroke="#1E1E1E" stroke-miterlimit="10"/>
    <path d="M 1264.87 1.486 C 1260.55 164.204 1283.74 323.967 1294.73 485.194 C 1302.9 604.989 1302.26 727.807 1296.19 847.813 C 1290.26 964.877 1278.68 1081.26 1274.57 1198.53 C 1265.42 1459.87 1280.73 1722.96 1279.54 1984.52" stroke="#1E1E1E" stroke-miterlimit="10"/>
    <path d="M 1282.93 1.486 C 1278.37 162.885 1296.76 322.41 1304.99 482.911 C 1317.25 722.067 1295.33 958.003 1289.44 1196.54 C 1282.98 1458.38 1294.75 1721.12 1293.49 1983.08" stroke="#1E1E1E" stroke-miterlimit="10"/>
    <path d="M 1300.99 1.486 C 1296.51 161.803 1310.43 321.064 1316.21 480.906 C 1324.83 719.494 1308.63 956.538 1304.85 1194.82 C 1300.68 1456.99 1309.25 1719.58 1308.01 1981.83" stroke="#1E1E1E" stroke-miterlimit="10"/>
    <path d="M 1319.05 1.486 C 1315.03 160.971 1324.83 319.942 1328.52 479.23 C 1334.04 717.541 1322.96 955.258 1320.85 1193.45 C 1318.53 1455.84 1324.28 1718.39 1323.16 1980.82" stroke="#1E1E1E" stroke-miterlimit="10"/>
    <path d="M 1337.11 1.486 C 1333.95 160.378 1340.05 319.071 1342.06 477.897 C 1345.07 716.129 1338.41 954.216 1337.53 1192.43 C 1336.56 1454.96 1339.92 1717.52 1339.04 1980.06" stroke="#1E1E1E" stroke-miterlimit="10"/>
    <path d="M 1355.18 1.486 C 1353.3 159.995 1356.17 318.464 1356.94 476.974 C 1358.1 715.258 1355.13 953.53 1354.97 1191.83 C 1354.8 1454.4 1356.24 1716.99 1355.71 1979.57" stroke="#1E1E1E" stroke-miterlimit="10"/>
    <path d="M 1373.25 1.499 C 1373.15 159.823 1373.27 318.161 1373.3 476.485 C 1373.37 977.452 1373.31 1478.43 1373.25 1979.4" stroke="#1E1E1E" stroke-miterlimit="10"/>
    <path d="M 1 1.499 C 4.314 104.616 43.87 196.927 81.797 281.387 C 119.331 364.976 160.709 445.293 194.443 532.326 C 218.226 593.681 240.938 663.073 239.95 734.998 C 239.144 793.701 222.153 848.209 200.311 896.739 C 153.193 1001.41 83.317 1083.27 43.559 1195.11 C -0.034 1317.75 28.976 1460.51 52.86 1585.72 C 83.747 1747.62 128.952 1911.26 131.533 2080.97" stroke="#1E1E1E" stroke-miterlimit="10"/>
    <path d="M 1373.23 27.519 C 1263.97 26.991 1154.71 27.809 1045.46 28.033 C 960.612 28.205 878.68 21.423 797.178 61.35 C 718.147 100.064 644.756 160.614 563.959 192.203 C 364.849 270.026 196.572 38.114 2.195 27.888" stroke="#1E1E1E" stroke-miterlimit="10"/>
    <path d="M 37.441 4.943 C 41.076 108.074 79.9 199.765 118.083 284.132 C 155.351 366.481 196.509 445.478 229.932 531.323 C 253.798 592.626 276.611 662.559 275.476 734.51 C 274.542 793.28 257.698 848.223 235.709 896.74 C 189.296 999.145 120.015 1078.18 80.953 1187.83 C 37.203 1310.65 66.827 1453.71 89.723 1579.52 C 119.264 1741.81 161.127 1904.97 165.759 2074.05" stroke="#1E1E1E" stroke-miterlimit="10"/>
    <path d="M 55.871 8.887 C 59.496 108.983 96.05 197.771 133.107 279.869 C 171.501 364.936 214.527 445.965 248.884 534.713 C 271.907 594.182 293.622 661.739 293.045 731.329 C 292.56 790.257 275.789 845.846 253.8 894.456 C 207.808 996.122 138.252 1073.26 99.666 1182.27 C 56.851 1303.2 85.861 1444.59 107.521 1568.79 C 136.055 1732.39 176.426 1896.32 181.653 2066.11" stroke="#1E1E1E" stroke-miterlimit="10"/>
    <path d="M 74.418 14.14 C 78.116 114.5 114.743 203.116 152.149 285.214 C 189.425 367.022 230.904 445.069 264.529 530.255 C 288.083 589.935 310.2 657.69 310.182 727.82 C 310.164 789.202 292.679 846.824 269.234 896.938 C 223.627 994.421 155.774 1068.81 118.561 1174.74 C 76.112 1295.58 106.01 1440.43 126.836 1564.54 C 153.979 1726.23 191.385 1888.29 196.822 2055.56" stroke="#1E1E1E" stroke-miterlimit="10"/>
    <path d="M 93.074 20.552 C 96.846 121.849 134.022 210.65 172.105 293.143 C 209.656 374.476 251.584 452.075 284.64 537.564 C 307.023 595.463 327.767 660.948 327.337 728.651 C 326.962 787.816 310.264 843.815 287.634 892.161 C 243.162 987.19 176.517 1058.4 139.387 1160.94 C 95.509 1282.11 125.582 1429.25 145.52 1554.68 C 171.098 1715.63 205.903 1876.76 211.35 2042.6" stroke="#1E1E1E" stroke-miterlimit="10"/>
    <path d="M 111.832 28.007 C 115.595 129.185 152.826 217.564 191.155 299.622 C 227.526 377.471 267.842 451.824 300.176 533.46 C 323.849 593.246 345.582 661.621 344.126 732.016 C 342.955 788.476 327.291 841.532 305.54 887.688 C 261.654 980.79 195.037 1049.26 158.712 1150.16 C 116.089 1268.57 145.099 1414.25 163.317 1537.32 C 187.301 1699.34 220.029 1861.29 225.329 2027.59" stroke="#1E1E1E" stroke-miterlimit="10"/>
    <path d="M 130.668 36.347 C 134.311 134.661 169.693 220.111 207.071 299.834 C 243.552 377.643 284.344 451.534 316.934 533.025 C 340.085 590.911 361.36 656.911 360.985 725.194 C 360.674 781.879 345.734 835.476 323.855 881.803 C 280.481 973.639 213.241 1039.26 177.795 1139.34 C 136.6 1255.65 165.327 1402.87 181.924 1523.85 C 204.014 1684.94 233.884 1846.01 238.8 2010.76" stroke="#1E1E1E" stroke-miterlimit="10"/>
    <path d="M 149.582 45.451 C 153.601 154.822 196.911 248.096 239.543 334.971 C 280.784 419.009 327.252 500.895 356.336 595.7 C 379.185 670.211 385.346 749.578 361.865 825.421 C 342.933 886.579 309.556 934.991 277.543 982.202 C 245.53 1029.41 212.153 1077.82 193.221 1138.98 C 170.061 1213.82 178.162 1295.45 185.449 1374.13 C 204.573 1580.64 246.253 1783.44 251.865 1992.36" stroke="#1E1E1E" stroke-miterlimit="10"/>
    <path d="M 168.562 55.189 C 172.536 164.969 216.459 257.768 259.668 344.379 C 299.92 425.052 344.978 503.878 373.11 595.383 C 395.3 667.546 401.946 745.342 379.71 819.299 C 361.502 879.85 328.198 926.903 296.231 972.649 C 264.263 1018.38 230.959 1065.43 212.751 1126 C 190.094 1201.34 199.321 1286.16 206.068 1365.09 C 223.398 1567.89 259.86 1767.93 264.593 1972.75" stroke="#1E1E1E" stroke-miterlimit="10"/>
    <path d="M 187.574 65.415 C 194.989 274.275 333.863 413.902 389.952 595.08 C 411.502 664.682 418.331 741.357 397.468 812.966 C 380.019 872.87 346.862 918.432 314.94 962.568 C 283.019 1006.7 249.852 1052.28 232.413 1112.17 C 211.724 1183.2 219.926 1263.37 225.281 1337.7 C 240.057 1542.8 273.178 1745.45 277.032 1952.07" stroke="#1E1E1E" stroke-miterlimit="10"/>
    <path d="M 206.625 75.996 C 213.765 281.716 351.421 417.002 406.632 594.789 C 428.145 664.088 434.974 741.146 413.415 812.279 C 396.287 868.792 364.521 911.081 333.68 952.157 C 301.813 994.591 268.83 1038.57 252.196 1097.79 C 232.138 1169.21 241.11 1252.73 245.834 1327.31 C 258.586 1528.6 286.507 1728.25 289.29 1930.74" stroke="#1E1E1E" stroke-miterlimit="10"/>
    <path d="M 225.695 86.803 C 232.561 289.792 368.697 419.642 423.413 594.526 C 444.881 663.139 451.591 741.305 429.428 811.514 C 412.703 864.504 382.081 903.667 352.421 941.536 C 322.778 979.405 292.138 1018.59 275.413 1071.56 C 253.442 1141.17 261.608 1224.74 265.288 1298.65 C 275.404 1502.26 299.663 1704.51 301.412 1908.93" stroke="#1E1E1E" stroke-miterlimit="10"/>
    <path d="M 244.77 97.69 C 251.342 297.657 386.133 422.519 440.052 594.249 C 460.796 660.329 467.91 736.991 447.138 804.997 C 431.164 857.314 400.771 894.708 371.174 930.822 C 341.587 966.923 311.185 1004.36 295.211 1056.65 C 273.688 1127.11 282.706 1213.57 285.681 1287.94 C 293.673 1487.7 312.851 1686.65 313.492 1886.96" stroke="#1E1E1E" stroke-miterlimit="10"/>
    <path d="M 263.848 108.521 C 270.155 305.559 403.481 425.381 456.842 593.971 C 477 657.649 484.077 732.503 464.816 798.569 C 449.747 850.253 419.419 885.958 389.932 920.172 C 360.381 954.453 330.245 990.105 315.049 1041.78 C 295.577 1107.96 303.486 1188.96 305.354 1258.99 C 310.746 1461.09 326.034 1662.7 325.604 1865.09" stroke="#1E1E1E" stroke-miterlimit="10"/>
    <path d="M 282.91 119.183 C 288.961 313.397 420.904 428.06 473.515 593.694 C 493.536 656.713 500.869 732.543 480.802 797.673 C 465.88 846.071 437.145 878.438 408.683 909.683 C 379.133 942.129 349.307 975.974 334.898 1027.1 C 316.196 1093.5 324.371 1179.09 325.524 1248.95 C 328.801 1447.19 339.265 1645.21 337.828 1843.58" stroke="#1E1E1E" stroke-miterlimit="10"/>
    <path d="M 301.934 129.515 C 307.756 320.971 438.271 430.778 490.351 593.391 C 510.234 655.472 517.768 733.15 496.887 796.947 C 482.176 841.902 454.667 871.313 427.395 899.523 C 400.152 927.707 372.514 957.066 357.904 1002.1 C 336.83 1067.04 345.051 1151.03 345.344 1220.64 C 346.195 1421.35 352.631 1622 350.214 1822.74" stroke="#1E1E1E" stroke-miterlimit="10"/>
    <path d="M 320.918 139.385 C 326.548 328.295 455.717 433.141 507.101 593.088 C 526.381 653.098 534.089 728.783 514.654 791.049 C 500.757 835.595 473.321 863.396 446.096 889.799 C 418.871 916.202 391.435 944.017 377.538 988.549 C 368.045 1018.96 366.974 1050.75 366.562 1083.58 C 366.022 1126.49 365.464 1169.4 365.207 1212.32 C 364.063 1409.13 366.068 1606 362.864 1802.79" stroke="#1E1E1E" stroke-miterlimit="10"/>
    <path d="M 339.852 148.674 C 345.344 335.301 473.095 435.357 524.067 592.731 C 542.852 650.736 550.477 724.93 532.425 785.455 C 519.206 829.789 492.072 855.954 464.746 880.668 C 437.521 905.29 410.121 931.587 397.067 975.882 C 378.749 1038.02 386.173 1119.59 385.093 1185.64 C 381.834 1385.11 379.765 1584.61 375.819 1784.05" stroke="#1E1E1E" stroke-miterlimit="10"/>
    <path d="M 358.711 157.237 C 364.121 341.766 490.608 437.27 540.958 592.375 C 559.715 650.155 567.506 725.233 548.611 785.296 C 535.493 826.991 509.641 849.911 483.358 872.25 C 455.867 895.618 429.1 919.817 416.494 964.323 C 408.96 990.937 408.227 1018.92 407.797 1047.2 C 407.12 1091.48 405.728 1135.78 404.584 1180.04 C 399.558 1375.63 393.571 1571.16 389.177 1766.78" stroke="#1E1E1E" stroke-miterlimit="10"/>
    <path d="M 377.492 164.943 C 382.774 346.028 505.847 437.534 556.81 588.087 C 576.245 645.497 584.584 721.486 566.175 781.839 C 553.716 822.664 527.918 844.343 501.91 864.689 C 475.839 885.089 450.252 906.768 437.646 947.539 C 428.858 975.948 428.537 1006.27 427.961 1036.82 C 427.183 1078.25 425.718 1119.68 424.308 1161.07 C 417.616 1357.83 407.748 1554.37 403.015 1751.26" stroke="#1E1E1E" stroke-miterlimit="10"/>
    <path d="M 396.176 171.646 C 401.614 354.658 527.789 441.44 576.5 595.331 C 594.068 650.815 601.144 725.352 582.506 782.38 C 569.964 820.764 545.558 839.883 520.383 858.092 C 493.982 877.185 468.716 897.584 456.65 938.752 C 448.823 965.484 448.448 993.972 447.972 1022.46 C 447.267 1064.64 445.491 1106.84 443.752 1148.96 C 435.659 1345.28 422.174 1541.13 417.378 1737.72" stroke="#1E1E1E" stroke-miterlimit="10"/>
    <path d="M 414.762 177.214 C 420.227 357.442 543.153 440.886 592.459 590.95 C 610.74 646.58 618.632 721.895 600.259 779.886 C 588.211 817.901 563.769 835.766 538.814 852.616 C 513.703 869.558 489.673 887.371 477.369 925.346 C 468.123 953.86 468.16 985.211 467.565 1015.99 C 466.741 1058.72 464.91 1101.43 462.868 1144.06 C 453.558 1338.3 436.952 1531.8 432.412 1726.49" stroke="#1E1E1E" stroke-miterlimit="10"/>
    <path d="M 433.219 181.515 C 438.803 359.341 558.461 439.975 608.664 586.463 C 628.081 643.122 637.198 723.834 616.445 782.723 C 604.123 817.689 580.963 833.628 557.143 848.38 C 531.94 863.99 508.102 881.024 496.293 919.065 C 487.138 948.568 487.386 980.157 486.809 1011.77 C 486.077 1051.59 484.328 1091.4 482.268 1131.13 C 472.153 1326.85 452.141 1521.47 448.086 1717.82" stroke="#1E1E1E" stroke-miterlimit="10"/>
    <path d="M 451.555 184.419 C 457.34 361.929 576.119 439.87 626.24 585.791 C 645.712 642.476 654.811 723.598 633.976 782.499 C 621.8 816.925 599.051 831.861 575.387 845.531 C 550.331 860.019 526.923 876.037 515.27 913.55 C 506.097 943.067 506.243 974.945 505.767 1006.6 C 505.172 1046.43 503.442 1086.26 501.273 1125.97 C 490.617 1321.52 467.74 1515.63 464.554 1711.97" stroke="#1E1E1E" stroke-miterlimit="10"/>
    <path d="M 469.734 185.792 C 475.932 365.201 596.13 440.464 645.271 588.919 C 663.507 644.007 671.197 719.152 653.583 776.879 C 641.966 814.959 618.915 830.173 593.521 844.212 C 568.236 858.185 544.874 873.531 533.459 911.545 C 525.238 938.924 524.624 968.995 524.341 998.327 C 523.956 1038.4 522.519 1078.42 520.359 1118.39 C 509.684 1315.65 483.823 1511.05 481.855 1709.25" stroke="#1E1E1E" stroke-miterlimit="10"/>
    <path d="M 487.762 185.475 C 493.721 363.024 612.006 439.514 662.118 585.33 C 681.69 642.278 690.679 723.492 669.716 782.618 C 657.604 816.766 635.167 831.333 611.603 844.568 C 586.63 858.594 563.552 874.256 551.953 911.492 C 542.753 941.035 542.67 973.191 542.341 1004.92 C 541.92 1044.84 540.317 1084.73 538.111 1124.52 C 527.291 1319.86 501.997 1513.44 500.02 1709.74" stroke="#1E1E1E" stroke-miterlimit="10"/>
    <path d="M 505.629 183.534 C 511.323 361.109 630.413 439.975 680.552 586.054 C 700.051 642.858 708.949 723.333 688.141 782.327 C 675.975 816.831 653.318 832.388 629.745 846.717 C 604.781 861.891 581.474 878.556 569.811 916.109 C 560.666 945.546 560.629 977.319 560.226 1008.92 C 559.713 1048.86 558.066 1088.79 555.896 1128.61 C 545.259 1323.63 521.402 1517.05 518.83 1712.96" stroke="#1E1E1E" stroke-miterlimit="10"/>
    <path d="M 523.359 180.091 C 528.889 358.128 648.895 439.883 699.153 586.688 C 718.67 643.703 727.412 723.532 706.751 782.763 C 694.502 817.861 671.616 834.764 647.97 850.518 C 622.951 867.17 599.387 885.194 587.642 923.314 C 578.552 952.804 578.497 984.327 578.048 1015.94 C 577.481 1055.88 575.833 1095.78 573.736 1135.61 C 563.465 1330.16 541.192 1523.28 538.235 1718.6" stroke="#1E1E1E" stroke-miterlimit="10"/>
    <path d="M 540.977 175.313 C 546.433 355.911 669.725 440.634 719.132 591.174 C 737.55 647.304 744.984 721.644 726.757 780.15 C 714.866 818.322 690.927 837.573 666.265 855.835 C 641.465 874.202 617.92 893.387 605.772 931.52 C 596.663 960.1 596.352 991.385 595.848 1022.22 C 595.144 1065.03 593.542 1107.78 591.354 1150.47 C 581.513 1342.67 561.309 1533.69 558.187 1726.56" stroke="#1E1E1E" stroke-miterlimit="10"/>
    <path d="M 558.457 169.311 C 563.913 352.851 690.492 441.045 739.331 595.542 C 757.081 651.699 763.554 725.155 745.226 782.935 C 732.968 821.582 709.313 842.47 684.596 862.499 C 658.68 883.506 634.183 905.739 622.373 947.091 C 614.73 973.89 613.96 1002.43 613.585 1030.96 C 613.036 1073.15 611.461 1115.32 609.493 1157.43 C 600.467 1350.61 581.773 1542.77 578.588 1736.5" stroke="#1E1E1E" stroke-miterlimit="10"/>
    <path d="M 575.855 162.224 C 581.183 343.943 704.686 436.966 755.786 588.244 C 775.468 646.513 783.076 721.301 765.133 782.63 C 753.086 823.798 728.35 847.707 703.002 870.362 C 677.598 893.071 653.055 916.98 640.87 958.095 C 632.384 986.741 631.67 1017.11 631.176 1047.81 C 630.517 1089.12 629.208 1130.39 627.441 1171.64 C 619.22 1363.98 602.504 1555.49 599.428 1748.26" stroke="#1E1E1E" stroke-miterlimit="10"/>
    <path d="M 593.156 154.188 C 598.631 339.47 725.566 436.597 776.081 592.546 C 795.131 651.368 802.034 725.14 783.862 786.43 C 771.357 828.627 746.823 854.186 721.438 879.282 C 694.881 905.526 669.504 932.47 657.457 977.385 C 650.262 1004.22 649.154 1032.39 648.815 1060.82 C 648.284 1104.78 646.92 1148.73 645.218 1192.65 C 637.857 1382.39 623.476 1571.51 620.647 1761.59" stroke="#1E1E1E" stroke-miterlimit="10"/>
    <path d="M 610.375 145.349 C 615.959 332.833 744.167 434.579 795.332 592.89 C 814.437 652.016 821.092 724.93 803.955 786.827 C 791.505 831.781 766.074 861.087 739.92 889.1 C 713.848 917.02 688.188 946.457 675.884 991.372 C 658.509 1054.8 665.705 1133.7 663.544 1200.63 C 657.347 1392.59 644.723 1584.04 642.187 1776.25" stroke="#1E1E1E" stroke-miterlimit="10"/>
    <path d="M 627.535 135.822 C 633.275 324.046 760.778 430.818 813.316 589.34 C 834.353 652.807 841.42 730.854 821.353 796.907 C 808.134 840.397 783.39 870.455 758.435 899.668 C 732.308 930.254 706.795 961.697 693.987 1007.96 C 675.761 1073.76 683.277 1154.92 681.391 1224.45 C 676.246 1413.7 666.094 1602.63 663.988 1792.05" stroke="#1E1E1E" stroke-miterlimit="10"/>
    <path d="M 644.648 125.767 C 650.69 319.968 783.677 431.24 835.134 597.481 C 854.414 659.76 859.723 733.506 841.533 797.738 C 828.25 844.633 802.783 878.134 776.976 910.857 C 750.117 944.9 723.679 980.024 710.844 1029.53 C 694.449 1092.77 700.948 1169.12 699.603 1235.37 C 695.712 1426.54 687.665 1617.5 686.008 1808.76" stroke="#1E1E1E" stroke-miterlimit="10"/>
    <path d="M 661.719 115.29 C 667.898 308.937 798.258 425.539 851.994 589.933 C 873.278 655.036 879.824 730.313 861.826 798.754 C 848.607 849.013 822.032 886.302 795.529 922.482 C 769 958.688 742.562 995.99 729.233 1046.21 C 711.299 1113.78 718.467 1194.44 717.424 1265.47 C 714.686 1452.37 709.285 1639.18 708.159 1826.14" stroke="#1E1E1E" stroke-miterlimit="10"/>
    <path d="M 678.766 104.563 C 685.311 304.438 821.044 425.817 873.865 598.062 C 893.905 663.415 898.793 738.098 880.557 805.55 C 866.743 856.666 840.369 896.053 814.096 934.423 C 787.841 972.781 761.449 1012.19 747.635 1063.3 C 729.527 1130.27 736.063 1207.82 735.523 1278.13 C 734.077 1466.75 731.019 1655.33 730.433 1843.97" stroke="#1E1E1E" stroke-miterlimit="10"/>
    <path d="M 695.805 93.69 C 702.515 293.156 835.786 419.879 890.795 590.474 C 913.388 660.552 919.448 739.536 899.299 812.464 C 884.908 864.557 858.745 905.949 832.691 946.483 C 806.656 986.991 780.383 1028.37 766.083 1080.5 C 746.658 1151.33 753.597 1234.04 753.514 1308.59 C 753.313 1493.05 752.81 1677.53 752.791 1861.99" stroke="#1E1E1E" stroke-miterlimit="10"/>
    <path d="M 712.828 82.818 C 719.932 286.968 856.526 418.52 911.379 594.71 C 932.956 664.01 938.302 739.972 919.984 812.029 C 905.639 868.45 878.332 914.024 851.253 958.57 C 824.174 1003.1 796.857 1048.72 782.521 1105.11 C 764.157 1177.33 771.105 1259.2 771.554 1334.56 C 772.634 1516.39 774.575 1698.22 775.097 1880.07" stroke="#1E1E1E" stroke-miterlimit="10"/>
    <path d="M 729.887 72.078 C 737.265 279.25 875.186 415.684 930.836 594.988 C 953.182 666.979 957.998 744.327 938.709 819.009 C 923.888 876.407 896.663 923.974 869.831 970.499 C 842.999 1017.02 815.765 1064.6 800.953 1121.99 C 782.507 1193.44 788.576 1272.86 789.519 1347.61 C 791.826 1531.04 796.33 1714.41 797.383 1897.88" stroke="#1E1E1E" stroke-miterlimit="10"/>
    <path d="M 746.949 61.615 C 754.584 271.426 894.007 413.164 950.123 595.279 C 972.442 667.705 977.422 744.274 958.921 819.656 C 943.926 880.761 915.986 931.918 888.386 982.137 C 859.851 1034.05 830.868 1087.15 816.303 1150.9 C 799.844 1222.96 806.188 1302.12 807.671 1376.71 C 811.241 1556.26 818.024 1735.64 819.544 1915.27" stroke="#1E1E1E" stroke-miterlimit="10"/>
    <path d="M 764.07 51.546 C 768.217 163.715 813.688 258.454 857.766 346.938 C 897.533 426.78 941.703 505.117 969.506 595.581 C 991.815 668.152 996.804 744.431 979.154 820.064 C 964.068 884.732 935.213 939.569 906.935 993.298 C 878.657 1047.03 849.802 1101.87 834.715 1166.53 C 818.018 1238.1 823.602 1314.64 825.515 1388.79 C 830.184 1569.9 839.604 1750.69 841.572 1931.95" stroke="#1E1E1E" stroke-miterlimit="10"/>
    <path d="M 781.227 42.034 C 785.41 153.714 830.221 248.902 873.687 337.571 C 914.451 420.737 960.032 502.083 988.694 595.898 C 1011.63 670.99 1016.33 748.404 997.748 826.57 C 982.167 892.082 953.477 948.49 925.437 1003.88 C 897.397 1059.27 868.707 1115.68 853.126 1181.19 C 835.174 1256.68 841.143 1337.39 843.724 1415.66 C 849.583 1593.1 861.053 1770.08 863.351 1947.76" stroke="#1E1E1E" stroke-miterlimit="10"/>
    <path d="M 798.453 33.192 C 802.701 145.216 847.484 241.327 890.721 330.722 C 932.694 417.504 979.995 502.412 1009.15 600.318 C 1030.95 673.536 1035.19 748.64 1018.16 824.656 C 1002.57 894.258 972.818 954.506 943.927 1013.71 C 915.035 1072.93 885.283 1133.16 869.693 1202.78 C 853.728 1274.03 858.57 1348.28 861.308 1421.85 C 868.009 1602.19 882.281 1781.79 884.899 1962.44" stroke="#1E1E1E" stroke-miterlimit="10"/>
    <path d="M 815.754 25.157 C 819.974 136.455 864.089 232.659 906.667 321.961 C 948.484 409.654 995.465 495.024 1025.8 592.718 C 1049.93 670.422 1055.2 749.169 1036.58 830.515 C 1020.52 900.685 990.989 962.133 962.363 1022.63 C 933.737 1083.13 904.204 1144.58 888.147 1214.75 C 870.983 1289.75 876.155 1368.1 879.551 1445.59 C 887.296 1622.48 903.362 1798.43 906.108 1975.77" stroke="#1E1E1E" stroke-miterlimit="10"/>
    <path d="M 833.141 18.072 C 836.949 118.551 873.466 206.679 911.073 288.737 C 948.276 369.911 989.764 447.286 1023.1 532.049 C 1046.5 591.584 1068.03 658.574 1068.04 728.414 C 1068.06 787.856 1054.79 845.834 1036.51 898.482 C 999.468 1005.19 941.273 1095 911.192 1207 C 880.616 1320.81 896.078 1451.08 903.877 1569.44 C 913.059 1708.67 924.731 1847.57 926.946 1987.53" stroke="#1E1E1E" stroke-miterlimit="10"/>
    <path d="M 850.633 12.067 C 854.395 112.374 890.839 200.752 928.107 282.93 C 966.483 367.535 1009.52 448.076 1043.67 536.547 C 1066.71 596.227 1087.23 662.623 1086.92 732.186 C 1086.65 791.681 1073.08 849.593 1054.94 902.425 C 1017.69 1010.97 959.955 1103.37 929.407 1216.92 C 898.849 1330.52 913.524 1458.34 922.001 1576.4 C 932.071 1716.61 945.189 1856.37 947.359 1997.47" stroke="#1E1E1E" stroke-miterlimit="10"/>
    <path d="M 868.234 7.278 C 872.043 110.778 910.821 202.363 949.279 286.968 C 986.501 368.855 1027.65 447.378 1060.88 532.919 C 1084.81 594.513 1106.67 663.574 1105.77 735.644 C 1105.03 795.06 1091.23 852.695 1073.22 905.514 C 1035.78 1015.4 978.491 1110.01 947.604 1224.74 C 916.542 1340.1 931.244 1468.85 940.555 1588.65 C 951.339 1727.38 965.345 1865.59 967.304 2005.39" stroke="#1E1E1E" stroke-miterlimit="10"/>
    <path d="M 885.969 3.848 C 889.685 107.625 928.867 199.764 967.26 284.686 C 1004.67 367.418 1045.97 446.824 1079.4 533.171 C 1103.3 594.896 1125.28 664.01 1124.38 736.186 C 1123.64 795.787 1109.68 853.58 1091.76 906.649 C 1054.04 1018.41 996.665 1115.26 965.457 1231.78 C 934.524 1347.28 948.887 1475.58 958.747 1595.38 C 970.135 1733.75 985.066 1871.49 986.714 2011.08" stroke="#1E1E1E" stroke-miterlimit="10"/>
    <path d="M 903.84 1.895 C 907.355 104.933 946.326 196.611 984.271 281.07 C 1022.73 366.665 1065.49 448.684 1099.53 538.277 C 1122.01 597.455 1142.8 663.06 1142.79 731.884 C 1142.79 793.358 1128.21 853.17 1109.8 907.863 C 1072.02 1020.12 1015.26 1118.04 983.749 1234.87 C 952.313 1351.43 966.594 1481.23 977.03 1602.15 C 988.867 1739.31 1004.35 1875.77 1005.54 2014.3" stroke="#1E1E1E" stroke-miterlimit="10"/>
    <path d="M 921.863 1.499 C 925.635 104.379 964.624 196.083 1002.38 280.595 C 1040.74 366.48 1083.37 448.855 1117.38 538.659 C 1139.7 597.614 1160.79 663.337 1160.79 731.91 C 1160.79 793.081 1145.92 852.814 1127.69 907.256 C 1089.9 1020.14 1033.48 1119.1 1001.86 1236.43 C 970.455 1352.91 984.37 1482.17 994.971 1602.99 C 1006.99 1740.08 1022.81 1876.4 1023.69 2014.93" stroke="#1E1E1E" stroke-miterlimit="10"/>
    <path d="M 939.934 1.499 C 944.731 104.102 982.868 195.608 1020.25 280.529 C 1057.97 366.243 1099.8 448.578 1133.3 538.026 C 1155.26 596.65 1177.05 663.271 1177.08 731.382 C 1177.1 792.184 1161.63 852.524 1143.73 906.688 C 1106.45 1019.5 1051.23 1119.07 1019.88 1236.12 C 988.516 1353.2 1002.11 1481.22 1012.57 1602.63 C 1024.4 1739.75 1039.87 1876.16 1041 2014.66" stroke="#1E1E1E" stroke-miterlimit="10"/>
    <path d="M 957.996 1.499 C 963.498 103.653 1000.56 194.961 1037.34 280.252 C 1074.18 365.715 1115 447.971 1147.77 536.983 C 1169.27 595.41 1191.33 662.624 1191.36 730.287 C 1191.4 790.785 1175.65 851.56 1158.16 905.619 C 1121.67 1018.4 1067.87 1118.65 1037.07 1235.41 C 1006.05 1353.03 1019.27 1480.07 1029.53 1601.95 C 1041.08 1739.13 1056.13 1875.63 1057.44 2014.11" stroke="#1E1E1E" stroke-miterlimit="10"/>
    <path d="M 976.066 1.511 C 981.98 103.058 1017.77 194.168 1053.72 279.763 C 1089.49 364.922 1129.11 447.033 1160.91 535.544 C 1181.89 593.905 1203.79 661.422 1203.85 728.65 C 1203.89 788.884 1188.18 849.95 1171.16 904.048 C 1135.68 1016.8 1083.53 1117.8 1053.55 1234.29 C 1023.15 1352.41 1035.95 1478.68 1045.93 1600.92 C 1057.15 1738.18 1071.72 1874.82 1073.13 2013.28" stroke="#1E1E1E" stroke-miterlimit="10"/>
    <path d="M 994.121 1.511 C 1000.25 103.111 1035.07 194.749 1070.32 281.188 C 1104 363.774 1141.04 443.722 1171.27 529.158 C 1192.78 589.973 1215.57 661.198 1214.53 731.038 C 1213.66 789.386 1199.16 848.076 1183.16 900.948 C 1148.78 1014.58 1097.91 1117.09 1068.97 1234.27 C 1040.03 1351.47 1052.11 1475.71 1061.59 1596.7 C 1072.43 1735.03 1086.65 1872.76 1088.12 2012.2" stroke="#1E1E1E" stroke-miterlimit="10"/>
    <path d="M 1012.18 1.511 C 1018.24 102.28 1051.42 193.667 1085.47 280.344 C 1117.74 362.521 1153.29 442.23 1182.21 527.086 C 1202.99 588.059 1224.91 659.113 1223.9 728.505 C 1223.05 786.707 1209.07 845.424 1193.66 898.559 C 1160.71 1012.21 1111.9 1115.59 1084.19 1232.51 C 1056.32 1350.1 1067.92 1474.01 1077.01 1595.13 C 1087.4 1733.57 1101 1871.46 1102.47 2010.93" stroke="#1E1E1E" stroke-miterlimit="10"/>
    <path d="M 1030.23 1.511 C 1041.38 193.39 1137.02 355.567 1192.2 524.725 C 1212.17 585.948 1232.92 656.607 1231.96 725.576 C 1231.16 783.672 1217.86 842.336 1203.12 895.815 C 1171.78 1009.49 1125.19 1113.77 1098.87 1230.44 C 1072.26 1348.41 1083.34 1472.12 1091.99 1593.31 C 1101.89 1731.88 1114.83 1869.95 1116.25 2009.44" stroke="#1E1E1E" stroke-miterlimit="10"/>
    <path d="M 1048.29 1.511 C 1058.59 191.239 1149 353.139 1201.38 522.125 C 1220.46 583.679 1239.82 653.743 1238.93 722.33 C 1238.17 780.347 1225.71 838.906 1211.7 892.767 C 1182.12 1006.49 1137.91 1111.68 1113.13 1228.11 C 1087.94 1346.44 1098.48 1470.07 1106.65 1591.27 C 1116.01 1729.98 1128.26 1868.24 1129.59 2007.78" stroke="#1E1E1E" stroke-miterlimit="10"/>
    <path d="M 1066.34 1.499 C 1075.56 188.931 1160.56 350.594 1209.9 519.329 C 1228.01 581.252 1245.79 650.604 1244.97 718.808 C 1244.28 776.772 1232.76 835.186 1219.54 889.482 C 1191.84 1003.27 1150.13 1109.4 1127.01 1225.61 C 1103.4 1344.27 1113.36 1467.9 1121.02 1589.08 C 1129.8 1727.93 1141.32 1866.4 1142.51 2005.99" stroke="#1E1E1E" stroke-miterlimit="10"/>
    <path d="M 1084.39 1.499 C 1092.33 186.543 1171.77 348.008 1217.85 516.373 C 1234.91 578.705 1250.97 647.226 1250.23 715.06 C 1249.61 772.999 1239.13 831.227 1226.75 885.986 C 1201.02 999.857 1161.94 1106.93 1140.56 1222.93 C 1118.64 1341.91 1128 1465.61 1135.13 1586.75 C 1143.32 1725.76 1154.07 1864.42 1155.12 2004.07" stroke="#1E1E1E" stroke-miterlimit="10"/>
    <path d="M 1102.43 1.499 C 1108.96 184.075 1182.73 345.382 1225.37 513.299 C 1241.3 576.04 1255.54 643.677 1254.9 711.155 C 1254.35 769.093 1244.96 827.111 1233.48 882.344 C 1209.79 996.307 1173.43 1104.31 1153.86 1220.13 C 1133.71 1339.41 1142.47 1463.22 1149.04 1584.32 C 1156.6 1723.49 1166.57 1862.36 1167.44 2002.08" stroke="#1E1E1E" stroke-miterlimit="10"/>
    <path d="M 1120.48 1.499 C 1125.56 182.809 1194.46 345.065 1233.43 513.721 C 1247.58 574.971 1259.36 639.533 1259.14 704.544 C 1258.94 762.971 1250.71 821.292 1240.13 877.462 C 1218.46 992.455 1184.53 1102.16 1166.81 1218.77 C 1148.86 1336.89 1156.79 1459.3 1162.69 1578.87 C 1169.62 1719.2 1178.93 1859.25 1179.61 2000.04" stroke="#1E1E1E" stroke-miterlimit="10"/>
    <path d="M 1138.54 1.499 C 1142.07 180.315 1205.11 342.426 1240.41 510.475 C 1266.24 633.45 1267.48 749.09 1246.34 873.622 C 1226.79 988.72 1195.74 1099.35 1179.9 1215.82 C 1163.78 1334.24 1171.09 1456.73 1176.43 1576.31 C 1182.71 1716.81 1191.21 1857.07 1191.69 1997.94" stroke="#1E1E1E" stroke-miterlimit="10"/>
    <path d="M 1156.57 1.486 C 1158.59 177.834 1215.73 339.827 1247.32 507.216 C 1270.34 629.162 1271.11 746.556 1252.48 869.769 C 1235.06 984.999 1206.91 1096.48 1192.94 1212.85 C 1178.67 1331.57 1185.35 1454.1 1190.13 1573.72 C 1195.76 1714.38 1203.44 1854.85 1203.71 1995.83" stroke="#1E1E1E" stroke-miterlimit="10"/>
    <path d="M 1174.62 1.486 C 1175.17 175.433 1226.45 337.32 1254.33 503.983 C 1274.56 624.966 1274.91 743.957 1258.71 865.956 C 1243.39 981.318 1218.16 1093.63 1206.03 1209.92 C 1193.59 1328.95 1199.65 1451.48 1203.88 1571.18 C 1208.86 1711.99 1215.72 1852.66 1215.8 1993.74" stroke="#1E1E1E" stroke-miterlimit="10"/>
    <path d="M 1192.67 1.486 C 1191.87 173.15 1237.35 334.932 1261.54 500.816 C 1279.07 620.968 1279.07 741.292 1265.19 862.222 C 1251.93 977.729 1229.6 1090.81 1219.24 1207.05 C 1208.6 1326.39 1214.02 1448.86 1217.72 1568.7 C 1222.07 1709.67 1228.12 1850.54 1228.01 1991.71" stroke="#1E1E1E" stroke-miterlimit="10"/>
    <path d="M 1210.71 1.486 C 1208.7 170.986 1248.47 332.662 1269.08 497.742 C 1284 617.234 1283.7 738.534 1272.01 858.607 C 1260.75 974.272 1241.27 1088.05 1232.63 1204.28 C 1223.73 1323.93 1228.53 1446.29 1231.7 1566.28 C 1235.42 1707.41 1240.69 1848.45 1240.4 1989.73" stroke="#1E1E1E" stroke-miterlimit="10"/>
    <path d="M 1228.77 1.486 C 1225.74 169.007 1259.94 330.538 1277.1 494.813 C 1289.54 613.843 1289.01 735.723 1279.36 855.163 C 1270.01 970.987 1253.31 1085.41 1246.29 1201.66 C 1239.04 1321.61 1243.22 1443.81 1245.89 1563.99 C 1249.02 1705.26 1253.52 1846.47 1253.08 1987.86" stroke="#1E1E1E" stroke-miterlimit="10"/>
    <path d="M 1246.82 1.486 C 1243.04 165.748 1271.3 325.735 1285.33 487.714 C 1295.71 607.576 1295.23 730.578 1287.43 850.769 C 1279.84 967.675 1265.66 1083.55 1260.18 1200.76 C 1248 1461.42 1267.13 1725.1 1266.11 1986.12" stroke="#1E1E1E" stroke-miterlimit="10"/>
    <path d="M 1264.87 1.486 C 1260.55 164.204 1283.74 323.967 1294.73 485.194 C 1302.9 604.989 1302.26 727.807 1296.19 847.813 C 1290.26 964.877 1278.68 1081.26 1274.57 1198.53 C 1265.42 1459.87 1280.73 1722.96 1279.54 1984.52" stroke="#1E1E1E" stroke-miterlimit="10"/>
    <path d="M 1282.93 1.486 C 1278.37 162.885 1296.76 322.41 1304.99 482.911 C 1317.25 722.067 1295.33 958.003 1289.44 1196.54 C 1282.98 1458.38 1294.75 1721.12 1293.49 1983.08" stroke="#1E1E1E" stroke-miterlimit="10"/>
    <path d="M 1300.99 1.486 C 1296.51 161.803 1310.43 321.064 1316.21 480.906 C 1324.83 719.494 1308.63 956.538 1304.85 1194.82 C 1300.68 1456.99 1309.25 1719.58 1308.01 1981.83" stroke="#1E1E1E" stroke-miterlimit="10"/>
    <path d="M 1319.05 1.486 C 1315.03 160.971 1324.83 319.942 1328.52 479.23 C 1334.04 717.541 1322.96 955.258 1320.85 1193.45 C 1318.53 1455.84 1324.28 1718.39 1323.16 1980.82" stroke="#1E1E1E" stroke-miterlimit="10"/>
    <path d="M 1337.11 1.486 C 1333.95 160.378 1340.05 319.071 1342.06 477.897 C 1345.07 716.129 1338.41 954.216 1337.53 1192.43 C 1336.56 1454.96 1339.92 1717.52 1339.04 1980.06" stroke="#1E1E1E" stroke-miterlimit="10"/>
    <path d="M 1355.18 1.486 C 1353.3 159.995 1356.17 318.464 1356.94 476.974 C 1358.1 715.258 1355.13 953.53 1354.97 1191.83 C 1354.8 1454.4 1356.24 1716.99 1355.71 1979.57" stroke="#1E1E1E" stroke-miterlimit="10"/>
    <path d="M 1373.25 1.499 C 1373.15 159.823 1373.27 318.161 1373.3 476.485 C 1373.37 977.452 1373.31 1478.43 1373.25 1979.4" stroke="#1E1E1E" stroke-miterlimit="10"/>
    <path d="M 1373.25 1.499 C 1263.43 1.473 1153.59 1.499 1043.77 1.512 C 959.289 1.512 876.954 -5.758 795.891 34.486 C 716.934 73.688 643.973 135.796 563.139 167.503 C 362.848 246.078 196.237 8.98 1 1.499" stroke="#1E1E1E" stroke-miterlimit="10"/>
    <path d="M 19.145 2.437 C 22.651 105.686 61.859 197.799 99.942 282.338 C 137.365 365.412 178.652 445.162 212.258 531.706 C 236.096 593.102 258.909 662.889 257.829 734.906 C 256.95 793.742 239.978 848.606 218.034 897.228 C 171.209 1000.99 101.562 1081.68 62.097 1192.63 C 18.366 1315.58 47.771 1458.4 71.298 1584.1 C 101.645 1746.25 145.302 1909.63 149.074 2079.1" stroke="#1E1E1E" stroke-miterlimit="10"/>
    <path d="M 1373.22 53.539 C 1265.03 52.655 1156.83 54.397 1048.63 54.991 C 963.681 55.452 882.179 49.172 800.42 88.307 C 721.261 126.19 647.33 184.893 566.533 215.993 C 477.231 250.366 394.584 224.544 309.063 181.04 C 209.921 130.597 112.16 61.588 5.438 54.872" stroke="#1E1E1E" stroke-miterlimit="10"/>
    <path d="M 1373.22 79.559 C 1253.77 78.345 1134.35 82.04 1014.91 82.62 C 960.652 82.884 906.842 78.728 853.526 96.092 C 802.115 112.823 753.129 141.852 704.419 170.221 C 655.698 198.589 606.713 227.618 555.311 244.349 C 500.091 262.333 447.828 258.494 392.975 239.335 C 264.098 194.354 145.053 91.778 10.547 82.396" stroke="#1E1E1E" stroke-miterlimit="10"/>
    <path d="M 1373.21 105.58 C 1255.02 104.26 1136.91 109.538 1018.74 110.541 C 964.075 111.003 910.365 107.559 856.656 125.068 C 806.499 141.417 758.41 168.532 710.551 195.159 C 662.691 221.786 614.603 248.901 564.446 265.25 C 508.878 283.366 456.643 280.846 401.24 262.479 C 271.759 219.543 151.918 120.279 17.348 110.409" stroke="#1E1E1E" stroke-miterlimit="10"/>
    <path d="M 1373.21 131.599 C 1257.56 130.293 1142.03 137.22 1026.4 138.803 C 971.939 139.542 918.476 136.362 864.877 153.041 C 814.637 168.676 766.256 194.472 718.076 219.833 C 669.896 245.193 621.515 270.989 571.275 286.625 C 515.698 303.923 463.518 301.601 408.088 283.972 C 279.166 242.963 159.205 148.726 25.66 138.869" stroke="#1E1E1E" stroke-miterlimit="10"/>
    <path d="M 1373.21 157.633 C 1259.6 156.432 1146.2 165.286 1032.64 167.437 C 981.45 168.413 931.018 165.457 880.476 179.457 C 827.966 194.011 777.278 219.398 726.791 244.31 C 676.313 269.208 625.625 294.595 573.106 309.162 C 520.568 323.729 471.18 321.235 418.771 305.718 C 289.455 267.44 168.68 177.293 35.309 167.727" stroke="#1E1E1E" stroke-miterlimit="10"/>
    <path d="M 1373.21 183.653 C 1263.61 182.637 1154.33 193.245 1044.8 196.241 C 991.904 197.692 939.732 194.868 887.451 208.881 C 836.104 222.63 786.258 245.787 736.586 268.588 C 686.914 291.388 637.068 314.545 585.72 328.294 C 529.237 343.415 475.803 340.301 419.612 323.716 C 294.096 286.651 175.509 205.635 46.156 196.9" stroke="#1E1E1E" stroke-miterlimit="10"/>
    <path d="M 1373.21 209.687 C 1267.83 208.921 1162.95 221.338 1057.68 225.257 C 1003.13 227.289 949.269 224.57 895.276 238.346 C 845.073 251.145 796.097 272.098 747.24 292.708 C 698.382 313.332 649.406 334.272 599.203 347.071 C 542.564 361.519 488.608 359.738 432.116 344.524 C 306.333 310.666 186.996 234.282 57.945 226.365" stroke="#1E1E1E" stroke-miterlimit="10"/>
    <path d="M 1373.22 235.706 C 1269.86 235.231 1167.25 250.181 1064.04 254.733 C 1012.45 257.002 961.327 254.693 910.135 266.318 C 858.888 277.956 808.713 297.418 758.656 316.696 C 655.449 356.438 555.272 390.863 448.128 365.516 C 321.146 335.472 200.243 263.032 70.57 256.079" stroke="#1E1E1E" stroke-miterlimit="10"/>
    <path d="M 1373.23 261.74 C 1274.4 261.582 1176.66 278.484 1078.06 284.065 C 1026.65 286.982 975.526 284.554 924.426 294.78 C 872.529 305.164 821.539 322.964 770.64 340.579 C 663.634 377.63 561.021 408.057 450.857 382.921 C 327.738 354.842 209.371 291.56 83.836 285.979" stroke="#1E1E1E" stroke-miterlimit="10"/>
    <path d="M 1373.25 287.76 C 1279.01 287.931 1186.29 306.787 1092.38 313.463 C 1041.22 317.105 990.159 314.479 939.205 323.307 C 886.631 332.411 834.799 348.482 783.067 364.382 C 677.04 396.986 573.622 424.273 465.068 402.713 C 341.831 378.236 222.75 320.298 97.59 315.997" stroke="#1E1E1E" stroke-miterlimit="10"/>
    <path d="M 1373.25 313.793 C 1282.13 314.295 1193.09 335.789 1102.4 343.257 C 1051.2 347.467 1000.01 344.907 948.941 352.797 C 897.474 360.754 846.566 374.529 795.713 388.173 C 690.428 416.423 586.735 440.371 479.5 422.255 C 356.189 401.433 236.394 349.09 111.582 346.134" stroke="#1E1E1E" stroke-miterlimit="10"/>
    <path d="M 1373.26 339.826 C 1285.95 340.644 1201.46 364.514 1114.72 372.892 C 1064.98 377.695 1015.14 375.004 965.439 381.231 C 912.81 387.829 860.621 399.942 808.486 411.909 C 700.894 436.623 594.683 456.772 485.654 440.344 C 365.199 422.201 247.372 377.827 125.719 376.27" stroke="#1E1E1E" stroke-miterlimit="10"/>
    <path d="M 1373.27 365.847 C 1290.38 366.942 1211.27 392.698 1129.14 402.291 C 1077.86 408.281 1026.38 405.075 975.063 410.498 C 923.56 415.934 872.35 425.843 821.186 435.674 C 714.335 456.205 608.042 472.804 500.166 459.794 C 379.63 445.253 261.162 406.619 139.773 406.407" stroke="#1E1E1E" stroke-miterlimit="10"/>
    <path d="M 1373.28 391.881 C 1326.58 392.686 1280.75 398.082 1234.87 410.472 C 1203.08 419.062 1171.45 427.955 1139.19 432.112 C 1091.4 438.274 1043.42 435.133 995.556 438.67 C 941.434 442.668 887.533 451.126 833.677 459.478 C 727.44 475.958 621.413 488.981 514.498 479.191 C 393.879 468.147 274.788 435.397 153.602 436.466" stroke="#1E1E1E" stroke-miterlimit="10"/>
    <path d="M 1373.28 417.9 C 1328.86 418.824 1285.46 424.115 1242.04 437.679 C 1211.74 447.14 1181.83 457.062 1150.91 461.575 C 1102.68 468.621 1054.23 465.032 1005.87 467.631 C 952.404 470.494 899.08 476.96 845.773 483.333 C 737.293 496.317 628.794 505.817 519.92 498.032 C 402.075 489.6 285.2 464.2 166.988 466.404" stroke="#1E1E1E" stroke-miterlimit="10"/>
    <path d="M 1373.29 443.933 C 1331.32 444.949 1290.24 449.778 1249.47 464.464 C 1221.12 474.69 1193.26 485.615 1164.15 490.616 C 1116.23 498.85 1068 494.733 1019.88 496.237 C 965.647 497.926 911.489 502.65 857.35 507.308 C 749.483 516.584 641.506 522.614 533.438 517.824 C 415.427 512.586 298.012 492.952 179.801 496.184" stroke="#1E1E1E" stroke-miterlimit="10"/>
    <path d="M 1373.3 469.954 C 1332.58 471.062 1292.79 475.733 1253.6 492.174 C 1226.85 503.39 1200.7 515.001 1172.94 520.081 C 1124.65 528.922 1075.84 524.185 1027.32 524.858 C 974.265 525.597 921.252 528.513 868.247 531.376 C 760.984 537.182 653.658 539.847 546.331 537.775 C 428.101 535.493 310.164 521.612 191.852 525.702" stroke="#1E1E1E" stroke-miterlimit="10"/>
    <path d="M 1373.3 495.986 C 1333.74 497.147 1295.06 501.528 1257.4 519.803 C 1232.1 532.087 1207.69 544.266 1181.04 549.372 C 1134.17 558.345 1086.77 553.476 1039.67 553.225 C 985.873 552.948 932.072 554.294 878.28 555.614 C 771.658 558.226 665.064 557.712 558.451 558.028 C 439.928 558.384 321.488 550.243 202.965 554.967" stroke="#1E1E1E" stroke-miterlimit="10"/>
    <path d="M 1373.3 522.007 C 1334.75 523.182 1297.04 527.246 1260.83 547.328 C 1237.94 560.022 1216.26 572.345 1191.8 577.663 C 1145.2 587.797 1097.88 582.479 1050.99 581.476 C 996.426 580.315 941.856 580.183 887.296 580.025 C 662.563 579.391 437.647 574.232 212.941 583.917" stroke="#1E1E1E" stroke-miterlimit="10"/>
    <path d="M 1373.3 548.028 C 1335.62 549.189 1298.64 552.765 1263.79 574.721 C 1243.15 587.731 1223.99 600.108 1201.53 605.623 C 1153.31 617.485 1103.58 611.033 1054.98 609.37 C 1001.71 607.55 948.432 606.098 895.153 604.647 C 786.05 601.665 677.148 596.202 568.064 600.24 C 452.589 604.502 337.097 607.444 221.641 612.484" stroke="#1E1E1E" stroke-miterlimit="10"/>
    <path d="M 1373.3 574.06 C 1336.65 575.155 1300.04 577.9 1266.7 601.611 C 1247.33 615.373 1229.81 628 1208.25 633.635 C 1160.34 646.143 1110.44 639.374 1062.12 637.197 C 1008.63 634.783 955.152 632.157 901.672 629.531 C 792.358 624.174 683.32 616.732 573.979 622.287 C 458.925 628.132 343.927 635.891 228.855 640.628" stroke="#1E1E1E" stroke-miterlimit="10"/>
    <path d="M 1373.29 600.081 C 1337.25 601.083 1300.59 603.036 1268.41 628.647 C 1249.87 643.399 1233.22 656.132 1212.01 661.661 C 1167.23 673.351 1120.51 667.48 1075.36 665.157 C 1019.12 662.268 962.914 658.441 906.706 654.641 C 798.253 647.318 690.011 638.279 581.457 644.85 C 465.745 651.857 350.234 664.168 234.43 668.284" stroke="#1E1E1E" stroke-miterlimit="10"/>
    <path d="M 1373.28 626.101 C 1337.92 626.971 1300.88 627.948 1269.81 655.09 C 1252.16 670.514 1236.68 683.287 1215.96 688.855 C 1171.31 700.836 1124.2 695.004 1079.16 692.536 C 1022.77 689.449 966.435 684.725 910.099 680.08 C 801.554 671.108 693.175 661.172 584.447 668.416 C 468.945 676.109 353.846 692.404 238.18 695.439" stroke="#1E1E1E" stroke-miterlimit="10"/>
    <path d="M 1373.26 652.122 C 1338.36 652.808 1300.59 652.821 1270.34 681.256 C 1253.33 697.248 1238.75 709.994 1218.29 715.549 C 1173.67 727.649 1126.06 722.054 1081.03 719.587 C 1024.53 716.513 968.104 711.116 911.685 705.812 C 803.104 695.599 694.587 685.373 585.759 692.828 C 470.349 700.732 355.588 720.484 239.949 721.975" stroke="#1E1E1E" stroke-miterlimit="10"/>
    <path d="M 1373.26 678.142 C 1338.26 678.815 1300.64 678.973 1270.26 707.263 C 1253.14 723.215 1238.41 736.014 1217.89 741.569 C 1173.45 753.603 1125.61 748.839 1080.73 746.543 C 1024.22 743.654 967.827 737.452 911.454 731.383 C 802.992 719.692 694.484 709.717 585.683 717.106 C 470.108 724.957 355.485 748.641 239.59 747.889" stroke="#1E1E1E" stroke-miterlimit="10"/>
    <path d="M 1373.27 704.174 C 1337.83 704.9 1300.68 705.771 1269.62 733.216 C 1251.96 748.826 1236.51 761.743 1215.69 767.325 C 1171.4 779.213 1123.52 775.373 1078.77 773.012 C 1022.32 770.03 966.025 762.627 909.78 755.383 C 801.501 741.436 693.121 730.867 584.366 738.758 C 468.352 747.176 353.72 775.875 237.266 773.223" stroke="#1E1E1E" stroke-miterlimit="10"/>
    <path d="M 1373.28 730.195 C 1337.22 730.973 1300.32 732.596 1268.36 759.078 C 1249.97 774.305 1233.61 787.328 1212.34 792.923 C 1168.07 804.587 1120.15 801.539 1075.44 798.834 C 1019.06 795.43 962.926 786.497 906.846 777.775 C 798.768 760.965 690.581 748.879 581.826 757.864 C 465.18 767.496 350.456 801.909 233.188 797.95" stroke="#1E1E1E" stroke-miterlimit="10"/>
    <path d="M 1373.29 756.229 C 1336.7 757.033 1299.86 759.29 1266.98 784.479 C 1247.98 799.032 1231.1 812.161 1209.58 817.954 C 1110.17 844.686 1001.67 817.347 902.742 798.755 C 793.941 778.303 684.976 763.802 575.186 774.992 C 458.742 786.867 344.814 826.887 227.5 822.189" stroke="#1E1E1E" stroke-miterlimit="10"/>
    <path d="M 1373.29 782.249 C 1336.12 783.067 1298.99 785.851 1265.15 809.813 C 1244.4 824.512 1225.61 837.944 1202.49 843.671 C 1102.51 868.424 996.455 840.649 897.587 818.403 C 788.081 793.768 678.484 776.087 567.541 790.139 C 451.151 804.878 337.947 850.849 220.34 845.914" stroke="#1E1E1E" stroke-miterlimit="10"/>
    <path d="M 1373.29 808.269 C 1335.11 809.1 1297.54 812.584 1262.38 835.477 C 1240.48 849.74 1220.26 863.172 1196.25 868.886 C 1095.37 892.913 990.594 863.344 891.515 836.928 C 782.266 807.794 673.181 786.445 561.918 803.202 C 444.448 820.896 330.997 873.992 211.906 869.255" stroke="#1E1E1E" stroke-miterlimit="10"/>
    <path d="M 1373.29 834.301 C 1334.28 835.132 1296.13 839.078 1259.8 860.743 C 1235.89 875.007 1213.43 888.848 1187.56 894.43 C 1085.94 916.373 983.576 885.418 884.626 854.449 C 778.599 821.265 673.176 795.904 564.357 813.189 C 442.52 832.533 326.13 896.501 202.344 892.253" stroke="#1E1E1E" stroke-miterlimit="10"/>
    <path d="M 1373.29 860.321 C 1333.41 861.126 1294.48 865.467 1256.96 885.972 C 1232.09 899.563 1208.26 913.298 1181.74 919.078 C 1078.53 941.548 976.579 907.163 877.033 871.101 C 770.338 832.454 664.741 802.251 554.338 823.6 C 432.236 847.206 316.469 918.154 191.812 914.908" stroke="#1E1E1E" stroke-miterlimit="10"/>
    <path d="M 1373.28 886.342 C 1332.44 887.121 1292.67 891.871 1253.92 911.188 C 1227.88 924.158 1202.85 937.723 1175.43 943.66 C 1070.35 966.421 969.084 928.684 868.861 887.041 C 761.47 842.417 655.983 807.173 543.749 833.061 C 421.336 861.298 306.163 939.253 180.473 937.314" stroke="#1E1E1E" stroke-miterlimit="10"/>
    <path d="M 1373.27 912.375 C 1330.31 913.14 1288.95 918.788 1247.95 937.683 C 1220.42 950.376 1193.79 963.32 1164.97 968.941 C 1058.76 989.67 960.22 949.505 860.207 902.413 C 752.02 851.468 647 810.96 532.688 841.823 C 409.991 874.955 295.276 959.89 168.469 959.52" stroke="#1E1E1E" stroke-miterlimit="10"/>
    <path d="M 1373.27 938.395 C 1328.47 939.121 1285.3 945.349 1242.34 963.769 C 1213.82 975.987 1185.78 988.324 1156.16 993.826 C 1048.24 1013.87 951.392 970.326 851.233 917.336 C 745.654 861.483 643.399 814.958 530.131 847.457 C 403.726 883.729 287.117 980.17 156.016 981.555" stroke="#1E1E1E" stroke-miterlimit="10"/>
    <path d="M 1373.26 964.415 C 1327.4 965.101 1282.99 971.514 1238.73 988.904 C 1209.01 1000.58 1179.67 1012.71 1149.01 1018.33 C 1098.3 1027.63 1046.58 1026.96 996.672 1010.25 C 943.347 992.401 892.531 961.776 842.007 931.982 C 791.493 902.188 740.668 871.576 687.343 853.71 C 631.025 834.842 574.771 836.702 518.535 855.135 C 391.819 896.659 275.603 1000.16 143.211 1003.48" stroke="#1E1E1E" stroke-miterlimit="10"/>
    <path d="M 1373.25 990.448 C 1326.32 991.081 1280.67 997.626 1235.16 1014.07 C 1202.87 1025.73 1171 1038 1137.82 1043.5 C 1088.49 1051.69 1038.93 1051.66 990.567 1034.23 C 935.722 1014.46 883.999 979.892 832.67 946.496 C 781.341 913.1 729.619 878.543 674.774 858.764 C 618.383 838.431 562.989 842.099 506.827 862.815 C 379.872 909.643 263.959 1020.03 130.258 1025.39" stroke="#1E1E1E" stroke-miterlimit="10"/>
    <path d="M 1373.24 1016.47 C 1325.26 1017.04 1278.4 1023.66 1231.66 1039.23 C 1196.76 1050.87 1162.31 1063.24 1126.59 1068.65 C 1078.87 1075.9 1031.01 1076.32 984.35 1058.4 C 927.968 1036.75 875.393 998.128 823.332 960.985 C 771.289 923.855 718.687 885.22 662.314 863.568 C 610.134 843.525 558.878 846.639 506.835 866.088 C 374.782 915.437 256.543 1039.63 117.312 1047.27" stroke="#1E1E1E" stroke-miterlimit="10"/>
    <path d="M 1373.24 1042.49 C 1324.23 1043 1276.24 1049.64 1228.32 1064.42 C 1192.18 1075.57 1156.4 1087.69 1119.56 1093.18 C 1067.99 1100.86 1017.43 1100.84 967.508 1078.27 C 913.597 1053.9 863.669 1014.04 814.125 975.631 C 764.581 937.221 714.653 897.359 660.742 872.989 C 604.543 847.576 551.465 850.69 495.266 873.939 C 363.048 928.631 245.084 1059.52 104.535 1069.21" stroke="#1E1E1E" stroke-miterlimit="10"/>
    <path d="M 1373.23 1068.52 C 1323.23 1068.98 1274.19 1075.61 1225.15 1089.66 C 1187.81 1100.36 1150.73 1112.22 1112.8 1117.77 C 1061.41 1125.27 1011.14 1126.34 961.603 1102.88 C 906.136 1076.61 855.338 1032.66 805.135 990.581 C 754.932 948.503 704.134 904.538 648.667 878.281 C 592.385 851.627 540.095 857.037 483.896 882.476 C 351.696 942.302 233.796 1079.65 92.066 1091.27" stroke="#1E1E1E" stroke-miterlimit="10"/>
    <path d="M 1373.23 1094.54 C 1319.98 1094.98 1267.84 1102.45 1215.56 1116.74 C 1177.17 1127.23 1138.95 1138.2 1099.98 1143.27 C 1048.48 1149.97 998.782 1150.34 949.512 1124.53 C 894.97 1095.97 845.472 1049.97 796.505 1005.94 C 747.538 961.896 698.039 915.912 643.497 887.345 C 588.259 858.422 536.976 862.209 481.619 887.701 C 345.629 950.311 226.127 1099.85 80.086 1113.48" stroke="#1E1E1E" stroke-miterlimit="10"/>
    <path d="M 1373.23 1120.56 C 1278.12 1121.25 1188.04 1155.89 1094.01 1167.96 C 1042.64 1174.54 993.279 1176.18 944.348 1149.79 C 888.167 1119.49 837.964 1069.43 788.329 1021.88 C 738.693 974.325 688.49 924.264 632.309 893.969 C 576.842 864.056 526.621 870.297 471.062 897.861 C 335.128 965.286 215.882 1120.73 68.742 1135.88" stroke="#1E1E1E" stroke-miterlimit="10"/>
    <path d="M 1373.22 1146.6 C 1276.53 1147.23 1184.31 1180.6 1088.61 1192.73 C 1033.56 1199.71 981.485 1201.08 929.653 1169.62 C 875.925 1137.02 828.112 1086.67 780.737 1038.54 C 733.363 990.409 685.54 940.058 631.822 907.467 C 606.528 892.121 578.003 878.795 550.219 879.877 C 519.936 881.051 489.268 894.417 461.073 909.354 C 325.385 981.226 206.322 1142.23 58.203 1158.55" stroke="#1E1E1E" stroke-miterlimit="10"/>
    <path d="M 1373.22 1172.62 C 1273.62 1173.21 1178.12 1206.45 1079.41 1218.11 C 1026.24 1224.39 975.802 1226.48 925.8 1195.71 C 870.425 1161.63 821.861 1107.42 773.827 1056.05 C 725.794 1004.7 677.229 950.482 621.854 916.4 C 596.789 900.975 568.428 887.833 540.855 890.208 C 510.325 892.834 480.06 906.451 451.746 922.337 C 386.035 959.204 325.606 1013.38 264.281 1062.88 C 197.123 1117.07 126.716 1172.55 48.629 1181.51" stroke="#1E1E1E" stroke-miterlimit="10"/>
    <path d="M 1373.22 1198.64 C 1271.7 1199.23 1173.89 1231.82 1073.19 1243.33 C 1019.74 1249.42 969.098 1252 919.078 1219.93 C 863.575 1184.36 815.395 1127.89 767.764 1074.58 C 720.134 1021.27 671.954 964.798 616.45 929.225 C 591.523 913.246 563.181 899.695 535.552 902.123 C 504.848 904.815 474.465 918.973 446.132 935.4 C 379.716 973.89 318.894 1030.21 257.11 1081.63 C 189.889 1137.58 119.061 1195.68 40.195 1204.86" stroke="#1E1E1E" stroke-miterlimit="10"/>
    <path d="M 1373.22 1224.67 C 1269.28 1225.29 1168.75 1257.82 1065.55 1268.93 C 1014.12 1274.47 965.145 1277.69 917.038 1247.04 C 859.823 1210.58 810.837 1150.46 762.612 1094.25 C 714.386 1038.04 665.4 977.927 608.185 941.47 C 553.917 906.886 504.758 914.592 450.17 945.204 C 379.031 985.092 314.684 1047.2 249.303 1103 C 182.594 1159.94 111.922 1219.62 33.047 1228.63" stroke="#1E1E1E" stroke-miterlimit="10"/>
    <path d="M 1373.22 1250.69 C 1268.67 1251.36 1167.27 1282.86 1063.44 1294.13 C 1008.71 1300.06 957.007 1303.35 906.328 1268.19 C 851.566 1230.18 804.777 1170.97 758.51 1115.2 C 712.235 1059.46 665.446 1000.23 610.693 962.224 C 553.67 922.653 501.206 930.042 443.579 963.663 C 372.394 1005.2 308.166 1068.71 242.739 1125.72 C 176.607 1183.36 106.127 1244.33 27.371 1252.81" stroke="#1E1E1E" stroke-miterlimit="10"/>
    <path d="M 1373.23 1276.72 C 1267.65 1277.49 1164.98 1308.51 1060.08 1319.72 C 1005.48 1325.56 953.471 1329.51 903.003 1293.98 C 848.076 1255.31 801.553 1194.57 755.57 1137.62 C 709.587 1080.66 663.064 1019.93 608.137 981.265 C 551.471 941.364 498.293 948.964 441.023 982.809 C 369.325 1025.18 304.869 1090.24 239.185 1148.52 C 173.2 1207.07 102.436 1269.9 23.277 1277.59" stroke="#1E1E1E" stroke-miterlimit="10"/>
    <path d="M 1373.24 1302.74 C 1267 1303.65 1163.48 1334.25 1057.89 1345.46 C 1003.59 1351.22 951.257 1355.92 901.054 1320.4 C 845.953 1281.41 799.632 1219.44 753.905 1161.57 C 708.188 1103.71 661.866 1041.74 606.756 1002.75 C 550.575 963.004 496.454 970.683 439.715 1004.41 C 367.596 1047.27 302.993 1113.61 237.127 1172.84 C 171.379 1231.98 100.359 1296.4 20.953 1302.86" stroke="#1E1E1E" stroke-miterlimit="10"/>
    <path d="M 1373.25 1328.78 C 1266.82 1329.85 1162.99 1360.14 1057.18 1371.37 C 1003.18 1377.1 950.673 1382.32 900.699 1347.04 C 845.451 1308.03 799.194 1245.46 753.568 1187.2 C 707.942 1128.94 661.685 1066.37 606.438 1027.35 C 550.669 987.981 495.714 995.542 439.405 1028.99 C 367.113 1071.93 302.564 1139.04 236.744 1198.79 C 171.198 1258.29 100.068 1323.54 20.543 1328.82" stroke="#1E1E1E" stroke-miterlimit="10"/>
    <path d="M 1373.25 1354.8 C 1266.96 1355.94 1163.26 1386.07 1057.59 1397.28 C 1003.53 1403.02 951.23 1408.12 901.201 1372.81 C 845.89 1333.76 799.422 1271.46 753.567 1213.4 C 707.712 1155.34 661.244 1093.04 605.933 1054 C 550.137 1014.61 495.127 1021.8 438.736 1055.35 C 366.745 1098.2 302.664 1165.56 237.301 1225.49 C 171.893 1285.45 101 1350.56 21.375 1355.59" stroke="#1E1E1E" stroke-miterlimit="10"/>
    <path d="M 1373.25 1380.82 C 1267.19 1382 1163.71 1411.94 1058.26 1423.12 C 1004.16 1428.85 952.027 1433.79 901.934 1398.58 C 846.485 1359.6 799.724 1297.61 753.558 1239.8 C 707.392 1182 660.622 1120.01 605.183 1081.03 C 549.359 1041.78 494.35 1048.54 437.949 1082.28 C 366.407 1125.09 302.976 1192.75 238.226 1252.88 C 173.147 1313.31 102.685 1378.35 23.133 1383.2" stroke="#1E1E1E" stroke-miterlimit="10"/>
    <path d="M 1373.24 1406.85 C 1267.49 1408.08 1164.32 1437.79 1059.19 1448.89 C 1005.04 1454.6 953.036 1459.39 902.86 1424.36 C 847.219 1385.51 800.083 1323.91 753.532 1266.4 C 706.982 1208.9 659.846 1147.3 604.205 1108.45 C 548.363 1069.46 493.399 1075.73 437.035 1109.74 C 366.088 1152.56 303.463 1220.57 239.473 1280.93 C 174.906 1341.84 105.049 1406.89 25.707 1411.61" stroke="#1E1E1E" stroke-miterlimit="10"/>
    <path d="M 1373.24 1432.87 C 1267.11 1434.11 1163.55 1464.04 1058.02 1474.83 C 1007.16 1480.03 957.722 1485.06 910.137 1454.27 C 851.558 1416.36 802.087 1352.28 753.514 1293.15 C 704.94 1234.04 655.47 1169.94 596.89 1132.03 C 543.977 1097.79 491.925 1104.28 438.939 1135.88 C 368.111 1178.13 306.016 1246.98 242.686 1307.94 C 178.33 1369.9 108.719 1435.94 29.066 1440.68" stroke="#1E1E1E" stroke-miterlimit="10"/>
    <path d="M 1373.24 1458.9 C 1267.57 1460.14 1164.47 1489.81 1059.39 1500.48 C 1008.5 1505.65 959.133 1510.52 911.456 1480.03 C 852.575 1442.37 802.582 1378.78 753.487 1320.05 C 704.392 1261.34 654.399 1197.74 595.518 1160.08 C 542.623 1126.25 490.681 1132.23 437.832 1164.21 C 367.819 1206.58 306.804 1275.81 244.517 1337.08 C 181.013 1399.54 112.299 1465.7 33.113 1470.42" stroke="#1E1E1E" stroke-miterlimit="10"/>
    <path d="M 1373.24 1484.92 C 1268.11 1486.14 1165.5 1515.51 1060.94 1526.06 C 1010.02 1531.21 960.699 1535.89 912.913 1505.78 C 853.674 1468.44 803.114 1405.38 753.442 1347.09 C 703.77 1288.8 653.21 1225.74 593.971 1188.4 C 541.095 1155.07 489.299 1160.46 436.633 1192.9 C 367.545 1235.42 307.711 1305.06 246.578 1366.64 C 184.053 1429.61 116.374 1495.95 37.746 1500.69" stroke="#1E1E1E" stroke-miterlimit="10"/>
    <path d="M 1373.24 1510.94 C 1269.43 1512.13 1168.14 1540.73 1064.91 1551.37 C 1011.75 1556.85 960.505 1561.27 910.723 1529.14 C 852.693 1491.68 802.728 1430.9 753.404 1374.25 C 704.079 1317.59 654.114 1256.81 596.084 1219.35 C 538.841 1182.41 483.201 1189.52 427.029 1227.34 C 363.057 1270.4 307.426 1335.97 250.421 1394.98 C 188.546 1459.04 121.535 1526.57 42.898 1531.42" stroke="#1E1E1E" stroke-miterlimit="10"/>
    <path d="M 1373.24 1536.98 C 1270.05 1538.11 1169.36 1566.4 1066.74 1576.89 C 1013.56 1582.33 962.318 1586.55 912.408 1554.92 C 853.947 1517.86 803.332 1457.66 753.367 1401.49 C 703.402 1345.32 652.787 1285.13 594.327 1248.06 C 537.139 1211.82 481.718 1218.19 425.848 1256.64 C 362.92 1299.95 308.589 1365.92 252.847 1425.27 C 192.181 1489.86 126.424 1557.64 48.492 1562.59" stroke="#1E1E1E" stroke-miterlimit="10"/>
    <path d="M 1373.25 1563 C 1271.48 1564.08 1172.17 1591.63 1070.99 1602.16 C 1015.38 1607.95 962.318 1611.82 910.275 1578.21 C 852.986 1541.23 802.902 1483.31 753.34 1428.81 C 703.778 1374.3 653.694 1316.39 596.405 1279.4 C 539.208 1242.47 483.741 1245.41 427.35 1284.24 C 364.944 1327.22 311.555 1394.13 256.948 1454.13 C 197.152 1519.82 132.274 1588.91 54.461 1594.03" stroke="#1E1E1E" stroke-miterlimit="10"/>
    <path d="M 1373.25 1589.02 C 1271.39 1590.06 1171.98 1617.7 1070.69 1627.85 C 1018.49 1633.09 967.956 1637.28 918.641 1608.04 C 858.13 1572.17 805.336 1512.07 753.284 1456.17 C 701.232 1400.28 648.438 1340.18 587.927 1304.3 C 533.879 1272.25 481.525 1275.65 428.731 1312.01 C 366.828 1354.64 314.547 1422.41 261.076 1483.13 C 202.24 1549.95 138.333 1620.39 60.676 1625.72" stroke="#1E1E1E" stroke-miterlimit="10"/>
    <path d="M 1373.25 1615.05 C 1272.08 1616.03 1173.37 1643.33 1072.77 1653.3 C 1020.57 1658.49 969.988 1662.5 920.554 1633.81 C 859.539 1598.41 806.022 1538.96 753.247 1483.6 C 700.471 1428.25 646.945 1368.81 585.94 1333.4 C 531.992 1302.1 479.775 1304.76 427.366 1341.8 C 366.608 1384.74 315.801 1452.95 263.758 1514.03 C 206.368 1581.38 143.926 1652.17 67.102 1657.64" stroke="#1E1E1E" stroke-miterlimit="10"/>
    <path d="M 1373.25 1641.07 C 1272.02 1641.99 1173.24 1669.37 1072.56 1678.97 C 1019.57 1684.02 968.569 1686.84 918.421 1657.22 C 858.597 1621.89 805.528 1564.69 753.192 1511.06 C 659.56 1415.14 547.317 1285.89 428.602 1369.76 C 368.366 1412.31 318.685 1481.49 267.896 1543.24 C 211.587 1611.71 150.243 1683.95 73.602 1689.65" stroke="#1E1E1E" stroke-miterlimit="10"/>
    <path d="M 1373.26 1667.09 C 1272.75 1667.96 1174.68 1694.97 1074.7 1704.39 C 1021.69 1709.39 970.605 1712.06 920.329 1683 C 859.983 1648.14 806.2 1591.58 753.141 1538.51 C 659.546 1444.89 544.63 1314.37 427.151 1399.59 C 368.059 1442.46 319.897 1512.1 270.582 1574.2 C 215.784 1643.18 155.968 1715.82 80.16 1721.66" stroke="#1E1E1E" stroke-miterlimit="10"/>
    <path d="M 1373.26 1693.12 C 1274.2 1693.93 1177.58 1720.15 1079.06 1729.61 C 1025.72 1734.73 974.313 1737.71 923.579 1709.49 C 862.116 1675.28 807.299 1618.86 753.087 1565.95 C 655.866 1471.08 537.435 1339.19 418.116 1435.31 C 360.022 1482.11 313.215 1553.83 263.991 1617.12 C 213.12 1682.56 157.461 1747.95 86.66 1753.65" stroke="#1E1E1E" stroke-miterlimit="10"/>
    <path d="M 1373.26 1719.14 C 1275.67 1719.88 1180.48 1745.35 1083.42 1754.85 C 1029.92 1760.09 977.9 1763.6 926.873 1736.11 C 864.403 1702.47 808.305 1646.08 753.048 1593.37 C 657.137 1501.88 536.28 1368.68 419.341 1463.05 C 361.732 1509.54 316.115 1582.27 268.182 1646.3 C 218.382 1712.81 163.711 1779.59 93.039 1785.5" stroke="#1E1E1E" stroke-miterlimit="10"/>
    <path d="M 1373.26 1745.17 C 1276.34 1745.85 1181.81 1770.99 1085.42 1780.32 C 1031.9 1785.5 979.841 1788.85 928.705 1761.88 C 865.731 1728.67 808.955 1672.91 753.003 1620.74 C 657.293 1531.49 533.625 1396.9 418.041 1492.68 C 361.54 1539.51 317.443 1612.69 270.929 1677.04 C 222.502 1744.04 169.177 1811.14 99.191 1817.17" stroke="#1E1E1E" stroke-miterlimit="10"/>
    <path d="M 1373.26 1771.2 C 1276.22 1771.86 1181.55 1797.07 1085.03 1806.05 C 1030.53 1811.11 978.127 1813.36 926.102 1785.37 C 864.319 1752.13 808.394 1698.59 752.964 1648.06 C 658.92 1562.34 532.516 1426.42 419.22 1520.1 C 309.687 1610.68 242.127 1836.39 105.066 1848.59" stroke="#1E1E1E" stroke-miterlimit="10"/>
    <path d="M 1373.26 1797.22 C 1276.84 1797.84 1182.75 1822.74 1086.83 1831.56 C 1032.31 1836.58 979.851 1838.69 927.734 1811.15 C 865.502 1778.28 808.964 1725.29 752.921 1675.26 C 659.115 1591.52 530.028 1454.39 417.95 1549.29 C 310.348 1640.4 246.523 1867.27 110.543 1879.61" stroke="#1E1E1E" stroke-miterlimit="10"/>
    <path d="M 1373.26 1823.24 C 1276.63 1823.85 1182.32 1848.85 1086.18 1857.32 C 1035.42 1861.79 985.496 1864.35 936.63 1840.66 C 871.111 1808.87 811.607 1753.82 752.882 1702.37 C 660.037 1621.04 529.577 1483.42 419.147 1576.17 C 311.454 1666.62 251.785 1897.62 115.566 1910.23" stroke="#1E1E1E" stroke-miterlimit="10"/>
    <path d="M 1373.26 1849.27 C 1277.14 1849.87 1183.32 1874.58 1087.69 1882.94 C 1036.92 1887.39 986.987 1889.82 938.066 1866.42 C 872.172 1834.92 812.137 1780.38 752.853 1729.4 C 660.182 1649.69 527.415 1511.1 417.974 1604.77 C 311.773 1695.67 255.564 1927.74 120.051 1940.37" stroke="#1E1E1E" stroke-miterlimit="10"/>
    <path d="M 1373.26 1875.29 C 1277.59 1875.87 1184.2 1900.32 1089.01 1908.6 C 1038.22 1913 988.332 1915.32 939.337 1892.18 C 873.114 1860.9 812.594 1806.84 752.824 1756.26 C 660.309 1677.99 525.446 1538.53 416.883 1632.98 C 311.927 1724.29 258.959 1957.36 123.922 1969.94" stroke="#1E1E1E" stroke-miterlimit="10"/>
    <path d="M 1373.26 1901.33 C 1278.7 1901.93 1186.42 1925.72 1092.35 1934.11 C 1038.81 1938.89 987.345 1940.87 935.915 1915.79 C 871.157 1884.2 811.68 1832.04 752.799 1782.98 C 657.638 1703.69 518.426 1561.63 409.012 1667.13 C 310.574 1762.05 258.494 1986.66 127.082 1998.85" stroke="#1E1E1E" stroke-miterlimit="10"/>
    <path d="M 1373.26 1927.35 C 1279.01 1927.98 1186.99 1951.56 1093.22 1959.88 C 1039.65 1964.63 988.279 1966.49 936.803 1941.54 C 871.834 1910.05 812.01 1858.26 752.78 1809.5 C 657.785 1731.32 516.925 1588.44 408.17 1694.43 C 310.391 1789.72 260.929 2015.05 129.453 2027.03" stroke="#1E1E1E" stroke-miterlimit="10"/>
    <path d="M 1373.26 1953.37 C 1279.22 1954.05 1187.4 1977.45 1093.82 1985.75 C 1040.23 1990.5 988.982 1992.21 937.479 1967.31 C 872.354 1935.83 812.283 1884.34 752.779 1835.85 C 693.257 1787.36 633.213 1735.89 568.079 1704.39 C 512.831 1677.69 457.557 1672.05 407.445 1721.2 C 309.968 1816.81 262.805 2042.77 130.98 2054.41" stroke="#1E1E1E" stroke-miterlimit="10"/>
    <path d="M 1373.25 1979.4 C 1279.32 1980.15 1187.6 2003.4 1094.13 2011.69 C 1040.51 2016.44 989.434 2018.02 937.912 1993.1 C 872.705 1961.55 812.469 1910.3 752.763 1862.02 C 693.049 1813.73 632.831 1762.5 567.614 1730.94 C 512.395 1704.22 456.919 1698.18 406.78 1747.43 C 309.202 1843.31 264.007 2069.77 131.523 2080.97" stroke="#1E1E1E" stroke-miterlimit="10"/>
  </g>
</svg>