<svg width="161" height="171" viewBox="0 0 161 171" fill="none" xmlns="http://www.w3.org/2000/svg">
<path d="M80 77V94M80 94L72 85.84M80 94L88 85.84" stroke="white" stroke-width="2" stroke-linecap="square"/>
<path d="M135.594 85.5001C135.594 117.863 110.9 144.047 80.5002 144.047C50.1006 144.047 25.4062 117.863 25.4062 85.5001C25.4062 53.1367 50.1006 26.9531 80.5002 26.9531C110.9 26.9531 135.594 53.1367 135.594 85.5001Z" stroke="#616161"/>
<path d="M146.268 85.5002C146.268 124.125 116.795 155.384 80.5004 155.384C44.2057 155.384 14.7324 124.125 14.7324 85.5002C14.7324 46.8755 44.2057 15.6162 80.5004 15.6162C116.795 15.6162 146.268 46.8755 146.268 85.5002Z" stroke="#616161" stroke-opacity="0.5"/>
<path d="M160.5 85.5C160.5 132.473 124.655 170.5 80.5 170.5C36.3452 170.5 0.5 132.473 0.5 85.5C0.5 38.527 36.3452 0.5 80.5 0.5C124.655 0.5 160.5 38.527 160.5 85.5Z" stroke="#616161" stroke-opacity="0.2"/>
</svg>
