<svg width="678" height="955" viewBox="0 0 678 955" fill="none" xmlns="http://www.w3.org/2000/svg">
<g clip-path="url(#clip0_1_268)">
<g opacity="0.4">
<mask id="mask0_1_268" style="mask-type:alpha" maskUnits="userSpaceOnUse" x="0" y="0" width="678" height="1010">
<rect width="678" height="1010" fill="#D9D9D9"/>
</mask>
<g mask="url(#mask0_1_268)">
<g clip-path="url(#clip1_1_268)">
<path d="M-346.72 1181.85C-272.107 1177.96 -209.036 1134.92 -150.171 1092.58C-95.3407 1053.13 -41.7663 1008.98 20.4262 981.413C69.4717 959.668 122.347 953.155 172.612 974.945C213.766 992.788 245.745 1025.42 276.837 1056.75C307.92 1088.07 339.899 1120.71 381.062 1138.55C432.269 1160.76 489.915 1151.71 543.561 1145.1C681.398 1128.12 817.352 1092.39 956.561 1087.75" stroke="#32322F" stroke-miterlimit="10"/>
<path d="M-339.77 1163.22C-197.817 1155.96 -102.918 1019.87 20.2201 964.908C67.5258 943.79 119.638 937.098 168.307 957.543C209.022 974.641 239.988 1007.13 269.986 1038.41C299.983 1069.69 330.958 1102.2 371.664 1119.28C419.938 1139.56 474.427 1131.52 524.944 1126.27C664.341 1111.79 802.079 1079.34 942.508 1075.56" stroke="#32322F" stroke-miterlimit="10"/>
<path d="M-332.578 1144.55C-192.759 1137.56 -100.811 1002.67 20.0226 948.563C67.1221 927.482 119.495 920.789 167.841 941.915C206.25 958.7 234.993 989.828 262.91 1020.05C291.751 1051.28 321.641 1083.6 361.889 1099.9C410.432 1119.55 467.199 1110.76 517.886 1106.13C654.691 1093.64 790.385 1066.28 928.007 1063.55" stroke="#32322F" stroke-miterlimit="10"/>
<path d="M-325.233 1125.87C-187.271 1119.14 -99.0176 985.737 19.8432 932.119C66.4764 911.083 119.602 904.508 167.321 926.226C203.336 942.615 229.953 972.622 255.691 1001.69C281.428 1030.73 308.063 1060.76 344.06 1077.15C391.375 1098.68 448.169 1090.68 498.407 1087.07C636.791 1077.16 774.251 1053.39 913.182 1051.67" stroke="#32322F" stroke-miterlimit="10"/>
<path d="M-317.835 1107.17C-181.926 1100.73 -97.0623 968.648 19.6551 915.811C64.5665 895.483 116.67 888.513 162.891 908.867C198.449 924.521 223.864 954.304 248.409 983.306C272.945 1012.3 298.387 1042.09 333.927 1057.75C381.816 1078.84 440.582 1070 491.126 1067.08C626.891 1059.25 762.109 1040.46 898.251 1039.83" stroke="#32322F" stroke-miterlimit="10"/>
<path d="M-310.473 1088.48C-176.555 1082.3 -95.117 951.649 19.4661 899.359C62.7453 879.605 113.62 872.671 158.523 891.545C193.65 906.311 217.917 936.031 241.171 964.925C264.47 993.883 288.701 1023.41 323.819 1038.31C368.802 1057.39 423.857 1049.64 471.449 1047.81C608.811 1042.52 745.832 1027.54 883.391 1027.96" stroke="#32322F" stroke-miterlimit="10"/>
<path d="M-303.226 1069.8C-171.227 1063.87 -93.2962 934.578 19.2781 883.023C62.1089 863.404 113.648 856.218 157.913 875.882C190.807 890.504 212.806 918.663 234.042 946.553C256.094 975.511 279.097 1004.74 313.847 1018.86C358.974 1037.18 417.149 1029.17 464.625 1028.04C599.359 1024.83 733.949 1014.58 868.773 1015.99" stroke="#32322F" stroke-miterlimit="10"/>
<path d="M-296.204 1051.16C-166.08 1045.45 -91.4487 917.56 19.0719 866.525C61.266 847.041 114.06 839.658 157.42 860.12C187.974 874.536 207.963 901.493 227.137 928.217C246.292 954.914 266.246 981.996 296.853 996.313C340.993 1016.96 398.074 1008.91 445.389 1008.62C581.8 1007.79 718.175 1001.48 854.604 1003.85" stroke="#32322F" stroke-miterlimit="10"/>
<path d="M-289.496 1032.56C-161.102 1027.04 -89.8433 900.462 18.8658 850.109C59.6519 831.217 111.092 823.664 153.412 842.708C183.687 856.326 202.583 883.211 220.527 909.89C238.472 936.569 257.377 963.454 287.643 977.072C308.314 986.374 329.918 987.424 352.23 987.828C381.394 988.357 410.558 988.904 439.73 989.155C573.496 990.276 707.297 988.312 841.045 991.452" stroke="#32322F" stroke-miterlimit="10"/>
<path d="M-283.183 1014C-156.34 1008.62 -88.3367 883.435 18.6237 833.486C58.0466 815.079 108.473 807.606 149.609 825.296C179.741 838.25 197.525 864.839 214.322 891.617C231.056 918.296 248.929 945.145 279.034 957.937C321.264 975.887 376.704 968.612 421.597 969.671C557.165 972.864 692.76 974.892 828.31 978.758" stroke="#32322F" stroke-miterlimit="10"/>
<path d="M-277.363 995.524C-151.946 990.222 -87.0365 866.274 18.3814 816.935C57.652 798.554 108.679 790.92 149.501 809.435C177.84 822.29 193.417 847.624 208.6 873.379C224.482 900.318 240.929 926.548 271.178 938.901C289.266 946.283 308.287 947.001 327.506 947.423C357.602 948.087 387.707 949.45 417.795 950.571C550.726 955.496 683.622 961.363 816.571 965.669" stroke="#32322F" stroke-miterlimit="10"/>
<path d="M-272.125 977.117C-149.05 971.941 -86.8572 851.338 15.4668 801.398C54.4862 782.354 106.132 774.181 147.152 792.221C174.898 804.43 189.633 829.71 203.461 855.196C217.326 880.744 232.06 905.817 259.771 918.17C279.079 926.782 299.687 927.096 320.448 927.661C348.607 928.424 376.766 929.859 404.899 931.24C538.628 937.798 672.205 947.468 806.025 952.106" stroke="#32322F" stroke-miterlimit="10"/>
<path d="M-267.57 958.807C-143.184 953.479 -84.2025 829.836 20.3903 782.102C58.1004 764.888 108.76 757.953 147.52 776.218C173.607 788.508 186.602 812.423 198.977 837.093C211.954 862.964 225.818 887.723 253.798 899.547C271.967 907.217 291.329 907.585 310.691 908.051C339.361 908.742 368.041 910.482 396.666 912.187C530.1 920.117 663.211 933.331 796.824 938.031" stroke="#32322F" stroke-miterlimit="10"/>
<path d="M-263.785 940.596C-141.292 935.24 -84.579 814.782 17.4132 766.466C55.2219 748.551 106.411 740.818 145.825 758.823C171.661 770.628 183.804 794.58 195.256 819.034C206.771 843.641 218.877 867.189 244.687 879.245C264.067 888.306 285.375 888.27 306.297 888.853C335.335 889.66 364.364 891.454 393.339 893.455C525.356 902.578 656.871 918.851 789.192 923.3" stroke="#32322F" stroke-miterlimit="10"/>
<path d="M-260.862 922.511C-140.001 917.039 -85.1979 799.783 14.364 750.588C52.8722 731.561 107.729 722.626 147.753 742.962C171.518 755.037 182.351 777.733 192.377 801.075C202.986 825.771 214.564 849.131 240.418 860.703C260.471 869.674 281.94 869.431 303.427 869.997C330.492 870.714 357.548 872.428 384.551 874.446C517.572 884.359 649.849 903.969 783.3 907.943" stroke="#32322F" stroke-miterlimit="10"/>
<path d="M-258.889 904.543C-138.243 898.874 -85.2697 782.479 13.9066 733.364C52.4327 714.283 107.568 705.367 147.6 725.784C170.998 737.715 181.149 760.007 190.44 783.196C200.287 807.749 211.174 830.687 236.67 842.107C256.731 851.096 278.397 850.952 299.911 851.419C326.986 852.002 354.051 853.697 381.044 855.823C513.949 866.265 645.876 888.683 779.319 891.805" stroke="#32322F" stroke-miterlimit="10"/>
<path d="M-257.956 886.727C-136.019 880.654 -84.8661 762.869 16.032 714.714C53.4731 696.844 104.545 689.309 143.78 706.569C169.661 717.952 180.001 740.541 189.543 765.425C199.04 790.203 209.47 813.096 235.307 824.282C253.915 832.338 274.353 832.939 294.289 833.217C321.524 833.594 348.724 835.002 375.888 837.119C509.958 847.579 642.764 872.921 777.471 874.85" stroke="#32322F" stroke-miterlimit="10"/>
<path d="M-258.171 869.064C-137.499 863.224 -85.5117 747.313 13.5928 698.208C52.2983 679.028 107.496 670.219 147.681 690.762C170.89 702.63 180.791 724.617 189.785 747.708C199.318 772.18 209.963 794.795 235.271 806.161C255.35 815.177 277.205 815.257 298.773 815.58C325.9 815.993 353.011 817.563 380.058 819.725C512.819 830.328 644.387 855.114 777.803 857.052" stroke="#32322F" stroke-miterlimit="10"/>
<path d="M-259.49 851.554C-138.799 845.974 -85.198 729.274 14.0858 680.141C52.6927 661.034 107.388 652.314 147.484 672.705C170.935 684.627 181.508 706.829 191.247 729.929C201.56 754.392 212.887 777.231 238.409 788.66C258.417 797.622 280.012 797.658 301.49 798.052C328.636 798.555 355.773 800.169 382.838 802.295C515.384 812.719 646.844 836.097 779.991 838.618" stroke="#32322F" stroke-miterlimit="10"/>
<path d="M-261.83 834.177C-140.826 828.759 -85.2607 711.162 14.5164 661.912C53.2667 642.787 107.523 634.22 147.78 654.467C171.634 666.47 183.122 688.896 193.83 712.068C205.147 736.585 217.398 759.675 243.306 771.185C263.349 780.093 284.774 780.146 306.261 780.586C333.407 781.142 360.526 782.757 387.591 784.811C519.823 794.876 651.077 816.702 783.829 819.599" stroke="#32322F" stroke-miterlimit="10"/>
<path d="M-265.077 816.918C-142.333 811.571 -84.7499 690.754 17.565 642.339C55.7146 624.29 106.24 617.005 146.004 634.866C171.948 646.519 185.032 669.977 197.444 694.145C209.927 718.446 222.966 741.519 248.884 753.423C268.308 762.349 289.571 762.654 310.529 763.147C339.621 763.838 368.677 765.408 397.697 767.552C528.324 777.195 658.153 796.994 789.237 800.053" stroke="#32322F" stroke-miterlimit="10"/>
<path d="M-269.157 799.783C-144.413 794.437 -84.4716 670.399 20.5338 622.54C58.7013 605.146 108.626 598.804 147.896 616.763C174.163 628.775 188.359 651.955 201.973 676.176C216.25 701.572 231.361 725.577 259.466 737.15C277.68 744.64 297.078 745.394 316.466 745.762C345.146 746.3 373.807 747.843 402.424 749.771C533.723 758.617 664.323 776.935 795.99 780.057" stroke="#32322F" stroke-miterlimit="10"/>
<path d="M-273.973 782.739C-150.467 777.518 -87.2429 656.494 15.5743 606.42C55.1766 587.133 106.007 579.678 147.69 597.26C175.67 609.066 191.919 633.305 207.317 658.145C222.751 683.038 239.001 707.089 266.945 719.029C286.414 727.345 307.059 728.044 327.918 728.529C355.997 729.175 384.048 730.457 412.082 732.189C542.807 740.245 672.968 756.625 803.989 759.639" stroke="#32322F" stroke-miterlimit="10"/>
<path d="M-279.434 765.784C-153.507 760.42 -87.494 636.032 18.4978 586.532C58.4768 567.863 108.616 561.1 150.272 578.906C178.952 591.16 196.323 615.202 213.38 640.078C231.217 666.102 249.529 690.968 280.056 702.774C298.297 709.825 317.443 710.91 336.76 711.242C366.641 711.763 396.514 713.099 426.359 714.768C555.318 721.98 683.855 736.073 813.047 738.845" stroke="#32322F" stroke-miterlimit="10"/>
<path d="M-285.443 748.911C-158.017 743.438 -88.8658 617.804 18.7313 567.666C58.9166 548.945 108.473 542.423 150.542 559.216C181.096 571.416 201.013 596.337 220.052 621.966C239.028 647.515 259.036 672.66 289.563 684.716C332.671 701.743 386.299 694.692 431.785 696.809C562.25 702.882 692.375 715.252 823.01 717.737" stroke="#32322F" stroke-miterlimit="10"/>
<path d="M-291.918 732.091C-163.99 726.466 -91.422 601.522 16.3186 550.039C59.4543 529.424 112.5 522.499 157.393 542.163C186.951 555.116 207.38 579.364 227.235 603.818C248.023 629.421 269.393 654.422 300.835 666.972C345.558 684.833 400.719 677.468 447.971 679.316C576.598 684.357 705.01 694.306 833.744 696.369" stroke="#32322F" stroke-miterlimit="10"/>
<path d="M-298.751 715.324C-166.761 709.403 -91.1347 579.086 21.8522 528.661C64.1807 509.769 114.302 504.566 157.958 522.391C189.83 535.407 212.6 560.364 234.84 585.652C257.977 611.972 281.85 637.88 315.498 650.457C358.481 666.523 410.369 660.154 455.397 661.473C585.325 665.285 715.117 673.17 845.107 674.794" stroke="#32322F" stroke-miterlimit="10"/>
<path d="M-305.872 698.594C-174.259 692.538 -95.009 564.796 16.7223 512.138C60.97 491.281 112.132 484.867 158.649 502.503C192.807 515.457 218.151 541.499 242.741 567.469C267.349 593.466 292.701 619.373 326.833 632.435C372.758 650.008 427.579 642.984 475.853 644.007C602.884 646.689 729.851 651.982 856.918 653.085" stroke="#32322F" stroke-miterlimit="10"/>
<path d="M-313.163 681.891C-177.317 675.476 -94.8206 542.468 22.2466 490.707C66.6647 471.07 117.423 466.28 163.267 484.149C198.009 497.686 224.778 523.531 250.857 549.276C276.927 575.004 303.714 600.867 338.447 614.404C383.968 632.148 436.672 625.743 484.462 626.272C612.659 627.689 740.828 630.686 869.034 631.26" stroke="#32322F" stroke-miterlimit="10"/>
<path d="M-320.552 665.196C-184.984 658.62 -98.8565 528.025 17.0897 474.12C64.7183 451.98 118.4 446.042 167.966 465.786C203.371 479.888 231.504 505.526 259.053 531.057C286.585 556.57 314.708 582.316 350.14 596.328C398.28 615.364 454.491 608.564 505.16 608.645C630.531 608.842 755.912 609.335 881.283 609.353" stroke="#32322F" stroke-miterlimit="10"/>
<path d="M-327.942 648.51C-189.19 641.549 -99.7798 507.697 19.9688 453.945C67.0684 432.801 118.697 427.562 167.671 445.512C206.017 459.569 236.993 486.329 267.268 512.864C297.535 539.4 328.537 566.168 366.866 580.216C415.947 598.212 471.593 591.403 522.809 590.963C646.396 589.905 769.974 588.003 893.57 587.492" stroke="#32322F" stroke-miterlimit="10"/>
<path d="M-335.241 631.798C-194.436 624.568 -101.708 489.415 20.1572 434.882C69.0862 412.985 121.656 408.266 172.415 427.167C211.425 441.691 243.754 468.37 275.375 494.663C306.996 520.956 339.334 547.644 378.336 562.158C426.897 580.234 480.875 574.287 531.678 573.363C656.35 571.102 780.978 566.689 905.677 565.657" stroke="#32322F" stroke-miterlimit="10"/>
<path d="M-342.353 615.076C-199.754 607.594 -103.421 470.97 20.3546 415.98C69.5795 394.109 121.62 389.229 172.854 407.359C214.384 422.053 249.153 449.432 283.285 476.478C318.565 504.44 354.661 532.841 397.985 547.114C446.958 563.243 500.766 557.026 551.462 555.573C673.488 552.075 795.407 545.427 917.496 543.938" stroke="#32322F" stroke-miterlimit="10"/>
<path d="M-349.195 598.301C-272.959 594.238 -208.57 549.68 -148.431 506.486C-94.1658 467.517 -40.9233 424.234 20.5608 396.99C69.8843 375.128 121.728 370.239 173.132 387.535C217.084 402.318 254.354 430.594 290.872 458.305C327.389 486.015 364.66 514.291 408.612 529.074C457.254 545.437 509.276 539.965 559.667 538.09C682.761 533.515 805.639 524.284 928.832 522.355" stroke="#32322F" stroke-miterlimit="10"/>
<path d="M-355.661 581.49C-279.757 577.391 -215.062 533.479 -154.798 490.886C-98.2731 450.94 -42.9859 406.274 20.776 378.187C71.8125 355.715 124.427 351.104 177.553 369.315C222.079 384.583 260.417 412.697 298.064 440.175C335.712 467.652 374.049 495.766 418.575 511.034C469.881 528.626 524.737 522.777 577.935 520.247C698.527 514.506 818.813 503.266 939.575 501.014" stroke="#32322F" stroke-miterlimit="10"/>
<path d="M-361.67 564.607C-285.533 560.445 -220.21 516.56 -159.453 474.191C-100.471 433.06 -42.762 386.709 23.78 358.137C73.543 336.778 124.588 332.624 176.253 349.31C223.558 364.587 264.506 393.742 304.745 422.053C344.993 450.365 385.932 479.52 433.246 494.797C481.673 510.442 532.136 505.696 582.141 503.014C704.705 496.447 826.777 482.462 949.556 479.896" stroke="#32322F" stroke-miterlimit="10"/>
<path d="M-367.131 547.653C-291.487 543.517 -226.102 500.287 -165.407 458.564C-105.806 417.586 -47.7838 371.549 18.6146 341.82C71.4267 318.173 124.947 313.015 180.234 331.261C227.926 346.996 269.69 375.935 310.807 403.987C351.925 432.038 393.689 460.978 441.38 476.712C492.354 493.532 545.605 488.464 598.274 485.136C718.498 477.546 838.085 461.803 958.614 459.112" stroke="#32322F" stroke-miterlimit="10"/>
<path d="M-371.947 530.617C-303.656 526.885 -243.759 491.101 -187.988 454.249C-132.817 417.792 -80.2292 377.137 -22.6193 344.475C17.8439 321.537 63.374 300.446 110.841 300.428C151.242 300.411 190.647 313.418 226.429 331.332C298.952 367.628 359.997 424.655 436.117 454.132C513.465 484.095 602.005 468.943 682.448 461.3C777.077 452.302 871.482 440.865 966.605 438.694" stroke="#32322F" stroke-miterlimit="10"/>
<path d="M-376.028 513.474C-307.854 509.787 -247.787 474.075 -191.934 437.555C-134.432 399.95 -79.6919 357.779 -19.562 324.309C20.9999 301.73 66.1265 281.626 113.405 281.931C153.842 282.191 193.202 295.495 229.109 313.266C302.88 349.768 365.682 406.346 442.86 436.281C520.065 466.225 606.937 451.845 687.182 443.538C782.475 433.671 877.463 420.816 973.366 418.69" stroke="#32322F" stroke-miterlimit="10"/>
<path d="M-379.283 496.223C-308.939 492.491 -246.693 454.491 -189.19 416.805C-133.535 380.33 -80.1672 340.007 -22.0282 307.443C19.8341 283.994 66.7722 262.572 115.755 263.451C156.137 264.178 195.309 277.706 231.208 295.351C305.893 332.041 370.193 388.18 448.169 418.447C526.575 448.885 614.084 434.478 695.504 425.354C789.793 414.787 883.732 401.062 978.747 399.142" stroke="#32322F" stroke-miterlimit="10"/>
<path d="M-381.614 478.847C-311.082 475.205 -248.459 436.811 -190.741 399.187C-134.512 362.533 -80.5434 322.057 -21.8573 289.296C20.0946 265.883 67.0686 244.344 116.123 245.223C156.631 245.95 195.911 259.63 231.98 277.186C307.938 314.145 373.762 370.373 452.958 400.955C531.454 431.267 618.658 417.192 700.078 407.53C794.125 396.371 887.741 381.739 982.612 380.125" stroke="#32322F" stroke-miterlimit="10"/>
<path d="M-382.942 461.336C-312.911 457.891 -250.602 419.703 -193.198 382.519C-135.023 344.833 -79.2789 302.931 -18.3867 269.578C21.8344 247.546 66.4229 227.174 113.2 227.183C154.981 227.183 195.633 241.473 232.805 259.513C309.104 296.535 375.655 352.153 455.057 383.031C534.279 413.836 622.497 399.842 704.679 389.615C797.9 378.016 890.646 362.847 984.801 361.68" stroke="#32322F" stroke-miterlimit="10"/>
<path d="M-383.211 443.674C-313.288 439.978 -250.961 401.771 -193.521 364.776C-135.149 327.18 -79.1622 285.412 -18.1266 252.086C21.9421 230.207 66.6113 209.538 113.218 209.547C154.793 209.547 195.391 224.116 232.392 241.976C309.113 279.007 376.372 334.294 456.115 365.287C535.284 396.057 623.134 382.422 705.253 372.033C798.429 360.255 891.077 344.754 985.231 343.892" stroke="#32322F" stroke-miterlimit="10"/>
<path d="M-383.211 425.964C-313.476 421.264 -251.283 383.892 -193.566 347.264C-135.31 310.296 -79.3505 269.309 -18.557 236.476C21.2875 214.955 66.5665 193.605 112.859 193.578C154.183 193.56 195.193 208.721 232.007 226.259C308.682 262.787 376.354 316.899 455.909 347.623C535.481 378.357 622.488 365.035 705.011 354.782C798.205 343.192 890.916 328.031 985.043 326.928" stroke="#32322F" stroke-miterlimit="10"/>
<path d="M-383.211 408.265C-313.781 402.874 -251.723 366.551 -193.754 330.516C-135.669 294.409 -79.7631 254.409 -19.2656 222.303C20.4444 201.23 66.127 179.62 112.114 179.584C153.232 179.548 194.539 194.978 231.28 212.121C307.929 247.878 376.067 300.599 455.424 330.776C535.364 361.178 621.707 348.224 704.544 338.168C797.783 326.847 890.557 312.099 984.675 310.816" stroke="#32322F" stroke-miterlimit="10"/>
<path d="M-383.202 390.557C-314.185 384.762 -252.262 349.687 -194.087 314.459C-136.208 279.41 -80.4005 240.585 -20.2437 209.421C19.4214 188.869 65.3103 167.402 111.002 167.348C151.94 167.304 193.444 182.697 230.212 199.383C306.843 234.144 375.493 285.25 454.661 314.629C534.942 344.421 620.765 331.88 703.844 322.093C797.137 311.104 890 296.822 984.11 295.441" stroke="#32322F" stroke-miterlimit="10"/>
<path d="M-383.202 372.867C-314.149 366.857 -251.867 332.741 -193.118 298.195C-136.988 265.192 -82.6514 228.897 -24.5841 199.275C16.749 178.194 65.1579 155.866 112.625 156.88C152.281 157.732 192.17 171.941 228.105 187.622C305.337 221.316 375.008 271.166 454.653 299.523C534.306 327.879 618.748 316.047 700.974 306.753C794.994 296.132 888.601 282.2 983.374 280.756" stroke="#32322F" stroke-miterlimit="10"/>
<path d="M-383.202 355.168C-314.714 349.229 -252.602 316.72 -193.692 283.357C-137.84 251.727 -83.6648 216.893 -25.9921 188.555C15.4486 168.191 63.7409 146.716 110.903 147.702C150.461 148.537 190.368 162.235 226.482 177.333C303.722 209.618 373.986 257.45 453.451 284.604C533.373 311.92 617.591 300.554 699.907 291.646C793.999 281.465 887.722 268.134 982.513 266.69" stroke="#32322F" stroke-miterlimit="10"/>
<path d="M-383.202 337.478C-252.791 326.56 -142.566 232.834 -27.5973 178.768C14.0139 159.194 62.0371 138.857 108.912 139.799C148.398 140.589 188.269 153.623 224.616 168.066C301.875 198.773 372.749 244.425 452.043 270.215C532.225 296.293 616.308 285.439 698.67 276.961C792.851 267.264 886.691 254.579 981.5 253.189" stroke="#32322F" stroke-miterlimit="10"/>
<path d="M-383.202 319.787C-254.253 309.686 -144.216 221.092 -29.364 169.761C12.4713 151.066 60.091 132.093 106.706 132.972C146.138 133.717 185.938 145.926 222.545 159.651C299.839 188.636 371.332 231.964 450.465 256.248C530.889 280.926 614.909 270.601 697.289 262.59C791.559 253.422 885.534 241.419 980.37 240.119" stroke="#32322F" stroke-miterlimit="10"/>
<path d="M-383.211 302.097C-255.822 293.064 -145.947 209.771 -31.2648 161.419C10.8216 143.675 57.957 126.254 104.312 127.052C143.708 127.734 183.409 139.019 220.312 151.973C297.652 179.118 369.781 219.988 448.761 242.648C529.409 265.784 613.439 256.024 695.8 248.515C790.17 239.912 884.279 228.618 979.151 227.452" stroke="#32322F" stroke-miterlimit="10"/>
<path d="M-383.211 284.407C-257.445 276.629 -147.704 198.782 -33.2736 153.623C9.09086 136.911 55.6613 121.176 101.765 121.894C141.143 122.504 180.719 132.775 217.936 144.904C295.329 170.12 368.104 208.416 446.941 229.363C527.804 250.848 611.879 241.671 694.213 234.682C788.69 226.663 882.934 216.122 977.85 215.099" stroke="#32322F" stroke-miterlimit="10"/>
<path d="M-383.211 266.726C-259.122 260.33 -149.489 188.044 -35.3631 146.258C7.27937 130.649 53.2489 116.691 99.1109 117.319C138.489 117.857 177.921 127.061 215.461 138.31C292.917 161.526 366.319 197.158 445.039 216.328C526.109 236.073 610.255 227.497 692.563 221.056C787.148 213.646 881.535 203.877 976.496 203.025" stroke="#32322F" stroke-miterlimit="10"/>
<path d="M-383.211 249.045C-259.983 244.066 -149.704 176.552 -35.0762 138.364C6.5529 124.495 50.433 112.95 94.6179 113.165C134.328 113.363 173.966 121.427 212.142 131.797C290.298 153.031 364.857 186.285 444.116 203.644C524.396 221.235 607.592 213.467 688.859 207.681C784.233 200.89 879.419 191.767 975.106 191.103" stroke="#32322F" stroke-miterlimit="10"/>
<path d="M-383.211 231.354C-261.678 227.892 -151.498 166.119 -37.2823 131.528C46.2987 106.213 124.894 104.993 209.533 125.715C287.76 144.868 362.947 175.296 442.107 190.825C522.594 206.613 605.843 199.455 687.119 194.216C782.61 188.062 877.939 179.737 973.68 179.27" stroke="#32322F" stroke-miterlimit="10"/>
<path d="M-383.22 213.673C-263.364 211.7 -153.265 155.705 -39.4976 124.747C43.3839 102.194 123.172 101.441 206.914 119.696C285.231 136.767 361.001 164.343 440.089 178.042C520.782 192.018 604.058 185.478 685.361 180.787C780.959 175.27 876.432 167.752 972.245 167.483" stroke="#32322F" stroke-miterlimit="10"/>
<path d="M-383.22 195.992C-264.996 195.454 -154.968 145.2 -41.6947 117.884C40.5322 98.0586 121.405 97.7087 204.322 113.587C282.729 128.595 359.064 153.318 438.098 165.213C518.998 177.396 602.274 171.466 683.631 167.312C779.336 162.432 874.943 155.713 970.828 155.633" stroke="#32322F" stroke-miterlimit="10"/>
<path d="M-383.22 178.302C-266.547 179.091 -156.592 134.525 -43.8469 110.815C37.8149 93.6363 119.593 93.6452 201.784 107.245C280.29 120.234 357.145 142.114 436.152 152.269C517.258 162.693 600.498 157.382 681.945 153.758C777.758 149.497 873.5 143.567 969.447 143.675" stroke="#32322F" stroke-miterlimit="10"/>
<path d="M-383.22 160.62C-268.018 162.594 -158.134 123.625 -45.9364 103.423C35.2771 88.8008 117.719 89.0968 199.327 100.552C277.94 111.586 355.271 130.676 434.269 139.144C515.59 147.864 598.75 143.163 680.304 140.059C776.225 136.408 872.083 131.25 968.102 131.528" stroke="#32322F" stroke-miterlimit="10"/>
<path d="M-383.22 142.93C-269.363 145.899 -159.578 112.385 -47.9274 95.5647C32.9722 83.3735 115.809 83.8938 196.986 93.349C275.707 102.517 353.477 118.879 432.484 125.76C514.011 132.865 597.063 128.765 678.743 126.155C774.763 123.087 870.737 118.673 966.829 119.104" stroke="#32322F" stroke-miterlimit="10"/>
<path d="M-383.22 125.24C-271.578 128.945 -162.842 101.253 -52.7521 87.5004C28.7124 77.3276 112.311 77.8031 194 85.4461C273.456 92.8828 352.212 106.778 431.874 112.143C609.035 124.083 788.241 105.334 965.645 106.339" stroke="#32322F" stroke-miterlimit="10"/>
<path d="M-383.22 107.55C-272.628 111.784 -164.044 89.061 -54.465 78.2872C26.9547 70.2853 110.428 70.9133 191.991 76.8609C271.555 82.6649 350.652 94.0128 430.359 98.0407C607.977 107.011 786.789 92.0123 964.56 93.1695" stroke="#32322F" stroke-miterlimit="10"/>
<path d="M-383.22 89.8591C-273.524 94.3265 -165.102 76.3042 -56.0166 68.2396C106.527 56.2278 266.882 77.7037 429.004 83.4719C606.964 89.8052 785.542 78.2778 963.582 79.5068" stroke="#32322F" stroke-miterlimit="10"/>
<path d="M-383.22 72.1602C-274.26 76.5469 -166.017 62.9026 -57.3796 57.2421C104.778 48.7916 265.887 64.6697 427.839 68.3746C606.022 72.4563 784.493 64.0597 962.73 65.2797" stroke="#32322F" stroke-miterlimit="10"/>
<path d="M-383.22 54.4603C-274.825 58.3985 -166.779 48.7908 -58.5186 45.1756C103.451 39.7663 265.017 50.6298 426.906 52.6931C605.242 54.9627 783.686 49.329 962.048 50.4324" stroke="#32322F" stroke-miterlimit="10"/>
<path d="M-383.22 36.762C-275.228 39.8658 -167.371 33.8824 -59.4242 31.9178C102.492 28.9664 264.309 35.4881 426.216 36.3493C604.641 37.3002 783.094 34.0079 961.529 34.8781" stroke="#32322F" stroke-miterlimit="10"/>
<path d="M-383.22 19.0537C-275.488 20.8927 -167.784 18.0849 -60.0519 17.3313C101.9 16.192 263.843 19.1075 425.803 19.26C604.265 19.4304 782.735 18.0131 961.197 18.5334" stroke="#32322F" stroke-miterlimit="10"/>
<path d="M-383.211 1.34556C-275.605 1.44423 -167.99 1.32756 -60.3837 1.30065C280.101 1.22887 620.595 1.29169 961.08 1.3455" stroke="#32322F" stroke-miterlimit="10"/>
<path d="M-346.72 1181.85C-272.107 1177.96 -209.036 1134.92 -150.171 1092.58C-95.3407 1053.13 -41.7663 1008.98 20.4262 981.413C69.4717 959.668 122.347 953.155 172.612 974.945C213.766 992.788 245.745 1025.42 276.837 1056.75C307.92 1088.07 339.899 1120.71 381.062 1138.55C432.269 1160.76 489.915 1151.71 543.561 1145.1C681.398 1128.12 817.352 1092.39 956.561 1087.75" stroke="#32322F" stroke-miterlimit="10"/>
<path d="M-339.77 1163.22C-197.817 1155.96 -102.918 1019.87 20.2201 964.908C67.5258 943.79 119.638 937.098 168.307 957.543C209.022 974.641 239.988 1007.13 269.986 1038.41C299.983 1069.69 330.958 1102.2 371.664 1119.28C419.938 1139.56 474.427 1131.52 524.944 1126.27C664.341 1111.79 802.079 1079.34 942.508 1075.56" stroke="#32322F" stroke-miterlimit="10"/>
<path d="M-332.578 1144.55C-192.759 1137.56 -100.811 1002.67 20.0226 948.563C67.1221 927.482 119.495 920.789 167.841 941.915C206.25 958.7 234.993 989.828 262.91 1020.05C291.751 1051.28 321.641 1083.6 361.889 1099.9C410.432 1119.55 467.199 1110.76 517.886 1106.13C654.691 1093.64 790.385 1066.28 928.007 1063.55" stroke="#32322F" stroke-miterlimit="10"/>
<path d="M-325.233 1125.87C-187.271 1119.14 -99.0176 985.737 19.8432 932.119C66.4764 911.083 119.602 904.508 167.321 926.226C203.336 942.615 229.953 972.622 255.691 1001.69C281.428 1030.73 308.063 1060.76 344.06 1077.15C391.375 1098.68 448.169 1090.68 498.407 1087.07C636.791 1077.16 774.251 1053.39 913.182 1051.67" stroke="#32322F" stroke-miterlimit="10"/>
<path d="M-317.835 1107.17C-181.926 1100.73 -97.0623 968.648 19.6551 915.811C64.5665 895.483 116.67 888.513 162.891 908.867C198.449 924.521 223.864 954.304 248.409 983.306C272.945 1012.3 298.387 1042.09 333.927 1057.75C381.816 1078.84 440.582 1070 491.126 1067.08C626.891 1059.25 762.109 1040.46 898.251 1039.83" stroke="#32322F" stroke-miterlimit="10"/>
<path d="M-310.473 1088.48C-176.555 1082.3 -95.117 951.649 19.4661 899.359C62.7453 879.605 113.62 872.671 158.523 891.545C193.65 906.311 217.917 936.031 241.171 964.925C264.47 993.883 288.701 1023.41 323.819 1038.31C368.802 1057.39 423.857 1049.64 471.449 1047.81C608.811 1042.52 745.832 1027.54 883.391 1027.96" stroke="#32322F" stroke-miterlimit="10"/>
<path d="M-303.226 1069.8C-171.227 1063.87 -93.2962 934.578 19.2781 883.023C62.1089 863.404 113.648 856.218 157.913 875.882C190.807 890.504 212.806 918.663 234.042 946.553C256.094 975.511 279.097 1004.74 313.847 1018.86C358.974 1037.18 417.149 1029.17 464.625 1028.04C599.359 1024.83 733.949 1014.58 868.773 1015.99" stroke="#32322F" stroke-miterlimit="10"/>
<path d="M-296.204 1051.16C-166.08 1045.45 -91.4487 917.56 19.0719 866.525C61.266 847.041 114.06 839.658 157.42 860.12C187.974 874.536 207.963 901.493 227.137 928.217C246.292 954.914 266.246 981.996 296.853 996.313C340.993 1016.96 398.074 1008.91 445.389 1008.62C581.8 1007.79 718.175 1001.48 854.604 1003.85" stroke="#32322F" stroke-miterlimit="10"/>
<path d="M-289.496 1032.56C-161.102 1027.04 -89.8433 900.462 18.8658 850.109C59.6519 831.217 111.092 823.664 153.412 842.708C183.687 856.326 202.583 883.211 220.527 909.89C238.472 936.569 257.377 963.454 287.643 977.072C308.314 986.374 329.918 987.424 352.23 987.828C381.394 988.357 410.558 988.904 439.73 989.155C573.496 990.276 707.297 988.312 841.045 991.452" stroke="#32322F" stroke-miterlimit="10"/>
<path d="M-283.183 1014C-156.34 1008.62 -88.3367 883.435 18.6237 833.486C58.0466 815.079 108.473 807.606 149.609 825.296C179.741 838.25 197.525 864.839 214.322 891.617C231.056 918.296 248.929 945.145 279.034 957.937C321.264 975.887 376.704 968.612 421.597 969.671C557.165 972.864 692.76 974.892 828.31 978.758" stroke="#32322F" stroke-miterlimit="10"/>
<path d="M-277.363 995.524C-151.946 990.222 -87.0365 866.274 18.3814 816.935C57.652 798.554 108.679 790.92 149.501 809.435C177.84 822.29 193.417 847.624 208.6 873.379C224.482 900.318 240.929 926.548 271.178 938.901C289.266 946.283 308.287 947.001 327.506 947.423C357.602 948.087 387.707 949.45 417.795 950.571C550.726 955.496 683.622 961.363 816.571 965.669" stroke="#32322F" stroke-miterlimit="10"/>
<path d="M-272.125 977.117C-149.05 971.941 -86.8572 851.338 15.4668 801.398C54.4862 782.354 106.132 774.181 147.152 792.221C174.898 804.43 189.633 829.71 203.461 855.196C217.326 880.744 232.06 905.817 259.771 918.17C279.079 926.782 299.687 927.096 320.448 927.661C348.607 928.424 376.766 929.859 404.899 931.24C538.628 937.798 672.205 947.468 806.025 952.106" stroke="#32322F" stroke-miterlimit="10"/>
<path d="M-267.57 958.807C-143.184 953.479 -84.2025 829.836 20.3903 782.102C58.1004 764.888 108.76 757.953 147.52 776.218C173.607 788.508 186.602 812.423 198.977 837.093C211.954 862.964 225.818 887.723 253.798 899.547C271.967 907.217 291.329 907.585 310.691 908.051C339.361 908.742 368.041 910.482 396.666 912.187C530.1 920.117 663.211 933.331 796.824 938.031" stroke="#32322F" stroke-miterlimit="10"/>
<path d="M-263.785 940.596C-141.292 935.24 -84.579 814.782 17.4132 766.466C55.2219 748.551 106.411 740.818 145.825 758.823C171.661 770.628 183.804 794.58 195.256 819.034C206.771 843.641 218.877 867.189 244.687 879.245C264.067 888.306 285.375 888.27 306.297 888.853C335.335 889.66 364.364 891.454 393.339 893.455C525.356 902.578 656.871 918.851 789.192 923.3" stroke="#32322F" stroke-miterlimit="10"/>
<path d="M-260.862 922.511C-140.001 917.039 -85.1979 799.783 14.364 750.588C52.8722 731.561 107.729 722.626 147.753 742.962C171.518 755.037 182.351 777.733 192.377 801.075C202.986 825.771 214.564 849.131 240.418 860.703C260.471 869.674 281.94 869.431 303.427 869.997C330.492 870.714 357.548 872.428 384.551 874.446C517.572 884.359 649.849 903.969 783.3 907.943" stroke="#32322F" stroke-miterlimit="10"/>
<path d="M-258.889 904.543C-138.243 898.874 -85.2697 782.479 13.9066 733.364C52.4327 714.283 107.568 705.367 147.6 725.784C170.998 737.715 181.149 760.007 190.44 783.196C200.287 807.749 211.174 830.687 236.67 842.107C256.731 851.096 278.397 850.952 299.911 851.419C326.986 852.002 354.051 853.697 381.044 855.823C513.949 866.265 645.876 888.683 779.319 891.805" stroke="#32322F" stroke-miterlimit="10"/>
<path d="M-257.956 886.727C-136.019 880.654 -84.8661 762.869 16.032 714.714C53.4731 696.844 104.545 689.309 143.78 706.569C169.661 717.952 180.001 740.541 189.543 765.425C199.04 790.203 209.47 813.096 235.307 824.282C253.915 832.338 274.353 832.939 294.289 833.217C321.524 833.594 348.724 835.002 375.888 837.119C509.958 847.579 642.764 872.921 777.471 874.85" stroke="#32322F" stroke-miterlimit="10"/>
<path d="M-258.171 869.064C-137.499 863.224 -85.5117 747.313 13.5928 698.208C52.2983 679.028 107.496 670.219 147.681 690.762C170.89 702.63 180.791 724.617 189.785 747.708C199.318 772.18 209.963 794.795 235.271 806.161C255.35 815.177 277.205 815.257 298.773 815.58C325.9 815.993 353.011 817.563 380.058 819.725C512.819 830.328 644.387 855.114 777.803 857.052" stroke="#32322F" stroke-miterlimit="10"/>
<path d="M-259.49 851.554C-138.799 845.974 -85.198 729.274 14.0858 680.141C52.6927 661.034 107.388 652.314 147.484 672.705C170.935 684.627 181.508 706.829 191.247 729.929C201.56 754.392 212.887 777.231 238.409 788.66C258.417 797.622 280.012 797.658 301.49 798.052C328.636 798.555 355.773 800.169 382.838 802.295C515.384 812.719 646.844 836.097 779.991 838.618" stroke="#32322F" stroke-miterlimit="10"/>
<path d="M-261.83 834.177C-140.826 828.759 -85.2607 711.162 14.5164 661.912C53.2667 642.787 107.523 634.22 147.78 654.467C171.634 666.47 183.122 688.896 193.83 712.068C205.147 736.585 217.398 759.675 243.306 771.185C263.349 780.093 284.774 780.146 306.261 780.586C333.407 781.142 360.526 782.757 387.591 784.811C519.823 794.876 651.077 816.702 783.829 819.599" stroke="#32322F" stroke-miterlimit="10"/>
<path d="M-265.077 816.918C-142.333 811.571 -84.7499 690.754 17.565 642.339C55.7146 624.29 106.24 617.005 146.004 634.866C171.948 646.519 185.032 669.977 197.444 694.145C209.927 718.446 222.966 741.519 248.884 753.423C268.308 762.349 289.571 762.654 310.529 763.147C339.621 763.838 368.677 765.408 397.697 767.552C528.324 777.195 658.153 796.994 789.237 800.053" stroke="#32322F" stroke-miterlimit="10"/>
<path d="M-269.157 799.783C-144.413 794.437 -84.4716 670.399 20.5338 622.54C58.7013 605.146 108.626 598.804 147.896 616.763C174.163 628.775 188.359 651.955 201.973 676.176C216.25 701.572 231.361 725.577 259.466 737.15C277.68 744.64 297.078 745.394 316.466 745.762C345.146 746.3 373.807 747.843 402.424 749.771C533.723 758.617 664.323 776.935 795.99 780.057" stroke="#32322F" stroke-miterlimit="10"/>
<path d="M-273.973 782.739C-150.467 777.518 -87.2429 656.494 15.5743 606.42C55.1766 587.133 106.007 579.678 147.69 597.26C175.67 609.066 191.919 633.305 207.317 658.145C222.751 683.038 239.001 707.089 266.945 719.029C286.414 727.345 307.059 728.044 327.918 728.529C355.997 729.175 384.048 730.457 412.082 732.189C542.807 740.245 672.968 756.625 803.989 759.639" stroke="#32322F" stroke-miterlimit="10"/>
<path d="M-279.434 765.784C-153.507 760.42 -87.494 636.032 18.4978 586.532C58.4768 567.863 108.616 561.1 150.272 578.906C178.952 591.16 196.323 615.202 213.38 640.078C231.217 666.102 249.529 690.968 280.056 702.774C298.297 709.825 317.443 710.91 336.76 711.242C366.641 711.763 396.514 713.099 426.359 714.768C555.318 721.98 683.855 736.073 813.047 738.845" stroke="#32322F" stroke-miterlimit="10"/>
<path d="M-285.443 748.911C-158.017 743.438 -88.8658 617.804 18.7313 567.666C58.9166 548.945 108.473 542.423 150.542 559.216C181.096 571.416 201.013 596.337 220.052 621.966C239.028 647.515 259.036 672.66 289.563 684.716C332.671 701.743 386.299 694.692 431.785 696.809C562.25 702.882 692.375 715.252 823.01 717.737" stroke="#32322F" stroke-miterlimit="10"/>
<path d="M-291.918 732.091C-163.99 726.466 -91.422 601.522 16.3186 550.039C59.4543 529.424 112.5 522.499 157.393 542.163C186.951 555.116 207.38 579.364 227.235 603.818C248.023 629.421 269.393 654.422 300.835 666.972C345.558 684.833 400.719 677.468 447.971 679.316C576.598 684.357 705.01 694.306 833.744 696.369" stroke="#32322F" stroke-miterlimit="10"/>
<path d="M-298.751 715.324C-166.761 709.403 -91.1347 579.086 21.8522 528.661C64.1807 509.769 114.302 504.566 157.958 522.391C189.83 535.407 212.6 560.364 234.84 585.652C257.977 611.972 281.85 637.88 315.498 650.457C358.481 666.523 410.369 660.154 455.397 661.473C585.325 665.285 715.117 673.17 845.107 674.794" stroke="#32322F" stroke-miterlimit="10"/>
<path d="M-305.872 698.594C-174.259 692.538 -95.009 564.796 16.7223 512.138C60.97 491.281 112.132 484.867 158.649 502.503C192.807 515.457 218.151 541.499 242.741 567.469C267.349 593.466 292.701 619.373 326.833 632.435C372.758 650.008 427.579 642.984 475.853 644.007C602.884 646.689 729.851 651.982 856.918 653.085" stroke="#32322F" stroke-miterlimit="10"/>
<path d="M-313.163 681.891C-177.317 675.476 -94.8206 542.468 22.2466 490.707C66.6647 471.07 117.423 466.28 163.267 484.149C198.009 497.686 224.778 523.531 250.857 549.276C276.927 575.004 303.714 600.867 338.447 614.404C383.968 632.148 436.672 625.743 484.462 626.272C612.659 627.689 740.828 630.686 869.034 631.26" stroke="#32322F" stroke-miterlimit="10"/>
<path d="M-320.552 665.196C-184.984 658.62 -98.8565 528.025 17.0897 474.12C64.7183 451.98 118.4 446.042 167.966 465.786C203.371 479.888 231.504 505.526 259.053 531.057C286.585 556.57 314.708 582.316 350.14 596.328C398.28 615.364 454.491 608.564 505.16 608.645C630.531 608.842 755.912 609.335 881.283 609.353" stroke="#32322F" stroke-miterlimit="10"/>
<path d="M-327.942 648.51C-189.19 641.549 -99.7798 507.697 19.9688 453.945C67.0684 432.801 118.697 427.562 167.671 445.512C206.017 459.569 236.993 486.329 267.268 512.864C297.535 539.4 328.537 566.168 366.866 580.216C415.947 598.212 471.593 591.403 522.809 590.963C646.396 589.905 769.974 588.003 893.57 587.492" stroke="#32322F" stroke-miterlimit="10"/>
<path d="M-335.241 631.798C-194.436 624.568 -101.708 489.415 20.1572 434.882C69.0862 412.985 121.656 408.266 172.415 427.167C211.425 441.691 243.754 468.37 275.375 494.663C306.996 520.956 339.334 547.644 378.336 562.158C426.897 580.234 480.875 574.287 531.678 573.363C656.35 571.102 780.978 566.689 905.677 565.657" stroke="#32322F" stroke-miterlimit="10"/>
<path d="M-342.353 615.076C-199.754 607.594 -103.421 470.97 20.3546 415.98C69.5795 394.109 121.62 389.229 172.854 407.359C214.384 422.053 249.153 449.432 283.285 476.478C318.565 504.44 354.661 532.841 397.985 547.114C446.958 563.243 500.766 557.026 551.462 555.573C673.488 552.075 795.407 545.427 917.496 543.938" stroke="#32322F" stroke-miterlimit="10"/>
<path d="M-349.195 598.301C-272.959 594.238 -208.57 549.68 -148.431 506.486C-94.1658 467.517 -40.9233 424.234 20.5608 396.99C69.8843 375.128 121.728 370.239 173.132 387.535C217.084 402.318 254.354 430.594 290.872 458.305C327.389 486.015 364.66 514.291 408.612 529.074C457.254 545.437 509.276 539.965 559.667 538.09C682.761 533.515 805.639 524.284 928.832 522.355" stroke="#32322F" stroke-miterlimit="10"/>
<path d="M-355.661 581.49C-279.757 577.391 -215.062 533.479 -154.798 490.886C-98.2731 450.94 -42.9859 406.274 20.776 378.187C71.8125 355.715 124.427 351.104 177.553 369.315C222.079 384.583 260.417 412.697 298.064 440.175C335.712 467.652 374.049 495.766 418.575 511.034C469.881 528.626 524.737 522.777 577.935 520.247C698.527 514.506 818.813 503.266 939.575 501.014" stroke="#32322F" stroke-miterlimit="10"/>
<path d="M-361.67 564.607C-285.533 560.445 -220.21 516.56 -159.453 474.191C-100.471 433.06 -42.762 386.709 23.78 358.137C73.543 336.778 124.588 332.624 176.253 349.31C223.558 364.587 264.506 393.742 304.745 422.053C344.993 450.365 385.932 479.52 433.246 494.797C481.673 510.442 532.136 505.696 582.141 503.014C704.705 496.447 826.777 482.462 949.556 479.896" stroke="#32322F" stroke-miterlimit="10"/>
<path d="M-367.131 547.653C-291.487 543.517 -226.102 500.287 -165.407 458.564C-105.806 417.586 -47.7838 371.549 18.6146 341.82C71.4267 318.173 124.947 313.015 180.234 331.261C227.926 346.996 269.69 375.935 310.807 403.987C351.925 432.038 393.689 460.978 441.38 476.712C492.354 493.532 545.605 488.464 598.274 485.136C718.498 477.546 838.085 461.803 958.614 459.112" stroke="#32322F" stroke-miterlimit="10"/>
<path d="M-371.947 530.617C-303.656 526.885 -243.759 491.101 -187.988 454.249C-132.817 417.792 -80.2292 377.137 -22.6193 344.475C17.8439 321.537 63.374 300.446 110.841 300.428C151.242 300.411 190.647 313.418 226.429 331.332C298.952 367.628 359.997 424.655 436.117 454.132C513.465 484.095 602.005 468.943 682.448 461.3C777.077 452.302 871.482 440.865 966.605 438.694" stroke="#32322F" stroke-miterlimit="10"/>
<path d="M-376.028 513.474C-307.854 509.787 -247.787 474.075 -191.934 437.555C-134.432 399.95 -79.6919 357.779 -19.562 324.309C20.9999 301.73 66.1265 281.626 113.405 281.931C153.842 282.191 193.202 295.495 229.109 313.266C302.88 349.768 365.682 406.346 442.86 436.281C520.065 466.225 606.937 451.845 687.182 443.538C782.475 433.671 877.463 420.816 973.366 418.69" stroke="#32322F" stroke-miterlimit="10"/>
<path d="M-379.283 496.223C-308.939 492.491 -246.693 454.491 -189.19 416.805C-133.535 380.33 -80.1672 340.007 -22.0282 307.443C19.8341 283.994 66.7722 262.572 115.755 263.451C156.137 264.178 195.309 277.706 231.208 295.351C305.893 332.041 370.193 388.18 448.169 418.447C526.575 448.885 614.084 434.478 695.504 425.354C789.793 414.787 883.732 401.062 978.747 399.142" stroke="#32322F" stroke-miterlimit="10"/>
<path d="M-381.614 478.847C-311.082 475.205 -248.459 436.811 -190.741 399.187C-134.512 362.533 -80.5434 322.057 -21.8573 289.296C20.0946 265.883 67.0686 244.344 116.123 245.223C156.631 245.95 195.911 259.63 231.98 277.186C307.938 314.145 373.762 370.373 452.958 400.955C531.454 431.267 618.658 417.192 700.078 407.53C794.125 396.371 887.741 381.739 982.612 380.125" stroke="#32322F" stroke-miterlimit="10"/>
<path d="M-382.942 461.336C-312.911 457.891 -250.602 419.703 -193.198 382.519C-135.023 344.833 -79.2789 302.931 -18.3867 269.578C21.8344 247.546 66.4229 227.174 113.2 227.183C154.981 227.183 195.633 241.473 232.805 259.513C309.104 296.535 375.655 352.153 455.057 383.031C534.279 413.836 622.497 399.842 704.679 389.615C797.9 378.016 890.646 362.847 984.801 361.68" stroke="#32322F" stroke-miterlimit="10"/>
<path d="M-383.211 443.674C-313.288 439.978 -250.961 401.771 -193.521 364.776C-135.149 327.18 -79.1622 285.412 -18.1266 252.086C21.9421 230.207 66.6113 209.538 113.218 209.547C154.793 209.547 195.391 224.116 232.392 241.976C309.113 279.007 376.372 334.294 456.115 365.287C535.284 396.057 623.134 382.422 705.253 372.033C798.429 360.255 891.077 344.754 985.231 343.892" stroke="#32322F" stroke-miterlimit="10"/>
<path d="M-383.211 425.964C-313.476 421.264 -251.283 383.892 -193.566 347.264C-135.31 310.296 -79.3505 269.309 -18.557 236.476C21.2875 214.955 66.5665 193.605 112.859 193.578C154.183 193.56 195.193 208.721 232.007 226.259C308.682 262.787 376.354 316.899 455.909 347.623C535.481 378.357 622.488 365.035 705.011 354.782C798.205 343.192 890.916 328.031 985.043 326.928" stroke="#32322F" stroke-miterlimit="10"/>
<path d="M-383.211 408.265C-313.781 402.874 -251.723 366.551 -193.754 330.516C-135.669 294.409 -79.7631 254.409 -19.2656 222.303C20.4444 201.23 66.127 179.62 112.114 179.584C153.232 179.548 194.539 194.978 231.28 212.121C307.929 247.878 376.067 300.599 455.424 330.776C535.364 361.178 621.707 348.224 704.544 338.168C797.783 326.847 890.557 312.099 984.675 310.816" stroke="#32322F" stroke-miterlimit="10"/>
<path d="M-383.202 390.557C-314.185 384.762 -252.262 349.687 -194.087 314.459C-136.208 279.41 -80.4005 240.585 -20.2437 209.421C19.4214 188.869 65.3103 167.402 111.002 167.348C151.94 167.304 193.444 182.697 230.212 199.383C306.843 234.144 375.493 285.25 454.661 314.629C534.942 344.421 620.765 331.88 703.844 322.093C797.137 311.104 890 296.822 984.11 295.441" stroke="#32322F" stroke-miterlimit="10"/>
<path d="M-383.202 372.867C-314.149 366.857 -251.867 332.741 -193.118 298.195C-136.988 265.192 -82.6514 228.897 -24.5841 199.275C16.749 178.194 65.1579 155.866 112.625 156.88C152.281 157.732 192.17 171.941 228.105 187.622C305.337 221.316 375.008 271.166 454.653 299.523C534.306 327.879 618.748 316.047 700.974 306.753C794.994 296.132 888.601 282.2 983.374 280.756" stroke="#32322F" stroke-miterlimit="10"/>
<path d="M-383.202 355.168C-314.714 349.229 -252.602 316.72 -193.692 283.357C-137.84 251.727 -83.6648 216.893 -25.9921 188.555C15.4486 168.191 63.7409 146.716 110.903 147.702C150.461 148.537 190.368 162.235 226.482 177.333C303.722 209.618 373.986 257.45 453.451 284.604C533.373 311.92 617.591 300.554 699.907 291.646C793.999 281.465 887.722 268.134 982.513 266.69" stroke="#32322F" stroke-miterlimit="10"/>
<path d="M-383.202 337.478C-252.791 326.56 -142.566 232.834 -27.5973 178.768C14.0139 159.194 62.0371 138.857 108.912 139.799C148.398 140.589 188.269 153.623 224.616 168.066C301.875 198.773 372.749 244.425 452.043 270.215C532.225 296.293 616.308 285.439 698.67 276.961C792.851 267.264 886.691 254.579 981.5 253.189" stroke="#32322F" stroke-miterlimit="10"/>
<path d="M-383.202 319.787C-254.253 309.686 -144.216 221.092 -29.364 169.761C12.4713 151.066 60.091 132.093 106.706 132.972C146.138 133.717 185.938 145.926 222.545 159.651C299.839 188.636 371.332 231.964 450.465 256.248C530.889 280.926 614.909 270.601 697.289 262.59C791.559 253.422 885.534 241.419 980.37 240.119" stroke="#32322F" stroke-miterlimit="10"/>
<path d="M-383.211 302.097C-255.822 293.064 -145.947 209.771 -31.2648 161.419C10.8216 143.675 57.957 126.254 104.312 127.052C143.708 127.734 183.409 139.019 220.312 151.973C297.652 179.118 369.781 219.988 448.761 242.648C529.409 265.784 613.439 256.024 695.8 248.515C790.17 239.912 884.279 228.618 979.151 227.452" stroke="#32322F" stroke-miterlimit="10"/>
<path d="M-383.211 284.407C-257.445 276.629 -147.704 198.782 -33.2736 153.623C9.09086 136.911 55.6613 121.176 101.765 121.894C141.143 122.504 180.719 132.775 217.936 144.904C295.329 170.12 368.104 208.416 446.941 229.363C527.804 250.848 611.879 241.671 694.213 234.682C788.69 226.663 882.934 216.122 977.85 215.099" stroke="#32322F" stroke-miterlimit="10"/>
<path d="M-383.211 266.726C-259.122 260.33 -149.489 188.044 -35.3631 146.258C7.27937 130.649 53.2489 116.691 99.1109 117.319C138.489 117.857 177.921 127.061 215.461 138.31C292.917 161.526 366.319 197.158 445.039 216.328C526.109 236.073 610.255 227.497 692.563 221.056C787.148 213.646 881.535 203.877 976.496 203.025" stroke="#32322F" stroke-miterlimit="10"/>
<path d="M-383.211 249.045C-259.983 244.066 -149.704 176.552 -35.0762 138.364C6.5529 124.495 50.433 112.95 94.6179 113.165C134.328 113.363 173.966 121.427 212.142 131.797C290.298 153.031 364.857 186.285 444.116 203.644C524.396 221.235 607.592 213.467 688.859 207.681C784.233 200.89 879.419 191.767 975.106 191.103" stroke="#32322F" stroke-miterlimit="10"/>
<path d="M-383.211 231.354C-261.678 227.892 -151.498 166.119 -37.2823 131.528C46.2987 106.213 124.894 104.993 209.533 125.715C287.76 144.868 362.947 175.296 442.107 190.825C522.594 206.613 605.843 199.455 687.119 194.216C782.61 188.062 877.939 179.737 973.68 179.27" stroke="#32322F" stroke-miterlimit="10"/>
<path d="M-383.22 213.673C-263.364 211.7 -153.265 155.705 -39.4976 124.747C43.3839 102.194 123.172 101.441 206.914 119.696C285.231 136.767 361.001 164.343 440.089 178.042C520.782 192.018 604.058 185.478 685.361 180.787C780.959 175.27 876.432 167.752 972.245 167.483" stroke="#32322F" stroke-miterlimit="10"/>
<path d="M-383.22 195.992C-264.996 195.454 -154.968 145.2 -41.6947 117.884C40.5322 98.0586 121.405 97.7087 204.322 113.587C282.729 128.595 359.064 153.318 438.098 165.213C518.998 177.396 602.274 171.466 683.631 167.312C779.336 162.432 874.943 155.713 970.828 155.633" stroke="#32322F" stroke-miterlimit="10"/>
<path d="M-383.22 178.302C-266.547 179.091 -156.592 134.525 -43.8469 110.815C37.8149 93.6363 119.593 93.6452 201.784 107.245C280.29 120.234 357.145 142.114 436.152 152.269C517.258 162.693 600.498 157.382 681.945 153.758C777.758 149.497 873.5 143.567 969.447 143.675" stroke="#32322F" stroke-miterlimit="10"/>
<path d="M-383.22 160.62C-268.018 162.594 -158.134 123.625 -45.9364 103.423C35.2771 88.8008 117.719 89.0968 199.327 100.552C277.94 111.586 355.271 130.676 434.269 139.144C515.59 147.864 598.75 143.163 680.304 140.059C776.225 136.408 872.083 131.25 968.102 131.528" stroke="#32322F" stroke-miterlimit="10"/>
<path d="M-383.22 142.93C-269.363 145.899 -159.578 112.385 -47.9274 95.5647C32.9722 83.3735 115.809 83.8938 196.986 93.349C275.707 102.517 353.477 118.879 432.484 125.76C514.011 132.865 597.063 128.765 678.743 126.155C774.763 123.087 870.737 118.673 966.829 119.104" stroke="#32322F" stroke-miterlimit="10"/>
<path d="M-383.22 125.24C-271.578 128.945 -162.842 101.253 -52.7521 87.5004C28.7124 77.3276 112.311 77.8031 194 85.4461C273.456 92.8828 352.212 106.778 431.874 112.143C609.035 124.083 788.241 105.334 965.645 106.339" stroke="#32322F" stroke-miterlimit="10"/>
<path d="M-383.22 107.55C-272.628 111.784 -164.044 89.061 -54.465 78.2872C26.9547 70.2853 110.428 70.9133 191.991 76.8609C271.555 82.6649 350.652 94.0128 430.359 98.0407C607.977 107.011 786.789 92.0123 964.56 93.1695" stroke="#32322F" stroke-miterlimit="10"/>
<path d="M-383.22 89.8591C-273.524 94.3265 -165.102 76.3042 -56.0166 68.2396C106.527 56.2278 266.882 77.7037 429.004 83.4719C606.964 89.8052 785.542 78.2778 963.582 79.5068" stroke="#32322F" stroke-miterlimit="10"/>
<path d="M-383.22 72.1602C-274.26 76.5469 -166.017 62.9026 -57.3796 57.2421C104.778 48.7916 265.887 64.6697 427.839 68.3746C606.022 72.4563 784.493 64.0597 962.73 65.2797" stroke="#32322F" stroke-miterlimit="10"/>
<path d="M-383.22 54.4603C-274.825 58.3985 -166.779 48.7908 -58.5186 45.1756C103.451 39.7663 265.017 50.6298 426.906 52.6931C605.242 54.9627 783.686 49.329 962.048 50.4324" stroke="#32322F" stroke-miterlimit="10"/>
<path d="M-383.22 36.762C-275.228 39.8658 -167.371 33.8824 -59.4242 31.9178C102.492 28.9664 264.309 35.4881 426.216 36.3493C604.641 37.3002 783.094 34.0079 961.529 34.8781" stroke="#32322F" stroke-miterlimit="10"/>
<path d="M-383.22 19.0537C-275.488 20.8927 -167.784 18.0849 -60.0519 17.3313C101.9 16.192 263.843 19.1075 425.803 19.26C604.265 19.4304 782.735 18.0131 961.197 18.5334" stroke="#32322F" stroke-miterlimit="10"/>
<path d="M-383.211 1.34556C-275.605 1.44423 -167.99 1.32756 -60.3837 1.30065C280.101 1.22887 620.595 1.29169 961.08 1.3455" stroke="#32322F" stroke-miterlimit="10"/>
<path d="M-29.4444 1.30061C-28.6463 39.0763 -25.8842 76.0267 -12.235 111.515C-3.60786 133.942 4.7682 155.184 8.38227 179.154C15.2696 224.824 11.6555 271.193 10.974 317.141C10.1848 370.607 10.0951 424.081 9.98752 477.547C9.55707 697.768 6.05063 918.17 12.6331 1138.36" stroke="#32322F" stroke-miterlimit="10"/>
<path d="M-11.7595 1.30087C-10.9703 38.2243 -8.54001 74.466 6.38261 108.608C15.225 128.837 23.6369 147.613 27.3855 169.618C35.4476 216.876 31.0623 265.605 29.9324 313.23C28.6948 365.431 27.7083 417.64 26.7219 469.85C24.6951 576.763 20.9824 683.478 23.7266 790.373C26.6232 903.53 28.6231 1016.7 32.0488 1129.84" stroke="#32322F" stroke-miterlimit="10"/>
<path d="M5.93373 1.30067C6.67807 37.2194 8.5434 73.0933 24.6588 105.765C34.0123 124.738 42.5946 141.908 46.4239 163.034C54.9255 209.986 50.325 258.886 48.8452 306.233C47.2041 358.649 45.4195 411.056 43.6349 463.463C39.9939 570.582 34.936 677.432 38.7115 784.578C42.6843 897.322 47.9575 1010.01 51.1769 1122.77" stroke="#32322F" stroke-miterlimit="10"/>
<path d="M23.6186 1.30955C24.3002 36.6272 25.6274 72.555 43.0341 104.087C53.0603 122.253 61.7143 138.57 65.4719 159.356C73.4175 203.231 69.4268 249.018 67.8484 293.261C65.8844 348.368 63.2837 403.448 60.701 458.529C55.7238 564.805 49.5808 670.874 54.0468 777.249C58.8088 890.639 67.1758 1003.83 69.9738 1117.31" stroke="#32322F" stroke-miterlimit="10"/>
<path d="M41.3034 1.3191C41.8952 35.964 42.5589 72.2684 61.0059 102.706C71.4894 120.002 80.1703 135.171 83.9548 155.481C92.0977 199.231 88.1338 245.394 86.4568 289.53C84.3583 344.79 81.1478 399.995 77.9911 455.201C71.8929 561.567 65.1401 667.771 70.0635 774.316C75.2918 887.499 86.3672 1000.29 88.4298 1113.63" stroke="#32322F" stroke-miterlimit="10"/>
<path d="M58.9884 1.33699C59.4547 35.5423 59.4636 72.5555 78.7895 102.195C89.6586 118.862 98.3216 133.153 102.097 153.202C110.321 196.925 106.518 243.573 104.841 287.7C102.752 343.067 99.0839 398.362 95.4788 453.649C88.5377 560.05 81.5876 666.389 86.6544 773.033C92.0262 886.127 105.451 998.584 106.465 1111.9" stroke="#32322F" stroke-miterlimit="10"/>
<path d="M76.673 1.33605C77.1304 35.6311 77.238 72.5007 96.4653 102.265C107.307 119.05 116.006 133.475 119.782 153.587C127.961 197.14 124.723 244.012 123.163 287.995C121.199 343.371 116.984 398.631 112.859 453.872C104.913 560.157 98.1333 666.487 103.155 773.104C108.491 886.359 124.589 998.681 124.078 1112.25" stroke="#32322F" stroke-miterlimit="10"/>
<path d="M94.3666 1.32762C94.8598 36.0532 95.4517 72.4653 114.105 102.894C124.714 120.207 133.494 135.341 137.287 155.74C145.367 199.15 142.758 246.067 141.152 289.915C139.126 345.238 134.094 400.399 129.171 455.515C119.692 561.62 112.509 667.824 117.872 774.396C123.593 888.082 143.098 1000.41 141.296 1114.53" stroke="#32322F" stroke-miterlimit="10"/>
<path d="M112.051 1.3185C112.58 36.6631 113.684 72.815 131.682 104.141C142.031 122.154 150.882 138.194 154.685 159.033C162.612 202.415 160.541 249.367 158.702 293.18C156.389 348.431 150.317 403.439 144.39 458.394C132.965 564.302 124.75 670.318 130.857 776.89C137.404 891.195 160.792 1003.62 158.102 1118.53" stroke="#32322F" stroke-miterlimit="10"/>
<path d="M129.745 1.30898C130.292 37.1649 131.826 73.263 148.946 105.486C158.837 124.1 167.76 140.642 171.697 161.732C189.866 259.145 171.285 365.475 158.649 462.412C144.749 569.029 134.893 675.807 142.498 783.393C150.569 897.501 177.769 1009.14 174.576 1124.1" stroke="#32322F" stroke-miterlimit="10"/>
<path d="M147.43 1.30949C147.986 37.7306 149.878 74.1157 166.164 107.28C176.154 127.608 185.284 146.025 189.176 168.685C206 266.654 187.122 370.58 172.002 467.463C155.259 574.771 143.242 682.168 152.793 790.884C162.81 904.938 194.054 1015.87 190.7 1131.12" stroke="#32322F" stroke-miterlimit="10"/>
<path d="M165.115 1.3096C165.68 38.7174 168.047 75.5332 183.607 109.99C193.301 131.448 202.43 151.264 206.313 174.794C222.644 273.651 202.547 376.321 184.593 473.411C164.792 580.467 150.282 687.362 161.671 796.392C173.697 911.504 209.784 1022.68 206.565 1139.38" stroke="#32322F" stroke-miterlimit="10"/>
<path d="M182.808 1.30908C183.373 39.5333 186.055 76.9234 200.78 112.519C210.474 135.951 219.882 157.965 223.675 183.307C238.589 282.891 217.55 383.201 196.502 480.165C173.948 584.064 156.712 687.371 168.46 794.006C181.607 913.397 225.083 1027.45 222.195 1148.75" stroke="#32322F" stroke-miterlimit="10"/>
<path d="M200.493 1.30952C201.04 40.3859 203.99 78.5384 217.926 115.3C227.163 139.674 236.499 163.024 240.427 189.013C255.699 290.148 232.329 390.055 207.82 487.603C181.553 592.156 161.025 695.633 175.535 803.82C191.579 923.471 239.799 1036.91 237.593 1159.07" stroke="#32322F" stroke-miterlimit="10"/>
<path d="M218.178 1.31821C218.707 41.3365 221.936 80.3143 235.065 118.287C243.88 143.8 253.099 168.326 257.135 195.193C272.604 298.168 246.956 397.402 218.653 495.613C188.324 600.848 164.37 704.218 181.966 814.199C201.157 934.155 254.139 1047.02 252.821 1170.18" stroke="#32322F" stroke-miterlimit="10"/>
<path d="M235.872 1.32723C236.392 43.4268 240.23 83.9565 253.072 124.127C261.699 151.111 270.497 177.207 274.317 205.447C288.406 309.525 261.107 406.086 229.101 504.091C194.476 610.106 166.944 713.018 187.92 825.036C210.439 945.27 268.165 1057.68 267.914 1181.94" stroke="#32322F" stroke-miterlimit="10"/>
<path d="M253.556 1.32757C254.049 45.2212 258.282 87.5271 270.801 129.627C279.106 157.57 287.491 185.048 291.23 214.077C304.852 319.833 275.258 414.734 239.243 512.882C201.282 616.341 169.661 716.544 191.749 827.539C216.402 951.406 281.948 1065.67 282.89 1194.14" stroke="#32322F" stroke-miterlimit="10"/>
<path d="M271.241 1.33695C271.707 46.2712 276.066 89.797 287.885 133.161C295.822 162.289 304.064 191.04 307.884 221.083C314.206 270.772 313.749 321.457 302.395 370.365C290.262 422.619 269.447 472.416 249.198 521.925C228.948 571.425 208.143 621.231 196 673.485C183.176 728.673 184.44 783.798 196.969 838.905C225.191 963.077 295.535 1076.96 297.795 1206.7" stroke="#32322F" stroke-miterlimit="10"/>
<path d="M288.935 1.345C289.365 47.3288 293.813 92.0657 304.987 136.668C312.915 168.308 321.255 199.535 324.995 232.054C330.555 280.388 330.537 328.955 318.69 376.348C305.256 430.091 281.76 480.776 259.063 531.074C236.365 581.373 212.878 632.057 199.435 685.801C185.615 741.061 188.108 795.342 202.188 850.378C234.015 974.783 309.041 1088.37 312.682 1219.39" stroke="#32322F" stroke-miterlimit="10"/>
<path d="M306.619 1.35444C307.005 48.3699 311.507 94.2909 322.089 140.095C329.999 174.292 338.41 208.048 342.087 243.052C347.011 289.816 347.298 336.715 335.119 382.439C320.403 437.689 294.154 489.208 268.909 540.225C243.673 591.223 217.415 642.769 202.699 698.01C189.077 749.143 191.193 799.371 204.412 850.369C237.952 979.771 322.358 1095.64 327.55 1232.07" stroke="#32322F" stroke-miterlimit="10"/>
<path d="M324.304 1.35436C324.654 49.3835 329.165 96.4079 339.209 143.37C346.787 178.786 355.028 213.843 358.759 249.942C363.978 300.483 363.96 350.028 348.625 398.945C332.061 451.774 304.969 500.7 278.864 549.249C252.758 597.799 225.666 646.725 209.102 699.553C191.83 754.625 193.947 806.637 209.748 861.708C246.92 991.272 335.882 1106.87 342.464 1244.6" stroke="#32322F" stroke-miterlimit="10"/>
<path d="M341.998 1.36329C342.312 50.3613 346.814 98.4174 356.365 146.473C363.638 183.065 371.7 219.396 375.466 256.571C380.569 306.924 381.296 356.191 365.351 404.731C347.495 459.085 317.623 508.863 289.025 558.058C260.426 607.254 230.545 657.032 212.699 711.386C194.583 766.538 198.26 817.778 215.55 872.85C256.211 1002.4 349.558 1117.93 357.459 1256.81" stroke="#32322F" stroke-miterlimit="10"/>
<path d="M359.683 1.37258C359.979 53.5552 365.054 104.643 374.767 155.875C381.896 193.489 389.357 230.942 392.801 269.13C397.357 319.599 397.608 368.301 380.067 416.582C360.651 470.029 329.389 518.534 299.463 566.518C269.528 614.502 238.275 663.007 218.859 716.454C199.202 770.584 201.776 820.838 219.102 875.083C261.654 1008.34 363.288 1125.45 372.552 1268.56" stroke="#32322F" stroke-miterlimit="10"/>
<path d="M377.367 1.37198C377.834 94.5687 401.375 182.84 409.58 274.988C414.055 325.322 415.167 373.692 397.231 421.641C376.641 476.694 342.617 525.889 310.296 574.528C277.976 623.168 243.952 672.363 223.361 727.416C203.031 781.77 207.273 830.983 226.007 885.426C271.833 1018.63 377.484 1135.48 387.779 1279.67" stroke="#32322F" stroke-miterlimit="10"/>
<path d="M395.061 1.37214C395.491 96.1208 418.171 186.492 426.413 280.271C431.157 334.221 432.089 385.247 410.71 436.039C388.55 488.688 354.329 535.542 321.623 581.965C288.908 628.389 254.686 675.252 232.535 727.892C222.106 752.678 213.048 780.631 213.783 807.857C214.582 837.532 223.666 867.584 233.818 895.213C282.666 1028.18 392.093 1144.85 403.186 1290" stroke="#32322F" stroke-miterlimit="10"/>
<path d="M412.746 1.38179C413.149 98.9741 435.739 192.556 443.667 289.288C447.936 341.389 449.353 390.818 428.439 439.816C405.275 494.08 368.435 541.669 333.523 588.739C298.62 635.808 261.771 683.398 238.607 737.661C228.123 762.223 219.191 790.015 220.805 817.034C222.59 846.952 231.845 876.609 242.642 904.355C267.698 968.747 304.521 1027.96 338.159 1088.06C374.991 1153.87 412.701 1222.86 418.79 1299.38" stroke="#32322F" stroke-miterlimit="10"/>
<path d="M430.431 1.37245C430.834 100.858 452.985 196.701 460.805 295.378C464.948 347.758 466.697 397.384 444.905 446.4C420.727 500.79 382.345 548.002 346.114 594.677C309.884 641.352 271.501 688.564 247.324 742.954C236.463 767.381 227.253 795.154 228.904 822.228C230.733 852.316 240.356 882.09 251.521 909.854C277.68 974.936 315.955 1034.54 350.903 1095.08C388.936 1160.95 428.422 1230.36 434.664 1307.64" stroke="#32322F" stroke-miterlimit="10"/>
<path d="M448.124 1.37249C448.546 103.226 470.652 201.742 478.203 302.869C481.969 353.266 484.157 401.26 463.325 448.401C438.546 504.468 397.689 552.47 359.485 599.727C321.282 646.985 280.424 694.987 255.646 751.054C232.141 804.233 237.378 852.405 258.184 905.898C285.294 975.609 327.506 1038.66 365.431 1102.73C404.128 1168.1 444.69 1237.36 450.815 1314.65" stroke="#32322F" stroke-miterlimit="10"/>
<path d="M465.809 1.37268C466.266 103.827 487.672 203.196 495.331 304.941C499.367 358.568 501.6 409.235 477.7 458.897C451.872 512.559 411.624 558.409 373.726 603.747C335.837 649.094 295.58 694.943 269.752 748.597C242.857 804.475 247.879 855.886 270.729 912.357C298.96 982.113 342.123 1045.05 380.873 1109.17C420.045 1173.97 461.486 1243.04 467.252 1320.21" stroke="#32322F" stroke-miterlimit="10"/>
<path d="M483.502 1.36327C484.023 104.822 505.106 205.438 512.729 308.233C516.693 361.734 519.383 412.697 495.232 462.153C468.947 515.977 427.668 561.566 388.963 606.626C350.248 651.686 308.969 697.275 282.693 751.099C255.574 806.628 260.739 858.739 283.742 914.859C312.538 985.118 356.759 1048.28 396.37 1112.65C436.161 1177.31 478.866 1246.65 484.094 1324.22" stroke="#32322F" stroke-miterlimit="10"/>
<path d="M501.188 1.3544C501.806 105.459 522.603 206.909 530.217 310.377C534.136 363.583 537.328 414.868 513.187 464.063C486.687 518.058 444.573 563.45 405.24 608.259C365.916 653.058 323.793 698.45 297.293 752.454C270.282 807.507 275.501 860.542 298.423 916.142C327.551 986.813 372.642 1050.12 412.899 1114.66C453.093 1179.09 496.874 1248.69 501.269 1326.5" stroke="#32322F" stroke-miterlimit="10"/>
<path d="M518.881 1.34487C519.607 105.638 540.198 207.384 547.829 311.068C551.721 363.986 555.273 415.442 531.292 464.413C504.783 518.551 462.257 563.88 422.655 608.59C383.062 653.3 340.536 698.629 314.018 752.767C287.257 807.417 292.396 861.268 315.13 916.447C344.311 987.288 389.922 1050.54 430.538 1115.04C470.974 1179.27 515.321 1248.97 518.908 1326.9" stroke="#32322F" stroke-miterlimit="10"/>
<path d="M536.566 1.34564C537.346 105.505 557.82 207.125 565.443 310.673C569.344 363.645 572.805 414.895 548.807 463.92C522.271 518.121 479.925 563.656 440.466 608.591C401.007 653.525 358.66 699.06 332.124 753.261C305.355 807.938 310.243 861.843 333.048 917.102C362.167 987.648 407.948 1050.44 448.68 1114.49C489.431 1178.59 533.687 1248.06 537.104 1326.09" stroke="#32322F" stroke-miterlimit="10"/>
<path d="M554.25 1.34562C555.057 105.28 575.406 206.685 583.002 310.01C586.894 363.026 590.257 414.115 566.321 463.202C539.83 517.538 497.699 563.36 458.41 608.6C419.122 653.839 376.991 699.67 350.499 753.997C323.82 808.7 328.42 862.605 351.351 917.874C380.443 987.98 426.431 1050.14 467.298 1113.59C508.371 1177.36 552.573 1246.41 555.874 1324.36" stroke="#32322F" stroke-miterlimit="10"/>
<path d="M571.944 1.35432C572.778 104.984 592.974 206.084 600.516 309.103C604.399 362.165 607.655 413.128 583.845 462.296C557.443 516.82 515.572 563.01 476.49 608.626C437.408 654.242 395.536 700.433 369.135 754.957C342.635 809.678 346.894 863.538 370.014 918.771C399.115 988.294 445.335 1049.66 486.364 1112.37C527.759 1175.64 571.971 1244.09 575.182 1321.84" stroke="#32322F" stroke-miterlimit="10"/>
<path d="M589.629 1.35394C590.472 105.36 610.811 206.837 618.147 310.251C621.68 360.092 625.097 408.534 604.175 455.164C578.41 512.568 534.853 561.045 494.667 608.644C454.491 656.242 410.925 704.72 385.16 762.124C361.888 813.974 366.301 864.982 387.779 916.904C416.494 986.311 463.289 1047.16 504.72 1109.22C546.834 1172.28 591.718 1240.5 594.938 1318.55" stroke="#32322F" stroke-miterlimit="10"/>
<path d="M607.323 1.35478C608.166 104.904 628.326 205.941 635.581 308.906C639.096 358.775 642.405 407.154 621.68 453.873C596.086 511.573 552.87 560.562 512.953 608.672C473.046 656.782 429.821 705.771 404.226 763.47C381.233 815.303 385.295 866.203 407.033 917.991C435.829 986.599 482.884 1046.39 524.522 1107.43C566.976 1169.65 611.941 1236.99 615.152 1314.59" stroke="#32322F" stroke-miterlimit="10"/>
<path d="M625.007 1.35438C625.832 104.383 645.795 204.927 652.969 307.39C656.467 357.285 659.65 405.619 639.186 452.446C613.806 510.496 570.949 560.041 531.328 608.716C491.708 657.391 448.851 706.936 423.471 764.986C400.818 816.801 404.486 867.557 426.529 919.165C455.433 986.867 502.766 1045.5 544.619 1105.41C587.414 1166.68 632.505 1233 635.724 1310.05" stroke="#32322F" stroke-miterlimit="10"/>
<path d="M642.692 1.35466C643.5 103.082 662.933 202.343 670.17 303.497C673.892 355.59 676.896 405.808 655.059 454.591C629.599 511.456 588.293 560.418 549.785 608.752C511.277 657.087 469.97 706.049 444.51 762.914C419.4 819.008 424.234 873.532 449.936 928.576C479.207 991.263 523.769 1045.78 563.873 1101.64C607.413 1162.27 653.311 1227.94 656.611 1305" stroke="#32322F" stroke-miterlimit="10"/>
<path d="M660.386 1.35499C661.157 102.473 680.384 201.15 687.514 301.703C691.208 353.814 694.078 404.032 672.582 452.94C647.391 510.227 606.48 559.826 568.303 608.788C530.127 657.751 489.215 707.35 464.024 764.636C439.389 820.676 443.721 874.985 469.853 929.733C499.286 991.398 544.126 1044.64 584.463 1099.26C628.361 1158.71 674.43 1223.15 677.792 1299.51" stroke="#32322F" stroke-miterlimit="10"/>
<path d="M678.071 1.34596C678.806 101.073 697.531 198.397 704.687 297.541C708.624 352.038 711.252 404.032 688.411 455.03C663.273 511.169 623.913 560.248 586.867 608.815C549.82 657.383 510.46 706.461 485.323 762.6C460.222 818.649 462.222 873.003 488.614 928.262C517.823 989.415 563.299 1041.73 604.076 1095.24C648.728 1153.84 695.684 1217.41 699.163 1293.67" stroke="#32322F" stroke-miterlimit="10"/>
<path d="M695.755 1.34548C696.464 101.163 715.252 198.575 722.148 297.836C725.708 348.987 728.56 398.506 708.687 446.831C684.303 506.127 643.454 557.861 605.466 608.869C567.478 659.876 526.629 711.61 502.246 770.907C480.463 823.87 482.776 875.173 507.483 926.907C536.458 987.567 582.518 1038.8 623.788 1091.2C669.201 1148.85 717.081 1211.48 720.704 1287.57" stroke="#32322F" stroke-miterlimit="10"/>
<path d="M713.45 1.34512C714.113 100.48 732.668 197.212 739.448 295.791C742.972 346.951 745.698 396.514 726.202 444.956C702.141 504.745 661.732 557.188 624.111 608.904C586.491 660.62 546.09 713.072 522.02 772.853C500.748 825.717 502.56 876.886 527.733 928.243C556.915 987.782 603.279 1037.57 644.791 1088.57C690.563 1144.81 738.676 1205.99 742.398 1281.28" stroke="#32322F" stroke-miterlimit="10"/>
<path d="M731.134 1.34547C731.762 100.544 750.37 197.337 756.89 295.997C760.325 347.929 762.244 397.904 742.111 447.046C718.095 505.67 679.219 557.673 642.773 608.958C577.576 700.711 489.736 810.701 546.736 927.033C575.657 986.06 622.676 1034.74 664.646 1084.51C711.181 1139.69 760.28 1199.8 764.154 1274.91" stroke="#32322F" stroke-miterlimit="10"/>
<path d="M748.818 1.34478C749.41 99.8342 767.768 195.937 774.171 293.906C777.57 345.856 779.381 395.912 759.634 445.179C735.941 504.314 697.495 557.017 661.426 609.012C597.799 700.728 509.088 813.337 567.012 928.458C596.149 986.364 643.481 1033.56 685.684 1081.88C732.569 1135.58 781.937 1194.2 785.91 1268.48" stroke="#32322F" stroke-miterlimit="10"/>
<path d="M766.512 1.34488C767.059 98.4079 784.878 193.094 791.308 289.636C794.788 341.909 796.815 392.279 777.632 441.995C754.387 502.224 716.041 555.941 680.079 609.066C615.6 704.334 525.957 820.388 591.288 937.313C623.097 994.241 671.838 1040.11 714.857 1088.34C759.329 1138.19 803.774 1192.74 807.648 1262.12" stroke="#32322F" stroke-miterlimit="10"/>
<path d="M784.197 1.33652C784.699 96.9732 802.007 190.251 808.464 285.358C812.024 337.792 814.41 388.763 795.729 438.766C772.861 499.982 734.541 554.955 698.714 609.102C636.531 703.088 546 821.519 610.138 936.111C641.741 992.564 691.173 1037.26 734.685 1084.24C779.892 1133.04 825.279 1186.61 829.296 1255.86" stroke="#32322F" stroke-miterlimit="10"/>
<path d="M801.882 1.33643C802.348 96.3183 819.432 188.95 825.773 283.402C829.297 335.845 831.575 386.862 813.244 436.972C790.672 498.681 752.774 554.318 717.315 609.147C656.656 702.935 565.183 824.121 630.281 937.385C662.108 992.752 711.844 1035.96 755.581 1081.54C801.12 1129 846.722 1181.25 850.82 1249.83" stroke="#32322F" stroke-miterlimit="10"/>
<path d="M819.576 1.33691C820.024 96.4264 837.162 189.201 843.26 283.78C846.704 337.191 848.228 388.539 829.207 439.52C806.617 500.063 770.225 554.865 735.887 609.183C677.623 701.339 585.244 825.207 648.916 936.228C710.481 1043.56 863.886 1109.77 872.173 1244.08" stroke="#32322F" stroke-miterlimit="10"/>
<path d="M837.26 1.33603C837.681 95.8245 854.604 188.025 860.603 282.02C864.011 335.45 865.446 386.852 846.73 437.922C824.391 498.905 788.376 554.308 754.369 609.227C697.459 701.15 604.255 827.646 668.753 937.474C730.676 1042.92 884.871 1105.46 893.256 1238.71" stroke="#32322F" stroke-miterlimit="10"/>
<path d="M854.945 1.33648C855.357 96.0313 872.352 188.447 878.109 282.658C881.149 332.391 882.889 381.318 866.782 429.203C845.179 493.407 807.765 551.716 772.799 609.263C717.52 700.244 623.985 828.086 687.021 936.299C748.496 1041.83 905.497 1100.3 914.07 1233.79" stroke="#32322F" stroke-miterlimit="10"/>
<path d="M872.639 1.33696C873.042 95.5294 889.839 187.461 895.525 281.178C898.547 330.93 900.197 379.856 884.297 427.795C862.882 492.366 825.817 551.196 791.165 609.291C736.99 700.101 642.8 830.203 706.463 937.448C768.243 1041.52 925.971 1096.6 934.553 1229.39" stroke="#32322F" stroke-miterlimit="10"/>
</g>
</g>
</g>
</g>
<defs>
<clipPath id="clip0_1_268">
<rect width="678" height="955" fill="white"/>
</clipPath>
<clipPath id="clip1_1_268">
<rect width="1347.4" height="1052.66" fill="white" transform="translate(-292 1347.4) rotate(-90)"/>
</clipPath>
</defs>
</svg>
