<svg width="1060" height="626" viewBox="0 0 1060 626" fill="none" xmlns="http://www.w3.org/2000/svg">
<path d="M1059.5 312.093C1059.5 390.486 1000.38 461.573 904.53 513.09C808.705 564.596 676.289 596.468 530 596.468C383.711 596.468 251.295 564.596 155.47 513.09C59.6245 461.573 0.5 390.486 0.5 312.093C0.5 233.699 59.6245 162.613 155.47 111.096C251.295 59.5899 383.711 27.7174 530 27.7174C676.289 27.7174 808.705 59.5899 904.53 111.096C1000.38 162.613 1059.5 233.699 1059.5 312.093Z" stroke="#E4E4E4"/>
<path d="M1059.5 313C1059.5 399.184 1000.35 477.298 904.512 533.894C808.691 590.483 676.282 625.5 530 625.5C383.718 625.5 251.309 590.483 155.488 533.894C59.6548 477.298 0.5 399.184 0.5 313C0.5 226.816 59.6548 148.702 155.488 92.1061C251.309 35.5171 383.718 0.5 530 0.5C676.282 0.5 808.691 35.5171 904.512 92.1061C1000.35 148.702 1059.5 226.816 1059.5 313Z" stroke="#F1F1F1"/>
<path d="M1059.5 312.093C1059.5 380.932 1000.42 443.407 904.553 488.7C808.722 533.976 676.298 561.993 530 561.993C383.702 561.993 251.278 533.976 155.447 488.7C59.5778 443.407 0.5 380.932 0.5 312.093C0.5 243.253 59.5778 180.779 155.447 135.485C251.278 90.2098 383.702 62.1927 530 62.1927C676.298 62.1927 808.722 90.2098 904.553 135.485C1000.42 180.779 1059.5 243.253 1059.5 312.093Z" stroke="#CCCCCC"/>
<path d="M1059.5 313C1059.5 342.509 1044.76 370.669 1018 396.334C991.245 421.999 952.499 445.136 904.579 464.577C808.741 503.458 676.307 527.517 530 527.517C383.693 527.517 251.259 503.458 155.421 464.577C107.501 445.136 68.7546 421.999 41.9961 396.334C15.239 370.669 0.5 342.509 0.5 313C0.5 283.491 15.239 255.331 41.9961 229.666C68.7546 204.001 107.501 180.864 155.421 161.423C251.259 122.542 383.693 98.4826 530 98.4826C676.307 98.4826 808.741 122.542 904.579 161.423C952.499 180.864 991.245 204.001 1018 229.666C1044.76 255.331 1059.5 283.491 1059.5 313Z" stroke="#A4D2FD"/>
</svg>
