<svg width="138" height="32" viewBox="0 0 138 32" fill="none" xmlns="http://www.w3.org/2000/svg">
<path d="M26.1817 32C26.0111 32 25.8405 31.951 25.6862 31.8694L24.1264 30.9387C23.8908 30.8081 24.0046 30.7591 24.0858 30.7346C24.3945 30.6285 24.4595 30.604 24.7926 30.4081C24.8251 30.3918 24.8738 30.3999 24.9063 30.4163L26.1086 31.1347C26.1492 31.1592 26.2142 31.1592 26.2549 31.1347L30.9504 28.408C30.991 28.3835 31.0235 28.3346 31.0235 28.2774V22.8323C31.0235 22.7752 30.9991 22.7262 30.9504 22.7017L26.2549 19.9832C26.2142 19.9587 26.1574 19.9587 26.1086 19.9832L21.4131 22.7017C21.3644 22.7262 21.34 22.7833 21.34 22.8323V28.2774C21.34 28.3264 21.3725 28.3754 21.4131 28.3999L22.6966 29.1427C23.3953 29.4938 23.8258 29.0774 23.8258 28.6693V23.2895C23.8258 23.216 23.8827 23.1507 23.964 23.1507H24.557C24.6301 23.1507 24.6951 23.2078 24.6951 23.2895V28.6693C24.6951 29.6081 24.1914 30.1387 23.3059 30.1387C23.0378 30.1387 22.8185 30.1387 22.2255 29.8448L20.9907 29.1346C20.6901 28.955 20.4951 28.6284 20.4951 28.2774V22.8323C20.4951 22.4813 20.682 22.1466 20.9907 21.9751L25.6862 19.2485C25.9868 19.0771 26.3767 19.0771 26.6692 19.2485L31.3647 21.9751C31.6653 22.1547 31.8602 22.4813 31.8602 22.8323V28.2774C31.8602 28.6284 31.6734 28.9632 31.3647 29.1346L26.6692 31.8612C26.5311 31.951 26.3605 32 26.1817 32ZM29.9755 26.6284C29.9755 25.6079 29.2931 25.3385 27.8471 25.1426C26.3848 24.9467 26.2386 24.8487 26.2386 24.5058C26.2386 24.2201 26.3605 23.8446 27.4409 23.8446C28.4076 23.8446 28.7651 24.0568 28.9113 24.7099C28.9276 24.7752 28.9763 24.8161 29.0413 24.8161H29.6506C29.6912 24.8161 29.7237 24.7997 29.7481 24.7752C29.7724 24.7426 29.7887 24.7099 29.7806 24.6691C29.6831 23.5425 28.9438 23.0201 27.4409 23.0201C26.1005 23.0201 25.3044 23.5915 25.3044 24.5385C25.3044 25.5753 26.1005 25.8528 27.3841 25.9834C28.9194 26.1386 29.0413 26.359 29.0413 26.661C29.0413 27.1917 28.6189 27.4121 27.6278 27.4121C26.3848 27.4121 26.1086 27.1019 26.0193 26.4814C26.0111 26.4161 25.9543 26.3671 25.8812 26.3671H25.2719C25.1988 26.3671 25.1338 26.4243 25.1338 26.5059C25.1338 27.2978 25.5643 28.2448 27.6196 28.2448C29.1225 28.2448 29.9755 27.657 29.9755 26.6284ZM34.403 22.5384C34.403 23.0364 33.9968 23.4446 33.5012 23.4446C33.0057 23.4446 32.5995 23.0364 32.5995 22.5384C32.5995 22.0241 33.0219 21.6323 33.5012 21.6323C33.9887 21.6241 34.403 22.0241 34.403 22.5384ZM34.2567 22.5384C34.2567 22.1139 33.9155 21.7792 33.4931 21.7792C33.0788 21.7792 32.7376 22.1139 32.7376 22.5384C32.7376 22.9629 33.0788 23.3058 33.4931 23.3058C33.9155 23.2976 34.2567 22.9548 34.2567 22.5384ZM33.8912 23.0446H33.68C33.6718 22.9956 33.6393 22.7344 33.6393 22.7262C33.6231 22.669 33.6068 22.6364 33.5337 22.6364H33.355V23.0446H33.16V22.0241H33.5094C33.6312 22.0241 33.8668 22.0241 33.8668 22.2935C33.8668 22.4813 33.7449 22.5221 33.6718 22.5466C33.8099 22.5548 33.8181 22.6446 33.8424 22.7752C33.8506 22.8568 33.8668 22.9956 33.8912 23.0446ZM33.6637 22.3262C33.6637 22.1874 33.5662 22.1874 33.5175 22.1874H33.355V22.4731H33.5094C33.6393 22.4731 33.6637 22.3833 33.6637 22.3262ZM11.6402 10.6931C11.6402 10.4727 11.5265 10.2767 11.3397 10.1706L6.3598 7.28888C6.27856 7.2399 6.18107 7.21541 6.08359 7.20724H6.03485C5.93736 7.20724 5.848 7.2399 5.75864 7.28888L0.786907 10.1706C0.600061 10.2767 0.486328 10.4808 0.486328 10.6931L0.494452 18.4485C0.494452 18.5546 0.551318 18.6526 0.640679 18.7097C0.73004 18.7669 0.843773 18.7669 0.941258 18.7097L3.8983 17.0035C4.08515 16.8892 4.19888 16.6933 4.19888 16.4811V12.8564C4.19888 12.6442 4.31261 12.4401 4.49946 12.334L5.75864 11.6074C5.85612 11.5503 5.95361 11.5258 6.05922 11.5258C6.16483 11.5258 6.27044 11.5503 6.3598 11.6074L7.61898 12.334C7.80582 12.4401 7.91956 12.6442 7.91956 12.8564V16.4811C7.91956 16.6933 8.03329 16.8974 8.22013 17.0035L11.1772 18.7097C11.2665 18.7669 11.3884 18.7669 11.4778 18.7097C11.5671 18.6607 11.624 18.5546 11.624 18.4485L11.6402 10.6931ZM38.871 2.22747V16.628C38.871 16.8403 38.7573 17.0443 38.5704 17.1505L33.5906 20.0404C33.4037 20.1465 33.1763 20.1465 32.9894 20.0404L28.0096 17.1505C27.8227 17.0443 27.709 16.8403 27.709 16.628V10.8482C27.709 10.6359 27.8227 10.4319 28.0096 10.3257L32.9894 7.43582C33.1763 7.3297 33.4037 7.3297 33.5906 7.43582L34.8335 8.15422C34.9716 8.23585 35.1504 8.12973 35.1504 7.97462V0.300866C35.1504 0.0722866 35.3941 -0.0746577 35.5972 0.0396322L38.5623 1.705C38.7492 1.80296 38.871 2.00705 38.871 2.22747ZM35.1341 12.7503C35.1341 12.6932 35.1016 12.6442 35.061 12.6197L33.355 11.6237C33.3063 11.5992 33.2494 11.5992 33.2007 11.6237L31.4947 12.6197C31.4459 12.6442 31.4216 12.6932 31.4216 12.7503V14.7341C31.4216 14.7912 31.454 14.8402 31.4947 14.8647L33.2007 15.8525C33.2494 15.877 33.3063 15.877 33.3469 15.8525L35.0529 14.8647C35.1016 14.8402 35.126 14.7912 35.126 14.7341V12.7503H35.1341ZM52.1777 12.6932C52.3646 12.587 52.4783 12.3829 52.4783 12.1707V10.7747C52.4783 10.5625 52.3646 10.3584 52.1777 10.2523L47.2304 7.36235C47.0435 7.25623 46.8161 7.25623 46.6292 7.36235L41.6493 10.2523C41.4625 10.3584 41.3488 10.5625 41.3488 10.7747V16.5545C41.3488 16.7749 41.4625 16.9709 41.6493 17.077L46.5967 19.9098C46.7754 20.0159 47.0029 20.0159 47.1897 19.9098L50.1793 18.2362C50.3824 18.1219 50.3824 17.828 50.1793 17.7138L45.1669 14.8239C45.0694 14.7667 45.0126 14.6687 45.0126 14.5626V12.7503C45.0126 12.6442 45.0694 12.5462 45.1669 12.4891L46.7267 11.5829C46.8161 11.5258 46.9379 11.5258 47.0273 11.5829L48.587 12.4891C48.6764 12.5462 48.7414 12.6442 48.7414 12.7503V14.1708C48.7414 14.3993 48.9932 14.5463 49.1963 14.432L52.1777 12.6932ZM45.8981 12.9789C45.8656 13.0034 45.8412 13.036 45.8412 13.0768V14.1871C45.8412 14.2279 45.8656 14.2687 45.8981 14.2851L46.8567 14.8402C46.8892 14.8647 46.9379 14.8647 46.9704 14.8402L47.929 14.2851C47.9615 14.2606 47.9859 14.2279 47.9859 14.1871V13.0768C47.9859 13.036 47.9615 12.9952 47.929 12.9789L46.9704 12.4238C46.9379 12.3993 46.8892 12.3993 46.8567 12.4238L45.8981 12.9789ZM25.2475 16.53V10.7829C25.2475 10.5706 25.1175 10.3665 24.9307 10.2604L19.9671 7.38684C19.7965 7.28888 19.5609 7.27255 19.3659 7.38684L14.4023 10.2604C14.2155 10.3665 14.0855 10.5625 14.0855 10.7829V16.53C14.0855 16.7586 14.2398 16.9545 14.4104 17.0525L19.3822 19.9261C19.5771 20.0404 19.8046 20.0322 19.9833 19.9261L24.9388 17.0525C25.085 16.9709 25.1906 16.8321 25.2313 16.6688C25.2394 16.628 25.2475 16.579 25.2475 16.53ZM19.2116 6.33374L19.1466 6.37456H19.2359L19.2116 6.33374ZM25.4019 16.9627L25.3694 16.9056V16.979L25.4019 16.9627Z" fill="#CCCCCC"/>
<path d="M78.8465 10.774H81.0245V23.59H79.9085L71.9525 14.806V23.5H69.7745V10.666H70.8905L78.8465 19.45V10.774ZM92.4645 22.312C91.4805 23.236 90.1845 23.698 88.5765 23.698C86.9685 23.698 85.6665 23.23 84.6705 22.294C83.6865 21.358 83.1945 20.122 83.1945 18.586C83.1945 17.062 83.6865 15.832 84.6705 14.896C85.6665 13.96 86.9685 13.492 88.5765 13.492C90.1845 13.492 91.4805 13.96 92.4645 14.896C93.4485 15.832 93.9405 17.062 93.9405 18.586C93.9405 20.134 93.4485 21.376 92.4645 22.312ZM86.2905 20.908C86.8785 21.496 87.6405 21.79 88.5765 21.79C89.5125 21.79 90.2685 21.496 90.8445 20.908C91.4325 20.32 91.7265 19.546 91.7265 18.586C91.7265 17.638 91.4325 16.876 90.8445 16.3C90.2685 15.712 89.5125 15.418 88.5765 15.418C87.6405 15.418 86.8785 15.712 86.2905 16.3C85.7025 16.888 85.4085 17.65 85.4085 18.586C85.4085 19.546 85.7025 20.32 86.2905 20.908ZM100.309 23.698C98.857 23.698 97.693 23.236 96.817 22.312C95.953 21.388 95.521 20.146 95.521 18.586C95.521 17.026 95.953 15.79 96.817 14.878C97.681 13.954 98.815 13.492 100.219 13.492C101.563 13.492 102.613 13.876 103.369 14.644V9.874H105.493V23.5H103.405V22.474C102.709 23.29 101.677 23.698 100.309 23.698ZM100.723 21.808C101.275 21.808 101.791 21.688 102.271 21.448C102.751 21.208 103.129 20.848 103.405 20.368V16.786C103.117 16.342 102.721 16 102.217 15.76C101.713 15.508 101.191 15.382 100.651 15.382C99.775 15.382 99.067 15.664 98.527 16.228C97.999 16.792 97.735 17.572 97.735 18.568C97.735 19.576 98.005 20.368 98.545 20.944C99.085 21.52 99.811 21.808 100.723 21.808ZM117.664 18.622C117.664 18.91 117.658 19.114 117.646 19.234H109.744C109.876 20.074 110.218 20.728 110.77 21.196C111.322 21.664 112.036 21.898 112.912 21.898C114.196 21.898 115.198 21.448 115.918 20.548L117.304 21.7C116.32 23.032 114.808 23.698 112.768 23.698C111.16 23.698 109.888 23.236 108.952 22.312C108.028 21.376 107.566 20.128 107.566 18.568C107.566 17.032 108.034 15.796 108.97 14.86C109.906 13.924 111.124 13.456 112.624 13.456C114.256 13.456 115.504 13.93 116.368 14.878C117.232 15.814 117.664 17.062 117.664 18.622ZM112.624 15.238C111.892 15.238 111.268 15.448 110.752 15.868C110.236 16.276 109.906 16.864 109.762 17.632H115.522C115.45 16.924 115.168 16.348 114.676 15.904C114.196 15.46 113.512 15.238 112.624 15.238ZM120.261 23.734C119.877 23.734 119.547 23.602 119.271 23.338C118.995 23.074 118.857 22.75 118.857 22.366C118.857 21.994 118.995 21.676 119.271 21.412C119.547 21.148 119.877 21.016 120.261 21.016C120.633 21.016 120.951 21.148 121.215 21.412C121.479 21.676 121.611 21.994 121.611 22.366C121.611 22.75 121.479 23.074 121.215 23.338C120.951 23.602 120.633 23.734 120.261 23.734ZM126.291 12.052C126.027 12.316 125.703 12.448 125.319 12.448C124.935 12.448 124.605 12.316 124.329 12.052C124.065 11.788 123.933 11.464 123.933 11.08C123.933 10.708 124.065 10.39 124.329 10.126C124.605 9.862 124.935 9.73 125.319 9.73C125.703 9.73 126.027 9.862 126.291 10.126C126.555 10.39 126.687 10.708 126.687 11.08C126.687 11.464 126.555 11.788 126.291 12.052ZM123.465 26.902C122.853 26.902 122.403 26.854 122.115 26.758V25.012C122.367 25.084 122.613 25.12 122.853 25.12C123.429 25.12 123.795 24.964 123.951 24.652C124.119 24.352 124.203 23.824 124.203 23.068V13.708H126.345V24.166C126.345 25.114 126.081 25.804 125.553 26.236C125.037 26.68 124.341 26.902 123.465 26.902ZM132.583 23.734C131.059 23.734 129.685 23.434 128.461 22.834L129.163 21.124C130.183 21.724 131.305 22.024 132.529 22.024C133.801 22.024 134.437 21.61 134.437 20.782C134.437 20.434 134.269 20.17 133.933 19.99C133.597 19.81 132.997 19.624 132.133 19.432C130.921 19.18 130.027 18.832 129.451 18.388C128.887 17.932 128.605 17.278 128.605 16.426C128.605 15.478 128.947 14.758 129.631 14.266C130.327 13.762 131.263 13.51 132.439 13.51C133.651 13.51 134.905 13.768 136.201 14.284L135.481 15.994C134.521 15.502 133.495 15.256 132.403 15.256C131.299 15.256 130.747 15.598 130.747 16.282C130.747 16.642 130.903 16.912 131.215 17.092C131.527 17.272 132.127 17.464 133.015 17.668C134.263 17.956 135.175 18.316 135.751 18.748C136.339 19.18 136.633 19.798 136.633 20.602C136.633 21.682 136.297 22.474 135.625 22.978C134.953 23.482 133.939 23.734 132.583 23.734Z" fill="#CCCCCC"/>
</svg>
