<svg width="109" height="32" viewBox="0 0 109 32" fill="none" xmlns="http://www.w3.org/2000/svg">
<path d="M30.3235 0H23.9102L19.2399 7.3891L15.2367 0H0.558594L19.2399 32L37.9211 0H30.3235ZM5.20389 2.66875H9.69073L19.2399 19.1983L28.7806 2.66875H33.2675L19.2399 26.7042L5.20389 2.66875Z" fill="#CCCCCC"/>
<path d="M64.1099 10.774H66.5759L60.9059 23.59H59.6459L54.0119 10.774H56.5139L59.3399 17.632L60.2759 20.134L61.2659 17.65L64.1099 10.774ZM71.3176 23.698C68.8096 23.698 67.5556 22.306 67.5556 19.522V13.708H69.6796V19.09C69.6796 20.902 70.4176 21.808 71.8936 21.808C72.8776 21.808 73.7296 21.382 74.4496 20.53V13.708H76.5736V23.5H74.5396V22.402C73.6756 23.266 72.6016 23.698 71.3176 23.698ZM88.6717 18.622C88.6717 18.91 88.6657 19.114 88.6537 19.234H80.7517C80.8837 20.074 81.2257 20.728 81.7777 21.196C82.3297 21.664 83.0437 21.898 83.9197 21.898C85.2037 21.898 86.2057 21.448 86.9257 20.548L88.3117 21.7C87.3277 23.032 85.8157 23.698 83.7757 23.698C82.1677 23.698 80.8957 23.236 79.9597 22.312C79.0357 21.376 78.5737 20.128 78.5737 18.568C78.5737 17.032 79.0417 15.796 79.9777 14.86C80.9137 13.924 82.1317 13.456 83.6317 13.456C85.2637 13.456 86.5117 13.93 87.3757 14.878C88.2397 15.814 88.6717 17.062 88.6717 18.622ZM83.6317 15.238C82.8997 15.238 82.2757 15.448 81.7597 15.868C81.2437 16.276 80.9137 16.864 80.7697 17.632H86.5297C86.4577 16.924 86.1757 16.348 85.6837 15.904C85.2037 15.46 84.5197 15.238 83.6317 15.238ZM91.2684 23.734C90.8844 23.734 90.5544 23.602 90.2784 23.338C90.0024 23.074 89.8644 22.75 89.8644 22.366C89.8644 21.994 90.0024 21.676 90.2784 21.412C90.5544 21.148 90.8844 21.016 91.2684 21.016C91.6404 21.016 91.9584 21.148 92.2224 21.412C92.4864 21.676 92.6184 21.994 92.6184 22.366C92.6184 22.75 92.4864 23.074 92.2224 23.338C91.9584 23.602 91.6404 23.734 91.2684 23.734ZM97.2984 12.052C97.0344 12.316 96.7104 12.448 96.3264 12.448C95.9424 12.448 95.6124 12.316 95.3364 12.052C95.0724 11.788 94.9404 11.464 94.9404 11.08C94.9404 10.708 95.0724 10.39 95.3364 10.126C95.6124 9.862 95.9424 9.73 96.3264 9.73C96.7104 9.73 97.0344 9.862 97.2984 10.126C97.5624 10.39 97.6944 10.708 97.6944 11.08C97.6944 11.464 97.5624 11.788 97.2984 12.052ZM94.4724 26.902C93.8604 26.902 93.4104 26.854 93.1224 26.758V25.012C93.3744 25.084 93.6204 25.12 93.8604 25.12C94.4364 25.12 94.8024 24.964 94.9584 24.652C95.1264 24.352 95.2104 23.824 95.2104 23.068V13.708H97.3524V24.166C97.3524 25.114 97.0884 25.804 96.5604 26.236C96.0444 26.68 95.3484 26.902 94.4724 26.902ZM103.591 23.734C102.067 23.734 100.693 23.434 99.4688 22.834L100.171 21.124C101.191 21.724 102.313 22.024 103.537 22.024C104.809 22.024 105.445 21.61 105.445 20.782C105.445 20.434 105.277 20.17 104.941 19.99C104.605 19.81 104.005 19.624 103.141 19.432C101.929 19.18 101.035 18.832 100.459 18.388C99.8948 17.932 99.6128 17.278 99.6128 16.426C99.6128 15.478 99.9548 14.758 100.639 14.266C101.335 13.762 102.271 13.51 103.447 13.51C104.659 13.51 105.913 13.768 107.209 14.284L106.489 15.994C105.529 15.502 104.503 15.256 103.411 15.256C102.307 15.256 101.755 15.598 101.755 16.282C101.755 16.642 101.911 16.912 102.223 17.092C102.535 17.272 103.135 17.464 104.023 17.668C105.271 17.956 106.183 18.316 106.759 18.748C107.347 19.18 107.641 19.798 107.641 20.602C107.641 21.682 107.305 22.474 106.633 22.978C105.961 23.482 104.947 23.734 103.591 23.734Z" fill="#CCCCCC"/>
</svg>
