<svg width="1920" height="830" viewBox="0 0 1920 830" fill="none" xmlns="http://www.w3.org/2000/svg">
<path d="M2101.4 895.809C2101.97 776.917 2101.08 658.025 2100.84 539.133C2100.65 446.809 2107.99 357.652 2064.8 268.964C2022.92 182.965 1957.41 103.103 1923.24 15.1813C1839.05 -201.484 2089.93 -384.599 2101 -596.114" stroke="#B7B7B7" stroke-miterlimit="10"/>
<path d="M1970.33 -228.686C1768.44 -222.709 1660.2 -83.6946 1489.96 -28.2283C1427.21 -7.78701 1346.94 0.511028 1281.47 -19.1333C1233.51 -33.5179 1205.2 -63.0442 1178.47 -92.7796C1151.83 -122.405 1123.39 -152.221 1075.47 -166.426C1008.25 -186.359 920.012 -178.28 848.556 -179.456C632.777 -183.002 416.956 -185.253 201.205 -189.547" stroke="#B7B7B7" stroke-miterlimit="10"/>
<path d="M1961.07 -208.164C1761.45 -202.276 1658.13 -64.6365 1490.34 -9.84756C1427.84 10.5638 1346.62 19.0411 1281.64 -1.51967C1236.54 -15.7947 1211.74 -43.9263 1187.58 -72.5262C1162.3 -102.441 1136.12 -131.569 1087.97 -145.286C1059.18 -153.484 1028.91 -154.281 998.321 -154.749C950.417 -155.487 902.5 -157.001 854.611 -158.246C643.028 -163.715 431.503 -170.23 219.892 -175.011" stroke="#B7B7B7" stroke-miterlimit="10"/>
<path d="M1952.73 -187.727C1756.84 -181.979 1657.85 -48.0546 1494.98 7.40177C1432.87 28.5503 1350.67 37.6253 1285.38 17.5925C1241.22 4.03471 1217.77 -24.0372 1195.76 -52.3381C1173.69 -80.7089 1150.24 -108.552 1106.13 -122.269C1075.4 -131.832 1042.6 -132.181 1009.55 -132.808C964.732 -133.655 919.912 -135.249 875.134 -136.783C662.282 -144.065 449.671 -154.803 236.676 -159.954" stroke="#B7B7B7" stroke-miterlimit="10"/>
<path d="M1945.48 -167.396C1747.5 -161.478 1653.62 -24.1773 1487.14 28.8285C1427.12 47.9449 1346.49 55.6452 1284.8 35.3633C1243.27 21.7159 1222.59 -4.84177 1202.89 -32.2362C1182.24 -60.9656 1160.17 -88.4596 1115.64 -101.589C1086.72 -110.106 1055.9 -110.515 1025.08 -111.033C979.448 -111.8 933.8 -113.732 888.237 -115.625C675.856 -124.431 463.988 -139.105 251.32 -144.324" stroke="#B7B7B7" stroke-miterlimit="10"/>
<path d="M1939.46 -147.171C1744.49 -141.224 1654.22 -7.45913 1491.88 46.1942C1431.7 66.0875 1350.23 74.6744 1287.49 54.6814C1246.37 41.5719 1227.04 14.9744 1208.82 -12.181C1190.49 -39.5057 1171.22 -65.655 1130.14 -79.0434C1099.29 -89.1047 1065.38 -89.0648 1032.08 -89.7123C985.857 -90.6089 939.652 -92.6012 893.533 -94.8226C683.407 -104.954 474.08 -123.024 263.468 -127.965" stroke="#B7B7B7" stroke-miterlimit="10"/>
<path d="M1934.8 -127.086C1742.43 -121.01 1655.21 9.19851 1496.74 63.8281C1435.44 84.9567 1348.13 94.8784 1284.43 72.2954C1246.6 58.8871 1229.36 33.6842 1213.4 7.76405C1196.51 -19.6603 1178.08 -45.6004 1136.93 -58.4509C1105.02 -68.4125 1070.84 -68.1436 1036.64 -68.7711C993.566 -69.5681 950.501 -71.4708 907.522 -73.7121C695.797 -84.7197 485.257 -106.496 272.846 -110.909" stroke="#B7B7B7" stroke-miterlimit="10"/>
<path d="M1931.66 -107.134C1739.63 -100.838 1655.32 28.414 1497.46 82.9539C1436.14 104.142 1348.39 114.044 1284.67 91.3715C1247.43 78.1225 1231.27 53.3679 1216.48 27.6171C1200.81 0.352098 1183.48 -25.1198 1142.9 -37.8009C1110.97 -47.7825 1076.48 -47.6231 1042.24 -48.1411C999.146 -48.7886 956.068 -50.6714 913.103 -53.0323C701.564 -64.6276 491.58 -89.5217 279.184 -92.9884" stroke="#B7B7B7" stroke-miterlimit="10"/>
<path d="M1930.18 -87.3511C1736.1 -80.6071 1654.68 50.1891 1494.08 103.663C1434.49 123.507 1353.2 131.874 1290.75 112.708C1249.55 100.067 1233.1 74.9835 1217.91 47.35C1202.79 19.836 1186.19 -5.5861 1145.07 -18.0082C1115.45 -26.9538 1082.92 -27.6212 1051.19 -27.9301C1007.84 -28.3484 964.546 -29.9124 921.311 -32.2633C707.915 -43.8786 496.533 -72.0202 282.124 -74.162" stroke="#B7B7B7" stroke-miterlimit="10"/>
<path d="M1930.52 -67.7344C1738.45 -61.2494 1655.7 67.4648 1497.96 121.995C1436.36 143.293 1348.5 153.075 1284.54 130.263C1247.6 117.084 1231.84 92.6677 1217.52 67.0265C1202.35 39.8511 1185.41 14.7379 1145.13 2.11655C1113.17 -7.89489 1078.38 -7.98454 1044.05 -8.34316C1000.87 -8.8014 957.723 -10.5447 914.673 -12.9455C703.361 -24.7201 493.949 -52.2441 281.596 -54.3958" stroke="#B7B7B7" stroke-miterlimit="10"/>
<path d="M1932.62 -48.2915C1740.52 -42.0954 1655.21 87.4954 1497.18 142.055C1435.73 163.273 1348.67 172.956 1284.86 150.313C1247.53 137.074 1230.7 112.419 1215.2 86.7682C1198.78 59.6028 1180.76 34.2405 1140.13 21.5494C1108.29 11.5977 1073.92 11.5579 1039.73 11.1196C996.523 10.5617 953.33 8.76867 910.251 6.40776C699.282 -5.16766 490.041 -31.1277 278.116 -33.9269" stroke="#B7B7B7" stroke-miterlimit="10"/>
<path d="M1936.35 -28.998C1743.75 -22.9812 1655.31 107.606 1496.49 162.295C1434.82 183.533 1348.46 193.047 1284.38 170.563C1246.42 157.235 1228.13 132.33 1211.09 106.6C1193.07 79.3744 1173.58 53.7332 1132.34 40.9525C1100.44 31.0606 1066.34 31.0008 1032.14 30.5126C988.928 29.895 945.764 28.102 902.685 25.8208C692.216 14.6438 483.303 -9.59287 272.006 -12.8105" stroke="#B7B7B7" stroke-miterlimit="10"/>
<path d="M1941.51 -9.82764C1746.14 -3.89052 1654.49 130.273 1491.64 184.036C1430.92 204.078 1350.5 212.167 1287.21 192.334C1245.91 179.393 1225.09 153.344 1205.33 126.507C1185.46 99.5211 1164.71 73.8998 1123.46 60.6807C1092.54 50.7689 1058.7 50.4302 1025.34 49.8823C979.035 49.1153 932.788 47.372 886.597 44.9912C678.683 34.2824 472.039 12.2971 263.397 8.90019" stroke="#B7B7B7" stroke-miterlimit="10"/>
<path d="M1948.01 9.19434C1749.46 15.1315 1654.05 152.871 1486.92 206.016C1426.17 225.332 1346.7 232.375 1284.2 212.431C1242.39 199.093 1219.79 173.352 1198.13 146.456C1175.4 118.254 1151.35 91.5969 1106.61 78.7464C1077.62 70.4284 1046.75 69.5916 1015.89 69.1832C970.242 68.5855 924.622 66.8721 879.074 64.7303C670.09 54.9082 462.219 34.5665 252.649 31.0999" stroke="#B7B7B7" stroke-miterlimit="10"/>
<path d="M1955.67 28.127C1759.09 33.9246 1658.46 168.317 1494.81 223.923C1431.78 245.34 1350.87 253.618 1284.53 234.093C1239.99 220.984 1214.13 194.068 1189.62 166.484C1165.05 138.84 1139.19 112.133 1094.71 98.8743C1063.72 89.6399 1030.86 88.8629 997.663 88.325C952.971 87.6078 908.322 86.1832 863.702 84.2606C655.631 75.3151 448.459 57.1252 239.917 53.7781" stroke="#B7B7B7" stroke-miterlimit="10"/>
<path d="M1964.36 46.9531C1763.93 52.9102 1658.86 191.038 1490.15 246.006C1426.52 266.736 1346.72 274.247 1280.41 254.474C1234.77 240.866 1207.12 214.169 1179.97 186.545C1151.58 157.647 1122.43 130.033 1073.84 116.924C1044.81 109.094 1014.33 107.888 983.587 107.52C936.027 106.942 888.48 105.458 840.977 103.605C635.718 95.5957 431.129 79.946 225.499 76.8678" stroke="#B7B7B7" stroke-miterlimit="10"/>
<path d="M1973.93 65.6899C1771.11 71.7665 1661.04 211.279 1489.78 266.955C1425.82 287.745 1346.95 294.987 1279.99 276.338C1231.36 262.791 1199.65 235.117 1169.35 206.657C1139.15 178.286 1107.3 150.364 1058.71 136.975C990.097 118.068 904.739 125.898 832.342 123.547C624.685 116.803 417.57 103.066 209.642 100.307" stroke="#B7B7B7" stroke-miterlimit="10"/>
<path d="M1984.23 84.3633C1780.61 90.6092 1665.11 229.355 1493.62 286.524C1424.97 309.416 1340.54 317.107 1269.08 295.271C1222.03 280.886 1189.52 253.96 1157.91 226.805C1124.83 198.374 1090.81 170.611 1040.77 156.675C969.585 136.841 881.786 145.02 806.576 142.967C601.845 137.369 397.457 126.322 192.555 124.03" stroke="#B7B7B7" stroke-miterlimit="10"/>
<path d="M1995.11 102.985C1785.03 109.56 1664.66 254.273 1484.82 310.267C1417.45 331.246 1337.67 337.024 1268.18 317.23C1217.45 302.776 1181.21 275.062 1145.81 246.981C1108.99 217.753 1070.99 188.984 1017.43 175.018C949.018 157.177 866.429 164.249 794.76 162.785C587.959 158.551 381.372 149.795 174.472 147.992" stroke="#B7B7B7" stroke-miterlimit="10"/>
<path d="M2006.44 121.561C1796.96 128.285 1670.82 270.139 1492.98 328.613C1422.55 351.774 1341.12 358.897 1267.08 339.312C1212.71 324.928 1172.37 296.009 1133.24 267.17C1094.07 238.301 1053.72 209.532 999.389 195.028C926.292 175.513 839.036 183.313 762.199 182.177C560.009 179.199 357.919 173.322 155.672 172.096" stroke="#B7B7B7" stroke-miterlimit="10"/>
<path d="M2018.05 140.111C1801.83 147.233 1670.52 294.934 1484.19 352.413C1413.49 374.219 1332.7 379.538 1259.73 359.695C1204.43 344.663 1161.83 315.963 1120.32 287.374C1078.82 258.804 1036.19 230.084 980.905 215.052C908.451 195.348 824.563 202.461 748.497 201.873C544.451 200.299 340.448 196.972 136.388 196.334" stroke="#B7B7B7" stroke-miterlimit="10"/>
<path d="M2029.81 158.652C1814.03 165.954 1676.95 310.976 1492.4 370.835C1416.59 395.42 1331.15 402.015 1252.25 380.089C1195.9 364.43 1151.12 335.959 1107.27 307.608C1063.45 279.278 1018.69 250.688 962.294 235.128C885.672 213.989 796.203 221.54 715.555 221.45C516.006 221.231 316.442 220.683 116.892 220.663" stroke="#B7B7B7" stroke-miterlimit="10"/>
<path d="M2041.57 177.177C1820.73 184.907 1678.41 333.544 1487.82 393.234C1412.85 416.714 1330.67 422.531 1252.72 402.598C1191.69 386.988 1142.39 357.273 1094.2 327.806C1046.02 298.34 996.678 268.614 935.671 253.015C857.55 233.032 768.98 240.592 687.462 241.08C490.753 242.256 294.058 244.368 97.3348 244.936" stroke="#B7B7B7" stroke-miterlimit="10"/>
<path d="M2053.19 195.739C1829.08 203.768 1681.48 353.85 1487.52 414.407C1409.64 438.723 1325.96 443.963 1245.17 422.974C1183.08 406.846 1131.62 377.22 1081.29 348.023C1030.96 318.825 979.492 289.189 917.415 273.071C840.122 252.999 754.207 259.603 673.345 260.629C474.909 263.139 276.544 268.041 78.0651 269.186" stroke="#B7B7B7" stroke-miterlimit="10"/>
<path d="M2064.51 214.306C1837.54 222.614 1684.21 374.33 1487.2 435.394C1408.85 459.681 1326.02 465.1 1244.47 444.968C1178.37 428.65 1123.03 398.248 1068.7 368.213C1012.55 337.163 955.097 305.624 886.14 289.775C808.19 271.864 722.547 278.768 641.856 280.382C447.631 284.267 253.576 291.648 59.2512 293.302" stroke="#B7B7B7" stroke-miterlimit="10"/>
<path d="M2075.4 232.937C1954.06 237.45 1851.57 286.929 1755.85 334.894C1669.48 378.168 1584.73 426.232 1486.87 456.486C1408.37 480.762 1325.85 486.191 1244.03 466.985C1174.07 450.569 1114.75 419.17 1056.63 388.398C998.504 357.627 939.182 326.228 869.225 309.811C791.803 291.641 709 297.717 628.795 299.799C432.871 304.88 237.29 315.13 41.2091 317.272" stroke="#B7B7B7" stroke-miterlimit="10"/>
<path d="M2085.69 251.606C1964.88 256.158 1861.91 304.921 1765.99 352.218C1676.02 396.577 1588.02 446.176 1486.53 477.366C1405.3 502.32 1321.55 507.44 1236.99 487.218C1166.12 470.264 1105.1 439.044 1045.18 408.531C985.259 378.019 924.238 346.799 853.368 329.845C771.707 310.31 684.393 316.805 599.721 319.614C407.779 325.989 216.323 338.471 24.1102 340.972" stroke="#B7B7B7" stroke-miterlimit="10"/>
<path d="M2095.26 270.351C1974.07 274.973 1870.1 323.706 1773.4 370.754C1679.52 416.428 1587.66 467.9 1481.75 499.628C1402.54 523.346 1321.3 527.959 1239.06 509.43C1163.77 492.465 1098.6 460.09 1034.55 428.651C970.487 397.212 905.326 364.837 830.017 347.872C752.938 330.499 672.618 335.769 593.027 338.748C397.945 346.039 203.648 361.57 8.22408 364.419" stroke="#B7B7B7" stroke-miterlimit="10"/>
<path d="M2103.95 289.178C1983.55 293.77 1879.48 341.775 1782.87 388.107C1688.01 433.611 1595.65 484.734 1489.97 517.747C1405.91 544.006 1320.72 549.734 1232.73 529.472C1156.82 511.999 1090.34 479.863 1024.9 448.713C959.451 417.563 892.978 385.427 817.069 367.954C735.936 349.276 651.177 354.904 567.347 358.6C375.99 367.028 185.647 384.51 -6.19409 387.499" stroke="#B7B7B7" stroke-miterlimit="10"/>
<path d="M2111.61 308.097C2002.92 312.241 1907.58 351.978 1818.81 392.9C1731 433.384 1647.3 478.531 1555.6 514.801C1491.2 540.273 1418.73 563.692 1343.18 563.712C1278.87 563.732 1216.15 549.288 1159.2 529.395C1043.77 489.09 946.604 425.764 825.447 393.03C702.334 359.758 561.408 376.583 433.371 385.071C282.752 395.062 132.49 407.763 -18.9131 410.174" stroke="#B7B7B7" stroke-miterlimit="10"/>
<path d="M2118.11 327.132C2009.6 331.226 1913.99 370.883 1825.1 411.437C1733.57 453.196 1646.44 500.026 1550.74 537.193C1486.18 562.266 1414.35 584.59 1339.1 584.251C1274.74 583.962 1212.09 569.189 1154.94 549.455C1037.52 508.922 937.558 446.093 814.716 412.852C691.832 379.6 553.561 395.568 425.837 404.793C274.163 415.75 122.973 430.025 -29.6721 432.386" stroke="#B7B7B7" stroke-miterlimit="10"/>
<path d="M2123.29 346.285C2011.33 350.429 1912.25 392.627 1820.73 434.475C1732.14 474.979 1647.2 519.757 1554.66 555.918C1488.03 581.957 1413.32 605.746 1335.36 604.769C1271.08 603.962 1208.73 588.94 1151.59 569.346C1032.72 528.603 930.376 466.263 806.264 432.652C681.467 398.853 542.182 414.851 412.589 424.982C262.513 436.717 112.994 451.958 -38.2386 454.09" stroke="#B7B7B7" stroke-miterlimit="10"/>
<path d="M2127 365.583C2014.74 369.628 1915.06 412.264 1823.2 454.043C1733.7 494.746 1647.8 539.693 1554.39 576.073C1487.62 602.072 1412.85 625.99 1334.77 625.014C1270.3 624.207 1207.78 609.016 1150.37 589.521C1029.47 548.479 924.695 486.039 798.642 452.08C673.702 418.42 534.902 434.05 405.309 444.778C255.619 457.171 106.613 473.418 -44.3907 475.211" stroke="#B7B7B7" stroke-miterlimit="10"/>
<path d="M2129.12 385.03C2017.65 388.856 1918.47 431.262 1827.11 472.553C1734.51 514.402 1645.79 560.933 1548.87 597.97C1484.85 622.436 1413.88 645.059 1339.42 645.049C1272.92 645.049 1208.22 629.18 1149.05 609.147C1027.61 568.035 921.684 506.273 795.302 471.985C669.206 437.777 528.794 453.317 397.988 464.673C249.61 477.554 101.989 494.399 -47.8728 495.694" stroke="#B7B7B7" stroke-miterlimit="10"/>
<path d="M2129.54 404.643C2018.25 408.747 1919.04 451.173 1827.62 492.255C1734.71 534.004 1645.6 580.386 1548.45 617.393C1484.67 641.689 1413.58 664.641 1339.39 664.631C1273.22 664.631 1208.6 648.453 1149.71 628.62C1027.59 587.498 920.539 526.105 793.616 491.687C667.605 457.519 527.778 472.661 397.072 484.196C248.765 497.276 101.301 514.489 -48.5606 515.446" stroke="#B7B7B7" stroke-miterlimit="10"/>
<path d="M2129.54 424.306C2018.55 429.526 1919.56 471.026 1827.69 511.699C1734.97 552.751 1645.9 598.266 1549.13 634.726C1485.72 658.623 1413.65 682.332 1339.96 682.362C1274.19 682.382 1208.92 665.547 1150.32 646.072C1028.28 605.508 920.568 545.419 793.944 511.301C667.291 477.172 528.806 491.965 397.457 503.352C249.122 516.222 101.558 533.057 -48.2608 534.282" stroke="#B7B7B7" stroke-miterlimit="10"/>
<path d="M2129.54 443.961C2019.03 449.948 1920.26 490.283 1827.99 530.299C1735.54 570.394 1646.55 614.813 1550.26 650.466C1487.06 673.866 1414.35 697.863 1341.15 697.903C1275.7 697.943 1209.96 680.809 1151.48 661.772C1029.48 622.065 921.025 563.521 794.715 530.01C667.477 496.25 530.048 510.635 398.2 521.801C249.794 534.373 102.13 550.75 -47.6751 552.174" stroke="#B7B7B7" stroke-miterlimit="10"/>
<path d="M2129.53 463.625C2019.68 470.06 1921.12 509.01 1828.52 548.129C1736.4 587.049 1647.57 630.163 1551.82 664.77C1488.69 687.592 1415.65 711.43 1342.92 711.49C1277.76 711.54 1211.7 694.446 1153.18 675.917C1031.21 637.316 921.941 580.564 795.931 547.94C668.151 514.858 531.549 528.784 399.315 539.652C250.824 551.855 103.017 567.714 -46.7734 569.248" stroke="#B7B7B7" stroke-miterlimit="10"/>
<path d="M2129.53 483.271C2019.62 489.946 1920.49 527.83 1826.98 566.192C1737.64 602.841 1651.15 643.146 1558.73 676.039C1492.94 699.449 1415.89 724.243 1340.34 723.118C1277.22 722.171 1213.73 706.392 1156.53 688.979C1033.61 651.563 922.712 596.206 795.945 564.718C669.164 533.229 534.76 546.368 403.883 556.689C254.235 568.483 105.244 583.954 -45.6033 585.557" stroke="#B7B7B7" stroke-miterlimit="10"/>
<path d="M2129.53 502.927C2020.52 509.521 1921.66 545.622 1827.89 582.67C1738.99 617.794 1652.77 656.475 1560.97 687.944C1495.01 710.557 1418.15 734.405 1343.08 733.309C1280.12 732.383 1216.6 717.171 1159.12 700.406C1036.18 664.554 924.339 611.439 797.858 581.285C670.648 550.952 536.602 563.573 405.582 573.465C255.82 584.771 106.643 599.574 -44.2326 601.178" stroke="#B7B7B7" stroke-miterlimit="10"/>
<path d="M2129.53 522.569C1921.96 534.693 1746.52 638.772 1563.53 698.81C1497.29 720.547 1420.86 743.13 1346.25 742.084C1283.4 741.207 1219.94 726.733 1162.09 710.695C1039.12 676.596 926.309 625.901 800.098 597.262C672.475 568.303 538.643 580.357 407.551 589.77C257.646 600.539 108.284 614.625 -42.62 616.169" stroke="#B7B7B7" stroke-miterlimit="10"/>
<path d="M2129.53 542.211C1924.28 553.428 1749.14 651.809 1566.34 708.81C1499.75 729.57 1423.95 750.638 1349.76 749.662C1287 748.835 1223.65 735.278 1165.38 720.036C1042.36 687.85 928.564 639.736 802.611 612.77C674.602 585.365 540.87 596.831 409.749 605.727C259.702 615.907 110.125 629.236 -40.8215 630.68" stroke="#B7B7B7" stroke-miterlimit="10"/>
<path d="M2129.54 561.858C1926.78 571.889 1751.9 664.383 1569.36 718.076C1502.37 737.78 1427.35 757.126 1353.57 756.239C1290.86 755.482 1227.67 742.95 1168.93 728.566C1045.84 698.422 931.031 653.037 805.321 627.874C676.955 602.183 543.208 613.021 412.117 621.359C261.912 630.912 112.122 643.453 -38.8823 644.748" stroke="#B7B7B7" stroke-miterlimit="10"/>
<path d="M2129.54 581.5C1929.36 590.137 1754.69 676.584 1572.56 726.731C1505.13 745.29 1431 762.762 1357.62 761.965C1294.94 761.288 1231.95 749.882 1172.72 736.414C1049.53 708.412 933.7 665.885 808.218 642.625C679.51 618.767 545.691 628.958 414.643 636.718C264.267 645.623 114.262 657.328 -36.8132 658.464" stroke="#B7B7B7" stroke-miterlimit="10"/>
<path d="M2129.54 601.134C1932.03 608.237 1757.53 688.508 1575.88 734.909C1508.01 752.242 1434.84 767.742 1361.85 767.045C1299.17 766.447 1236.41 756.227 1176.66 743.735C1053.37 717.954 936.54 678.387 811.244 657.099C682.207 635.173 548.275 644.696 417.269 651.849C266.722 660.077 116.489 670.925 -34.6577 671.872" stroke="#B7B7B7" stroke-miterlimit="10"/>
<path d="M2129.54 620.772C1933.4 626.301 1757.88 701.272 1575.43 743.679C1509.17 759.08 1439.33 771.9 1369 771.661C1305.79 771.442 1242.7 762.486 1181.94 750.971C1057.54 727.392 938.867 690.464 812.714 671.188C684.934 651.653 552.515 660.28 423.164 666.705C271.361 674.246 119.858 684.377 -32.4453 685.114" stroke="#B7B7B7" stroke-miterlimit="10"/>
<path d="M2129.54 640.419C1936.1 644.264 1760.73 712.86 1578.94 751.272C1445.91 779.384 1320.81 780.738 1186.09 757.727C1061.58 736.459 941.908 702.669 815.912 685.426C687.803 667.893 555.298 675.842 425.934 681.66C273.945 688.494 122.213 697.738 -30.1753 698.256" stroke="#B7B7B7" stroke-miterlimit="10"/>
<path d="M2129.56 660.048C1938.79 662.24 1763.54 724.42 1582.47 758.798C1450.55 783.841 1323.55 784.678 1190.26 764.406C1065.61 745.449 945.006 714.827 819.124 699.616C690.688 684.096 558.14 691.358 428.732 696.567C276.572 702.694 124.612 711.042 -27.8903 711.341" stroke="#B7B7B7" stroke-miterlimit="10"/>
<path d="M2129.56 679.683C1941.38 680.28 1766.26 736.085 1585.96 766.418C1455.08 788.434 1326.36 788.822 1194.39 771.19C1069.59 754.524 948.089 727.07 822.293 713.861C693.528 700.333 560.98 706.918 431.487 711.53C279.156 716.949 126.982 724.41 -25.6351 724.5" stroke="#B7B7B7" stroke-miterlimit="10"/>
<path d="M2129.56 699.332C1943.85 698.455 1768.84 747.944 1589.39 774.273C1459.41 793.35 1329.25 793.34 1198.43 778.238C1073.47 763.813 951.144 739.517 825.391 728.24C696.297 716.665 563.807 722.562 434.171 726.587C281.668 731.318 129.28 737.903 -23.437 737.784" stroke="#B7B7B7" stroke-miterlimit="10"/>
<path d="M2129.56 718.963C1946.19 716.771 1771.3 760.044 1592.71 782.478C1463.45 798.715 1332.23 798.387 1202.34 785.666C1077.21 773.413 954.127 752.214 828.388 742.811C698.952 733.128 566.59 738.348 436.783 741.795C284.109 745.849 131.535 751.577 -21.2963 751.268" stroke="#B7B7B7" stroke-miterlimit="10"/>
<path d="M2129.56 738.606C1948.33 735.309 1773.59 772.526 1595.88 791.204C1467.12 804.741 1335.27 804.164 1206.06 793.664C1080.77 783.483 956.982 765.313 831.229 757.673C701.464 749.783 569.274 754.336 439.267 757.234C286.436 760.641 133.676 765.542 -19.269 765.064" stroke="#B7B7B7" stroke-miterlimit="10"/>
<path d="M2129.56 758.249C1951.86 754.135 1778.79 784.886 1603.56 800.157C1473.9 811.454 1340.84 810.926 1210.82 802.438C1084.35 794.18 958.995 778.75 832.199 772.793C550.218 759.534 264.982 780.353 -17.3847 779.238" stroke="#B7B7B7" stroke-miterlimit="10"/>
<path d="M2129.56 777.893C1953.53 773.191 1780.7 798.424 1606.29 810.388C1476.7 819.273 1343.83 818.576 1214.01 811.971C1087.37 805.526 961.478 792.925 834.612 788.452C551.902 778.49 267.294 795.146 -15.6576 793.861" stroke="#B7B7B7" stroke-miterlimit="10"/>
<path d="M2129.56 797.542C1954.96 792.581 1782.39 812.594 1608.76 821.549C1350.04 834.888 1094.81 811.039 836.767 804.634C553.515 797.601 269.279 810.402 -14.1016 809.037" stroke="#B7B7B7" stroke-miterlimit="10"/>
<path d="M2129.56 817.193C1956.13 812.322 1783.84 827.473 1610.93 833.759C1352.83 843.143 1096.4 825.511 838.623 821.397C555.014 816.864 270.948 826.188 -12.7459 824.833" stroke="#B7B7B7" stroke-miterlimit="10"/>
<path d="M2101.4 895.809C2101.97 776.917 2101.08 658.025 2100.84 539.133C2100.65 446.809 2107.99 357.652 2064.8 268.964C2022.92 182.965 1957.41 103.103 1923.24 15.1813C1839.05 -201.484 2089.93 -384.599 2101 -596.114" stroke="#B7B7B7" stroke-miterlimit="10"/>
<path d="M1970.33 -228.686C1768.44 -222.709 1660.2 -83.6946 1489.96 -28.2283C1427.21 -7.78701 1346.94 0.511028 1281.47 -19.1333C1233.51 -33.5179 1205.2 -63.0442 1178.47 -92.7796C1151.83 -122.405 1123.39 -152.221 1075.47 -166.426C1008.25 -186.359 920.012 -178.28 848.556 -179.456C632.777 -183.002 416.956 -185.253 201.205 -189.547" stroke="#B7B7B7" stroke-miterlimit="10"/>
<path d="M1961.07 -208.164C1761.45 -202.276 1658.13 -64.6365 1490.34 -9.84756C1427.84 10.5638 1346.62 19.0411 1281.64 -1.51967C1236.54 -15.7947 1211.74 -43.9263 1187.58 -72.5262C1162.3 -102.441 1136.12 -131.569 1087.97 -145.286C1059.18 -153.484 1028.91 -154.281 998.321 -154.749C950.417 -155.487 902.5 -157.001 854.611 -158.246C643.028 -163.715 431.503 -170.23 219.892 -175.011" stroke="#B7B7B7" stroke-miterlimit="10"/>
<path d="M1952.73 -187.727C1756.84 -181.979 1657.85 -48.0546 1494.98 7.40177C1432.87 28.5503 1350.67 37.6253 1285.38 17.5925C1241.22 4.03471 1217.77 -24.0372 1195.76 -52.3381C1173.69 -80.7089 1150.24 -108.552 1106.13 -122.269C1075.4 -131.832 1042.6 -132.181 1009.55 -132.808C964.732 -133.655 919.912 -135.249 875.134 -136.783C662.282 -144.065 449.671 -154.803 236.676 -159.954" stroke="#B7B7B7" stroke-miterlimit="10"/>
<path d="M1945.48 -167.396C1747.5 -161.478 1653.62 -24.1773 1487.14 28.8285C1427.12 47.9449 1346.49 55.6452 1284.8 35.3633C1243.27 21.7159 1222.59 -4.84177 1202.89 -32.2362C1182.24 -60.9656 1160.17 -88.4596 1115.64 -101.589C1086.72 -110.106 1055.9 -110.515 1025.08 -111.033C979.448 -111.8 933.8 -113.732 888.237 -115.625C675.856 -124.431 463.988 -139.105 251.32 -144.324" stroke="#B7B7B7" stroke-miterlimit="10"/>
<path d="M1939.46 -147.171C1744.49 -141.224 1654.22 -7.45913 1491.88 46.1942C1431.7 66.0875 1350.23 74.6744 1287.49 54.6814C1246.37 41.5719 1227.04 14.9744 1208.82 -12.181C1190.49 -39.5057 1171.22 -65.655 1130.14 -79.0434C1099.29 -89.1047 1065.38 -89.0648 1032.08 -89.7123C985.857 -90.6089 939.652 -92.6012 893.533 -94.8226C683.407 -104.954 474.08 -123.024 263.468 -127.965" stroke="#B7B7B7" stroke-miterlimit="10"/>
<path d="M1934.8 -127.086C1742.43 -121.01 1655.21 9.19851 1496.74 63.8281C1435.44 84.9567 1348.13 94.8784 1284.43 72.2954C1246.6 58.8871 1229.36 33.6842 1213.4 7.76405C1196.51 -19.6603 1178.08 -45.6004 1136.93 -58.4509C1105.02 -68.4125 1070.84 -68.1436 1036.64 -68.7711C993.566 -69.5681 950.501 -71.4708 907.522 -73.7121C695.797 -84.7197 485.257 -106.496 272.846 -110.909" stroke="#B7B7B7" stroke-miterlimit="10"/>
<path d="M1931.66 -107.134C1739.63 -100.838 1655.32 28.414 1497.46 82.9539C1436.14 104.142 1348.39 114.044 1284.67 91.3715C1247.43 78.1225 1231.27 53.3679 1216.48 27.6171C1200.81 0.352098 1183.48 -25.1198 1142.9 -37.8009C1110.97 -47.7825 1076.48 -47.6231 1042.24 -48.1411C999.146 -48.7886 956.068 -50.6714 913.103 -53.0323C701.564 -64.6276 491.58 -89.5217 279.184 -92.9884" stroke="#B7B7B7" stroke-miterlimit="10"/>
<path d="M1930.18 -87.3511C1736.1 -80.6071 1654.68 50.1891 1494.08 103.663C1434.49 123.507 1353.2 131.874 1290.75 112.708C1249.55 100.067 1233.1 74.9835 1217.91 47.35C1202.79 19.836 1186.19 -5.5861 1145.07 -18.0082C1115.45 -26.9538 1082.92 -27.6212 1051.19 -27.9301C1007.84 -28.3484 964.546 -29.9124 921.311 -32.2633C707.915 -43.8786 496.533 -72.0202 282.124 -74.162" stroke="#B7B7B7" stroke-miterlimit="10"/>
<path d="M1930.52 -67.7344C1738.45 -61.2494 1655.7 67.4648 1497.96 121.995C1436.36 143.293 1348.5 153.075 1284.54 130.263C1247.6 117.084 1231.84 92.6677 1217.52 67.0265C1202.35 39.8511 1185.41 14.7379 1145.13 2.11655C1113.17 -7.89489 1078.38 -7.98454 1044.05 -8.34316C1000.87 -8.8014 957.723 -10.5447 914.673 -12.9455C703.361 -24.7201 493.949 -52.2441 281.596 -54.3958" stroke="#B7B7B7" stroke-miterlimit="10"/>
<path d="M1932.62 -48.2915C1740.52 -42.0954 1655.21 87.4954 1497.18 142.055C1435.73 163.273 1348.67 172.956 1284.86 150.313C1247.53 137.074 1230.7 112.419 1215.2 86.7682C1198.78 59.6028 1180.76 34.2405 1140.13 21.5494C1108.29 11.5977 1073.92 11.5579 1039.73 11.1196C996.523 10.5617 953.33 8.76867 910.251 6.40776C699.282 -5.16766 490.041 -31.1277 278.116 -33.9269" stroke="#B7B7B7" stroke-miterlimit="10"/>
<path d="M1936.35 -28.998C1743.75 -22.9812 1655.31 107.606 1496.49 162.295C1434.82 183.533 1348.46 193.047 1284.38 170.563C1246.42 157.235 1228.13 132.33 1211.09 106.6C1193.07 79.3744 1173.58 53.7332 1132.34 40.9525C1100.44 31.0606 1066.34 31.0008 1032.14 30.5126C988.928 29.895 945.764 28.102 902.685 25.8208C692.216 14.6438 483.303 -9.59287 272.006 -12.8105" stroke="#B7B7B7" stroke-miterlimit="10"/>
<path d="M1941.51 -9.82764C1746.14 -3.89052 1654.49 130.273 1491.64 184.036C1430.92 204.078 1350.5 212.167 1287.21 192.334C1245.91 179.393 1225.09 153.344 1205.33 126.507C1185.46 99.5211 1164.71 73.8998 1123.46 60.6807C1092.54 50.7689 1058.7 50.4302 1025.34 49.8823C979.035 49.1153 932.788 47.372 886.597 44.9912C678.683 34.2824 472.039 12.2971 263.397 8.90019" stroke="#B7B7B7" stroke-miterlimit="10"/>
<path d="M1948.01 9.19434C1749.46 15.1315 1654.05 152.871 1486.92 206.016C1426.17 225.332 1346.7 232.375 1284.2 212.431C1242.39 199.093 1219.79 173.352 1198.13 146.456C1175.4 118.254 1151.35 91.5969 1106.61 78.7464C1077.62 70.4284 1046.75 69.5916 1015.89 69.1832C970.242 68.5855 924.622 66.8721 879.074 64.7303C670.09 54.9082 462.219 34.5665 252.649 31.0999" stroke="#B7B7B7" stroke-miterlimit="10"/>
<path d="M1955.67 28.127C1759.09 33.9246 1658.46 168.317 1494.81 223.923C1431.78 245.34 1350.87 253.618 1284.53 234.093C1239.99 220.984 1214.13 194.068 1189.62 166.484C1165.05 138.84 1139.19 112.133 1094.71 98.8743C1063.72 89.6399 1030.86 88.8629 997.663 88.325C952.971 87.6078 908.322 86.1832 863.702 84.2606C655.631 75.3151 448.459 57.1252 239.917 53.7781" stroke="#B7B7B7" stroke-miterlimit="10"/>
<path d="M1964.36 46.9531C1763.93 52.9102 1658.86 191.038 1490.15 246.006C1426.52 266.736 1346.72 274.247 1280.41 254.474C1234.77 240.866 1207.12 214.169 1179.97 186.545C1151.58 157.647 1122.43 130.033 1073.84 116.924C1044.81 109.094 1014.33 107.888 983.587 107.52C936.027 106.942 888.48 105.458 840.977 103.605C635.718 95.5957 431.129 79.946 225.499 76.8678" stroke="#B7B7B7" stroke-miterlimit="10"/>
<path d="M1973.93 65.6899C1771.11 71.7665 1661.04 211.279 1489.78 266.955C1425.82 287.745 1346.95 294.987 1279.99 276.338C1231.36 262.791 1199.65 235.117 1169.35 206.657C1139.15 178.286 1107.3 150.364 1058.71 136.975C990.097 118.068 904.739 125.898 832.342 123.547C624.685 116.803 417.57 103.066 209.642 100.307" stroke="#B7B7B7" stroke-miterlimit="10"/>
<path d="M1984.23 84.3633C1780.61 90.6092 1665.11 229.355 1493.62 286.524C1424.97 309.416 1340.54 317.107 1269.08 295.271C1222.03 280.886 1189.52 253.96 1157.91 226.805C1124.83 198.374 1090.81 170.611 1040.77 156.675C969.585 136.841 881.786 145.02 806.576 142.967C601.845 137.369 397.457 126.322 192.555 124.03" stroke="#B7B7B7" stroke-miterlimit="10"/>
<path d="M1995.11 102.985C1785.03 109.56 1664.66 254.273 1484.82 310.267C1417.45 331.246 1337.67 337.024 1268.18 317.23C1217.45 302.776 1181.21 275.062 1145.81 246.981C1108.99 217.753 1070.99 188.984 1017.43 175.018C949.018 157.177 866.429 164.249 794.76 162.785C587.959 158.551 381.372 149.795 174.472 147.992" stroke="#B7B7B7" stroke-miterlimit="10"/>
<path d="M2006.44 121.561C1796.96 128.285 1670.82 270.139 1492.98 328.613C1422.55 351.774 1341.12 358.897 1267.08 339.312C1212.71 324.928 1172.37 296.009 1133.24 267.17C1094.07 238.301 1053.72 209.532 999.389 195.028C926.292 175.513 839.036 183.313 762.199 182.177C560.009 179.199 357.919 173.322 155.672 172.096" stroke="#B7B7B7" stroke-miterlimit="10"/>
<path d="M2018.05 140.111C1801.83 147.233 1670.52 294.934 1484.19 352.413C1413.49 374.219 1332.7 379.538 1259.73 359.695C1204.43 344.663 1161.83 315.963 1120.32 287.374C1078.82 258.804 1036.19 230.084 980.905 215.052C908.451 195.348 824.563 202.461 748.497 201.873C544.451 200.299 340.448 196.972 136.388 196.334" stroke="#B7B7B7" stroke-miterlimit="10"/>
<path d="M2029.81 158.652C1814.03 165.954 1676.95 310.976 1492.4 370.835C1416.59 395.42 1331.15 402.015 1252.25 380.089C1195.9 364.43 1151.12 335.959 1107.27 307.608C1063.45 279.278 1018.69 250.688 962.294 235.128C885.672 213.989 796.203 221.54 715.555 221.45C516.006 221.231 316.442 220.683 116.892 220.663" stroke="#B7B7B7" stroke-miterlimit="10"/>
<path d="M2041.57 177.177C1820.73 184.907 1678.41 333.544 1487.82 393.234C1412.85 416.714 1330.67 422.531 1252.72 402.598C1191.69 386.988 1142.39 357.273 1094.2 327.806C1046.02 298.34 996.678 268.614 935.671 253.015C857.55 233.032 768.98 240.592 687.462 241.08C490.753 242.256 294.058 244.368 97.3348 244.936" stroke="#B7B7B7" stroke-miterlimit="10"/>
<path d="M2053.19 195.739C1829.08 203.768 1681.48 353.85 1487.52 414.407C1409.64 438.723 1325.96 443.963 1245.17 422.974C1183.08 406.846 1131.62 377.22 1081.29 348.023C1030.96 318.825 979.492 289.189 917.415 273.071C840.122 252.999 754.207 259.603 673.345 260.629C474.909 263.139 276.544 268.041 78.0651 269.186" stroke="#B7B7B7" stroke-miterlimit="10"/>
<path d="M2064.51 214.306C1837.54 222.614 1684.21 374.33 1487.2 435.394C1408.85 459.681 1326.02 465.1 1244.47 444.968C1178.37 428.65 1123.03 398.248 1068.7 368.213C1012.55 337.163 955.097 305.624 886.14 289.775C808.19 271.864 722.547 278.768 641.856 280.382C447.631 284.267 253.576 291.648 59.2512 293.302" stroke="#B7B7B7" stroke-miterlimit="10"/>
<path d="M2075.4 232.937C1954.06 237.45 1851.57 286.929 1755.85 334.894C1669.48 378.168 1584.73 426.232 1486.87 456.486C1408.37 480.762 1325.85 486.191 1244.03 466.985C1174.07 450.569 1114.75 419.17 1056.63 388.398C998.504 357.627 939.182 326.228 869.225 309.811C791.803 291.641 709 297.717 628.795 299.799C432.871 304.88 237.29 315.13 41.2091 317.272" stroke="#B7B7B7" stroke-miterlimit="10"/>
<path d="M2085.69 251.606C1964.88 256.158 1861.91 304.921 1765.99 352.218C1676.02 396.577 1588.02 446.176 1486.53 477.366C1405.3 502.32 1321.55 507.44 1236.99 487.218C1166.12 470.264 1105.1 439.044 1045.18 408.531C985.259 378.019 924.238 346.799 853.368 329.845C771.707 310.31 684.393 316.805 599.721 319.614C407.779 325.989 216.323 338.471 24.1102 340.972" stroke="#B7B7B7" stroke-miterlimit="10"/>
<path d="M2095.26 270.351C1974.07 274.973 1870.1 323.706 1773.4 370.754C1679.52 416.428 1587.66 467.9 1481.75 499.628C1402.54 523.346 1321.3 527.959 1239.06 509.43C1163.77 492.465 1098.6 460.09 1034.55 428.651C970.487 397.212 905.326 364.837 830.017 347.872C752.938 330.499 672.618 335.769 593.027 338.748C397.945 346.039 203.648 361.57 8.22408 364.419" stroke="#B7B7B7" stroke-miterlimit="10"/>
<path d="M2103.95 289.178C1983.55 293.77 1879.48 341.775 1782.87 388.107C1688.01 433.611 1595.65 484.734 1489.97 517.747C1405.91 544.006 1320.72 549.734 1232.73 529.472C1156.82 511.999 1090.34 479.863 1024.9 448.713C959.451 417.563 892.978 385.427 817.069 367.954C735.936 349.276 651.177 354.904 567.347 358.6C375.99 367.028 185.647 384.51 -6.19409 387.499" stroke="#B7B7B7" stroke-miterlimit="10"/>
<path d="M2111.61 308.097C2002.92 312.241 1907.58 351.978 1818.81 392.9C1731 433.384 1647.3 478.531 1555.6 514.801C1491.2 540.273 1418.73 563.692 1343.18 563.712C1278.87 563.732 1216.15 549.288 1159.2 529.395C1043.77 489.09 946.604 425.764 825.447 393.03C702.334 359.758 561.408 376.583 433.371 385.071C282.752 395.062 132.49 407.763 -18.9131 410.174" stroke="#B7B7B7" stroke-miterlimit="10"/>
<path d="M2118.11 327.132C2009.6 331.226 1913.99 370.883 1825.1 411.437C1733.57 453.196 1646.44 500.026 1550.74 537.193C1486.18 562.266 1414.35 584.59 1339.1 584.251C1274.74 583.962 1212.09 569.189 1154.94 549.455C1037.52 508.922 937.558 446.093 814.716 412.852C691.832 379.6 553.561 395.568 425.837 404.793C274.163 415.75 122.973 430.025 -29.6721 432.386" stroke="#B7B7B7" stroke-miterlimit="10"/>
<path d="M2123.29 346.285C2011.33 350.429 1912.25 392.627 1820.73 434.475C1732.14 474.979 1647.2 519.757 1554.66 555.918C1488.03 581.957 1413.32 605.746 1335.36 604.769C1271.08 603.962 1208.73 588.94 1151.59 569.346C1032.72 528.603 930.376 466.263 806.264 432.652C681.467 398.853 542.182 414.851 412.589 424.982C262.513 436.717 112.994 451.958 -38.2386 454.09" stroke="#B7B7B7" stroke-miterlimit="10"/>
<path d="M2127 365.583C2014.74 369.628 1915.06 412.264 1823.2 454.043C1733.7 494.746 1647.8 539.693 1554.39 576.073C1487.62 602.072 1412.85 625.99 1334.77 625.014C1270.3 624.207 1207.78 609.016 1150.37 589.521C1029.47 548.479 924.695 486.039 798.642 452.08C673.702 418.42 534.902 434.05 405.309 444.778C255.619 457.171 106.613 473.418 -44.3907 475.211" stroke="#B7B7B7" stroke-miterlimit="10"/>
<path d="M2129.12 385.03C2017.65 388.856 1918.47 431.262 1827.11 472.553C1734.51 514.402 1645.79 560.933 1548.87 597.97C1484.85 622.436 1413.88 645.059 1339.42 645.049C1272.92 645.049 1208.22 629.18 1149.05 609.147C1027.61 568.035 921.684 506.273 795.302 471.985C669.206 437.777 528.794 453.317 397.988 464.673C249.61 477.554 101.989 494.399 -47.8728 495.694" stroke="#B7B7B7" stroke-miterlimit="10"/>
<path d="M2129.54 404.643C2018.25 408.747 1919.04 451.173 1827.62 492.255C1734.71 534.004 1645.6 580.386 1548.45 617.393C1484.67 641.689 1413.58 664.641 1339.39 664.631C1273.22 664.631 1208.6 648.453 1149.71 628.62C1027.59 587.498 920.539 526.105 793.616 491.687C667.605 457.519 527.778 472.661 397.072 484.196C248.765 497.276 101.301 514.489 -48.5606 515.446" stroke="#B7B7B7" stroke-miterlimit="10"/>
<path d="M2129.54 424.306C2018.55 429.526 1919.56 471.026 1827.69 511.699C1734.97 552.751 1645.9 598.266 1549.13 634.726C1485.72 658.623 1413.65 682.332 1339.96 682.362C1274.19 682.382 1208.92 665.547 1150.32 646.072C1028.28 605.508 920.568 545.419 793.944 511.301C667.291 477.172 528.806 491.965 397.457 503.352C249.122 516.222 101.558 533.057 -48.2608 534.282" stroke="#B7B7B7" stroke-miterlimit="10"/>
<path d="M2129.54 443.961C2019.03 449.948 1920.26 490.283 1827.99 530.299C1735.54 570.394 1646.55 614.813 1550.26 650.466C1487.06 673.866 1414.35 697.863 1341.15 697.903C1275.7 697.943 1209.96 680.809 1151.48 661.772C1029.48 622.065 921.025 563.521 794.715 530.01C667.477 496.25 530.048 510.635 398.2 521.801C249.794 534.373 102.13 550.75 -47.6751 552.174" stroke="#B7B7B7" stroke-miterlimit="10"/>
<path d="M2129.53 463.625C2019.68 470.06 1921.12 509.01 1828.52 548.129C1736.4 587.049 1647.57 630.163 1551.82 664.77C1488.69 687.592 1415.65 711.43 1342.92 711.49C1277.76 711.54 1211.7 694.446 1153.18 675.917C1031.21 637.316 921.941 580.564 795.931 547.94C668.151 514.858 531.549 528.784 399.315 539.652C250.824 551.855 103.017 567.714 -46.7734 569.248" stroke="#B7B7B7" stroke-miterlimit="10"/>
<path d="M2129.53 483.271C2019.62 489.946 1920.49 527.83 1826.98 566.192C1737.64 602.841 1651.15 643.146 1558.73 676.039C1492.94 699.449 1415.89 724.243 1340.34 723.118C1277.22 722.171 1213.73 706.392 1156.53 688.979C1033.61 651.563 922.712 596.206 795.945 564.718C669.164 533.229 534.76 546.368 403.883 556.689C254.235 568.483 105.244 583.954 -45.6033 585.557" stroke="#B7B7B7" stroke-miterlimit="10"/>
<path d="M2129.53 502.927C2020.52 509.521 1921.66 545.622 1827.89 582.67C1738.99 617.794 1652.77 656.475 1560.97 687.944C1495.01 710.557 1418.15 734.405 1343.08 733.309C1280.12 732.383 1216.6 717.171 1159.12 700.406C1036.18 664.554 924.339 611.439 797.858 581.285C670.648 550.952 536.602 563.573 405.582 573.465C255.82 584.771 106.643 599.574 -44.2326 601.178" stroke="#B7B7B7" stroke-miterlimit="10"/>
<path d="M2129.53 522.569C1921.96 534.693 1746.52 638.772 1563.53 698.81C1497.29 720.547 1420.86 743.13 1346.25 742.084C1283.4 741.207 1219.94 726.733 1162.09 710.695C1039.12 676.596 926.309 625.901 800.098 597.262C672.475 568.303 538.643 580.357 407.551 589.77C257.646 600.539 108.284 614.625 -42.62 616.169" stroke="#B7B7B7" stroke-miterlimit="10"/>
<path d="M2129.53 542.211C1924.28 553.428 1749.14 651.809 1566.34 708.81C1499.75 729.57 1423.95 750.638 1349.76 749.662C1287 748.835 1223.65 735.278 1165.38 720.036C1042.36 687.85 928.564 639.736 802.611 612.77C674.602 585.365 540.87 596.831 409.749 605.727C259.702 615.907 110.125 629.236 -40.8215 630.68" stroke="#B7B7B7" stroke-miterlimit="10"/>
<path d="M2129.54 561.858C1926.78 571.889 1751.9 664.383 1569.36 718.076C1502.37 737.78 1427.35 757.126 1353.57 756.239C1290.86 755.482 1227.67 742.95 1168.93 728.566C1045.84 698.422 931.031 653.037 805.321 627.874C676.955 602.183 543.208 613.021 412.117 621.359C261.912 630.912 112.122 643.453 -38.8823 644.748" stroke="#B7B7B7" stroke-miterlimit="10"/>
<path d="M2129.54 581.5C1929.36 590.137 1754.69 676.584 1572.56 726.731C1505.13 745.29 1431 762.762 1357.62 761.965C1294.94 761.288 1231.95 749.882 1172.72 736.414C1049.53 708.412 933.7 665.885 808.218 642.625C679.51 618.767 545.691 628.958 414.643 636.718C264.267 645.623 114.262 657.328 -36.8132 658.464" stroke="#B7B7B7" stroke-miterlimit="10"/>
<path d="M2129.54 601.134C1932.03 608.237 1757.53 688.508 1575.88 734.909C1508.01 752.242 1434.84 767.742 1361.85 767.045C1299.17 766.447 1236.41 756.227 1176.66 743.735C1053.37 717.954 936.54 678.387 811.244 657.099C682.207 635.173 548.275 644.696 417.269 651.849C266.722 660.077 116.489 670.925 -34.6577 671.872" stroke="#B7B7B7" stroke-miterlimit="10"/>
<path d="M2129.54 620.772C1933.4 626.301 1757.88 701.272 1575.43 743.679C1509.17 759.08 1439.33 771.9 1369 771.661C1305.79 771.442 1242.7 762.486 1181.94 750.971C1057.54 727.392 938.867 690.464 812.714 671.188C684.934 651.653 552.515 660.28 423.164 666.705C271.361 674.246 119.858 684.377 -32.4453 685.114" stroke="#B7B7B7" stroke-miterlimit="10"/>
<path d="M2129.54 640.419C1936.1 644.264 1760.73 712.86 1578.94 751.272C1445.91 779.384 1320.81 780.738 1186.09 757.727C1061.58 736.459 941.908 702.669 815.912 685.426C687.803 667.893 555.298 675.842 425.934 681.66C273.945 688.494 122.213 697.738 -30.1753 698.256" stroke="#B7B7B7" stroke-miterlimit="10"/>
<path d="M2129.56 660.048C1938.79 662.24 1763.54 724.42 1582.47 758.798C1450.55 783.841 1323.55 784.678 1190.26 764.406C1065.61 745.449 945.006 714.827 819.124 699.616C690.688 684.096 558.14 691.358 428.732 696.567C276.572 702.694 124.612 711.042 -27.8903 711.341" stroke="#B7B7B7" stroke-miterlimit="10"/>
<path d="M2129.56 679.683C1941.38 680.28 1766.26 736.085 1585.96 766.418C1455.08 788.434 1326.36 788.822 1194.39 771.19C1069.59 754.524 948.089 727.07 822.293 713.861C693.528 700.333 560.98 706.918 431.487 711.53C279.156 716.949 126.982 724.41 -25.6351 724.5" stroke="#B7B7B7" stroke-miterlimit="10"/>
<path d="M2129.56 699.332C1943.85 698.455 1768.84 747.944 1589.39 774.273C1459.41 793.35 1329.25 793.34 1198.43 778.238C1073.47 763.813 951.144 739.517 825.391 728.24C696.297 716.665 563.807 722.562 434.171 726.587C281.668 731.318 129.28 737.903 -23.437 737.784" stroke="#B7B7B7" stroke-miterlimit="10"/>
<path d="M2129.56 718.963C1946.19 716.771 1771.3 760.044 1592.71 782.478C1463.45 798.715 1332.23 798.387 1202.34 785.666C1077.21 773.413 954.127 752.214 828.388 742.811C698.952 733.128 566.59 738.348 436.783 741.795C284.109 745.849 131.535 751.577 -21.2963 751.268" stroke="#B7B7B7" stroke-miterlimit="10"/>
<path d="M2129.56 738.606C1948.33 735.309 1773.59 772.526 1595.88 791.204C1467.12 804.741 1335.27 804.164 1206.06 793.664C1080.77 783.483 956.982 765.313 831.229 757.673C701.464 749.783 569.274 754.336 439.267 757.234C286.436 760.641 133.676 765.542 -19.269 765.064" stroke="#B7B7B7" stroke-miterlimit="10"/>
<path d="M2129.56 758.249C1951.86 754.135 1778.79 784.886 1603.56 800.157C1473.9 811.454 1340.84 810.926 1210.82 802.438C1084.35 794.18 958.995 778.75 832.199 772.793C550.218 759.534 264.982 780.353 -17.3847 779.238" stroke="#B7B7B7" stroke-miterlimit="10"/>
<path d="M2129.56 777.893C1953.53 773.191 1780.7 798.424 1606.29 810.388C1476.7 819.273 1343.83 818.576 1214.01 811.971C1087.37 805.526 961.478 792.925 834.612 788.452C551.902 778.49 267.294 795.146 -15.6576 793.861" stroke="#B7B7B7" stroke-miterlimit="10"/>
<path d="M2129.56 797.542C1954.96 792.581 1782.39 812.594 1608.76 821.549C1350.04 834.888 1094.81 811.039 836.767 804.634C553.515 797.601 269.279 810.402 -14.1016 809.037" stroke="#B7B7B7" stroke-miterlimit="10"/>
<path d="M2129.56 817.193C1956.13 812.322 1783.84 827.473 1610.93 833.759C1352.83 843.143 1096.4 825.511 838.623 821.397C555.014 816.864 270.948 826.188 -12.7459 824.833" stroke="#B7B7B7" stroke-miterlimit="10"/>
<path d="M2129.54 895.833C2129.57 776.323 2129.54 656.804 2129.53 537.294C2129.53 445.368 2137.39 355.773 2093.86 267.563C2051.45 181.644 1984.26 102.25 1949.96 14.289C1864.96 -203.661 2121.45 -384.963 2129.54 -597.415" stroke="#B7B7B7" stroke-miterlimit="10"/>
<path d="M2073.25 895.8C2074.2 778.064 2072.32 660.328 2071.68 542.591C2071.18 450.147 2077.97 361.459 2035.63 272.492C1994.65 186.353 1931.15 105.903 1897.51 17.982C1860.32 -79.1937 1888.26 -169.127 1935.32 -262.189C1989.89 -370.073 2064.54 -476.453 2071.8 -592.586" stroke="#B7B7B7" stroke-miterlimit="10"/>
<path d="M2045.1 895.792C2046.41 765.813 2042.41 635.863 2041.79 505.894C2041.5 446.851 2046 388.297 2027.21 330.281C2009.11 274.336 1977.71 221.031 1947.02 168.026C1916.33 115.01 1884.93 61.7051 1866.83 5.7706C1847.38 -54.3179 1851.53 -111.189 1872.26 -170.879C1920.92 -311.119 2031.88 -440.66 2042.03 -587.026" stroke="#B7B7B7" stroke-miterlimit="10"/>
<path d="M2016.95 895.781C2018.38 767.176 2012.67 638.651 2011.58 510.057C2011.08 450.576 2014.81 392.131 1995.87 333.686C1978.18 279.106 1948.85 226.778 1920.04 174.699C1891.24 122.619 1861.91 70.2908 1844.22 15.7111C1824.62 -44.756 1827.35 -101.597 1847.22 -161.885C1893.67 -302.782 2001.05 -433.19 2011.73 -579.625" stroke="#B7B7B7" stroke-miterlimit="10"/>
<path d="M1988.8 895.781C1990.22 769.936 1982.72 644.22 1981.01 518.395C1980.21 459.133 1983.65 400.957 1965.61 342.632C1948.69 287.963 1920.79 235.315 1893.35 182.887C1865.92 130.459 1838.01 77.8122 1821.1 23.1428C1802.38 -37.3343 1804.9 -94.1155 1823.97 -154.433C1868.33 -294.723 1970.27 -425.26 1980.94 -570.58" stroke="#B7B7B7" stroke-miterlimit="10"/>
<path d="M1960.64 895.78C1961.94 772.157 1952.36 648.762 1950.03 525.188C1948.98 469.483 1952.17 414.604 1937.03 359.606C1921.29 302.466 1893.82 247.309 1866.87 192.37C1839.94 137.442 1812.48 82.2844 1796.72 25.1345C1780.96 -32.0352 1783.66 -85.7782 1800.44 -142.809C1841.85 -283.526 1939.37 -414.95 1949.72 -560.081" stroke="#B7B7B7" stroke-miterlimit="10"/>
<path d="M1932.49 895.79C1933.59 776.52 1922.12 657.608 1918.88 538.417C1917.31 480.859 1920.36 424.087 1905.2 367.196C1890.33 311.322 1865.28 257.081 1840.61 203.029C1815.95 148.977 1790.9 94.736 1776.02 38.8612C1759.66 -22.602 1763.03 -80.7479 1780.97 -141.892C1821.07 -278.476 1908.71 -407.519 1918.16 -548.277" stroke="#B7B7B7" stroke-miterlimit="10"/>
<path d="M1904.33 895.788C1905.16 781.11 1891.72 666.99 1887.49 552.431C1885.29 493.07 1888.23 434.465 1873.33 375.712C1859.48 321.082 1836.81 267.787 1814.52 214.622C1792.21 161.457 1769.55 108.162 1755.71 53.5328C1740.08 -8.09976 1742.01 -66.8136 1758.46 -128.287C1795.09 -265.159 1877.72 -395.019 1886.29 -535.448" stroke="#B7B7B7" stroke-miterlimit="10"/>
<path d="M1876.18 895.799C1876.69 783.323 1860.52 671.663 1855.6 559.355C1853.14 503.222 1855.64 447.586 1843.06 391.881C1830.47 336.115 1809.42 281.516 1788.57 227.046C1745.57 114.738 1708.33 5.72817 1735.75 -110.863C1768.25 -249.04 1846.62 -380.604 1854.14 -521.71" stroke="#B7B7B7" stroke-miterlimit="10"/>
<path d="M1848.02 895.81C1848.19 788.264 1829.9 681.904 1823.87 574.607C1820.71 518.673 1823.34 463.037 1812.28 407.431C1801.04 350.959 1781.79 295.473 1762.73 240.086C1722.65 123.644 1689.73 11.9847 1716.93 -107.894C1747.3 -241.867 1815.76 -370.671 1821.8 -507.275" stroke="#B7B7B7" stroke-miterlimit="10"/>
<path d="M1819.87 895.824C1819.68 793.279 1799.29 692.388 1792.06 590.192C1788.12 534.526 1790.96 478.96 1781.42 423.514C1771.57 366.304 1754.18 309.901 1736.98 253.608C1701.71 138.233 1672.19 25.6963 1695.51 -92.4286C1721.99 -226.532 1784.67 -356.113 1789.32 -492.308" stroke="#B7B7B7" stroke-miterlimit="10"/>
<path d="M1791.71 895.829C1791.16 796.671 1767.91 699.784 1759.83 601.094C1755.28 545.379 1758.05 489.683 1749.51 434.107C1740.91 378.103 1726 322.707 1711.24 267.37C1680.68 152.801 1654.78 39.9657 1674.38 -76.7248C1696.9 -210.908 1753.52 -341.266 1756.72 -477.083" stroke="#B7B7B7" stroke-miterlimit="10"/>
<path d="M1763.54 895.841C1762.66 800.827 1736.84 708.891 1727.77 614.505C1722.58 560.373 1725.49 506.142 1718.75 452.061C1711.62 394.791 1698.51 338 1685.57 281.269C1658.83 164.19 1637.04 48.6148 1654.81 -70.0281C1674.43 -201.103 1722.44 -329.319 1724.12 -461.699" stroke="#B7B7B7" stroke-miterlimit="10"/>
<path d="M1735.39 895.854C1734.21 805.651 1706.35 719.563 1695.97 630.197C1689.49 574.392 1692.96 518.378 1687.09 462.533C1681.21 406.489 1670.49 350.764 1659.86 295.088C1637.65 178.816 1619.69 63.1518 1633.76 -54.236C1649.49 -185.401 1691.29 -314.314 1691.52 -446.405" stroke="#B7B7B7" stroke-miterlimit="10"/>
<path d="M1707.23 895.859C1706.36 845.045 1700.52 795.177 1687.12 745.249C1677.83 710.653 1668.21 676.235 1663.71 641.13C1657.05 589.131 1660.44 536.922 1656.62 484.833C1652.29 425.939 1643.14 367.285 1634.11 308.681C1616.28 193.077 1602.19 77.701 1612.78 -38.6408C1624.73 -169.895 1660.16 -299.486 1659 -431.358" stroke="#B7B7B7" stroke-miterlimit="10"/>
<path d="M1679.09 895.862C1678.09 847.528 1672.36 800.3 1657.69 753.052C1647.45 720.08 1636.72 687.535 1631.84 653.884C1624.22 601.407 1628.1 548.68 1625.29 496.052C1622.19 437.877 1615.2 379.85 1608.3 321.844C1594.26 203.798 1583.98 85.7331 1592.4 -32.7405C1601.52 -160.977 1629 -288.157 1626.61 -416.791" stroke="#B7B7B7" stroke-miterlimit="10"/>
<path d="M1650.92 895.868C1649.82 850.204 1644.6 805.496 1628.71 761.137C1617.65 730.286 1605.83 699.973 1600.42 668.295C1591.52 616.146 1595.97 563.668 1594.34 511.3C1592.51 452.287 1587.4 393.354 1582.37 334.441C1572.33 217.063 1565.81 99.5659 1570.99 -18.0311C1576.66 -146.446 1597.9 -274.214 1594.4 -402.849" stroke="#B7B7B7" stroke-miterlimit="10"/>
<path d="M1622.78 895.882C1621.58 851.573 1616.52 808.279 1598.74 765.624C1586.61 736.516 1574.04 708.065 1568.55 677.862C1558.99 625.314 1564.11 572.199 1563.38 519.392C1562.58 461.665 1559.43 403.977 1556.33 346.299C1550.05 229.579 1547.17 112.789 1549.41 -4.00134C1551.88 -132.656 1566.89 -260.991 1562.47 -389.735" stroke="#B7B7B7" stroke-miterlimit="10"/>
<path d="M1594.61 895.882C1593.36 852.838 1588.62 810.74 1568.85 769.768C1555.56 742.234 1542.38 715.666 1536.86 686.668C1527.15 635.664 1532.42 584.093 1532.69 532.84C1532.99 474.296 1531.54 415.752 1530.11 357.217C1527.28 241.194 1527.84 125.201 1527.5 9.18773C1527.11 -119.785 1535.92 -248.669 1530.81 -377.642" stroke="#B7B7B7" stroke-miterlimit="10"/>
<path d="M1566.46 895.88C1565.19 853.931 1560.8 812.899 1539.07 773.491C1525.34 748.587 1512.01 724.998 1506.26 698.381C1495.29 647.666 1501.05 596.174 1502.13 545.151C1503.39 485.78 1503.53 426.398 1503.7 367.027C1504.39 122.479 1509.97 -122.268 1499.49 -366.786" stroke="#B7B7B7" stroke-miterlimit="10"/>
<path d="M1538.32 895.883C1537.06 854.881 1533.19 814.636 1509.44 776.722C1495.37 754.258 1481.98 733.408 1476.01 708.973C1463.18 656.495 1470.16 602.383 1471.96 549.497C1473.93 491.53 1475.5 433.554 1477.07 375.577C1480.29 256.854 1486.2 138.351 1481.83 19.648C1477.22 -106.008 1474.04 -231.684 1468.59 -357.32" stroke="#B7B7B7" stroke-miterlimit="10"/>
<path d="M1510.15 895.884C1508.97 855.997 1506 816.161 1480.35 779.881C1465.46 758.812 1451.8 739.745 1445.71 716.286C1432.18 664.146 1439.5 609.846 1441.85 557.268C1444.47 499.062 1447.31 440.867 1450.15 382.671C1455.94 263.719 1463.99 145.066 1457.98 26.0845C1451.66 -99.1132 1443.27 -224.251 1438.14 -349.469" stroke="#B7B7B7" stroke-miterlimit="10"/>
<path d="M1482.01 895.873C1480.92 856.654 1478.81 816.758 1451.1 781.743C1435.14 761.57 1421.37 743.45 1415.39 720.369C1402.74 671.647 1409.09 620.803 1411.61 571.672C1414.73 510.478 1418.87 449.313 1422.98 388.149C1430.91 270.134 1440.68 152.347 1433.57 34.2225C1425.99 -91.6925 1412.68 -217.388 1408.22 -343.403" stroke="#B7B7B7" stroke-miterlimit="10"/>
<path d="M1453.86 895.859C1452.92 857.388 1451.86 817.073 1422.5 783.273C1405.81 764.067 1391.99 747.222 1385.97 724.669C1373.01 676.086 1379.32 624.824 1381.99 575.812C1385.33 514.449 1390.44 453.145 1395.46 391.841C1405.17 273.726 1415.92 155.79 1408.08 37.4762C1399.76 -88.2096 1382.13 -213.457 1378.85 -339.322" stroke="#B7B7B7" stroke-miterlimit="10"/>
<path d="M1425.71 895.842C1424.97 857.859 1424.95 816.757 1394.19 783.844C1376.89 765.335 1363.1 749.466 1357.09 727.202C1344.01 678.649 1350.06 626.848 1352.73 577.847C1356.05 516.364 1361.89 454.961 1367.63 393.567C1378.68 275.412 1389.74 157.327 1381.67 38.9034C1373.12 -86.6828 1351.76 -211.562 1350.14 -337.397" stroke="#B7B7B7" stroke-miterlimit="10"/>
<path d="M1397.56 895.84C1396.83 857.756 1396.66 816.814 1366.06 783.761C1348.8 765.123 1334.96 749.105 1328.95 726.771C1315.93 678.407 1321.08 626.358 1323.57 577.516C1326.69 516.023 1333.4 454.659 1339.97 393.316C1352.61 275.29 1363.41 157.215 1355.41 38.8211C1346.92 -86.9444 1321.3 -211.674 1322.11 -337.788" stroke="#B7B7B7" stroke-miterlimit="10"/>
<path d="M1369.4 895.851C1368.61 857.29 1367.67 816.855 1337.98 783.066C1321.1 763.84 1307.12 747.034 1301.08 724.382C1288.22 676.177 1292.38 624.078 1294.93 575.386C1298.16 513.952 1306.16 452.698 1314 391.494C1329.09 273.668 1340.52 155.732 1331.99 37.3881C1322.88 -88.8556 1291.83 -213.595 1294.7 -340.317" stroke="#B7B7B7" stroke-miterlimit="10"/>
<path d="M1341.25 895.866C1340.41 856.617 1338.65 816.472 1310 781.686C1293.53 761.683 1279.44 743.871 1273.39 720.731C1260.77 672.556 1264.07 620.417 1267 571.765C1270.68 510.411 1280.34 449.326 1289.78 388.301C1307.96 270.694 1321.04 152.968 1311.32 34.6236C1300.9 -92.3074 1263.67 -217.146 1267.95 -344.755" stroke="#B7B7B7" stroke-miterlimit="10"/>
<path d="M1313.09 895.873C1312.22 856.056 1309.78 815.971 1282.53 780.189C1266.78 759.518 1252.58 741.149 1246.31 717.729C1217.4 609.556 1246.97 491.481 1267.08 383.836C1289.21 265.442 1304.89 146.868 1292.79 27.3986C1279.94 -99.3132 1236.65 -223.286 1241.73 -350.944" stroke="#B7B7B7" stroke-miterlimit="10"/>
<path d="M1284.94 895.871C1284.05 855.427 1281.04 815.023 1255.12 778.195C1239.22 755.622 1224.69 735.17 1218.49 710.007C1191.72 601.216 1221.76 485.811 1245.83 378.226C1272.48 259.065 1291.61 139.804 1276.4 19.0791C1260.46 -107.573 1210.73 -230.758 1216.07 -358.735" stroke="#B7B7B7" stroke-miterlimit="10"/>
<path d="M1256.79 895.87C1255.89 854.33 1252.12 813.447 1227.36 775.184C1211.93 751.356 1197.4 729.351 1191.22 703.222C1165.22 593.445 1197.21 479.434 1225.79 371.619C1257.31 252.737 1280.4 134.034 1262.27 12.9606C1243.13 -114.867 1185.69 -238.321 1190.82 -367.912" stroke="#B7B7B7" stroke-miterlimit="10"/>
<path d="M1228.63 895.874C1227.73 853.427 1223.46 811.907 1200.03 772.379C1184.6 746.359 1169.62 721.914 1163.58 693.772C1139.85 583.188 1173.33 471.797 1206.83 364.122C1242.73 248.746 1270.17 134.028 1251.47 15.6146C1230.54 -116.965 1161.34 -243.617 1165.94 -378.318" stroke="#B7B7B7" stroke-miterlimit="10"/>
<path d="M1200.48 895.869C1199.61 852.477 1194.92 810.11 1172.73 769.287C1158.03 742.221 1143.17 716.291 1136.92 687.432C1112.61 575.125 1149.81 464.182 1188.82 355.86C1230.63 239.757 1263.3 124.85 1240.21 4.71246C1214.67 -128.156 1137.92 -254.13 1141.43 -389.778" stroke="#B7B7B7" stroke-miterlimit="10"/>
<path d="M1172.33 895.862C1171.49 851.423 1166.35 808.14 1145.45 765.972C1131.42 737.642 1116.75 710.407 1110.33 680.571C1085.7 566.222 1126.53 456.027 1171.58 346.967C1219.85 230.107 1257.98 115.319 1229.97 -6.8105C1199.42 -140.017 1115.09 -265.345 1117.19 -402.118" stroke="#B7B7B7" stroke-miterlimit="10"/>
<path d="M1144.17 895.85C1143.34 849.1 1137.23 804.093 1116.79 759.485C1103.06 729.521 1089.06 700.542 1082.98 669.183C1060.55 553.608 1104 446.381 1154.95 337.551C1210.06 219.824 1253.88 105.544 1220.49 -18.8464C1184.65 -152.362 1092.77 -277.191 1093.17 -415.18" stroke="#B7B7B7" stroke-miterlimit="10"/>
<path d="M1116.02 895.846C1115.24 847.104 1108.5 800.125 1088.57 753.375C1075.36 722.345 1062.01 691.832 1056.06 659.596C1034.38 542.159 1081.48 436.775 1138.8 327.785C1199.23 212.897 1249.56 101.626 1214.4 -21.6293C1175.16 -159.179 1070.83 -286.071 1069.33 -428.731" stroke="#B7B7B7" stroke-miterlimit="10"/>
<path d="M1087.87 895.839C1087.13 845.941 1080.2 797.607 1061.38 749.453C1048.75 717.108 1035.63 685.181 1029.55 651.819C1019.49 596.642 1020.22 540.358 1038.29 486.048C1057.6 428.021 1090.73 372.724 1122.96 317.746C1155.19 262.778 1188.31 207.471 1207.63 149.444C1228.04 88.1605 1226.03 26.9463 1206.09 -34.2479C1161.17 -172.137 1049.21 -298.6 1045.61 -442.665" stroke="#B7B7B7" stroke-miterlimit="10"/>
<path d="M1059.71 895.83C1059.03 844.767 1051.95 795.088 1034.16 745.559C1021.54 710.424 1008.27 675.748 1002.32 639.637C993.467 585.963 993.495 532.031 1012.35 479.404C1033.73 419.724 1071.13 363.441 1107.26 307.586C1143.39 251.731 1180.77 195.448 1202.17 135.768C1224.16 74.4041 1220.19 14.1263 1197.78 -46.9883C1147.13 -185.136 1027.71 -311.27 1021.91 -456.76" stroke="#B7B7B7" stroke-miterlimit="10"/>
<path d="M1031.56 895.819C1030.95 843.61 1023.78 792.616 1006.94 741.752C994.352 703.778 980.963 666.293 975.111 627.423C967.274 575.493 966.817 523.413 986.201 472.639C1009.62 411.285 1051.4 354.075 1091.59 297.424C1131.75 240.792 1173.55 183.552 1196.97 122.209C1218.65 65.4275 1215.28 9.65231 1194.24 -46.9795C1140.86 -190.676 1006.51 -319.34 998.249 -470.847" stroke="#B7B7B7" stroke-miterlimit="10"/>
<path d="M1003.41 895.821C1002.86 842.487 995.678 790.268 979.692 738.119C967.63 698.79 954.512 659.86 948.574 619.775C940.267 563.651 940.296 508.633 964.704 454.312C991.068 395.648 1034.19 341.317 1075.74 287.405C1117.29 233.493 1160.41 179.162 1186.78 120.498C1214.27 59.3435 1210.9 1.58597 1185.75 -59.5684C1126.58 -203.444 984.987 -331.81 974.51 -484.75" stroke="#B7B7B7" stroke-miterlimit="10"/>
<path d="M975.251 895.811C974.751 841.4 967.586 788.036 952.384 734.671C940.808 694.038 927.976 653.693 921.981 612.412C913.859 556.498 912.702 501.788 938.081 447.886C966.501 387.529 1014.05 332.252 1059.57 277.622C1105.09 222.992 1152.65 167.715 1181.05 107.358C1209.89 46.1138 1204.03 -10.787 1176.51 -71.9414C1111.8 -215.797 963.218 -344.093 950.643 -498.319" stroke="#B7B7B7" stroke-miterlimit="10"/>
<path d="M947.105 895.804C946.634 837.857 938.555 781.125 923.096 724.235C911.748 682.466 899.872 640.876 894.391 598.469C887.14 542.425 886.74 488.343 914.66 434.73C945.563 375.379 995.322 321.516 1042.95 268.231C1090.6 214.947 1140.35 161.084 1171.25 101.733C1202.54 41.6243 1198.44 -14.1807 1170.86 -74.4187C1103.13 -222.399 941.367 -352.438 926.622 -511.355" stroke="#B7B7B7" stroke-miterlimit="10"/>
<path d="M918.956 895.802C918.213 792.311 880.744 694.289 867.684 591.963C860.561 536.068 858.791 482.355 887.339 429.11C920.112 367.976 974.267 313.346 1025.71 259.334C1077.15 205.322 1131.31 150.693 1164.08 89.5583C1196.44 29.2008 1189.69 -25.4487 1159.87 -85.9058C1086.93 -233.826 918.77 -363.586 902.384 -523.699" stroke="#B7B7B7" stroke-miterlimit="10"/>
<path d="M890.795 895.8C890.11 790.585 854.011 690.231 840.893 586.093C833.342 526.183 831.858 469.522 865.887 413.119C901.158 354.654 955.627 302.625 1007.68 251.073C1059.76 199.522 1114.22 147.482 1149.48 89.0275C1166.08 61.5035 1180.5 30.4631 1179.33 0.229569C1178.06 -32.7235 1163.6 -66.0949 1147.44 -96.7767C1069.69 -244.428 895.519 -373.989 877.862 -535.168" stroke="#B7B7B7" stroke-miterlimit="10"/>
<path d="M862.644 895.792C862.002 787.419 826.046 683.499 813.428 576.083C806.634 518.226 804.378 463.337 837.665 408.927C874.535 348.669 933.172 295.823 988.74 243.554C1044.29 191.286 1102.95 138.439 1139.82 78.1812C1156.5 50.9063 1170.72 20.0451 1168.15 -9.95933C1165.31 -43.1814 1150.58 -76.1144 1133.39 -106.926C1093.51 -178.43 1034.9 -244.187 981.361 -310.92C922.738 -383.998 862.716 -460.613 853.024 -545.586" stroke="#B7B7B7" stroke-miterlimit="10"/>
<path d="M834.497 895.799C833.854 785.324 798.598 678.894 786.151 569.317C779.556 511.151 776.773 456.043 811.459 401.613C849.941 341.215 911.033 288.787 968.7 236.957C1026.37 185.127 1087.46 132.698 1125.94 72.3011C1143.23 45.1756 1157.89 14.3345 1155.26 -15.7297C1152.35 -49.141 1137.03 -82.2036 1119.26 -113.035C1077.62 -185.306 1016.7 -251.492 961.078 -318.723C900.542 -391.871 837.694 -468.944 827.759 -554.763" stroke="#B7B7B7" stroke-miterlimit="10"/>
<path d="M806.335 895.8C805.664 782.696 770.479 673.297 758.46 561C752.465 505.035 748.982 451.741 782.141 399.392C821.579 337.132 886.612 283.827 947.418 231.35C1008.23 178.872 1073.26 125.567 1112.7 63.307C1150.11 4.25448 1141.77 -49.2395 1108.66 -108.641C1065.51 -186.052 998.319 -256.073 937.955 -327.219C876.363 -399.809 811.802 -476.713 802.053 -562.542" stroke="#B7B7B7" stroke-miterlimit="10"/>
<path d="M778.188 895.8C777.46 782.028 743.388 671.683 731.198 558.699C724.775 499.148 721.221 442.885 759.261 387.737C800.37 328.147 864.431 277.233 924.753 226.887C985.06 176.531 1049.14 125.617 1090.24 66.0366C1133.05 3.98559 1125.06 -53.1045 1088.69 -115.813C1043.75 -193.275 975.054 -263.165 913.376 -334.361C851.028 -406.324 785.068 -483.018 775.89 -568.718" stroke="#B7B7B7" stroke-miterlimit="10"/>
<path d="M750.026 895.808C749.198 780.921 715.64 669.191 703.508 555.041C697.198 495.63 692.916 439.038 731.356 384.119C773.193 324.35 838.896 273.725 900.502 223.687C962.123 173.65 1027.83 123.025 1069.65 63.2554C1112.81 1.59292 1104.59 -56.2741 1067.98 -118.594C1022.14 -196.613 951.76 -266.753 888.712 -338.228C825.378 -410.031 757.406 -487.035 749.084 -573.173" stroke="#B7B7B7" stroke-miterlimit="10"/>
<path d="M721.877 895.819C720.892 780.214 687.791 667.558 675.672 552.661C669.435 493.579 664.353 436.628 702.779 381.999C744.958 322.04 811.988 271.634 874.594 221.875C937.185 172.127 1004.23 121.721 1046.41 61.7523C1089.4 0.61776 1081.09 -58.2754 1044.61 -120.018C998.249 -198.495 926.48 -268.794 862.404 -340.468C798.428 -412.013 728.743 -489.295 721.749 -575.702" stroke="#B7B7B7" stroke-miterlimit="10"/>
<path d="M693.713 895.831C692.557 780.017 659.784 667.032 647.637 551.896C641.442 493.132 635.79 435.992 673.958 381.612C716.152 321.494 783.839 271.158 846.872 221.509C909.892 171.86 977.579 121.524 1019.79 61.4055C1062.38 0.719302 1054.2 -59.0804 1018.02 -120.354C971.569 -199.021 898.972 -269.261 834.326 -340.885C769.964 -412.21 699.38 -489.612 693.67 -576.148" stroke="#B7B7B7" stroke-miterlimit="10"/>
<path d="M665.565 895.829C664.323 780.165 631.736 667.32 619.603 552.333C613.394 493.509 607.884 436.599 646.081 382.158C688.318 321.97 755.719 271.405 818.525 221.507C881.33 171.61 948.731 121.044 990.968 60.8562C1033.58 0.140131 1025.8 -59.7192 989.498 -121.083C943.15 -199.421 870.282 -269.152 805.45 -340.278C740.589 -411.454 670.147 -488.597 664.709 -575.243" stroke="#B7B7B7" stroke-miterlimit="10"/>
<path d="M637.416 895.83C636.132 780.415 603.744 667.809 591.654 553.071C585.459 494.197 580.107 437.466 618.204 382.956C660.369 322.618 727.428 271.734 789.962 221.498C852.496 171.261 919.555 120.368 961.72 60.0399C1004.18 -0.706039 996.862 -60.5654 960.364 -121.939C914.059 -199.789 840.863 -268.813 775.816 -339.272C710.442 -410.089 640.086 -486.764 634.833 -573.33" stroke="#B7B7B7" stroke-miterlimit="10"/>
<path d="M609.253 895.822C607.926 780.745 575.781 668.478 563.777 554.078C557.596 495.155 552.415 438.563 590.312 383.964C632.334 323.417 698.979 272.125 761.185 221.47C823.391 170.815 890.036 119.522 932.058 58.9756C974.238 -1.79026 967.458 -61.5998 930.66 -122.934C884.341 -200.136 810.773 -268.284 745.47 -337.915C679.581 -408.175 609.211 -484.192 604.101 -570.529" stroke="#B7B7B7" stroke-miterlimit="10"/>
<path d="M581.106 895.821C579.764 780.326 547.391 667.641 535.715 552.803C530.091 497.456 524.653 443.663 557.954 391.883C598.963 328.138 668.291 274.306 732.253 221.45C796.2 168.593 865.543 114.761 906.552 51.0161C943.593 -6.56207 936.57 -63.2039 902.384 -120.862C856.679 -197.935 782.197 -265.505 716.252 -334.419C649.222 -404.449 577.781 -480.197 572.656 -566.874" stroke="#B7B7B7" stroke-miterlimit="10"/>
<path d="M552.944 895.822C551.603 780.835 519.515 668.638 507.967 554.298C502.372 498.922 497.105 445.198 530.092 393.318C570.83 329.245 639.616 274.845 703.149 221.42C766.668 167.996 835.468 113.596 876.206 49.5227C912.804 -8.0356 906.338 -64.5579 871.738 -122.066C825.905 -198.253 751.009 -264.647 684.736 -332.426C617.163 -401.53 545.593 -476.302 540.483 -562.47" stroke="#B7B7B7" stroke-miterlimit="10"/>
<path d="M524.796 895.823C523.483 781.414 491.709 669.764 480.29 555.982C474.723 500.576 469.656 446.902 502.229 394.903C542.624 330.441 610.839 275.423 673.902 221.371C736.964 167.319 805.179 112.301 845.574 47.8396C881.63 -9.69873 875.792 -66.0616 840.707 -123.371C794.702 -198.551 719.364 -263.66 652.748 -330.184C584.632 -398.222 512.863 -471.868 507.739 -557.429" stroke="#B7B7B7" stroke-miterlimit="10"/>
<path d="M496.647 895.821C495.362 782.857 464.431 672.631 452.911 560.304C446.988 502.457 442.206 446.692 476.963 392.52C517.487 329.374 583.232 275.003 644.525 221.33C705.817 167.657 771.563 113.286 812.086 50.1393C852.053 -12.1508 844.36 -72.6975 803.451 -133.822C756.861 -203.434 685.933 -263.971 622.1 -326.002C552.801 -393.332 479.747 -466.251 474.494 -551.822" stroke="#B7B7B7" stroke-miterlimit="10"/>
<path d="M468.485 895.822C467.258 783.534 436.655 673.956 425.307 562.297C419.426 504.429 414.858 448.664 449.073 394.354C489.168 330.739 554.286 275.661 615.05 221.29C675.814 166.92 740.932 111.842 781.027 48.2269C820.238 -14.0033 813.344 -74.311 771.749 -135.107C724.902 -203.583 653.533 -262.705 589.328 -323.362C519.458 -389.377 446.133 -460.932 440.78 -545.735" stroke="#B7B7B7" stroke-miterlimit="10"/>
<path d="M440.337 895.832C439.167 785.088 409.363 677.015 397.973 566.919C391.706 506.402 387.524 448.664 423.88 392.033C463.89 329.693 526.538 275.193 585.503 221.261C644.469 167.328 707.117 112.828 747.127 50.4884C787.08 -11.7518 783.897 -72.1093 741.889 -133.473C695.398 -201.381 623.015 -259.477 558.112 -318.899C487.042 -383.968 412.304 -454.566 406.765 -539.24" stroke="#B7B7B7" stroke-miterlimit="10"/>
<path d="M412.189 895.831C411.061 784.988 381.157 676.814 370.181 566.589C364.514 509.788 359.975 454.8 391.606 401.136C430.417 335.29 495.434 277.841 555.899 221.2C616.363 164.558 681.381 107.109 720.192 41.2627C754.863 -17.5507 751.18 -74.5213 711.856 -131.97C665.737 -199.33 592.426 -256.221 526.737 -314.407C454.454 -378.43 378.246 -447.973 372.479 -532.477" stroke="#B7B7B7" stroke-miterlimit="10"/>
<path d="M384.025 895.83C382.969 785.744 353.436 678.328 342.645 568.859C337.036 512.048 332.697 457.01 363.728 403.217C402.025 336.823 466.343 278.588 526.222 221.159C586.101 163.73 650.406 105.484 688.717 39.1001C722.575 -19.6038 719.691 -76.4248 679.624 -133.455C633.177 -199.57 559.381 -254.857 493.307 -311.489C420.453 -373.939 343.873 -441.887 337.949 -525.485" stroke="#B7B7B7" stroke-miterlimit="10"/>
<path d="M355.878 895.83C354.879 785.675 325.261 678.189 314.883 568.631C309.416 510.963 306.362 455.467 338.407 400.897C376.632 335.798 438.51 278.05 496.519 221.1C600.291 119.212 740.104 -2.92739 649.379 -132.11C603.345 -197.657 528.507 -251.719 461.705 -306.986C387.638 -368.26 309.488 -435.013 303.321 -518.412" stroke="#B7B7B7" stroke-miterlimit="10"/>
<path d="M327.731 895.834C326.789 786.466 297.571 679.747 287.379 570.956C281.969 513.268 279.086 457.682 310.517 402.973C348.229 337.306 409.421 278.782 466.831 221.044C568.104 119.196 709.302 -5.85193 617.107 -133.689C570.731 -197.992 495.393 -250.4 428.22 -304.063C353.596 -363.693 275.018 -428.783 268.694 -511.275" stroke="#B7B7B7" stroke-miterlimit="10"/>
<path d="M299.567 895.835C298.697 788.05 270.334 682.905 260.1 575.698C254.562 517.652 251.336 461.717 281.868 406.51C318.866 339.628 379.901 279.977 437.139 220.985C539.769 115.192 682.451 -13.6813 578.466 -143.521C527.836 -206.738 450.257 -257.671 381.785 -311.235C311.001 -366.592 240.259 -427.158 234.093 -504.202" stroke="#B7B7B7" stroke-miterlimit="10"/>
<path d="M271.421 895.843C270.622 789.642 243.073 686.061 232.796 580.448C227.129 522.222 223.332 465.62 253.065 410.094C289.463 342.116 350.456 281.071 407.48 220.943C506.456 116.575 650.551 -14.9384 548.464 -142.188C498.162 -204.877 419.484 -254.515 350.227 -306.675C278.272 -360.866 206.032 -420.357 199.637 -497.26" stroke="#B7B7B7" stroke-miterlimit="10"/>
<path d="M243.271 895.844C242.528 790.37 215.337 687.506 205.245 582.62C199.635 524.384 196.01 467.733 225.186 412.087C261.113 343.561 321.435 281.779 377.874 220.894C474.423 116.745 620.017 -17.8266 516.402 -143.602C465.744 -205.085 386.581 -253.07 316.967 -303.685C244.484 -356.382 171.901 -414.409 165.378 -490.565" stroke="#B7B7B7" stroke-miterlimit="10"/>
<path d="M215.109 895.841C214.395 790.248 187.117 687.225 177.411 582.2C171.93 522.888 169.503 465.868 199.778 409.256C235.734 342.025 293.658 281.169 348.313 220.852C441.051 118.516 588.086 -19.0342 486.741 -142.319C388.751 -261.51 144.581 -335.027 131.392 -484.172" stroke="#B7B7B7" stroke-miterlimit="10"/>
<path d="M186.961 895.844C186.29 790.918 159.355 688.532 149.806 584.154C144.382 524.823 142.098 467.743 171.888 411.031C207.444 343.312 264.768 281.789 318.895 220.804C409.477 118.727 557.826 -21.7414 455.168 -143.702C356.607 -260.791 111.181 -330.243 97.8348 -478.213" stroke="#B7B7B7" stroke-miterlimit="10"/>
<path d="M158.812 895.841C158.156 790.686 131.107 688.062 121.943 583.445C117.104 528.217 114.335 473.887 139.971 420.711C174.357 349.416 233.907 284.666 289.561 220.762C377.546 119.731 526.423 -22.2321 426.092 -142.399C328.244 -259.588 78.3502 -324.518 64.7043 -472.747" stroke="#B7B7B7" stroke-miterlimit="10"/>
<path d="M130.65 895.84C130.007 791.243 103.272 689.156 94.2226 585.087C89.4123 529.84 86.7859 475.509 112.094 422.274C146.18 350.57 205.174 285.242 260.328 220.731C346.557 119.889 496.476 -24.5844 395.146 -143.676C296.813 -259.24 45.7626 -320.405 32.1025 -467.867" stroke="#B7B7B7" stroke-miterlimit="10"/>
<path d="M102.502 895.838C101.874 791.729 75.4242 690.111 66.4745 586.53C61.707 531.263 59.1947 476.972 84.2312 423.657C118.075 351.595 176.555 285.739 231.267 220.699C315.94 120.027 466.801 -26.7275 364.628 -144.862C265.853 -259.072 13.7181 -316.71 0.11506 -463.654" stroke="#B7B7B7" stroke-miterlimit="10"/>
<path d="M74.3402 895.84C73.6836 792.946 47.9476 692.523 38.8694 590.158C33.7022 531.902 31.5612 475.898 58.6959 419.933C92.8677 349.465 149.293 284.744 202.363 220.671C288.135 117.12 441.823 -34.3663 327.688 -153.428C225.002 -260.545 -17.9692 -317.217 -31.1583 -460.216" stroke="#B7B7B7" stroke-miterlimit="10"/>
<path d="M46.1909 895.84C45.5058 793.275 19.9984 693.151 10.9915 591.104C5.85294 532.819 3.84035 476.914 30.8323 420.9C64.9042 350.202 120.929 285.103 173.671 220.651C258.244 117.28 412.817 -36 298.154 -154.344C195.068 -260.744 -48.6877 -314.567 -61.6484 -457.636" stroke="#B7B7B7" stroke-miterlimit="10"/>
<path d="M18.0405 895.839C17.2983 793.503 -8.00926 693.588 -16.9876 591.76C-22.1262 533.445 -23.9818 477.68 2.95308 421.635C37.0107 350.768 92.7076 285.4 145.164 220.65C197.621 155.879 253.304 90.541 287.375 19.6641C316.266 -40.4543 322.361 -100.603 269.19 -155.133C165.762 -261.204 -78.6795 -312.526 -91.2691 -455.974" stroke="#B7B7B7" stroke-miterlimit="10"/>
<path d="M-10.1202 895.832C-10.9338 793.616 -36.0844 693.81 -45.0485 592.102C-50.1871 533.747 -51.9 478.171 -24.9365 422.107C9.19243 351.15 64.6323 285.603 116.861 220.633C169.103 155.653 224.515 90.1256 258.658 19.159C287.563 -40.9295 294.1 -101.297 240.816 -155.857C137.101 -262.038 -107.882 -311.218 -120.001 -455.383" stroke="#B7B7B7" stroke-miterlimit="10"/>
<rect y="835.562" width="384.255" height="1920" transform="rotate(-90 0 835.562)" fill="url(#paint0_linear_201_4995)"/>
<rect width="450.645" height="1920" transform="matrix(3.36182e-07 1 1 2.38377e-08 0 0.661133)" fill="#FAFAFA"/>
<defs>
<linearGradient id="paint0_linear_201_4995" x1="-0.693579" y1="1913.81" x2="384.255" y2="1913.81" gradientUnits="userSpaceOnUse">
<stop stop-color="#FAFAFA" stop-opacity="0.08"/>
<stop offset="0.661447" stop-color="#FAFAFA" stop-opacity="0.83"/>
<stop offset="1" stop-color="#FAFAFA"/>
</linearGradient>
</defs>
</svg>
