<svg width="366" height="326" viewBox="0 0 366 326" fill="none" xmlns="http://www.w3.org/2000/svg">
<path d="M364.5 147.438C364.5 191.571 328.305 227.376 283.619 227.376C238.933 227.376 202.737 191.571 202.737 147.438C202.737 103.306 238.933 67.5 283.619 67.5C328.305 67.5 364.5 103.306 364.5 147.438Z" stroke="#B7B7B7" stroke-width="3"/>
<mask id="mask0_9_437" style="mask-type:alpha" maskUnits="userSpaceOnUse" x="202" y="90" width="104" height="138">
<mask id="path-2-inside-1_9_437" fill="white">
<path fill-rule="evenodd" clip-rule="evenodd" d="M228.583 90.0464C273.338 106.225 305.26 148.479 305.26 198.056C305.26 207.832 304.019 217.324 301.683 226.387C296.413 227.414 290.961 227.953 285.38 227.953C239.882 227.953 203 192.146 203 147.976C203 125.182 212.822 104.614 228.583 90.0464Z"/>
</mask>
<path fill-rule="evenodd" clip-rule="evenodd" d="M228.583 90.0464C273.338 106.225 305.26 148.479 305.26 198.056C305.26 207.832 304.019 217.324 301.683 226.387C296.413 227.414 290.961 227.953 285.38 227.953C239.882 227.953 203 192.146 203 147.976C203 125.182 212.822 104.614 228.583 90.0464Z" fill="#D9D9D9"/>
<path d="M228.583 90.0464L229.603 87.2251L227.887 86.6047L226.547 87.8434L228.583 90.0464ZM301.683 226.387L302.257 229.332L304.115 228.969L304.588 227.136L301.683 226.387ZM227.563 92.8677C271.194 108.64 302.26 149.809 302.26 198.056H308.26C308.26 147.148 275.482 103.81 229.603 87.2251L227.563 92.8677ZM302.26 198.056C302.26 207.577 301.052 216.817 298.778 225.638L304.588 227.136C306.987 217.83 308.26 208.087 308.26 198.056H302.26ZM301.109 223.442C296.027 224.433 290.767 224.953 285.38 224.953V230.953C291.154 230.953 296.798 230.395 302.257 229.332L301.109 223.442ZM285.38 224.953C241.455 224.953 206 190.406 206 147.976H200C200 193.886 238.31 230.953 285.38 230.953V224.953ZM206 147.976C206 126.067 215.436 106.284 230.619 92.2494L226.547 87.8434C210.209 102.945 200 124.296 200 147.976H206Z" fill="#525252" mask="url(#path-2-inside-1_9_437)"/>
</mask>
<g mask="url(#mask0_9_437)">
<mask id="mask1_9_437" style="mask-type:alpha" maskUnits="userSpaceOnUse" x="-55" y="-7" width="422" height="453">
<path d="M137.658 23.2427C139.414 64.0683 178.417 87.2271 194.488 121.61C200.924 135.376 203.086 152.305 196.947 166.632C192.903 176.065 185.334 182.584 177.7 188.92C169.708 195.554 161.904 202.374 157.986 212.408C152.41 226.681 154.71 244.285 154.133 259.364C152.559 300.413 149.453 341.393 148.809 382.476" stroke="#EBEBEB" stroke-miterlimit="10"/>
<path d="M142.891 21.062C144.739 63.1841 185.42 87.3188 201.161 123.376C207.058 136.885 208.682 152.88 203.118 166.812C199.055 176.983 191.264 184.25 183.37 191.348C175.154 198.731 167.067 206.35 163.14 217.088C158.125 230.805 160.113 247.364 159.702 261.734C158.511 303.198 156.05 344.619 155.543 386.103" stroke="#EBEBEB" stroke-miterlimit="10"/>
<path d="M148.115 18.7896C150.005 60.7914 189.882 86.0824 206.32 121.739C212.831 135.86 214.833 152.188 209.328 167.032C205.284 177.934 197.154 186.021 189.047 193.869C180.932 201.722 172.845 209.813 168.767 220.705C163.281 235.361 165.474 252.856 165.155 268.262C164.318 308.802 162.665 349.321 162.321 389.872" stroke="#EBEBEB" stroke-miterlimit="10"/>
<path d="M153.328 16.4629C155.33 59.8156 196.851 86.1426 213.009 123.502C219.139 137.678 220.634 153.876 215.056 168.506C210.83 179.594 202.763 188.136 194.726 196.459C186.694 204.779 178.621 213.327 174.395 224.412C168.856 238.939 170.855 255.758 170.69 271.01C170.248 311.921 169.313 352.824 169.133 393.738" stroke="#EBEBEB" stroke-miterlimit="10"/>
<path d="M158.539 14.1045C160.592 57.3685 201.359 84.8546 218.186 121.857C225.098 137.056 226.952 154.188 220.788 170.006C216.386 181.305 208.382 190.283 200.413 199.075C192.448 207.861 184.411 216.836 180.037 228.143C174.095 243.506 176.218 261.445 176.192 277.615C176.131 317.625 175.977 357.638 175.971 397.648" stroke="#EBEBEB" stroke-miterlimit="10"/>
<path d="M163.748 11.7461C165.921 56.0261 207.705 84.5596 224.484 122.775C231.085 137.806 232.72 154.282 227.117 169.911C222.728 182.149 214.375 192.034 206.092 201.696C197.808 211.355 189.452 221.249 185.067 233.481C179.449 249.144 181.575 266.903 181.712 283.247C182.042 322.688 182.636 362.125 182.796 401.568" stroke="#EBEBEB" stroke-miterlimit="10"/>
<path d="M168.966 9.41699C171.223 54.3523 213.413 83.9448 230.436 122.836C237.272 138.451 238.745 155.227 232.845 171.426C228.311 183.875 219.983 194.193 211.775 204.284C203.567 214.375 195.236 224.695 190.705 237.142C185.062 252.639 186.919 269.865 187.207 286.078C187.913 325.865 189.291 365.637 189.613 405.433" stroke="#EBEBEB" stroke-miterlimit="10"/>
<path d="M174.184 7.14746C176.52 52.6552 219.169 83.3982 236.335 122.899C243.162 138.608 244.686 155.216 239.026 171.566C234.439 184.82 225.892 195.915 217.449 206.808C208.721 218.067 199.855 229.586 195.4 243.412C190.364 259.041 192.305 276.213 192.759 292.391C193.851 331.334 195.926 370.242 196.391 409.205" stroke="#EBEBEB" stroke-miterlimit="10"/>
<path d="M179.422 4.96338C180.691 29.2927 194.6 49.8415 208.084 69.0337C220.249 86.3513 233.76 103.343 242.265 122.964C249.089 138.705 250.616 155.25 245.217 171.654C240.602 185.681 231.775 197.575 223.125 209.229C214.474 220.883 205.648 232.777 201.033 246.803C195.925 262.326 197.633 278.928 198.218 295.01C199.646 334.293 202.528 373.507 203.13 412.822" stroke="#EBEBEB" stroke-miterlimit="10"/>
<path d="M184.67 2.8999C185.95 27.1234 199.658 47.7694 212.954 67.0017C225.424 85.0405 239.367 102.684 248.135 123.033C255.15 139.32 256.589 156.111 250.904 173.065C246.138 187.275 237.362 199.51 228.784 211.524C220.207 223.538 211.431 235.773 206.664 249.983C201.173 266.356 202.999 283.862 203.788 300.839C205.581 339.324 209.089 377.711 209.792 416.25" stroke="#EBEBEB" stroke-miterlimit="10"/>
<path d="M189.941 0.982422C191.241 25.2803 204.94 46.1267 218.166 65.5164C231.006 84.3393 245.475 102.756 254.394 123.992C261.062 139.872 262.358 156.163 257.15 172.65C252.381 187.747 243.28 200.815 234.442 213.656C225.604 226.501 216.503 239.565 211.734 254.665C206.85 270.119 208.331 286.224 209.169 302.182C211.218 341.296 215.584 380.253 216.385 419.436" stroke="#EBEBEB" stroke-miterlimit="10"/>
<path d="M195.231 -0.760254C196.522 23.3802 210.017 44.2466 223.042 63.6163C235.834 82.6367 250.205 101.153 259.485 122.343C266.867 139.197 268.477 156.277 262.781 173.921C257.87 189.141 248.836 202.469 240.079 215.591C231.322 228.713 222.288 242.041 217.377 257.261C212.126 273.528 213.708 290.522 214.747 307.331C217.116 345.698 222.031 383.862 222.871 422.326" stroke="#EBEBEB" stroke-miterlimit="10"/>
<path d="M200.552 -2.29736C201.717 19.4963 212.887 38.6112 224.391 56.4096C235.772 74.0163 248.463 90.7987 258.659 109.184C265.819 122.097 272.403 136.627 272.409 151.775C272.414 164.668 268.354 177.244 262.761 188.663C251.431 211.807 233.629 231.289 224.428 255.581C215.074 280.265 219.804 308.521 222.19 334.193C224.999 364.392 228.569 394.519 229.247 424.876" stroke="#EBEBEB" stroke-miterlimit="10"/>
<path d="M205.902 -3.59961C207.053 18.1569 218.201 37.3262 229.602 55.1503C241.341 73.5011 254.505 90.9704 264.953 110.16C272.002 123.104 278.277 137.506 278.182 152.594C278.101 165.498 273.948 178.059 268.401 189.518C257.006 213.061 239.344 233.103 229.999 257.733C220.652 282.371 225.141 310.095 227.734 335.704C230.814 366.115 234.827 396.428 235.491 427.034" stroke="#EBEBEB" stroke-miterlimit="10"/>
<path d="M211.287 -4.63818C212.452 17.8109 224.314 37.6756 236.079 56.0264C247.465 73.7876 260.052 90.819 270.218 109.373C277.538 122.733 284.225 137.712 283.951 153.344C283.724 166.231 279.501 178.732 273.992 190.189C262.539 214.023 245.015 234.543 235.566 259.428C226.065 284.449 230.562 312.376 233.41 338.36C236.709 368.45 240.993 398.429 241.592 428.751" stroke="#EBEBEB" stroke-miterlimit="10"/>
<path d="M216.712 -5.38232C217.849 17.1269 229.834 37.1118 241.579 55.5312C253.021 73.4756 265.656 90.6988 275.883 109.427C283.192 122.816 289.916 137.806 289.641 153.461C289.415 166.389 285.144 178.924 279.664 190.435C268.126 214.675 250.574 235.682 241.027 260.956C231.565 286.006 235.959 313.836 238.975 339.819C242.458 369.833 247.026 399.708 247.53 429.985" stroke="#EBEBEB" stroke-miterlimit="10"/>
<path d="M222.179 -5.80566C223.254 16.5432 235.175 36.428 246.783 54.7473C258.547 73.3127 271.627 91.1026 282.039 110.535C288.917 123.371 295.276 137.601 295.273 152.528C295.273 165.862 290.812 178.835 285.181 190.698C273.624 215.048 256.262 236.286 246.623 261.626C237.007 286.908 241.375 315.061 244.568 341.288C248.188 371.038 252.924 400.636 253.288 430.683" stroke="#EBEBEB" stroke-miterlimit="10"/>
<path d="M227.693 -5.8916C228.847 16.423 240.773 36.3135 252.322 54.6442C264.058 73.2726 277.097 91.1397 287.5 110.618C294.33 123.405 300.782 137.661 300.779 152.534C300.779 165.802 296.231 178.758 290.656 190.566C279.096 215.05 261.838 236.515 252.162 261.963C242.557 287.229 246.814 315.264 250.056 341.471C253.733 371.207 258.572 400.773 258.841 430.821" stroke="#EBEBEB" stroke-miterlimit="10"/>
<path d="M233.22 -5.8916C234.687 16.3629 246.353 36.2104 257.787 54.6299C269.327 73.2211 282.122 91.0796 292.371 110.481C299.09 123.196 305.754 137.646 305.763 152.42C305.768 165.607 301.036 178.695 295.561 190.443C284.158 214.913 267.266 236.509 257.675 261.897C248.081 287.291 252.24 315.058 255.44 341.394C259.059 371.135 263.791 400.722 264.136 430.761" stroke="#EBEBEB" stroke-miterlimit="10"/>
<path d="M238.744 -5.8916C240.427 16.2656 251.765 36.0702 263.014 54.5698C274.286 73.1066 286.772 90.9479 296.795 110.255C303.373 122.927 310.119 137.506 310.13 152.182C310.141 165.304 305.325 178.486 299.973 190.212C288.811 214.673 272.353 236.418 262.933 261.743C253.443 287.254 257.486 314.809 260.626 341.245C264.16 371 268.763 400.607 269.164 430.643" stroke="#EBEBEB" stroke-miterlimit="10"/>
<path d="M244.273 -5.88916C246.082 16.1363 257.031 35.8981 268.028 54.4635C278.969 72.9344 291.089 90.7443 300.818 109.942C307.233 122.601 313.934 137.245 313.951 151.827C313.965 164.891 309.16 178.137 303.951 189.871C293.1 214.326 277.146 236.234 267.975 261.499C258.675 287.119 262.59 314.508 265.645 341.021C269.076 370.794 273.534 400.429 273.965 430.463" stroke="#EBEBEB" stroke-miterlimit="10"/>
<path d="M249.795 -5.88916C251.671 16.1478 262.321 36.024 273.105 54.7726C283.407 72.6855 294.738 90.026 303.984 108.557C310.565 121.748 317.535 137.197 317.219 152.345C316.953 165 312.517 177.73 307.622 189.198C297.104 213.845 281.542 236.079 272.691 261.496C263.839 286.916 267.532 313.864 270.434 340.105C273.749 370.11 278.098 399.983 278.549 430.228" stroke="#EBEBEB" stroke-miterlimit="10"/>
<path d="M255.321 -5.88916C257.175 15.9675 267.324 35.7893 277.738 54.5894C287.612 72.4136 298.486 89.7025 307.332 108.108C313.689 121.333 320.393 136.744 320.085 151.795C319.824 164.419 315.548 177.155 310.835 188.68C300.757 213.33 285.825 235.753 277.349 261.113C268.822 286.618 272.37 313.495 275.151 339.765C278.329 369.792 282.49 399.702 282.941 429.953" stroke="#EBEBEB" stroke-miterlimit="10"/>
<path d="M260.843 -5.88916C264.251 35.7292 293.509 70.9053 310.387 107.595C316.497 120.875 322.846 136.201 322.552 151.16C322.305 163.761 318.236 176.485 313.728 188.085C304.142 212.74 289.891 235.358 281.84 260.664C273.7 286.252 277.088 313.086 279.734 339.37C282.762 369.426 286.721 399.373 287.155 429.63" stroke="#EBEBEB" stroke-miterlimit="10"/>
<path d="M266.365 -5.88916C269.518 35.2627 297.174 70.3787 313.198 107.032C319.034 120.383 324.956 135.579 324.682 150.456C324.45 163.04 320.638 175.741 316.354 187.424C307.306 212.091 293.78 234.906 286.2 260.16C278.496 285.826 281.719 312.639 284.22 338.929C287.082 369.014 290.829 399.004 291.235 429.269" stroke="#EBEBEB" stroke-miterlimit="10"/>
<path d="M271.889 -5.89209C274.709 34.7618 300.71 69.8263 315.804 106.425C321.343 119.856 326.781 134.898 326.532 149.692C326.319 162.264 322.796 174.934 318.752 186.711C310.279 211.392 297.52 234.411 290.447 259.616C283.224 285.353 286.271 312.17 288.615 338.454C291.301 368.57 294.826 398.603 295.19 428.88" stroke="#EBEBEB" stroke-miterlimit="10"/>
<path d="M277.408 -5.8916C279.836 34.2443 304.138 69.2659 318.234 105.784C323.452 119.304 328.363 134.166 328.139 148.879C327.949 161.446 324.742 174.076 320.956 185.953C313.085 210.652 301.13 233.876 294.591 259.036C287.884 284.842 290.749 311.672 292.931 337.948C295.434 368.098 298.724 398.175 299.044 428.465" stroke="#EBEBEB" stroke-miterlimit="10"/>
<path d="M282.93 -5.8916C284.926 33.7091 307.492 68.6963 320.536 105.117C325.408 118.726 329.765 133.396 329.569 148.032C329.401 160.599 326.528 173.183 323.017 185.163C315.769 209.882 304.646 233.307 298.662 258.429C292.498 284.301 295.176 311.154 297.186 337.421C299.499 367.606 302.549 397.728 302.815 428.033" stroke="#EBEBEB" stroke-miterlimit="10"/>
<path d="M288.449 -5.89209C290.003 33.4339 311.079 68.6271 323 105.208C327.329 118.494 330.933 132.497 330.866 146.598C330.804 159.271 328.287 171.92 325.05 184.104C318.421 209.045 308.04 232.84 302.622 258.133C297.13 283.754 299.555 310.304 301.362 336.239C303.481 366.675 306.329 397.052 306.537 427.589" stroke="#EBEBEB" stroke-miterlimit="10"/>
<path d="M293.973 -5.8916C295.054 32.8934 314.337 68.0552 325.135 104.505C333.038 131.178 333.419 156.26 326.95 183.271C320.971 208.236 311.473 232.231 306.625 257.493C301.697 283.179 303.931 309.746 305.567 335.684C307.488 366.158 310.086 396.58 310.232 427.135" stroke="#EBEBEB" stroke-miterlimit="10"/>
<path d="M299.49 -5.89453C300.106 32.3553 317.586 67.4914 327.25 103.798C334.29 130.248 334.525 155.711 328.826 182.436C323.497 207.429 314.889 231.609 310.613 256.849C306.25 282.601 308.291 309.177 309.756 335.123C311.478 365.631 313.825 396.1 313.909 426.677" stroke="#EBEBEB" stroke-miterlimit="10"/>
<path d="M305.009 -5.89453C305.177 31.8345 320.865 66.9476 329.392 103.097C335.581 129.338 335.69 155.147 330.733 181.608C326.048 206.63 318.331 230.991 314.617 256.214C310.814 282.031 312.665 308.607 313.962 334.571C315.485 365.113 317.583 395.624 317.608 426.224" stroke="#EBEBEB" stroke-miterlimit="10"/>
<path d="M137.658 23.2427C139.414 64.0683 178.417 87.2271 194.488 121.61C200.924 135.376 203.086 152.305 196.947 166.632C192.903 176.065 185.334 182.584 177.7 188.92C169.708 195.554 161.904 202.374 157.986 212.408C152.41 226.681 154.71 244.285 154.133 259.364C152.559 300.413 149.453 341.393 148.809 382.476" stroke="#EBEBEB" stroke-miterlimit="10"/>
<path d="M142.891 21.062C144.739 63.1841 185.42 87.3188 201.161 123.376C207.058 136.885 208.682 152.88 203.118 166.812C199.055 176.983 191.264 184.25 183.37 191.348C175.154 198.731 167.067 206.35 163.14 217.088C158.125 230.805 160.113 247.364 159.702 261.734C158.511 303.198 156.05 344.619 155.543 386.103" stroke="#EBEBEB" stroke-miterlimit="10"/>
<path d="M148.115 18.7896C150.005 60.7914 189.882 86.0824 206.32 121.739C212.831 135.86 214.833 152.188 209.328 167.032C205.284 177.934 197.154 186.021 189.047 193.869C180.932 201.722 172.845 209.813 168.767 220.705C163.281 235.361 165.474 252.856 165.155 268.262C164.318 308.802 162.665 349.321 162.321 389.872" stroke="#EBEBEB" stroke-miterlimit="10"/>
<path d="M153.328 16.4629C155.33 59.8156 196.851 86.1426 213.009 123.502C219.139 137.678 220.634 153.876 215.056 168.506C210.83 179.594 202.763 188.136 194.726 196.459C186.694 204.779 178.621 213.327 174.395 224.412C168.856 238.939 170.855 255.758 170.69 271.01C170.248 311.921 169.313 352.824 169.133 393.738" stroke="#EBEBEB" stroke-miterlimit="10"/>
<path d="M158.539 14.1045C160.592 57.3685 201.359 84.8546 218.186 121.857C225.098 137.056 226.952 154.188 220.788 170.006C216.386 181.305 208.382 190.283 200.413 199.075C192.448 207.861 184.411 216.836 180.037 228.143C174.095 243.506 176.218 261.445 176.192 277.615C176.131 317.625 175.977 357.638 175.971 397.648" stroke="#EBEBEB" stroke-miterlimit="10"/>
<path d="M163.748 11.7461C165.921 56.0261 207.705 84.5596 224.484 122.775C231.085 137.806 232.72 154.282 227.117 169.911C222.728 182.149 214.375 192.034 206.092 201.696C197.808 211.355 189.452 221.249 185.067 233.481C179.449 249.144 181.575 266.903 181.712 283.247C182.042 322.688 182.636 362.125 182.796 401.568" stroke="#EBEBEB" stroke-miterlimit="10"/>
<path d="M168.966 9.41699C171.223 54.3523 213.413 83.9448 230.436 122.836C237.272 138.451 238.745 155.227 232.845 171.426C228.311 183.875 219.983 194.193 211.775 204.284C203.567 214.375 195.236 224.695 190.705 237.142C185.062 252.639 186.919 269.865 187.207 286.078C187.913 325.865 189.291 365.637 189.613 405.433" stroke="#EBEBEB" stroke-miterlimit="10"/>
<path d="M174.184 7.14746C176.52 52.6552 219.169 83.3982 236.335 122.899C243.162 138.608 244.686 155.216 239.026 171.566C234.439 184.82 225.892 195.915 217.449 206.808C208.721 218.067 199.855 229.586 195.4 243.412C190.364 259.041 192.305 276.213 192.759 292.391C193.851 331.334 195.926 370.242 196.391 409.205" stroke="#EBEBEB" stroke-miterlimit="10"/>
<path d="M179.422 4.96338C180.691 29.2927 194.6 49.8415 208.084 69.0337C220.249 86.3513 233.76 103.343 242.265 122.964C249.089 138.705 250.616 155.25 245.217 171.654C240.602 185.681 231.775 197.575 223.125 209.229C214.474 220.883 205.648 232.777 201.033 246.803C195.925 262.326 197.633 278.928 198.218 295.01C199.646 334.293 202.528 373.507 203.13 412.822" stroke="#EBEBEB" stroke-miterlimit="10"/>
<path d="M184.67 2.8999C185.95 27.1234 199.658 47.7694 212.954 67.0017C225.424 85.0405 239.367 102.684 248.135 123.033C255.15 139.32 256.589 156.111 250.904 173.065C246.138 187.275 237.362 199.51 228.784 211.524C220.207 223.538 211.431 235.773 206.664 249.983C201.173 266.356 202.999 283.862 203.788 300.839C205.581 339.324 209.089 377.711 209.792 416.25" stroke="#EBEBEB" stroke-miterlimit="10"/>
<path d="M189.941 0.982422C191.241 25.2803 204.94 46.1267 218.166 65.5164C231.006 84.3393 245.475 102.756 254.394 123.992C261.062 139.872 262.358 156.163 257.15 172.65C252.381 187.747 243.28 200.815 234.442 213.656C225.604 226.501 216.503 239.565 211.734 254.665C206.85 270.119 208.331 286.224 209.169 302.182C211.218 341.296 215.584 380.253 216.385 419.436" stroke="#EBEBEB" stroke-miterlimit="10"/>
<path d="M195.231 -0.760254C196.522 23.3802 210.017 44.2466 223.042 63.6163C235.834 82.6367 250.205 101.153 259.485 122.343C266.867 139.197 268.477 156.277 262.781 173.921C257.87 189.141 248.836 202.469 240.079 215.591C231.322 228.713 222.288 242.041 217.377 257.261C212.126 273.528 213.708 290.522 214.747 307.331C217.116 345.698 222.031 383.862 222.871 422.326" stroke="#EBEBEB" stroke-miterlimit="10"/>
<path d="M200.552 -2.29736C201.717 19.4963 212.887 38.6112 224.391 56.4096C235.772 74.0163 248.463 90.7987 258.659 109.184C265.819 122.097 272.403 136.627 272.409 151.775C272.414 164.668 268.354 177.244 262.761 188.663C251.431 211.807 233.629 231.289 224.428 255.581C215.074 280.265 219.804 308.521 222.19 334.193C224.999 364.392 228.569 394.519 229.247 424.876" stroke="#EBEBEB" stroke-miterlimit="10"/>
<path d="M205.902 -3.59961C207.053 18.1569 218.201 37.3262 229.602 55.1503C241.341 73.5011 254.505 90.9704 264.953 110.16C272.002 123.104 278.277 137.506 278.182 152.594C278.101 165.498 273.948 178.059 268.401 189.518C257.006 213.061 239.344 233.103 229.999 257.733C220.652 282.371 225.141 310.095 227.734 335.704C230.814 366.115 234.827 396.428 235.491 427.034" stroke="#EBEBEB" stroke-miterlimit="10"/>
<path d="M211.287 -4.63818C212.452 17.8109 224.314 37.6756 236.079 56.0264C247.465 73.7876 260.052 90.819 270.218 109.373C277.538 122.733 284.225 137.712 283.951 153.344C283.724 166.231 279.501 178.732 273.992 190.189C262.539 214.023 245.015 234.543 235.566 259.428C226.065 284.449 230.562 312.376 233.41 338.36C236.709 368.45 240.993 398.429 241.592 428.751" stroke="#EBEBEB" stroke-miterlimit="10"/>
<path d="M216.712 -5.38232C217.849 17.1269 229.834 37.1118 241.579 55.5312C253.021 73.4756 265.656 90.6988 275.883 109.427C283.192 122.816 289.916 137.806 289.641 153.461C289.415 166.389 285.144 178.924 279.664 190.435C268.126 214.675 250.574 235.682 241.027 260.956C231.565 286.006 235.959 313.836 238.975 339.819C242.458 369.833 247.026 399.708 247.53 429.985" stroke="#EBEBEB" stroke-miterlimit="10"/>
<path d="M222.179 -5.80566C223.254 16.5432 235.175 36.428 246.783 54.7473C258.547 73.3127 271.627 91.1026 282.039 110.535C288.917 123.371 295.276 137.601 295.273 152.528C295.273 165.862 290.812 178.835 285.181 190.698C273.624 215.048 256.262 236.286 246.623 261.626C237.007 286.908 241.375 315.061 244.568 341.288C248.188 371.038 252.924 400.636 253.288 430.683" stroke="#EBEBEB" stroke-miterlimit="10"/>
<path d="M227.693 -5.8916C228.847 16.423 240.773 36.3135 252.322 54.6442C264.058 73.2726 277.097 91.1397 287.5 110.618C294.33 123.405 300.782 137.661 300.779 152.534C300.779 165.802 296.231 178.758 290.656 190.566C279.096 215.05 261.838 236.515 252.162 261.963C242.557 287.229 246.814 315.264 250.056 341.471C253.733 371.207 258.572 400.773 258.841 430.821" stroke="#EBEBEB" stroke-miterlimit="10"/>
<path d="M233.22 -5.8916C234.687 16.3629 246.353 36.2104 257.787 54.6299C269.327 73.2211 282.122 91.0796 292.371 110.481C299.09 123.196 305.754 137.646 305.763 152.42C305.768 165.607 301.036 178.695 295.561 190.443C284.158 214.913 267.266 236.509 257.675 261.897C248.081 287.291 252.24 315.058 255.44 341.394C259.059 371.135 263.791 400.722 264.136 430.761" stroke="#EBEBEB" stroke-miterlimit="10"/>
<path d="M238.744 -5.8916C240.427 16.2656 251.765 36.0702 263.014 54.5698C274.286 73.1066 286.772 90.9479 296.795 110.255C303.373 122.927 310.119 137.506 310.13 152.182C310.141 165.304 305.325 178.486 299.973 190.212C288.811 214.673 272.353 236.418 262.933 261.743C253.443 287.254 257.486 314.809 260.626 341.245C264.16 371 268.763 400.607 269.164 430.643" stroke="#EBEBEB" stroke-miterlimit="10"/>
<path d="M244.273 -5.88916C246.082 16.1363 257.031 35.8981 268.028 54.4635C278.969 72.9344 291.089 90.7443 300.818 109.942C307.233 122.601 313.934 137.245 313.951 151.827C313.965 164.891 309.16 178.137 303.951 189.871C293.1 214.326 277.146 236.234 267.975 261.499C258.675 287.119 262.59 314.508 265.645 341.021C269.076 370.794 273.534 400.429 273.965 430.463" stroke="#EBEBEB" stroke-miterlimit="10"/>
<path d="M249.795 -5.88916C251.671 16.1478 262.321 36.024 273.105 54.7726C283.407 72.6855 294.738 90.026 303.984 108.557C310.565 121.748 317.535 137.197 317.219 152.345C316.953 165 312.517 177.73 307.622 189.198C297.104 213.845 281.542 236.079 272.691 261.496C263.839 286.916 267.532 313.864 270.434 340.105C273.749 370.11 278.098 399.983 278.549 430.228" stroke="#EBEBEB" stroke-miterlimit="10"/>
<path d="M255.321 -5.88916C257.175 15.9675 267.324 35.7893 277.738 54.5894C287.612 72.4136 298.486 89.7025 307.332 108.108C313.689 121.333 320.393 136.744 320.085 151.795C319.824 164.419 315.548 177.155 310.835 188.68C300.757 213.33 285.825 235.753 277.349 261.113C268.822 286.618 272.37 313.495 275.151 339.765C278.329 369.792 282.49 399.702 282.941 429.953" stroke="#EBEBEB" stroke-miterlimit="10"/>
<path d="M260.843 -5.88916C264.251 35.7292 293.509 70.9053 310.387 107.595C316.497 120.875 322.846 136.201 322.552 151.16C322.305 163.761 318.236 176.485 313.728 188.085C304.142 212.74 289.891 235.358 281.84 260.664C273.7 286.252 277.088 313.086 279.734 339.37C282.762 369.426 286.721 399.373 287.155 429.63" stroke="#EBEBEB" stroke-miterlimit="10"/>
<path d="M266.365 -5.88916C269.518 35.2627 297.174 70.3787 313.198 107.032C319.034 120.383 324.956 135.579 324.682 150.456C324.45 163.04 320.638 175.741 316.354 187.424C307.306 212.091 293.78 234.906 286.2 260.16C278.496 285.826 281.719 312.639 284.22 338.929C287.082 369.014 290.829 399.004 291.235 429.269" stroke="#EBEBEB" stroke-miterlimit="10"/>
<path d="M271.889 -5.89209C274.709 34.7618 300.71 69.8263 315.804 106.425C321.343 119.856 326.781 134.898 326.532 149.692C326.319 162.264 322.796 174.934 318.752 186.711C310.279 211.392 297.52 234.411 290.447 259.616C283.224 285.353 286.271 312.17 288.615 338.454C291.301 368.57 294.826 398.603 295.19 428.88" stroke="#EBEBEB" stroke-miterlimit="10"/>
<path d="M277.408 -5.8916C279.836 34.2443 304.138 69.2659 318.234 105.784C323.452 119.304 328.363 134.166 328.139 148.879C327.949 161.446 324.742 174.076 320.956 185.953C313.085 210.652 301.13 233.876 294.591 259.036C287.884 284.842 290.749 311.672 292.931 337.948C295.434 368.098 298.724 398.175 299.044 428.465" stroke="#EBEBEB" stroke-miterlimit="10"/>
<path d="M282.93 -5.8916C284.926 33.7091 307.492 68.6963 320.536 105.117C325.408 118.726 329.765 133.396 329.569 148.032C329.401 160.599 326.528 173.183 323.017 185.163C315.769 209.882 304.646 233.307 298.662 258.429C292.498 284.301 295.176 311.154 297.186 337.421C299.499 367.606 302.549 397.728 302.815 428.033" stroke="#EBEBEB" stroke-miterlimit="10"/>
<path d="M288.449 -5.89209C290.003 33.4339 311.079 68.6271 323 105.208C327.329 118.494 330.933 132.497 330.866 146.598C330.804 159.271 328.287 171.92 325.05 184.104C318.421 209.045 308.04 232.84 302.622 258.133C297.13 283.754 299.555 310.304 301.362 336.239C303.481 366.675 306.329 397.052 306.537 427.589" stroke="#EBEBEB" stroke-miterlimit="10"/>
<path d="M293.973 -5.8916C295.054 32.8934 314.337 68.0552 325.135 104.505C333.038 131.178 333.419 156.26 326.95 183.271C320.971 208.236 311.473 232.231 306.625 257.493C301.697 283.179 303.931 309.746 305.567 335.684C307.488 366.158 310.086 396.58 310.232 427.135" stroke="#EBEBEB" stroke-miterlimit="10"/>
<path d="M299.49 -5.89453C300.106 32.3553 317.586 67.4914 327.25 103.798C334.29 130.248 334.525 155.711 328.826 182.436C323.497 207.429 314.889 231.609 310.613 256.849C306.25 282.601 308.291 309.177 309.756 335.123C311.478 365.631 313.825 396.1 313.909 426.677" stroke="#EBEBEB" stroke-miterlimit="10"/>
<path d="M305.009 -5.89453C305.177 31.8345 320.865 66.9476 329.392 103.097C335.581 129.338 335.69 155.147 330.733 181.608C326.048 206.63 318.331 230.991 314.617 256.214C310.814 282.031 312.665 308.607 313.962 334.571C315.485 365.113 317.583 395.624 317.608 426.224" stroke="#EBEBEB" stroke-miterlimit="10"/>
<path d="M365.775 67.4912C339.065 67.6687 313.221 72.8459 286.687 74.6632C271.47 75.705 256.225 75.1211 241.022 76.472C224.923 77.903 208.958 80.5302 193.01 83.126C160.098 88.4864 127.608 92.8566 94.2559 89.2935C57.409 85.3583 21.3657 75.7336 -15.8481 75.3959" stroke="#EBEBEB" stroke-miterlimit="10"/>
<path d="M365.778 73.1348C340.421 73.3723 316.22 78.9588 291.098 81.0394C275.411 82.3388 259.664 81.6433 243.966 82.8196C228.211 83.9987 212.546 86.148 196.895 88.2802C164.209 92.7333 131.694 96.3337 98.6948 93.5118C61.8226 90.3579 25.5833 81.9782 -11.5493 81.9324" stroke="#EBEBEB" stroke-miterlimit="10"/>
<path d="M365.781 78.7817C351.496 78.9563 337.478 80.1268 323.442 82.8142C313.717 84.6773 304.042 86.6063 294.173 87.5078C279.555 88.8443 264.879 88.1632 250.236 88.9302C233.68 89.7974 217.192 91.6319 200.717 93.4435C168.219 97.018 135.785 99.8428 103.08 97.7192C66.1828 95.3238 29.7531 88.2204 -7.31787 88.4522" stroke="#EBEBEB" stroke-miterlimit="10"/>
<path d="M365.782 84.4253C352.194 84.6256 338.918 85.7733 325.636 88.7154C316.367 90.7674 307.218 92.9195 297.758 93.8983C283.006 95.4266 268.184 94.6482 253.39 95.212C237.036 95.833 220.723 97.2353 204.417 98.6177C171.233 101.434 138.043 103.494 104.739 101.806C68.6898 99.9771 32.9378 94.4679 -3.22314 94.9458" stroke="#EBEBEB" stroke-miterlimit="10"/>
<path d="M365.782 90.0718C352.945 90.2921 340.377 91.3396 327.907 94.525C319.234 96.743 310.713 99.1127 301.808 100.197C287.148 101.983 272.396 101.09 257.674 101.417C241.085 101.783 224.518 102.807 207.957 103.818C174.96 105.83 141.93 107.138 108.872 106.099C72.773 104.962 36.8557 100.704 0.694824 101.405" stroke="#EBEBEB" stroke-miterlimit="10"/>
<path d="M365.786 95.7158C353.33 95.9562 341.16 96.9694 329.169 100.535C320.986 102.968 312.989 105.486 304.498 106.588C289.726 108.506 274.795 107.478 259.95 107.624C243.722 107.785 227.505 108.417 211.291 109.038C178.479 110.297 145.648 110.876 112.817 110.426C76.6504 109.931 40.5735 106.92 4.38184 107.808" stroke="#EBEBEB" stroke-miterlimit="10"/>
<path d="M365.785 101.362C353.685 101.614 341.85 102.564 330.333 106.528C322.592 109.193 315.124 111.834 306.972 112.942C292.634 114.888 278.137 113.832 263.729 113.777C247.272 113.717 230.814 114.009 214.359 114.295C181.743 114.862 149.136 114.75 116.523 114.819C80.2673 114.896 44.0364 113.131 7.78027 114.155" stroke="#EBEBEB" stroke-miterlimit="10"/>
<path d="M365.786 107.006C353.993 107.261 342.459 108.143 331.38 112.498C324.38 115.252 317.748 117.925 310.266 119.078C296.009 121.276 281.534 120.123 267.191 119.905C250.501 119.653 233.808 119.625 217.118 119.59C148.372 119.453 79.5703 118.334 10.833 120.435" stroke="#EBEBEB" stroke-miterlimit="10"/>
<path d="M365.785 112.65C354.259 112.902 342.946 113.677 332.288 118.44C325.973 121.261 320.112 123.946 313.242 125.142C298.49 127.715 283.279 126.316 268.412 125.955C252.116 125.56 235.818 125.245 219.52 124.93C186.146 124.284 152.833 123.099 119.464 123.975C84.1403 124.899 48.8112 125.537 13.4932 126.63" stroke="#EBEBEB" stroke-miterlimit="10"/>
<path d="M365.787 118.296C354.574 118.534 343.375 119.129 333.177 124.272C327.254 127.257 321.894 129.996 315.299 131.218C300.642 133.931 285.377 132.463 270.597 131.991C254.235 131.467 237.875 130.898 221.516 130.328C188.077 129.166 154.722 127.552 121.274 128.757C86.0795 130.025 50.9015 131.707 15.7012 132.735" stroke="#EBEBEB" stroke-miterlimit="10"/>
<path d="M365.784 123.94C354.759 124.158 343.544 124.582 333.7 130.137C328.03 133.336 322.936 136.098 316.447 137.297C302.751 139.833 288.458 138.559 274.647 138.056C257.444 137.429 240.25 136.599 223.056 135.775C189.88 134.186 156.769 132.226 123.562 133.651C88.1659 135.171 52.8311 137.841 17.4067 138.734" stroke="#EBEBEB" stroke-miterlimit="10"/>
<path d="M365.779 129.584C354.964 129.773 343.631 129.985 334.13 135.872C328.73 139.217 323.995 141.988 317.655 143.195C303.998 145.794 289.587 144.529 275.809 143.994C258.559 143.324 241.326 142.3 224.093 141.292C190.889 139.346 157.736 137.191 124.476 138.762C89.1439 140.431 53.9351 143.965 18.5527 144.623" stroke="#EBEBEB" stroke-miterlimit="10"/>
<path d="M365.775 135.228C355.097 135.377 343.543 135.38 334.291 141.547C329.088 145.016 324.627 147.78 318.368 148.985C304.719 151.61 290.157 150.396 276.382 149.861C259.099 149.194 241.837 148.024 224.579 146.873C191.364 144.658 158.168 142.44 124.878 144.057C89.5739 145.771 54.4687 150.056 19.0947 150.379" stroke="#EBEBEB" stroke-miterlimit="10"/>
<path d="M365.772 140.871C355.067 141.017 343.557 141.051 334.266 147.187C329.026 150.647 324.523 153.424 318.245 154.628C304.649 157.239 290.017 156.205 276.287 155.707C259.001 155.081 241.751 153.736 224.506 152.419C191.328 149.883 158.135 147.72 124.853 149.322C89.4985 151.025 54.4353 156.162 18.9829 155.999" stroke="#EBEBEB" stroke-miterlimit="10"/>
<path d="M365.778 146.518C354.938 146.675 343.571 146.864 334.072 152.817C328.668 156.203 323.944 159.005 317.576 160.215C304.025 162.794 289.379 161.961 275.691 161.449C258.421 160.802 241.202 159.196 223.996 157.625C190.874 154.6 157.721 152.308 124.452 154.019C88.9636 155.845 53.8976 162.07 18.2744 161.495" stroke="#EBEBEB" stroke-miterlimit="10"/>
<path d="M365.782 152.162C354.748 152.33 343.463 152.682 333.684 158.426C328.061 161.729 323.054 164.554 316.549 165.767C303.006 168.297 288.349 167.636 274.672 167.049C257.425 166.311 240.253 164.374 223.098 162.482C190.037 158.836 156.943 156.214 123.675 158.163C87.9928 160.252 52.8988 167.716 17.0264 166.858" stroke="#EBEBEB" stroke-miterlimit="10"/>
<path d="M365.783 157.809C354.59 157.983 343.321 158.473 333.262 163.936C327.452 167.093 322.288 169.94 315.704 171.197C285.295 176.995 252.103 171.065 221.842 167.033C188.56 162.597 155.227 159.451 121.643 161.878C86.0224 164.454 51.1721 173.134 15.2856 172.115" stroke="#EBEBEB" stroke-miterlimit="10"/>
<path d="M365.783 163.452C354.413 163.63 343.055 164.233 332.702 169.431C326.357 172.619 320.607 175.532 313.534 176.774C282.951 182.143 250.509 176.119 220.265 171.294C186.768 165.951 153.242 162.116 119.304 165.164C83.7009 168.36 49.0718 178.331 13.0957 177.261" stroke="#EBEBEB" stroke-miterlimit="10"/>
<path d="M365.781 169.096C354.104 169.276 342.611 170.032 331.855 174.997C325.157 178.091 318.971 181.005 311.625 182.244C280.766 187.456 248.716 181.042 218.407 175.312C184.988 168.993 151.619 164.362 117.584 167.997C81.6496 171.835 46.9449 183.351 10.5151 182.324" stroke="#EBEBEB" stroke-miterlimit="10"/>
<path d="M365.784 174.743C353.851 174.923 342.18 175.779 331.068 180.478C323.753 183.572 316.881 186.574 308.97 187.785C277.884 192.544 246.57 185.83 216.301 179.113C183.868 171.915 151.619 166.414 118.331 170.164C81.0612 174.359 45.4576 188.234 7.59131 187.312" stroke="#EBEBEB" stroke-miterlimit="10"/>
<path d="M365.782 180.386C353.584 180.56 341.674 181.502 330.198 185.95C322.589 188.897 315.3 191.877 307.188 193.13C275.616 198.004 244.429 190.546 213.978 182.724C181.34 174.341 149.038 167.79 115.266 172.421C77.9147 177.541 42.5015 192.93 4.36914 192.226" stroke="#EBEBEB" stroke-miterlimit="10"/>
<path d="M365.781 186.03C353.289 186.199 341.121 187.229 329.267 191.419C321.303 194.232 313.647 197.174 305.26 198.462C273.115 203.399 242.137 195.214 211.479 186.182C178.628 176.503 146.36 168.858 112.028 174.474C74.5813 180.598 39.3501 197.506 0.901367 197.086" stroke="#EBEBEB" stroke-miterlimit="10"/>
<path d="M365.777 191.677C352.635 191.843 339.983 193.068 327.443 197.166C319.02 199.919 310.874 202.727 302.058 203.946C269.568 208.442 239.425 199.73 208.832 189.516C175.737 178.466 143.612 169.68 108.644 176.374C71.1106 183.56 36.0194 201.983 -2.771 201.902" stroke="#EBEBEB" stroke-miterlimit="10"/>
<path d="M365.777 197.32C352.075 197.478 338.869 198.828 325.726 202.824C317.003 205.474 308.426 208.15 299.364 209.343C266.351 213.691 236.726 204.246 206.087 192.753C173.791 180.638 142.511 170.547 107.862 177.596C69.195 185.463 33.5242 206.381 -6.57959 206.682" stroke="#EBEBEB" stroke-miterlimit="10"/>
<path d="M365.774 202.964C351.747 203.113 338.16 204.504 324.623 208.276C315.53 210.809 306.555 213.439 297.177 214.658C281.666 216.675 265.844 216.53 250.576 212.906C234.264 209.034 218.719 202.392 203.264 195.929C187.812 189.467 172.264 182.827 155.952 178.952C138.725 174.86 121.516 175.263 104.314 179.261C65.5515 188.268 30.0011 210.717 -10.4976 211.438" stroke="#EBEBEB" stroke-miterlimit="10"/>
<path d="M365.771 208.611C351.416 208.748 337.451 210.168 323.528 213.734C313.651 216.264 303.903 218.925 293.751 220.119C278.663 221.893 263.502 221.887 248.708 218.107C231.931 213.819 216.109 206.321 200.407 199.078C184.706 191.834 168.884 184.339 152.107 180.048C134.857 175.638 117.912 176.434 100.732 180.927C61.8966 191.084 26.4386 215.027 -14.4604 216.189" stroke="#EBEBEB" stroke-miterlimit="10"/>
<path d="M365.767 214.255C351.091 214.378 336.756 215.814 322.457 219.191C311.782 221.716 301.244 224.4 290.317 225.574C275.719 227.145 261.079 227.236 246.806 223.35C229.558 218.653 213.476 210.276 197.55 202.22C181.63 194.167 165.54 185.787 148.295 181.09C132.333 176.743 116.654 177.419 100.734 181.637C60.3389 192.341 24.1696 219.277 -18.4209 220.934" stroke="#EBEBEB" stroke-miterlimit="10"/>
<path d="M365.768 219.898C350.775 220.01 336.096 221.449 321.436 224.654C310.38 227.073 299.436 229.703 288.168 230.893C272.391 232.559 256.924 232.553 241.654 227.66C225.163 222.373 209.89 213.728 194.734 205.396C179.579 197.065 164.306 188.419 147.814 183.133C130.623 177.621 114.387 178.297 97.1953 183.339C56.7499 195.202 20.6646 223.593 -22.3291 225.693" stroke="#EBEBEB" stroke-miterlimit="10"/>
<path d="M365.766 225.545C350.47 225.645 335.469 227.082 320.467 230.13C309.045 232.451 297.703 235.024 286.098 236.226C270.38 237.854 255.001 238.086 239.848 232.998C222.881 227.3 207.342 217.766 191.984 208.64C176.627 199.513 161.088 189.977 144.121 184.282C126.904 178.501 110.909 179.674 93.7174 185.192C53.2776 198.168 17.2119 227.958 -26.1431 230.479" stroke="#EBEBEB" stroke-miterlimit="10"/>
<path d="M365.764 231.189C349.474 231.283 333.526 232.903 317.534 236.003C305.792 238.278 294.1 240.659 282.179 241.758C266.424 243.212 251.221 243.292 236.15 237.694C219.465 231.498 204.324 221.521 189.345 211.971C174.366 202.418 159.224 192.444 142.54 186.248C125.642 179.974 109.955 180.796 93.0212 186.325C51.4221 199.905 14.8663 232.339 -29.8076 235.296" stroke="#EBEBEB" stroke-miterlimit="10"/>
<path d="M365.763 236.833C336.67 236.981 309.115 244.494 280.349 247.113C264.637 248.541 249.537 248.896 234.569 243.172C217.384 236.601 202.027 225.743 186.843 215.428C171.66 205.114 156.302 194.255 139.117 187.684C122.149 181.196 106.787 182.55 89.7914 188.529C48.209 203.153 11.7317 236.87 -33.2783 240.155" stroke="#EBEBEB" stroke-miterlimit="10"/>
<path d="M365.762 242.479C336.185 242.616 307.974 249.854 278.699 252.484C261.858 253.998 245.929 254.296 230.074 247.473C213.639 240.401 199.012 229.48 184.521 219.042C170.029 208.602 155.4 197.681 138.967 190.612C131.23 187.283 122.504 184.393 114.005 184.628C104.741 184.882 95.3603 187.781 86.7353 191.021C45.2285 206.61 8.80718 241.532 -36.5024 245.072" stroke="#EBEBEB" stroke-miterlimit="10"/>
<path d="M365.762 248.123C335.297 248.252 306.084 255.461 275.888 257.991C259.623 259.353 244.193 259.805 228.898 253.131C211.958 245.739 197.103 233.982 182.409 222.84C167.716 211.702 152.86 199.942 135.921 192.55C128.253 189.204 119.578 186.353 111.143 186.869C101.804 187.438 92.5461 190.392 83.8846 193.837C63.7837 201.834 45.2986 213.585 26.5391 224.32C5.99573 236.074 -15.5417 248.108 -39.4287 250.052" stroke="#EBEBEB" stroke-miterlimit="10"/>
<path d="M365.763 253.767C334.707 253.895 304.789 260.964 273.985 263.46C257.634 264.782 242.142 265.34 226.841 258.386C209.862 250.67 195.124 238.421 180.554 226.859C165.984 215.296 151.245 203.047 134.267 195.331C126.642 191.866 117.972 188.926 109.52 189.453C100.128 190.037 90.8336 193.108 82.1665 196.671C61.85 205.019 43.2445 217.234 24.345 228.387C3.782 240.524 -17.8843 253.125 -42.0093 255.117" stroke="#EBEBEB" stroke-miterlimit="10"/>
<path d="M365.762 259.413C333.967 259.548 303.214 266.602 271.646 269.012C255.913 270.214 240.931 270.912 226.215 264.264C208.713 256.356 193.729 243.317 178.976 231.126C164.224 218.934 149.24 205.895 131.737 197.987C115.137 190.486 100.099 192.157 83.4006 198.797C61.6391 207.449 41.9554 220.92 21.9553 233.023C1.54921 245.372 -20.0695 258.317 -44.1973 260.272" stroke="#EBEBEB" stroke-miterlimit="10"/>
<path d="M365.763 265.057C333.78 265.203 302.761 272.034 270.999 274.478C254.259 275.766 238.443 276.479 222.94 268.852C206.188 260.609 191.876 247.765 177.723 235.671C163.567 223.579 149.254 210.732 132.506 202.489C115.062 193.906 99.0134 195.509 81.3852 202.801C59.6097 211.811 39.9624 225.585 19.9484 237.951C-0.281349 250.452 -21.8412 263.677 -45.9326 265.518" stroke="#EBEBEB" stroke-miterlimit="10"/>
<path d="M365.765 270.704C333.468 270.87 302.06 277.598 269.971 280.031C253.269 281.296 237.361 282.154 221.922 274.447C205.12 266.059 190.889 252.885 176.823 240.533C162.757 228.178 148.525 215.004 131.723 206.619C114.389 197.964 98.1217 199.613 80.6027 206.954C58.6704 216.143 38.9531 230.256 18.8607 242.897C-1.32425 255.595 -22.9709 269.224 -47.1855 270.892" stroke="#EBEBEB" stroke-miterlimit="10"/>
<path d="M365.768 276.347C333.27 276.545 301.601 283.181 269.302 285.611C252.693 286.862 236.683 287.881 221.326 280.176C204.471 271.719 190.301 258.28 176.313 245.727C162.328 233.178 148.159 219.735 131.301 211.278C114.115 202.658 97.5592 204.323 80.2026 211.639C58.1415 220.934 38.3794 235.324 18.2309 248.171C-1.88117 260.998 -23.6063 274.97 -47.8965 276.373" stroke="#EBEBEB" stroke-miterlimit="10"/>
<path d="M365.772 281.994C333.216 282.225 301.454 288.796 269.088 291.232C252.568 292.474 236.506 293.607 221.218 285.955C204.318 277.495 190.168 263.923 176.211 251.285C162.254 238.649 148.104 225.078 131.204 216.615C114.144 208.075 97.3339 209.715 80.1089 216.97C57.9946 226.283 38.2493 240.839 18.1148 253.801C-1.93567 266.705 -23.6944 280.857 -48.021 282.002" stroke="#EBEBEB" stroke-miterlimit="10"/>
<path d="M365.771 287.638C333.257 287.887 301.534 294.421 269.21 296.853C252.674 298.098 236.675 299.203 221.371 291.544C204.452 283.076 190.237 269.562 176.21 256.969C162.183 244.377 147.969 230.863 131.049 222.394C113.981 213.851 97.1537 215.411 79.9035 222.689C57.8816 231.982 38.2792 246.592 18.2847 259.591C-1.72378 272.595 -23.4097 286.719 -47.7671 287.809" stroke="#EBEBEB" stroke-miterlimit="10"/>
<path d="M365.773 293.281C333.328 293.539 301.673 300.033 269.418 302.457C252.868 303.699 236.92 304.772 221.597 297.133C204.635 288.679 190.331 275.234 176.209 262.696C162.087 250.158 147.78 236.712 130.821 228.258C113.744 219.744 96.9171 221.212 79.6641 228.53C57.7794 237.814 38.3758 252.49 18.5689 265.532C-1.33873 278.64 -22.893 292.746 -47.228 293.799" stroke="#EBEBEB" stroke-miterlimit="10"/>
<path d="M365.769 298.928C333.419 299.194 301.859 305.639 269.7 308.046C253.136 309.285 237.227 310.324 221.879 302.726C204.858 294.3 190.439 280.938 176.199 268.465C161.959 255.993 147.541 242.63 130.52 234.205C113.438 225.748 96.6246 227.107 79.3828 234.485C57.6802 243.772 38.523 258.523 18.9485 271.616C-0.802315 284.827 -22.1718 298.936 -46.4424 299.961" stroke="#EBEBEB" stroke-miterlimit="10"/>
</mask>
<g mask="url(#mask1_9_437)">
<g opacity="0.3" filter="url(#filter0_f_9_437)">
<rect x="62.9453" y="-60" width="356.31" height="350" rx="175" fill="#B7B7B7"/>
</g>
</g>
</g>
<path d="M84.5 235.5C84.5 258.127 65.9364 276.5 43 276.5C20.0636 276.5 1.5 258.127 1.5 235.5C1.5 212.873 20.0636 194.5 43 194.5C65.9364 194.5 84.5 212.873 84.5 235.5Z" stroke="#B7B7B7" stroke-width="3"/>
<circle cx="188.191" cy="198.531" r="115.629" stroke="#1B8FFA" stroke-width="3"/>
<circle opacity="0.2" cx="187.716" cy="199.005" r="125.216" stroke="#CCCCCC" stroke-width="3"/>
<defs>
<filter id="filter0_f_9_437" x="32.9453" y="-90" width="416.31" height="410" filterUnits="userSpaceOnUse" color-interpolation-filters="sRGB">
<feFlood flood-opacity="0" result="BackgroundImageFix"/>
<feBlend mode="normal" in="SourceGraphic" in2="BackgroundImageFix" result="shape"/>
<feGaussianBlur stdDeviation="15" result="effect1_foregroundBlur_9_437"/>
</filter>
</defs>
</svg>
