<svg width="493" height="999" viewBox="0 0 493 999" fill="none" xmlns="http://www.w3.org/2000/svg">
<g opacity="0.4">
<mask id="mask0_1_343" style="mask-type:alpha" maskUnits="userSpaceOnUse" x="0" y="0" width="493" height="999">
<rect width="493" height="999" fill="#D9D9D9"/>
</mask>
<g mask="url(#mask0_1_343)">
<g clip-path="url(#clip0_1_343)">
<path d="M-155.452 1010.19C-102.855 1007.75 -55.7701 978.663 -12.6896 950.77C29.9466 923.168 70.9137 892.738 115.307 867.929C146.602 850.438 181.997 833.735 218.683 834.462C248.626 835.055 276.429 847.55 301.183 863.613C354.574 898.265 396.329 949.653 453.375 978.891C515.926 1010.95 588.747 989.616 652.611 972.051C735.191 949.336 818.66 916.092 905.224 914.194" stroke="#525252" stroke-miterlimit="10"/>
<path d="M-153.695 983.389C-101.092 980.716 -54.3231 952.164 -11.2897 924.084C30.7138 896.676 71.008 866.408 114.795 841.828C146.064 824.277 181.734 807.5 218.434 808.334C248.411 809.021 276.436 821.409 301.183 837.58C353.417 871.713 393.731 922.663 449.659 951.39C512.305 983.564 585.274 961.778 649.447 944.941C732.23 923.215 815.449 892.428 901.691 889.022" stroke="#525252" stroke-miterlimit="10"/>
<path d="M-151.683 969.837C-100.628 967.171 -55.3396 940.289 -13.4638 913.036C29.9262 884.8 71.2567 853.158 116.525 827.892C146.858 810.96 181.317 794.991 216.812 795.415C246.87 795.772 275.224 808.105 300.019 824.277C351.875 858.1 391.22 909.252 446.826 937.629C508.509 969.116 580.624 947.782 643.976 931.853C727.424 910.868 811.041 881.178 897.646 877.334" stroke="#525252" stroke-miterlimit="10"/>
<path d="M-149.004 956.197C-97.814 953.477 -52.6135 926.541 -10.7378 899.033C30.9898 871.618 70.7994 841.114 114.25 816.386C144.691 799.064 179.251 782.798 215.022 782.812C246.331 782.825 275.723 795.684 301.284 812.926C351.007 846.466 388.953 896.366 442.983 923.734C504.619 954.951 578.504 932.964 641.809 917.647C724.281 897.686 806.943 870.178 892.262 866.179" stroke="#525252" stroke-miterlimit="10"/>
<path d="M-145.734 942.476C-94.0656 939.702 -48.7709 912.362 -6.69327 884.356C34.7921 856.74 74.3728 825.905 117.978 801.595C147.511 785.134 180.913 769.879 215.446 770.195C245.624 770.471 274.188 782.751 298.847 799.393C347.319 832.099 383.642 881.111 435.943 908.417C497.747 940.685 572.803 918.57 636.781 903.906C718.877 885.096 801.06 859.5 885.653 855.494" stroke="#525252" stroke-miterlimit="10"/>
<path d="M-141.931 928.681C-90.3233 925.914 -45.2439 898.534 -3.38841 870.345C36.3202 843.598 74.2452 813.948 115.885 790.17C146.38 772.76 181.256 756.777 217.162 757.848C245.961 758.709 273.024 770.228 296.566 786.225C344.055 818.499 378.978 867.491 430.445 894.205C490.842 925.551 565.151 904.216 627.924 890.818C710.565 873.18 793.172 849.111 877.994 845.213" stroke="#525252" stroke-miterlimit="10"/>
<path d="M-137.677 914.826C-87.5302 912.147 -43.945 886.126 -3.2807 858.638C36.4077 831.81 74.0972 801.81 115.663 777.843C145.189 760.817 178.854 745.171 213.683 745.447C242.596 745.676 269.934 756.663 293.564 772.753C340.407 804.651 373.877 854.101 424.926 880.168C484.253 910.464 559.343 889.338 621.052 877.132C703.222 860.887 785.379 838.919 869.413 835.304" stroke="#525252" stroke-miterlimit="10"/>
<path d="M-133.033 900.917C-77.2463 897.961 -29.67 866.111 14.6421 834.758C57.5071 804.429 99.2751 770.255 147.632 748.867C185.638 732.063 226.12 727.532 264.806 744.8C296.001 758.723 320.694 783.269 344.775 806.812C368.856 830.355 393.549 854.901 424.744 868.824C462.918 885.857 504.552 879.899 544.684 874.54C650.02 860.476 753.464 829.823 860.024 825.696" stroke="#525252" stroke-miterlimit="10"/>
<path d="M-128.067 886.961C-72.0709 884.039 -24.737 851.737 19.4405 819.961C60.5893 790.359 100.796 757.222 147.47 736.533C184.278 720.214 223.96 715.326 261.683 731.679C292.568 745.07 316.568 769.562 339.902 793.072C363.229 816.581 387.229 841.073 418.121 854.464C456.551 871.127 499.813 864.34 540.074 859.379C643.518 846.634 745.549 819.819 850.023 816.339" stroke="#525252" stroke-miterlimit="10"/>
<path d="M-122.851 872.978C-16.3173 867.525 54.9024 765.395 147.316 724.146C182.818 708.298 221.927 703.276 258.453 718.619C289.008 731.451 312.248 755.835 334.76 779.311C357.273 802.787 380.519 827.178 411.068 840.003C447.297 855.218 488.19 849.186 526.102 845.248C630.717 834.382 734.087 810.024 839.476 807.19" stroke="#525252" stroke-miterlimit="10"/>
<path d="M-117.453 858.968C-12.5216 853.717 56.4838 752.483 147.167 711.88C182.515 696.059 221.819 691.036 258.102 706.891C286.928 719.487 308.499 742.849 329.45 765.53C351.094 788.965 373.526 813.222 403.732 825.455C440.163 840.205 482.765 833.607 520.805 830.134C623.475 820.755 725.311 800.222 828.593 798.175" stroke="#525252" stroke-miterlimit="10"/>
<path d="M-111.941 844.945C-8.40264 839.895 57.8299 739.779 147.033 699.539C182.03 683.752 221.9 678.817 257.712 695.116C284.741 707.416 304.716 729.936 324.032 751.749C343.348 773.548 363.337 796.081 390.352 808.381C425.861 824.539 468.484 818.534 506.187 815.827C610.042 808.388 713.203 790.547 817.468 789.261" stroke="#525252" stroke-miterlimit="10"/>
<path d="M-106.388 830.915C-4.39127 826.081 59.2972 726.954 146.892 687.3C180.597 672.044 219.7 666.813 254.387 682.089C281.073 693.837 300.147 716.188 318.567 737.954C336.981 759.713 356.075 782.071 382.747 793.819C418.687 809.647 462.79 803.016 500.722 800.828C602.611 794.95 704.09 780.846 806.263 780.375" stroke="#525252" stroke-miterlimit="10"/>
<path d="M-100.863 816.884C-0.360306 812.246 60.7572 714.196 146.75 674.953C179.23 660.128 217.411 654.924 251.109 669.089C277.472 680.17 295.684 702.475 313.135 724.16C330.621 745.892 348.806 768.055 375.162 779.23C408.921 793.55 450.238 787.733 485.955 786.36C589.043 782.395 691.874 771.151 795.11 771.468" stroke="#525252" stroke-miterlimit="10"/>
<path d="M-95.425 802.868C3.63774 798.418 62.1237 701.384 146.609 662.693C178.752 647.97 217.431 642.577 250.652 657.334C275.339 668.308 291.848 689.441 307.785 710.372C324.335 732.104 341.598 754.038 367.678 764.635C401.544 778.389 445.204 772.377 480.834 771.528C581.949 769.118 682.957 761.423 784.14 762.48" stroke="#525252" stroke-miterlimit="10"/>
<path d="M-90.1552 788.877C7.50098 784.596 63.5102 688.612 146.454 650.312C178.12 635.689 217.741 630.149 250.282 645.505C273.212 656.324 288.214 676.555 302.603 696.61C316.979 716.646 331.954 736.971 354.924 747.716C388.05 763.214 430.889 757.168 466.397 756.953C568.771 756.326 671.119 751.594 773.506 753.371" stroke="#525252" stroke-miterlimit="10"/>
<path d="M-85.1209 774.915C11.2363 770.774 64.715 675.781 146.299 637.992C176.909 623.814 215.513 618.145 247.273 632.438C269.995 642.658 284.175 662.834 297.643 682.857C311.11 702.879 325.297 723.055 348.012 733.275C363.525 740.257 379.739 741.044 396.483 741.347C418.37 741.744 440.257 742.155 462.151 742.344C562.539 743.185 662.955 741.711 763.33 744.067" stroke="#525252" stroke-miterlimit="10"/>
<path d="M-80.3828 760.992C14.8101 756.953 65.8457 663.003 146.118 625.517C175.704 611.702 213.548 606.094 244.42 619.37C267.034 629.092 280.38 649.047 292.986 669.143C305.544 689.165 318.958 709.315 341.551 718.915C373.244 732.386 414.85 726.926 448.542 727.721C550.284 730.118 652.045 731.639 753.773 734.541" stroke="#525252" stroke-miterlimit="10"/>
<path d="M-76.0149 747.123C18.1079 743.144 66.8215 650.123 145.936 613.095C175.408 599.301 213.703 593.571 244.339 607.467C265.607 617.114 277.297 636.127 288.691 655.455C300.611 675.673 312.954 695.358 335.655 704.628C349.23 710.169 363.505 710.708 377.928 711.024C400.515 711.522 423.108 712.546 445.688 713.387C545.451 717.083 645.187 721.486 744.963 724.718" stroke="#525252" stroke-miterlimit="10"/>
<path d="M-72.0845 733.309C20.2817 729.424 66.9561 638.914 143.748 601.435C173.032 587.143 211.791 581.009 242.576 594.548C263.399 603.711 274.457 622.683 284.835 641.809C295.24 660.983 306.298 679.8 327.094 689.07C341.585 695.534 357.051 695.769 372.631 696.193C393.764 696.766 414.897 697.843 436.01 698.88C536.372 703.801 636.619 711.058 737.048 714.539" stroke="#525252" stroke-miterlimit="10"/>
<path d="M-68.6654 719.568C24.6834 715.569 68.9483 622.777 147.443 586.954C175.744 574.035 213.763 568.831 242.852 582.538C262.43 591.761 272.182 609.71 281.47 628.223C291.209 647.64 301.614 666.221 322.612 675.094C336.248 680.85 350.778 681.126 365.309 681.476C386.826 681.995 408.349 683.301 429.832 684.58C529.972 690.531 629.869 700.448 730.143 703.976" stroke="#525252" stroke-miterlimit="10"/>
<path d="M-65.8251 705.901C26.1036 701.882 68.6658 611.479 145.209 575.219C173.584 561.774 212 555.971 241.58 569.483C260.97 578.343 270.083 596.318 278.677 614.671C287.319 633.137 296.405 650.81 315.774 659.858C330.318 666.658 346.31 666.631 362.011 667.069C383.804 667.674 405.59 669.021 427.335 670.522C526.411 677.369 625.111 689.581 724.416 692.921" stroke="#525252" stroke-miterlimit="10"/>
<path d="M-63.6311 692.328C27.0727 688.222 68.2013 600.223 142.921 563.303C171.821 549.023 212.99 542.318 243.027 557.58C260.862 566.642 268.992 583.675 276.517 601.192C284.479 619.727 293.167 637.258 312.571 645.942C327.62 652.675 343.732 652.493 359.857 652.917C380.169 653.456 400.475 654.742 420.739 656.256C520.57 663.696 619.841 678.413 719.994 681.395" stroke="#525252" stroke-miterlimit="10"/>
<path d="M-62.1505 678.844C28.3918 674.589 68.1475 587.237 142.577 550.377C171.491 536.057 212.868 529.365 242.912 544.688C260.472 553.642 268.09 570.372 275.063 587.775C282.453 606.202 290.623 623.416 309.757 631.987C324.813 638.732 341.073 638.625 357.219 638.975C377.538 639.412 397.85 640.685 418.108 642.28C517.85 650.117 616.859 666.941 717.006 669.284" stroke="#525252" stroke-miterlimit="10"/>
<path d="M-61.4505 665.473C30.0609 660.915 68.4504 572.52 144.173 536.38C172.271 522.969 210.6 517.314 240.045 530.267C259.469 538.811 267.229 555.763 274.39 574.438C281.517 593.033 289.344 610.214 308.734 618.609C322.7 624.655 338.038 625.106 352.999 625.315C373.439 625.598 393.852 626.654 414.238 628.243C514.855 636.093 614.524 655.112 715.619 656.56" stroke="#525252" stroke-miterlimit="10"/>
<path d="M-61.6119 652.217C28.9505 647.834 67.9659 560.845 142.342 523.993C171.39 509.599 212.815 502.988 242.973 518.405C260.391 527.312 267.821 543.813 274.572 561.142C281.726 579.508 289.715 596.48 308.707 605.01C323.776 611.776 340.178 611.836 356.364 612.079C376.723 612.388 397.069 613.567 417.368 615.189C517.002 623.147 615.742 641.748 715.868 643.202" stroke="#525252" stroke-miterlimit="10"/>
<path d="M-62.6015 639.076C27.9744 634.889 68.2012 547.307 142.712 510.434C171.686 496.094 212.734 489.55 242.825 504.853C260.424 513.8 268.359 530.463 275.668 547.799C283.408 566.158 291.908 583.298 311.063 591.875C326.078 598.601 342.285 598.628 358.404 598.924C378.776 599.301 399.142 600.513 419.454 602.109C518.927 609.932 617.586 627.476 717.51 629.368" stroke="#525252" stroke-miterlimit="10"/>
<path d="M-64.358 626.035C26.4535 621.969 68.1542 533.714 143.035 496.754C172.117 482.4 212.835 475.971 243.047 491.166C260.949 500.174 269.571 517.005 277.607 534.394C286.1 552.794 295.294 570.123 314.738 578.761C329.78 585.446 345.858 585.486 361.984 585.816C382.357 586.233 402.709 587.445 423.021 588.987C522.259 596.541 620.763 612.92 720.391 615.095" stroke="#525252" stroke-miterlimit="10"/>
<path d="M-66.7946 613.082C25.3225 609.07 68.5375 518.398 145.323 482.064C173.954 468.518 211.872 463.052 241.714 476.456C261.185 485.201 271.004 502.806 280.319 520.943C289.687 539.181 299.473 556.497 318.924 565.431C333.501 572.129 349.459 572.358 365.188 572.729C387.021 573.247 408.827 574.425 430.606 576.034C528.639 583.271 626.073 598.13 724.449 600.425" stroke="#525252" stroke-miterlimit="10"/>
<path d="M-69.8567 600.223C23.7613 596.211 68.7464 503.122 147.551 467.205C176.195 454.151 213.662 449.392 243.134 462.87C262.847 471.884 273.501 489.281 283.718 507.458C294.432 526.517 305.773 544.533 326.866 553.218C340.535 558.839 355.092 559.405 369.643 559.681C391.167 560.085 412.676 561.243 434.153 562.69C532.691 569.328 630.703 583.076 729.517 585.419" stroke="#525252" stroke-miterlimit="10"/>
<path d="M-73.471 587.432C19.2182 583.514 66.6666 492.687 143.829 455.107C173.55 440.633 211.697 435.038 242.979 448.234C263.978 457.093 276.173 475.284 287.729 493.926C299.312 512.608 311.507 530.658 332.478 539.619C347.09 545.859 362.583 546.385 378.238 546.748C399.31 547.233 420.362 548.196 441.401 549.495C539.508 555.541 637.191 567.834 735.521 570.096" stroke="#525252" stroke-miterlimit="10"/>
<path d="M-77.5697 574.708C16.9366 570.682 66.4781 477.331 146.023 440.182C176.027 426.172 213.656 421.095 244.918 434.459C266.441 443.656 279.478 461.698 292.279 480.367C305.665 499.898 319.408 518.56 342.318 527.42C356.007 532.711 370.377 533.526 384.874 533.775C407.299 534.165 429.717 535.168 452.116 536.421C548.897 541.834 645.362 552.41 742.318 554.49" stroke="#525252" stroke-miterlimit="10"/>
<path d="M-82.0788 562.044C13.5516 557.938 65.4486 463.651 146.198 426.024C176.357 411.973 213.548 407.079 245.12 419.682C268.05 428.838 282.998 447.54 297.286 466.775C311.527 485.948 326.543 504.819 349.452 513.868C381.805 526.646 422.052 521.354 456.188 522.943C554.1 527.501 651.756 536.784 749.796 538.649" stroke="#525252" stroke-miterlimit="10"/>
<path d="M-86.9383 549.421C9.06893 545.2 63.5303 451.432 144.388 412.795C176.76 397.324 216.57 392.126 250.261 406.884C272.444 416.605 287.776 434.803 302.677 453.155C318.278 472.369 334.316 491.132 357.912 500.551C391.476 513.955 432.874 508.428 468.336 509.815C564.868 513.598 661.238 521.064 757.851 522.613" stroke="#525252" stroke-miterlimit="10"/>
<path d="M-92.0665 536.838C6.98952 532.395 63.7459 434.594 148.54 396.751C180.307 382.573 217.923 378.668 250.686 392.045C274.605 401.814 291.693 420.543 308.384 439.522C325.748 459.274 343.664 478.718 368.916 488.156C401.174 500.214 440.116 495.434 473.908 496.424C571.417 499.285 668.824 505.203 766.379 506.421" stroke="#525252" stroke-miterlimit="10"/>
<path d="M-97.4105 524.282C1.36293 519.738 60.8383 423.869 144.691 384.35C177.898 368.698 216.294 363.884 251.204 377.12C276.839 386.841 295.859 406.385 314.314 425.875C332.781 445.386 351.808 464.829 377.423 474.631C411.889 487.82 453.031 482.548 489.26 483.316C584.594 485.329 679.881 489.301 775.243 490.129" stroke="#525252" stroke-miterlimit="10"/>
<path d="M-102.882 511.747C-0.932093 506.933 60.9796 407.113 148.837 368.267C182.172 353.53 220.265 349.935 254.67 363.345C280.743 373.505 300.833 392.9 320.404 412.222C339.969 431.531 360.073 450.94 386.139 461.099C420.302 474.416 459.856 469.609 495.721 470.006C591.93 471.07 688.119 473.318 784.335 473.749" stroke="#525252" stroke-miterlimit="10"/>
<path d="M-108.428 499.218C-6.68667 494.283 57.9508 396.274 144.966 355.819C180.711 339.203 220.998 334.746 258.196 349.564C284.767 360.148 305.88 379.389 326.556 398.549C347.218 417.696 368.324 437.018 394.915 447.534C431.043 461.82 473.228 456.717 511.254 456.777C605.344 456.925 699.439 457.296 793.529 457.309" stroke="#525252" stroke-miterlimit="10"/>
<path d="M-113.974 486.696C-9.84292 481.471 57.2578 381.018 147.127 340.678C182.474 324.81 221.221 320.878 257.975 334.349C286.753 344.899 310 364.982 332.721 384.896C355.436 404.81 378.702 424.899 407.467 435.442C444.302 448.947 486.063 443.838 524.5 443.508C617.25 442.713 709.993 441.286 802.749 440.902" stroke="#525252" stroke-miterlimit="10"/>
<path d="M-119.452 474.153C-13.7801 468.727 55.8109 367.297 147.268 326.371C183.989 309.938 223.442 306.397 261.535 320.582C290.812 331.481 315.074 351.503 338.805 371.236C362.536 390.968 386.805 410.997 416.075 421.89C452.52 435.456 493.029 430.992 531.156 430.299C624.72 428.602 718.251 425.29 811.835 424.516" stroke="#525252" stroke-miterlimit="10"/>
<path d="M-124.789 461.604C-17.7711 455.989 54.5255 353.455 147.417 312.186C184.359 295.772 223.415 292.11 261.865 305.716C293.033 316.744 319.126 337.291 344.741 357.589C371.218 378.574 398.307 399.888 430.821 410.599C467.575 422.704 507.957 418.039 546.003 416.948C637.582 414.322 729.08 409.334 820.706 408.216" stroke="#525252" stroke-miterlimit="10"/>
<path d="M-129.924 449.015C-72.7102 445.965 -24.3869 412.525 20.7463 380.109C61.4711 350.864 101.429 318.38 147.571 297.934C184.588 281.527 223.496 277.858 262.073 290.838C295.058 301.933 323.029 323.153 350.435 343.95C377.841 364.746 405.812 385.966 438.797 397.061C475.302 409.341 514.344 405.234 552.161 403.827C644.541 400.394 736.759 393.466 829.213 392.019" stroke="#525252" stroke-miterlimit="10"/>
<path d="M-134.777 436.398C-77.8118 433.322 -29.2597 400.367 15.9677 368.401C58.3886 338.422 99.8807 304.902 147.733 283.823C186.035 266.958 225.521 263.498 265.391 277.164C298.807 288.623 327.579 309.722 355.833 330.343C384.086 350.965 412.858 372.064 446.274 383.522C484.778 396.724 525.947 392.335 565.871 390.436C656.373 386.128 746.646 377.692 837.276 376.002" stroke="#525252" stroke-miterlimit="10"/>
<path d="M-139.286 423.728C-82.1463 420.604 -33.123 387.669 12.4745 355.872C56.7395 325.004 100.049 290.218 149.987 268.776C187.334 252.746 225.642 249.629 264.415 262.151C299.917 273.616 330.648 295.496 360.847 316.744C391.052 337.991 421.776 359.871 457.285 371.336C493.628 383.078 531.499 379.516 569.027 377.503C661.01 372.575 752.622 362.079 844.766 360.154" stroke="#525252" stroke-miterlimit="10"/>
<path d="M-143.385 411.004C-86.6151 407.9 -37.5447 375.457 8.00575 344.145C52.7351 313.391 96.2799 278.841 146.111 256.53C185.745 238.783 225.912 234.912 267.404 248.606C303.195 260.414 334.538 282.133 365.396 303.185C396.255 324.237 427.597 345.956 463.389 357.764C501.644 370.387 541.608 366.584 581.135 364.086C671.361 358.39 761.109 346.575 851.564 344.555" stroke="#525252" stroke-miterlimit="10"/>
<path d="M-146.999 398.219C-95.7476 395.418 -50.7962 368.563 -8.94063 340.906C32.464 313.546 71.9302 283.035 115.165 258.522C145.532 241.308 179.702 225.48 215.325 225.466C245.645 225.453 275.218 235.215 302.072 248.659C356.499 275.898 402.312 318.696 459.439 340.819C517.487 363.305 583.935 351.934 644.306 346.198C715.324 339.445 786.173 330.861 857.561 329.232" stroke="#525252" stroke-miterlimit="10"/>
<path d="M-150.061 385.353C-98.898 382.586 -53.8186 355.785 -11.9025 328.377C31.2519 300.155 72.3335 268.507 117.46 243.388C147.901 226.443 181.768 211.356 217.25 211.585C247.596 211.78 277.135 221.764 304.083 235.101C359.447 262.495 406.579 304.956 464.499 327.421C522.44 349.894 587.636 339.102 647.859 332.868C719.374 325.462 790.661 315.815 862.635 314.219" stroke="#525252" stroke-miterlimit="10"/>
<path d="M-152.504 372.407C-99.7123 369.606 -52.9975 341.088 -9.84303 312.805C31.925 285.431 71.9768 255.169 115.609 230.731C147.026 213.133 182.252 197.056 219.013 197.716C249.319 198.261 278.717 208.413 305.658 221.656C361.708 249.191 409.964 291.322 468.484 314.037C527.326 336.88 593 326.068 654.104 319.221C724.866 311.29 795.366 300.99 866.673 299.549" stroke="#525252" stroke-miterlimit="10"/>
<path d="M-154.254 359.367C-101.32 356.633 -54.323 327.819 -11.007 299.583C31.1917 272.075 71.6945 241.698 115.737 217.112C147.222 199.54 182.475 183.376 219.289 184.036C249.69 184.581 279.168 194.848 306.238 208.023C363.243 235.76 412.643 277.959 472.078 300.909C530.988 323.658 596.433 313.095 657.537 305.844C728.117 297.469 798.375 286.489 869.574 285.277" stroke="#525252" stroke-miterlimit="10"/>
<path d="M-155.25 346.225C-102.693 343.639 -55.9316 314.98 -12.8511 287.074C30.8081 258.791 72.6434 227.345 118.342 202.314C148.527 185.779 181.99 170.49 217.095 170.497C248.451 170.497 278.96 181.221 306.857 194.76C364.118 222.544 414.063 264.285 473.653 287.458C533.108 310.577 599.314 300.074 660.99 292.399C730.951 283.694 800.555 272.31 871.216 271.435" stroke="#525252" stroke-miterlimit="10"/>
<path d="M-155.452 332.969C-102.976 330.196 -56.2007 301.522 -13.0934 273.758C30.7139 245.543 72.731 214.197 118.537 189.186C148.608 172.766 182.131 157.255 217.109 157.261C248.31 157.261 278.778 168.195 306.547 181.599C364.125 209.39 414.602 250.882 474.447 274.142C533.862 297.234 599.792 287.001 661.421 279.205C731.348 270.365 800.879 258.731 871.54 258.085" stroke="#525252" stroke-miterlimit="10"/>
<path d="M-155.452 319.679C-103.117 316.151 -56.443 288.104 -13.127 260.616C30.5928 232.872 72.5897 202.112 118.214 177.471C148.117 161.32 182.098 145.297 216.839 145.277C247.853 145.264 278.63 156.641 306.258 169.803C363.802 197.217 414.588 237.827 474.292 260.885C534.01 283.95 599.307 273.953 661.239 266.258C731.18 257.559 800.757 246.182 871.398 245.354" stroke="#525252" stroke-miterlimit="10"/>
<path d="M-155.452 306.396C-103.346 302.35 -56.7728 275.09 -13.2684 248.047C30.3235 220.949 72.28 190.929 117.682 166.834C147.484 151.02 181.768 134.802 216.281 134.775C247.139 134.748 278.139 146.327 305.713 159.193C363.236 186.028 414.373 225.594 473.929 248.242C533.922 271.058 598.721 261.336 660.889 253.789C730.863 245.293 800.488 234.225 871.122 233.262" stroke="#525252" stroke-miterlimit="10"/>
<path d="M-155.446 293.107C-103.65 288.757 -57.177 262.434 -13.5178 235.996C29.9193 209.693 71.8018 180.555 116.948 157.167C146.716 141.743 181.155 125.632 215.446 125.592C246.169 125.558 277.317 137.111 304.911 149.633C362.421 175.721 413.942 214.075 473.356 236.124C533.606 258.482 598.014 249.07 660.364 241.725C730.379 233.478 800.07 222.76 870.698 221.723" stroke="#525252" stroke-miterlimit="10"/>
<path d="M-155.446 279.83C-103.623 275.32 -56.8809 249.717 -12.791 223.79C29.3338 199.022 70.1124 171.783 113.691 149.553C144.711 133.732 181.041 116.975 216.664 117.735C246.425 118.375 276.361 129.039 303.33 140.807C361.291 166.094 413.578 203.506 473.35 224.787C533.128 246.068 596.5 237.188 658.21 230.213C728.77 222.242 799.02 211.786 870.146 210.703" stroke="#525252" stroke-miterlimit="10"/>
<path d="M-155.446 266.547C-104.047 262.091 -57.4328 237.693 -13.2217 212.655C28.6944 188.917 69.3519 162.775 112.634 141.507C143.735 126.225 179.977 110.108 215.372 110.848C245.059 111.474 275.009 121.755 302.111 133.085C360.079 157.315 412.811 193.212 472.448 213.591C532.428 234.091 595.632 225.561 657.409 218.876C728.023 211.234 798.361 201.23 869.5 200.146" stroke="#525252" stroke-miterlimit="10"/>
<path d="M-155.446 253.271C-57.5741 245.078 25.1476 174.738 111.43 134.162C142.658 119.472 178.699 104.21 213.878 104.917C243.511 105.509 273.434 115.291 300.712 126.131C358.693 149.175 411.882 183.436 471.391 202.792C531.567 222.363 594.67 214.217 656.48 207.855C727.162 200.577 797.587 191.057 868.74 190.014" stroke="#525252" stroke-miterlimit="10"/>
<path d="M-155.446 239.995C-58.6712 232.414 23.9092 165.926 110.104 127.403C141.5 113.373 177.238 99.1338 212.222 99.7936C241.815 100.352 271.684 109.515 299.157 119.816C357.165 141.568 410.819 174.085 470.207 192.31C530.564 210.83 593.619 203.081 655.444 197.069C726.192 190.189 796.719 181.181 867.891 180.205" stroke="#525252" stroke-miterlimit="10"/>
<path d="M-155.452 226.719C-59.8487 219.939 22.6105 157.429 108.677 121.142C140.262 107.825 175.637 94.7512 210.425 95.3503C239.991 95.862 269.786 104.331 297.481 114.053C355.523 134.425 409.655 165.098 468.928 182.103C529.453 199.466 592.516 192.141 654.327 186.506C725.149 180.05 795.777 171.574 866.976 170.699" stroke="#525252" stroke-miterlimit="10"/>
<path d="M-155.452 213.443C-61.0668 207.606 21.2914 149.182 107.17 115.292C138.963 102.749 173.914 90.9406 208.514 91.4792C238.067 91.937 267.767 99.6456 295.698 108.748C353.78 127.672 408.396 156.413 467.562 172.133C528.249 188.257 591.345 181.37 653.136 176.125C724.039 170.106 794.767 162.196 866 161.428" stroke="#525252" stroke-miterlimit="10"/>
<path d="M-155.452 200.173C-62.3254 195.373 19.9521 141.124 105.602 109.764C137.604 98.05 172.103 87.5744 206.522 88.0457C236.074 88.4496 265.667 95.3571 293.84 103.799C351.97 121.223 407.057 147.964 466.135 162.351C526.977 177.169 590.127 170.733 651.897 165.899C722.881 160.338 793.717 153.006 864.984 152.367" stroke="#525252" stroke-miterlimit="10"/>
<path d="M-155.452 186.904C-62.9715 183.167 19.7906 132.499 105.817 103.84C137.059 93.4316 169.99 84.7671 203.15 84.9287C232.952 85.0768 262.699 91.1292 291.35 98.9118C350.004 114.847 405.96 139.804 465.442 152.831C525.691 166.033 588.128 160.203 649.117 155.861C720.694 150.764 792.129 143.918 863.941 143.419" stroke="#525252" stroke-miterlimit="10"/>
<path d="M-155.452 173.628C-64.2435 171.029 18.4445 124.67 104.161 98.7099C166.887 79.7111 225.871 78.7955 289.392 94.3473C348.1 108.721 404.526 131.557 463.934 143.211C524.338 155.06 586.816 149.687 647.812 145.756C719.476 141.137 791.019 134.889 862.871 134.539" stroke="#525252" stroke-miterlimit="10"/>
<path d="M-155.459 160.358C-65.509 158.877 17.1185 116.854 102.499 93.6202C164.7 76.6951 224.579 76.1296 287.426 89.8299C346.202 102.642 403.066 123.337 462.42 133.617C522.979 144.106 585.476 139.198 646.493 135.677C718.237 131.537 789.888 125.895 861.794 125.693" stroke="#525252" stroke-miterlimit="10"/>
<path d="M-155.459 147.089C-66.7339 146.685 15.8398 108.97 100.85 88.4699C162.56 73.5914 223.253 73.3288 285.481 85.245C344.324 96.5083 401.612 115.063 460.926 123.99C521.639 133.132 584.137 128.682 645.194 125.565C717.019 121.903 788.77 116.86 860.73 116.8" stroke="#525252" stroke-miterlimit="10"/>
<path d="M-155.459 133.812C-67.8982 134.405 14.6216 100.959 99.2345 83.1649C160.52 70.2724 221.894 70.2792 283.577 80.4854C342.493 90.2339 400.172 106.654 459.465 114.275C520.334 122.098 582.804 118.113 643.928 115.393C715.835 112.195 787.687 107.745 859.694 107.825" stroke="#525252" stroke-miterlimit="10"/>
<path d="M-155.459 120.543C-69.0019 122.024 13.464 92.7786 97.6664 77.6173C158.616 66.6436 220.487 66.8657 281.733 75.4629C340.73 83.7437 398.765 98.0702 458.052 104.426C519.082 110.969 581.492 107.442 642.697 105.112C714.684 102.372 786.624 98.501 858.685 98.7097" stroke="#525252" stroke-miterlimit="10"/>
<path d="M-155.459 107.267C-70.0115 109.495 12.3804 84.3429 96.1722 71.7197C156.886 62.5705 219.053 62.961 279.976 70.0569C339.054 76.9373 397.419 89.2171 456.713 94.3808C517.897 99.7128 580.226 96.6362 641.526 94.677C713.587 92.3746 785.614 89.0623 857.729 89.3854" stroke="#525252" stroke-miterlimit="10"/>
<path d="M-155.459 93.9906C-71.6739 96.7711 9.93061 75.9883 92.5514 65.6676C153.689 58.0331 216.429 58.3899 277.735 64.1258C337.365 69.707 396.47 80.1354 456.255 84.1613C589.211 93.1221 723.702 79.0515 856.84 79.8055" stroke="#525252" stroke-miterlimit="10"/>
<path d="M-155.459 80.7142C-72.4613 83.8918 9.02873 66.8388 91.2658 58.7532C152.37 52.7479 215.015 53.2192 276.227 57.6828C335.938 62.0386 395.299 70.555 455.117 73.5778C588.417 80.3102 722.612 69.0537 856.026 69.9221" stroke="#525252" stroke-miterlimit="10"/>
<path d="M-155.459 67.4376C-73.1344 70.7903 8.23448 57.265 90.1014 51.2126C212.087 42.1979 332.431 58.3153 454.101 62.6442C587.657 67.3972 721.676 58.7461 855.292 59.6684" stroke="#525252" stroke-miterlimit="10"/>
<path d="M-155.459 54.155C-73.6862 57.4471 7.54808 47.2073 89.0785 42.9592C210.775 36.6173 331.684 48.5335 453.226 51.314C586.95 54.3772 720.889 48.0757 854.653 48.9913" stroke="#525252" stroke-miterlimit="10"/>
<path d="M-155.459 40.8715C-74.1103 43.827 6.9759 36.6167 88.2237 33.9035C209.779 29.8439 331.031 37.9968 452.526 39.5452C586.364 41.2485 720.283 37.0206 854.141 37.8487" stroke="#525252" stroke-miterlimit="10"/>
<path d="M-155.459 27.5893C-74.4131 29.9186 6.53181 25.4281 87.544 23.9537C209.059 21.7388 330.5 26.6333 452.008 27.2796C585.914 27.9932 719.839 25.5224 853.751 26.1754" stroke="#525252" stroke-miterlimit="10"/>
<path d="M-155.459 14.2995C-74.6083 15.6797 6.22226 13.5724 87.073 13.0069C208.615 12.1519 330.15 14.3399 451.699 14.4543C585.631 14.5822 719.57 13.5186 853.502 13.909" stroke="#525252" stroke-miterlimit="10"/>
<path d="M-155.452 1.00994C-74.6956 1.084 6.06754 0.99644 86.824 0.976239C342.352 0.922369 597.887 0.969517 853.415 1.0099" stroke="#525252" stroke-miterlimit="10"/>
<path d="M-155.452 1010.19C-102.855 1007.75 -55.7701 978.663 -12.6896 950.77C29.9466 923.168 70.9137 892.738 115.307 867.929C146.602 850.438 181.997 833.735 218.683 834.462C248.626 835.055 276.429 847.55 301.183 863.613C354.574 898.265 396.329 949.653 453.375 978.891C515.926 1010.95 588.747 989.616 652.611 972.051C735.191 949.336 818.66 916.092 905.224 914.194" stroke="#525252" stroke-miterlimit="10"/>
<path d="M-153.695 983.389C-101.092 980.716 -54.3231 952.164 -11.2897 924.084C30.7138 896.676 71.008 866.408 114.795 841.828C146.064 824.277 181.734 807.5 218.434 808.334C248.411 809.021 276.436 821.409 301.183 837.58C353.417 871.713 393.731 922.663 449.659 951.39C512.305 983.564 585.274 961.778 649.447 944.941C732.23 923.215 815.449 892.428 901.691 889.022" stroke="#525252" stroke-miterlimit="10"/>
<path d="M-151.683 969.837C-100.628 967.171 -55.3396 940.289 -13.4638 913.036C29.9262 884.8 71.2567 853.158 116.525 827.892C146.858 810.96 181.317 794.991 216.812 795.415C246.87 795.772 275.224 808.105 300.019 824.277C351.875 858.1 391.22 909.252 446.826 937.629C508.509 969.116 580.624 947.782 643.976 931.853C727.424 910.868 811.041 881.178 897.646 877.334" stroke="#525252" stroke-miterlimit="10"/>
<path d="M-149.004 956.197C-97.814 953.477 -52.6135 926.541 -10.7378 899.033C30.9898 871.618 70.7994 841.114 114.25 816.386C144.691 799.064 179.251 782.798 215.022 782.812C246.331 782.825 275.723 795.684 301.284 812.926C351.007 846.466 388.953 896.366 442.983 923.734C504.619 954.951 578.504 932.964 641.809 917.647C724.281 897.686 806.943 870.178 892.262 866.179" stroke="#525252" stroke-miterlimit="10"/>
<path d="M-145.734 942.476C-94.0656 939.702 -48.7709 912.362 -6.69327 884.356C34.7921 856.74 74.3728 825.905 117.978 801.595C147.511 785.134 180.913 769.879 215.446 770.195C245.624 770.471 274.188 782.751 298.847 799.393C347.319 832.099 383.642 881.111 435.943 908.417C497.747 940.685 572.803 918.57 636.781 903.906C718.877 885.096 801.06 859.5 885.653 855.494" stroke="#525252" stroke-miterlimit="10"/>
<path d="M-141.931 928.681C-90.3233 925.914 -45.2439 898.534 -3.38841 870.345C36.3202 843.598 74.2452 813.948 115.885 790.17C146.38 772.76 181.256 756.777 217.162 757.848C245.961 758.709 273.024 770.228 296.566 786.225C344.055 818.499 378.978 867.491 430.445 894.205C490.842 925.551 565.151 904.216 627.924 890.818C710.565 873.18 793.172 849.111 877.994 845.213" stroke="#525252" stroke-miterlimit="10"/>
<path d="M-137.677 914.826C-87.5302 912.147 -43.945 886.126 -3.2807 858.638C36.4077 831.81 74.0972 801.81 115.663 777.843C145.189 760.817 178.854 745.171 213.683 745.447C242.596 745.676 269.934 756.663 293.564 772.753C340.407 804.651 373.877 854.101 424.926 880.168C484.253 910.464 559.343 889.338 621.052 877.132C703.222 860.887 785.379 838.919 869.413 835.304" stroke="#525252" stroke-miterlimit="10"/>
<path d="M-133.033 900.917C-77.2463 897.961 -29.67 866.111 14.6421 834.758C57.5071 804.429 99.2751 770.255 147.632 748.867C185.638 732.063 226.12 727.532 264.806 744.8C296.001 758.723 320.694 783.269 344.775 806.812C368.856 830.355 393.549 854.901 424.744 868.824C462.918 885.857 504.552 879.899 544.684 874.54C650.02 860.476 753.464 829.823 860.024 825.696" stroke="#525252" stroke-miterlimit="10"/>
<path d="M-128.067 886.961C-72.0709 884.039 -24.737 851.737 19.4405 819.961C60.5893 790.359 100.796 757.222 147.47 736.533C184.278 720.214 223.96 715.326 261.683 731.679C292.568 745.07 316.568 769.562 339.902 793.072C363.229 816.581 387.229 841.073 418.121 854.464C456.551 871.127 499.813 864.34 540.074 859.379C643.518 846.634 745.549 819.819 850.023 816.339" stroke="#525252" stroke-miterlimit="10"/>
<path d="M-122.851 872.978C-16.3173 867.525 54.9024 765.395 147.316 724.146C182.818 708.298 221.927 703.276 258.453 718.619C289.008 731.451 312.248 755.835 334.76 779.311C357.273 802.787 380.519 827.178 411.068 840.003C447.297 855.218 488.19 849.186 526.102 845.248C630.717 834.382 734.087 810.024 839.476 807.19" stroke="#525252" stroke-miterlimit="10"/>
<path d="M-117.453 858.968C-12.5216 853.717 56.4838 752.483 147.167 711.88C182.515 696.059 221.819 691.036 258.102 706.891C286.928 719.487 308.499 742.849 329.45 765.53C351.094 788.965 373.526 813.222 403.732 825.455C440.163 840.205 482.765 833.607 520.805 830.134C623.475 820.755 725.311 800.222 828.593 798.175" stroke="#525252" stroke-miterlimit="10"/>
<path d="M-111.941 844.945C-8.40264 839.895 57.8299 739.779 147.033 699.539C182.03 683.752 221.9 678.817 257.712 695.116C284.741 707.416 304.716 729.936 324.032 751.749C343.348 773.548 363.337 796.081 390.352 808.381C425.861 824.539 468.484 818.534 506.187 815.827C610.042 808.388 713.203 790.547 817.468 789.261" stroke="#525252" stroke-miterlimit="10"/>
<path d="M-106.388 830.915C-4.39127 826.081 59.2972 726.954 146.892 687.3C180.597 672.044 219.7 666.813 254.387 682.089C281.073 693.837 300.147 716.188 318.567 737.954C336.981 759.713 356.075 782.071 382.747 793.819C418.687 809.647 462.79 803.016 500.722 800.828C602.611 794.95 704.09 780.846 806.263 780.375" stroke="#525252" stroke-miterlimit="10"/>
<path d="M-100.863 816.884C-0.360306 812.246 60.7572 714.196 146.75 674.953C179.23 660.128 217.411 654.924 251.109 669.089C277.472 680.17 295.684 702.475 313.135 724.16C330.621 745.892 348.806 768.055 375.162 779.23C408.921 793.55 450.238 787.733 485.955 786.36C589.043 782.395 691.874 771.151 795.11 771.468" stroke="#525252" stroke-miterlimit="10"/>
<path d="M-95.425 802.868C3.63774 798.418 62.1237 701.384 146.609 662.693C178.752 647.97 217.431 642.577 250.652 657.334C275.339 668.308 291.848 689.441 307.785 710.372C324.335 732.104 341.598 754.038 367.678 764.635C401.544 778.389 445.204 772.377 480.834 771.528C581.949 769.118 682.957 761.423 784.14 762.48" stroke="#525252" stroke-miterlimit="10"/>
<path d="M-90.1552 788.877C7.50098 784.596 63.5102 688.612 146.454 650.312C178.12 635.689 217.741 630.149 250.282 645.505C273.212 656.324 288.214 676.555 302.603 696.61C316.979 716.646 331.954 736.971 354.924 747.716C388.05 763.214 430.889 757.168 466.397 756.953C568.771 756.326 671.119 751.594 773.506 753.371" stroke="#525252" stroke-miterlimit="10"/>
<path d="M-85.1209 774.915C11.2363 770.774 64.715 675.781 146.299 637.992C176.909 623.814 215.513 618.145 247.273 632.438C269.995 642.658 284.175 662.834 297.643 682.857C311.11 702.879 325.297 723.055 348.012 733.275C363.525 740.257 379.739 741.044 396.483 741.347C418.37 741.744 440.257 742.155 462.151 742.344C562.539 743.185 662.955 741.711 763.33 744.067" stroke="#525252" stroke-miterlimit="10"/>
<path d="M-80.3828 760.992C14.8101 756.953 65.8457 663.003 146.118 625.517C175.704 611.702 213.548 606.094 244.42 619.37C267.034 629.092 280.38 649.047 292.986 669.143C305.544 689.165 318.958 709.315 341.551 718.915C373.244 732.386 414.85 726.926 448.542 727.721C550.284 730.118 652.045 731.639 753.773 734.541" stroke="#525252" stroke-miterlimit="10"/>
<path d="M-76.0149 747.123C18.1079 743.144 66.8215 650.123 145.936 613.095C175.408 599.301 213.703 593.571 244.339 607.467C265.607 617.114 277.297 636.127 288.691 655.455C300.611 675.673 312.954 695.358 335.655 704.628C349.23 710.169 363.505 710.708 377.928 711.024C400.515 711.522 423.108 712.546 445.688 713.387C545.451 717.083 645.187 721.486 744.963 724.718" stroke="#525252" stroke-miterlimit="10"/>
<path d="M-72.0845 733.309C20.2817 729.424 66.9561 638.914 143.748 601.435C173.032 587.143 211.791 581.009 242.576 594.548C263.399 603.711 274.457 622.683 284.835 641.809C295.24 660.983 306.298 679.8 327.094 689.07C341.585 695.534 357.051 695.769 372.631 696.193C393.764 696.766 414.897 697.843 436.01 698.88C536.372 703.801 636.619 711.058 737.048 714.539" stroke="#525252" stroke-miterlimit="10"/>
<path d="M-68.6654 719.568C24.6834 715.569 68.9483 622.777 147.443 586.954C175.744 574.035 213.763 568.831 242.852 582.538C262.43 591.761 272.182 609.71 281.47 628.223C291.209 647.64 301.614 666.221 322.612 675.094C336.248 680.85 350.778 681.126 365.309 681.476C386.826 681.995 408.349 683.301 429.832 684.58C529.972 690.531 629.869 700.448 730.143 703.976" stroke="#525252" stroke-miterlimit="10"/>
<path d="M-65.8251 705.901C26.1036 701.882 68.6658 611.479 145.209 575.219C173.584 561.774 212 555.971 241.58 569.483C260.97 578.343 270.083 596.318 278.677 614.671C287.319 633.137 296.405 650.81 315.774 659.858C330.318 666.658 346.31 666.631 362.011 667.069C383.804 667.674 405.59 669.021 427.335 670.522C526.411 677.369 625.111 689.581 724.416 692.921" stroke="#525252" stroke-miterlimit="10"/>
<path d="M-63.6311 692.328C27.0727 688.222 68.2013 600.223 142.921 563.303C171.821 549.023 212.99 542.318 243.027 557.58C260.862 566.642 268.992 583.675 276.517 601.192C284.479 619.727 293.167 637.258 312.571 645.942C327.62 652.675 343.732 652.493 359.857 652.917C380.169 653.456 400.475 654.742 420.739 656.256C520.57 663.696 619.841 678.413 719.994 681.395" stroke="#525252" stroke-miterlimit="10"/>
<path d="M-62.1505 678.844C28.3918 674.589 68.1475 587.237 142.577 550.377C171.491 536.057 212.868 529.365 242.912 544.688C260.472 553.642 268.09 570.372 275.063 587.775C282.453 606.202 290.623 623.416 309.757 631.987C324.813 638.732 341.073 638.625 357.219 638.975C377.538 639.412 397.85 640.685 418.108 642.28C517.85 650.117 616.859 666.941 717.006 669.284" stroke="#525252" stroke-miterlimit="10"/>
<path d="M-61.4505 665.473C30.0609 660.915 68.4504 572.52 144.173 536.38C172.271 522.969 210.6 517.314 240.045 530.267C259.469 538.811 267.229 555.763 274.39 574.438C281.517 593.033 289.344 610.214 308.734 618.609C322.7 624.655 338.038 625.106 352.999 625.315C373.439 625.598 393.852 626.654 414.238 628.243C514.855 636.093 614.524 655.112 715.619 656.56" stroke="#525252" stroke-miterlimit="10"/>
<path d="M-61.6119 652.217C28.9505 647.834 67.9659 560.845 142.342 523.993C171.39 509.599 212.815 502.988 242.973 518.405C260.391 527.312 267.821 543.813 274.572 561.142C281.726 579.508 289.715 596.48 308.707 605.01C323.776 611.776 340.178 611.836 356.364 612.079C376.723 612.388 397.069 613.567 417.368 615.189C517.002 623.147 615.742 641.748 715.868 643.202" stroke="#525252" stroke-miterlimit="10"/>
<path d="M-62.6015 639.076C27.9744 634.889 68.2012 547.307 142.712 510.434C171.686 496.094 212.734 489.55 242.825 504.853C260.424 513.8 268.359 530.463 275.668 547.799C283.408 566.158 291.908 583.298 311.063 591.875C326.078 598.601 342.285 598.628 358.404 598.924C378.776 599.301 399.142 600.513 419.454 602.109C518.927 609.932 617.586 627.476 717.51 629.368" stroke="#525252" stroke-miterlimit="10"/>
<path d="M-64.358 626.035C26.4535 621.969 68.1542 533.714 143.035 496.754C172.117 482.4 212.835 475.971 243.047 491.166C260.949 500.174 269.571 517.005 277.607 534.394C286.1 552.794 295.294 570.123 314.738 578.761C329.78 585.446 345.858 585.486 361.984 585.816C382.357 586.233 402.709 587.445 423.021 588.987C522.259 596.541 620.763 612.92 720.391 615.095" stroke="#525252" stroke-miterlimit="10"/>
<path d="M-66.7946 613.082C25.3225 609.07 68.5375 518.398 145.323 482.064C173.954 468.518 211.872 463.052 241.714 476.456C261.185 485.201 271.004 502.806 280.319 520.943C289.687 539.181 299.473 556.497 318.924 565.431C333.501 572.129 349.459 572.358 365.188 572.729C387.021 573.247 408.827 574.425 430.606 576.034C528.639 583.271 626.073 598.13 724.449 600.425" stroke="#525252" stroke-miterlimit="10"/>
<path d="M-69.8567 600.223C23.7613 596.211 68.7464 503.122 147.551 467.205C176.195 454.151 213.662 449.392 243.134 462.87C262.847 471.884 273.501 489.281 283.718 507.458C294.432 526.517 305.773 544.533 326.866 553.218C340.535 558.839 355.092 559.405 369.643 559.681C391.167 560.085 412.676 561.243 434.153 562.69C532.691 569.328 630.703 583.076 729.517 585.419" stroke="#525252" stroke-miterlimit="10"/>
<path d="M-73.471 587.432C19.2182 583.514 66.6666 492.687 143.829 455.107C173.55 440.633 211.697 435.038 242.979 448.234C263.978 457.093 276.173 475.284 287.729 493.926C299.312 512.608 311.507 530.658 332.478 539.619C347.09 545.859 362.583 546.385 378.238 546.748C399.31 547.233 420.362 548.196 441.401 549.495C539.508 555.541 637.191 567.834 735.521 570.096" stroke="#525252" stroke-miterlimit="10"/>
<path d="M-77.5697 574.708C16.9366 570.682 66.4781 477.331 146.023 440.182C176.027 426.172 213.656 421.095 244.918 434.459C266.441 443.656 279.478 461.698 292.279 480.367C305.665 499.898 319.408 518.56 342.318 527.42C356.007 532.711 370.377 533.526 384.874 533.775C407.299 534.165 429.717 535.168 452.116 536.421C548.897 541.834 645.362 552.41 742.318 554.49" stroke="#525252" stroke-miterlimit="10"/>
<path d="M-82.0788 562.044C13.5516 557.938 65.4486 463.651 146.198 426.024C176.357 411.973 213.548 407.079 245.12 419.682C268.05 428.838 282.998 447.54 297.286 466.775C311.527 485.948 326.543 504.819 349.452 513.868C381.805 526.646 422.052 521.354 456.188 522.943C554.1 527.501 651.756 536.784 749.796 538.649" stroke="#525252" stroke-miterlimit="10"/>
<path d="M-86.9383 549.421C9.06893 545.2 63.5303 451.432 144.388 412.795C176.76 397.324 216.57 392.126 250.261 406.884C272.444 416.605 287.776 434.803 302.677 453.155C318.278 472.369 334.316 491.132 357.912 500.551C391.476 513.955 432.874 508.428 468.336 509.815C564.868 513.598 661.238 521.064 757.851 522.613" stroke="#525252" stroke-miterlimit="10"/>
<path d="M-92.0665 536.838C6.98952 532.395 63.7459 434.594 148.54 396.751C180.307 382.573 217.923 378.668 250.686 392.045C274.605 401.814 291.693 420.543 308.384 439.522C325.748 459.274 343.664 478.718 368.916 488.156C401.174 500.214 440.116 495.434 473.908 496.424C571.417 499.285 668.824 505.203 766.379 506.421" stroke="#525252" stroke-miterlimit="10"/>
<path d="M-97.4105 524.282C1.36293 519.738 60.8383 423.869 144.691 384.35C177.898 368.698 216.294 363.884 251.204 377.12C276.839 386.841 295.859 406.385 314.314 425.875C332.781 445.386 351.808 464.829 377.423 474.631C411.889 487.82 453.031 482.548 489.26 483.316C584.594 485.329 679.881 489.301 775.243 490.129" stroke="#525252" stroke-miterlimit="10"/>
<path d="M-102.882 511.747C-0.932093 506.933 60.9796 407.113 148.837 368.267C182.172 353.53 220.265 349.935 254.67 363.345C280.743 373.505 300.833 392.9 320.404 412.222C339.969 431.531 360.073 450.94 386.139 461.099C420.302 474.416 459.856 469.609 495.721 470.006C591.93 471.07 688.119 473.318 784.335 473.749" stroke="#525252" stroke-miterlimit="10"/>
<path d="M-108.428 499.218C-6.68667 494.283 57.9508 396.274 144.966 355.819C180.711 339.203 220.998 334.746 258.196 349.564C284.767 360.148 305.88 379.389 326.556 398.549C347.218 417.696 368.324 437.018 394.915 447.534C431.043 461.82 473.228 456.717 511.254 456.777C605.344 456.925 699.439 457.296 793.529 457.309" stroke="#525252" stroke-miterlimit="10"/>
<path d="M-113.974 486.696C-9.84292 481.471 57.2578 381.018 147.127 340.678C182.474 324.81 221.221 320.878 257.975 334.349C286.753 344.899 310 364.982 332.721 384.896C355.436 404.81 378.702 424.899 407.467 435.442C444.302 448.947 486.063 443.838 524.5 443.508C617.25 442.713 709.993 441.286 802.749 440.902" stroke="#525252" stroke-miterlimit="10"/>
<path d="M-119.452 474.153C-13.7801 468.727 55.8109 367.297 147.268 326.371C183.989 309.938 223.442 306.397 261.535 320.582C290.812 331.481 315.074 351.503 338.805 371.236C362.536 390.968 386.805 410.997 416.075 421.89C452.52 435.456 493.029 430.992 531.156 430.299C624.72 428.602 718.251 425.29 811.835 424.516" stroke="#525252" stroke-miterlimit="10"/>
<path d="M-124.789 461.604C-17.7711 455.989 54.5255 353.455 147.417 312.186C184.359 295.772 223.415 292.11 261.865 305.716C293.033 316.744 319.126 337.291 344.741 357.589C371.218 378.574 398.307 399.888 430.821 410.599C467.575 422.704 507.957 418.039 546.003 416.948C637.582 414.322 729.08 409.334 820.706 408.216" stroke="#525252" stroke-miterlimit="10"/>
<path d="M-129.924 449.015C-72.7102 445.965 -24.3869 412.525 20.7463 380.109C61.4711 350.864 101.429 318.38 147.571 297.934C184.588 281.527 223.496 277.858 262.073 290.838C295.058 301.933 323.029 323.153 350.435 343.95C377.841 364.746 405.812 385.966 438.797 397.061C475.302 409.341 514.344 405.234 552.161 403.827C644.541 400.394 736.759 393.466 829.213 392.019" stroke="#525252" stroke-miterlimit="10"/>
<path d="M-134.777 436.398C-77.8118 433.322 -29.2597 400.367 15.9677 368.401C58.3886 338.422 99.8807 304.902 147.733 283.823C186.035 266.958 225.521 263.498 265.391 277.164C298.807 288.623 327.579 309.722 355.833 330.343C384.086 350.965 412.858 372.064 446.274 383.522C484.778 396.724 525.947 392.335 565.871 390.436C656.373 386.128 746.646 377.692 837.276 376.002" stroke="#525252" stroke-miterlimit="10"/>
<path d="M-139.286 423.728C-82.1463 420.604 -33.123 387.669 12.4745 355.872C56.7395 325.004 100.049 290.218 149.987 268.776C187.334 252.746 225.642 249.629 264.415 262.151C299.917 273.616 330.648 295.496 360.847 316.744C391.052 337.991 421.776 359.871 457.285 371.336C493.628 383.078 531.499 379.516 569.027 377.503C661.01 372.575 752.622 362.079 844.766 360.154" stroke="#525252" stroke-miterlimit="10"/>
<path d="M-143.385 411.004C-86.6151 407.9 -37.5447 375.457 8.00575 344.145C52.7351 313.391 96.2799 278.841 146.111 256.53C185.745 238.783 225.912 234.912 267.404 248.606C303.195 260.414 334.538 282.133 365.396 303.185C396.255 324.237 427.597 345.956 463.389 357.764C501.644 370.387 541.608 366.584 581.135 364.086C671.361 358.39 761.109 346.575 851.564 344.555" stroke="#525252" stroke-miterlimit="10"/>
<path d="M-146.999 398.219C-95.7476 395.418 -50.7962 368.563 -8.94063 340.906C32.464 313.546 71.9302 283.035 115.165 258.522C145.532 241.308 179.702 225.48 215.325 225.466C245.645 225.453 275.218 235.215 302.072 248.659C356.499 275.898 402.312 318.696 459.439 340.819C517.487 363.305 583.935 351.934 644.306 346.198C715.324 339.445 786.173 330.861 857.561 329.232" stroke="#525252" stroke-miterlimit="10"/>
<path d="M-150.061 385.353C-98.898 382.586 -53.8186 355.785 -11.9025 328.377C31.2519 300.155 72.3335 268.507 117.46 243.388C147.901 226.443 181.768 211.356 217.25 211.585C247.596 211.78 277.135 221.764 304.083 235.101C359.447 262.495 406.579 304.956 464.499 327.421C522.44 349.894 587.636 339.102 647.859 332.868C719.374 325.462 790.661 315.815 862.635 314.219" stroke="#525252" stroke-miterlimit="10"/>
<path d="M-152.504 372.407C-99.7123 369.606 -52.9975 341.088 -9.84303 312.805C31.925 285.431 71.9768 255.169 115.609 230.731C147.026 213.133 182.252 197.056 219.013 197.716C249.319 198.261 278.717 208.413 305.658 221.656C361.708 249.191 409.964 291.322 468.484 314.037C527.326 336.88 593 326.068 654.104 319.221C724.866 311.29 795.366 300.99 866.673 299.549" stroke="#525252" stroke-miterlimit="10"/>
<path d="M-154.254 359.367C-101.32 356.633 -54.323 327.819 -11.007 299.583C31.1917 272.075 71.6945 241.698 115.737 217.112C147.222 199.54 182.475 183.376 219.289 184.036C249.69 184.581 279.168 194.848 306.238 208.023C363.243 235.76 412.643 277.959 472.078 300.909C530.988 323.658 596.433 313.095 657.537 305.844C728.117 297.469 798.375 286.489 869.574 285.277" stroke="#525252" stroke-miterlimit="10"/>
<path d="M-155.25 346.225C-102.693 343.639 -55.9316 314.98 -12.8511 287.074C30.8081 258.791 72.6434 227.345 118.342 202.314C148.527 185.779 181.99 170.49 217.095 170.497C248.451 170.497 278.96 181.221 306.857 194.76C364.118 222.544 414.063 264.285 473.653 287.458C533.108 310.577 599.314 300.074 660.99 292.399C730.951 283.694 800.555 272.31 871.216 271.435" stroke="#525252" stroke-miterlimit="10"/>
<path d="M-155.452 332.969C-102.976 330.196 -56.2007 301.522 -13.0934 273.758C30.7139 245.543 72.731 214.197 118.537 189.186C148.608 172.766 182.131 157.255 217.109 157.261C248.31 157.261 278.778 168.195 306.547 181.599C364.125 209.39 414.602 250.882 474.447 274.142C533.862 297.234 599.792 287.001 661.421 279.205C731.348 270.365 800.879 258.731 871.54 258.085" stroke="#525252" stroke-miterlimit="10"/>
<path d="M-155.452 319.679C-103.117 316.151 -56.443 288.104 -13.127 260.616C30.5928 232.872 72.5897 202.112 118.214 177.471C148.117 161.32 182.098 145.297 216.839 145.277C247.853 145.264 278.63 156.641 306.258 169.803C363.802 197.217 414.588 237.827 474.292 260.885C534.01 283.95 599.307 273.953 661.239 266.258C731.18 257.559 800.757 246.182 871.398 245.354" stroke="#525252" stroke-miterlimit="10"/>
<path d="M-155.452 306.396C-103.346 302.35 -56.7728 275.09 -13.2684 248.047C30.3235 220.949 72.28 190.929 117.682 166.834C147.484 151.02 181.768 134.802 216.281 134.775C247.139 134.748 278.139 146.327 305.713 159.193C363.236 186.028 414.373 225.594 473.929 248.242C533.922 271.058 598.721 261.336 660.889 253.789C730.863 245.293 800.488 234.225 871.122 233.262" stroke="#525252" stroke-miterlimit="10"/>
<path d="M-155.446 293.107C-103.65 288.757 -57.177 262.434 -13.5178 235.996C29.9193 209.693 71.8018 180.555 116.948 157.167C146.716 141.743 181.155 125.632 215.446 125.592C246.169 125.558 277.317 137.111 304.911 149.633C362.421 175.721 413.942 214.075 473.356 236.124C533.606 258.482 598.014 249.07 660.364 241.725C730.379 233.478 800.07 222.76 870.698 221.723" stroke="#525252" stroke-miterlimit="10"/>
<path d="M-155.446 279.83C-103.623 275.32 -56.8809 249.717 -12.791 223.79C29.3338 199.022 70.1124 171.783 113.691 149.553C144.711 133.732 181.041 116.975 216.664 117.735C246.425 118.375 276.361 129.039 303.33 140.807C361.291 166.094 413.578 203.506 473.35 224.787C533.128 246.068 596.5 237.188 658.21 230.213C728.77 222.242 799.02 211.786 870.146 210.703" stroke="#525252" stroke-miterlimit="10"/>
<path d="M-155.446 266.547C-104.047 262.091 -57.4328 237.693 -13.2217 212.655C28.6944 188.917 69.3519 162.775 112.634 141.507C143.735 126.225 179.977 110.108 215.372 110.848C245.059 111.474 275.009 121.755 302.111 133.085C360.079 157.315 412.811 193.212 472.448 213.591C532.428 234.091 595.632 225.561 657.409 218.876C728.023 211.234 798.361 201.23 869.5 200.146" stroke="#525252" stroke-miterlimit="10"/>
<path d="M-155.446 253.271C-57.5741 245.078 25.1476 174.738 111.43 134.162C142.658 119.472 178.699 104.21 213.878 104.917C243.511 105.509 273.434 115.291 300.712 126.131C358.693 149.175 411.882 183.436 471.391 202.792C531.567 222.363 594.67 214.217 656.48 207.855C727.162 200.577 797.587 191.057 868.74 190.014" stroke="#525252" stroke-miterlimit="10"/>
<path d="M-155.446 239.995C-58.6712 232.414 23.9092 165.926 110.104 127.403C141.5 113.373 177.238 99.1338 212.222 99.7936C241.815 100.352 271.684 109.515 299.157 119.816C357.165 141.568 410.819 174.085 470.207 192.31C530.564 210.83 593.619 203.081 655.444 197.069C726.192 190.189 796.719 181.181 867.891 180.205" stroke="#525252" stroke-miterlimit="10"/>
<path d="M-155.452 226.719C-59.8487 219.939 22.6105 157.429 108.677 121.142C140.262 107.825 175.637 94.7512 210.425 95.3503C239.991 95.862 269.786 104.331 297.481 114.053C355.523 134.425 409.655 165.098 468.928 182.103C529.453 199.466 592.516 192.141 654.327 186.506C725.149 180.05 795.777 171.574 866.976 170.699" stroke="#525252" stroke-miterlimit="10"/>
<path d="M-155.452 213.443C-61.0668 207.606 21.2914 149.182 107.17 115.292C138.963 102.749 173.914 90.9406 208.514 91.4792C238.067 91.937 267.767 99.6456 295.698 108.748C353.78 127.672 408.396 156.413 467.562 172.133C528.249 188.257 591.345 181.37 653.136 176.125C724.039 170.106 794.767 162.196 866 161.428" stroke="#525252" stroke-miterlimit="10"/>
<path d="M-155.452 200.173C-62.3254 195.373 19.9521 141.124 105.602 109.764C137.604 98.05 172.103 87.5744 206.522 88.0457C236.074 88.4496 265.667 95.3571 293.84 103.799C351.97 121.223 407.057 147.964 466.135 162.351C526.977 177.169 590.127 170.733 651.897 165.899C722.881 160.338 793.717 153.006 864.984 152.367" stroke="#525252" stroke-miterlimit="10"/>
<path d="M-155.452 186.904C-62.9715 183.167 19.7906 132.499 105.817 103.84C137.059 93.4316 169.99 84.7671 203.15 84.9287C232.952 85.0768 262.699 91.1292 291.35 98.9118C350.004 114.847 405.96 139.804 465.442 152.831C525.691 166.033 588.128 160.203 649.117 155.861C720.694 150.764 792.129 143.918 863.941 143.419" stroke="#525252" stroke-miterlimit="10"/>
<path d="M-155.452 173.628C-64.2435 171.029 18.4445 124.67 104.161 98.7099C166.887 79.7111 225.871 78.7955 289.392 94.3473C348.1 108.721 404.526 131.557 463.934 143.211C524.338 155.06 586.816 149.687 647.812 145.756C719.476 141.137 791.019 134.889 862.871 134.539" stroke="#525252" stroke-miterlimit="10"/>
<path d="M-155.459 160.358C-65.509 158.877 17.1185 116.854 102.499 93.6202C164.7 76.6951 224.579 76.1296 287.426 89.8299C346.202 102.642 403.066 123.337 462.42 133.617C522.979 144.106 585.476 139.198 646.493 135.677C718.237 131.537 789.888 125.895 861.794 125.693" stroke="#525252" stroke-miterlimit="10"/>
<path d="M-155.459 147.089C-66.7339 146.685 15.8398 108.97 100.85 88.4699C162.56 73.5914 223.253 73.3288 285.481 85.245C344.324 96.5083 401.612 115.063 460.926 123.99C521.639 133.132 584.137 128.682 645.194 125.565C717.019 121.903 788.77 116.86 860.73 116.8" stroke="#525252" stroke-miterlimit="10"/>
<path d="M-155.459 133.812C-67.8982 134.405 14.6216 100.959 99.2345 83.1649C160.52 70.2724 221.894 70.2792 283.577 80.4854C342.493 90.2339 400.172 106.654 459.465 114.275C520.334 122.098 582.804 118.113 643.928 115.393C715.835 112.195 787.687 107.745 859.694 107.825" stroke="#525252" stroke-miterlimit="10"/>
<path d="M-155.459 120.543C-69.0019 122.024 13.464 92.7786 97.6664 77.6173C158.616 66.6436 220.487 66.8657 281.733 75.4629C340.73 83.7437 398.765 98.0702 458.052 104.426C519.082 110.969 581.492 107.442 642.697 105.112C714.684 102.372 786.624 98.501 858.685 98.7097" stroke="#525252" stroke-miterlimit="10"/>
<path d="M-155.459 107.267C-70.0115 109.495 12.3804 84.3429 96.1722 71.7197C156.886 62.5705 219.053 62.961 279.976 70.0569C339.054 76.9373 397.419 89.2171 456.713 94.3808C517.897 99.7128 580.226 96.6362 641.526 94.677C713.587 92.3746 785.614 89.0623 857.729 89.3854" stroke="#525252" stroke-miterlimit="10"/>
<path d="M-155.459 93.9906C-71.6739 96.7711 9.93061 75.9883 92.5514 65.6676C153.689 58.0331 216.429 58.3899 277.735 64.1258C337.365 69.707 396.47 80.1354 456.255 84.1613C589.211 93.1221 723.702 79.0515 856.84 79.8055" stroke="#525252" stroke-miterlimit="10"/>
<path d="M-155.459 80.7142C-72.4613 83.8918 9.02873 66.8388 91.2658 58.7532C152.37 52.7479 215.015 53.2192 276.227 57.6828C335.938 62.0386 395.299 70.555 455.117 73.5778C588.417 80.3102 722.612 69.0537 856.026 69.9221" stroke="#525252" stroke-miterlimit="10"/>
<path d="M-155.459 67.4376C-73.1344 70.7903 8.23448 57.265 90.1014 51.2126C212.087 42.1979 332.431 58.3153 454.101 62.6442C587.657 67.3972 721.676 58.7461 855.292 59.6684" stroke="#525252" stroke-miterlimit="10"/>
<path d="M-155.459 54.155C-73.6862 57.4471 7.54808 47.2073 89.0785 42.9592C210.775 36.6173 331.684 48.5335 453.226 51.314C586.95 54.3772 720.889 48.0757 854.653 48.9913" stroke="#525252" stroke-miterlimit="10"/>
<path d="M-155.459 40.8715C-74.1103 43.827 6.9759 36.6167 88.2237 33.9035C209.779 29.8439 331.031 37.9968 452.526 39.5452C586.364 41.2485 720.283 37.0206 854.141 37.8487" stroke="#525252" stroke-miterlimit="10"/>
<path d="M-155.459 27.5893C-74.4131 29.9186 6.53181 25.4281 87.544 23.9537C209.059 21.7388 330.5 26.6333 452.008 27.2796C585.914 27.9932 719.839 25.5224 853.751 26.1754" stroke="#525252" stroke-miterlimit="10"/>
<path d="M-155.459 14.2995C-74.6083 15.6797 6.22226 13.5724 87.073 13.0069C208.615 12.1519 330.15 14.3399 451.699 14.4543C585.631 14.5822 719.57 13.5186 853.502 13.909" stroke="#525252" stroke-miterlimit="10"/>
<path d="M-155.452 1.00994C-74.6956 1.084 6.06754 0.99644 86.824 0.976239C342.352 0.922369 597.887 0.969517 853.415 1.0099" stroke="#525252" stroke-miterlimit="10"/>
<path d="M-154.974 996.847C-102.31 994.269 -55.3257 965.434 -12.2049 937.427C30.1689 909.905 70.8466 879.542 114.99 854.828C146.306 837.297 181.903 820.52 218.636 821.314C248.647 821.961 276.631 834.442 301.432 850.58C354.359 885.016 395.515 936.236 452.109 965.259C514.822 997.419 587.671 975.795 651.783 958.493C734.491 936.175 817.825 904.068 904.269 901.295" stroke="#525252" stroke-miterlimit="10"/>
<path d="M-75.813 1.04323C-76.4254 84.5918 -71.9094 167.985 -70.8124 251.5C-70.3144 289.148 -71.8219 326.236 -64.6811 363.406C-57.2576 402.022 -44.3086 439.299 -31.6019 476.428C-18.9019 513.551 -5.95281 550.828 1.4774 589.451C8.90762 628.088 7.6356 664.409 -0.279194 702.952C-19.8037 798.053 -65.7849 886.873 -70.6643 984.957" stroke="#525252" stroke-miterlimit="10"/>
<path d="M-62.541 1.03671C-63.0592 81.6432 -57.648 162.007 -56.1203 242.56C-55.3799 281.46 -56.8202 319.827 -49.6727 358.276C-42.6597 396.038 -30.8481 432.695 -19.2182 469.225C-7.58831 505.755 4.22331 542.413 11.2362 580.174C18.9491 621.713 17.3608 661.01 8.90085 702.333C-10.0045 794.64 -51.3283 881.851 -55.7837 976.979" stroke="#525252" stroke-miterlimit="10"/>
<path d="M-49.2621 1.03667C-49.6525 78.5396 -43.3193 155.665 -41.3204 233.088C-40.2839 273.206 -41.6704 312.812 -34.644 352.52C-28.1156 389.44 -17.4279 425.458 -6.91526 461.389C3.60415 497.319 14.2851 533.337 20.8134 570.258C28.1831 611.911 27.2745 651.591 19.5145 693.136C2.24465 785.639 -36.7169 873.402 -40.755 968.308" stroke="#525252" stroke-miterlimit="10"/>
<path d="M-35.9901 1.02986C-36.2324 77.0449 -28.607 152.508 -26.2851 228.409C-25.1275 266.345 -26.3053 303.946 -20.3759 341.593C-14.4398 379.281 -4.51267 416.181 5.32025 452.993C25.5918 528.894 43.1511 602.566 30.2223 681.362C14.8974 774.746 -22.0517 863.66 -25.5986 959.024" stroke="#525252" stroke-miterlimit="10"/>
<path d="M-22.7111 1.02371C-22.7918 73.7062 -14.1703 145.588 -11.3234 218.102C-9.83605 255.904 -11.0744 293.504 -5.85846 331.084C-0.561739 369.25 8.51739 406.749 17.5023 444.181C36.4009 522.876 51.9209 598.339 39.0997 679.356C24.7777 769.899 -7.50062 856.949 -10.3475 949.269" stroke="#525252" stroke-miterlimit="10"/>
<path d="M-9.43917 1.01617C-9.35168 70.3191 0.265872 138.504 3.67139 207.572C5.52894 245.192 4.18963 282.745 8.69218 320.217C13.3361 358.881 21.5335 397 29.6435 435.045C46.274 513.019 60.1922 589.074 49.1949 668.906C36.7103 759.537 7.15769 847.112 4.96363 939.157" stroke="#525252" stroke-miterlimit="10"/>
<path d="M3.83994 1.00959C4.09569 68.0235 15.0593 133.502 18.8686 200.2C21.0156 237.854 19.7099 275.495 23.7346 313.054C27.793 350.904 34.8194 388.342 41.7785 425.741C56.188 503.169 68.4034 579.427 59.1628 658.29C48.5424 748.974 21.8434 837.074 20.3359 928.863" stroke="#525252" stroke-miterlimit="10"/>
<path d="M17.1185 1.0031C17.5358 65.2163 29.7108 127.349 33.9846 191.138C36.4344 227.722 35.0614 264.373 38.2381 300.923C41.6032 339.627 47.7816 378.008 53.886 416.349C66.4918 495.475 76.7689 573.583 68.3897 653.766C59.1356 742.35 36.5017 829.002 35.7075 918.469" stroke="#525252" stroke-miterlimit="10"/>
<path d="M30.3907 0.99657C30.9493 61.9581 44.0868 120.139 48.9797 180.535C52.0352 218.25 50.3998 256.106 53.1659 293.847C55.9388 331.724 60.9932 369.385 66.0073 407.012C76.4795 485.592 84.9462 563.761 78.3102 643.095C70.8934 731.74 51.1872 818.864 51.0795 908.135" stroke="#525252" stroke-miterlimit="10"/>
<path d="M43.6697 0.989502C44.0802 35.3313 46.8329 69.0335 53.1526 102.776C57.5341 126.158 62.0703 149.418 64.1903 173.143C67.3333 208.286 65.7315 243.57 67.5353 278.773C69.5745 318.575 73.8886 358.215 78.1489 397.822C86.555 475.951 93.1978 553.925 88.2039 632.552C82.5707 721.258 65.8662 808.839 66.4113 897.962" stroke="#525252" stroke-miterlimit="10"/>
<path d="M56.9414 0.990021C57.4125 33.6554 60.1114 65.5734 67.0301 97.505C71.8557 119.789 76.9169 141.784 79.2186 164.526C82.8126 199.992 80.982 235.626 82.3078 271.193C83.7683 310.51 87.0661 349.726 90.3168 388.929C96.9394 468.707 101.785 548.499 97.8144 628.567C93.5137 715.233 80.558 801.185 81.6819 888.12" stroke="#525252" stroke-miterlimit="10"/>
<path d="M70.2203 0.983246C70.7386 31.8444 73.2018 62.0592 80.6926 92.0384C85.9086 112.888 91.4812 133.375 94.032 154.784C98.2317 190.028 96.1318 225.494 96.8991 260.886C97.7606 300.768 100.17 340.597 102.546 380.412C107.277 459.74 110.353 539.148 107.91 618.623C105.238 705.41 95.2233 791.759 96.8722 878.694" stroke="#525252" stroke-miterlimit="10"/>
<path d="M83.4926 0.976045C84.058 30.9216 86.4405 60.1804 94.8264 89.0084C100.547 108.68 106.47 127.908 109.061 148.32C113.57 183.834 111.154 219.731 111.497 255.419C111.874 294.433 113.362 333.42 114.822 372.4C117.783 451.283 119.143 530.213 118.086 609.144C116.922 696.092 109.842 782.825 111.928 869.834" stroke="#525252" stroke-miterlimit="10"/>
<path d="M96.7711 0.975676C97.3633 30.0662 99.5978 58.5172 108.919 86.2074C115.185 104.816 121.397 122.771 124.002 142.369C128.578 176.838 126.095 211.692 125.967 246.33C125.826 285.896 126.512 325.462 127.185 365.021C128.518 443.433 128.255 521.825 128.417 600.23C128.599 687.393 124.446 774.497 126.855 861.661" stroke="#525252" stroke-miterlimit="10"/>
<path d="M110.043 0.976071C110.642 29.326 112.715 57.0567 122.959 83.6899C129.433 100.521 135.719 116.463 138.432 134.452C143.6 168.726 140.888 203.526 140.377 238.009C139.784 278.134 139.717 318.265 139.636 358.39C139.313 523.663 136.682 689.07 141.622 854.323" stroke="#525252" stroke-miterlimit="10"/>
<path d="M123.316 0.976386C123.908 28.6868 125.732 55.8855 136.931 81.5088C143.567 96.6903 149.88 110.781 152.693 127.296C158.744 162.762 155.453 199.332 154.605 235.074C153.676 274.25 152.935 313.432 152.195 352.614C150.674 432.85 147.888 512.939 149.947 593.161C152.121 678.083 153.622 763.019 156.193 847.927" stroke="#525252" stroke-miterlimit="10"/>
<path d="M136.594 0.976168C137.153 27.9325 138.553 54.8553 150.647 79.3745C157.666 93.6135 164.107 106.499 166.981 122.354C173.361 157.591 169.909 194.289 168.798 229.823C167.567 269.16 166.227 308.49 164.888 347.821C162.156 428.212 158.36 508.401 161.193 588.812C164.175 673.424 168.132 757.996 170.548 842.622" stroke="#525252" stroke-miterlimit="10"/>
<path d="M149.866 0.982779C150.378 27.4881 151.374 54.4512 164.437 78.1155C171.962 91.7485 178.456 103.995 181.276 119.594C187.239 152.521 184.244 186.883 183.06 220.087C181.586 261.444 179.634 302.781 177.696 344.118C173.961 423.876 169.35 503.479 172.702 583.312C176.276 668.409 182.555 753.358 184.655 838.522" stroke="#525252" stroke-miterlimit="10"/>
<path d="M163.138 0.989954C163.583 26.9903 164.081 54.2362 177.925 77.0791C185.792 90.0591 192.307 101.443 195.147 116.686C201.259 149.519 198.284 184.164 197.025 217.287C195.45 258.758 193.041 300.189 190.672 341.62C186.095 421.446 181.027 501.15 184.722 581.111C188.646 666.053 196.958 750.699 198.506 835.762" stroke="#525252" stroke-miterlimit="10"/>
<path d="M176.411 1.00345C176.761 26.6739 176.767 54.4517 191.271 76.6954C199.428 89.2041 205.93 99.9287 208.763 114.976C214.935 147.789 212.081 182.797 210.822 215.914C209.254 257.466 206.502 298.964 203.796 340.456C198.587 420.308 193.371 500.113 197.174 580.148C201.205 665.023 211.28 749.419 212.041 834.463" stroke="#525252" stroke-miterlimit="10"/>
<path d="M189.683 1.00277C190.026 26.7406 190.107 54.4106 204.536 76.7485C212.673 89.3448 219.202 100.17 222.035 115.264C228.173 147.95 225.743 183.127 224.572 216.135C223.098 257.694 219.935 299.165 216.839 340.623C210.876 420.388 205.788 500.187 209.557 580.201C213.562 665.197 225.642 749.493 225.259 834.724" stroke="#525252" stroke-miterlimit="10"/>
<path d="M202.961 0.996479C203.331 27.0574 203.776 54.3841 217.775 77.2202C225.737 90.2137 232.326 101.571 235.172 116.881C241.236 149.458 239.278 184.669 238.073 217.576C236.552 259.095 232.776 300.492 229.082 341.856C221.968 421.486 216.577 501.191 220.601 581.171C224.895 666.49 239.534 750.793 238.181 836.435" stroke="#525252" stroke-miterlimit="10"/>
<path d="M216.233 0.98959C216.631 27.5151 217.458 54.6465 230.966 78.1559C238.733 91.6744 245.375 103.712 248.229 119.351C254.179 151.909 252.624 187.146 251.244 220.027C249.508 261.491 244.951 302.774 240.503 344.017C231.928 423.499 225.763 503.062 230.347 583.042C235.26 668.826 252.812 753.196 250.793 839.437" stroke="#525252" stroke-miterlimit="10"/>
<path d="M229.512 0.982442C229.923 27.8917 231.074 54.9827 243.922 79.1653C251.345 93.135 258.042 105.549 260.997 121.377C274.632 194.484 260.687 274.282 251.204 347.032C240.772 427.046 233.376 507.182 239.083 587.923C245.14 673.558 265.553 757.343 263.157 843.618" stroke="#525252" stroke-miterlimit="10"/>
<path d="M242.785 0.982754C243.202 28.3161 244.622 55.6226 256.844 80.5121C264.342 95.7676 271.193 109.589 274.114 126.595C286.74 200.119 272.573 278.114 261.226 350.823C248.66 431.356 239.642 511.955 246.809 593.545C254.327 679.14 277.775 762.392 275.258 848.883" stroke="#525252" stroke-miterlimit="10"/>
<path d="M256.057 0.982854C256.481 29.0568 258.257 56.6864 269.934 82.5454C277.21 98.6492 284.061 113.521 286.975 131.18C299.231 205.371 284.149 282.422 270.675 355.287C255.814 435.631 244.925 515.853 253.472 597.678C262.498 684.068 289.58 767.502 287.164 855.083" stroke="#525252" stroke-miterlimit="10"/>
<path d="M269.335 0.98254C269.759 29.6691 271.772 57.7297 282.823 84.4437C290.098 102.029 297.158 118.55 300.005 137.569C311.198 212.305 295.408 287.586 279.612 360.356C262.686 438.33 249.75 515.86 258.567 595.887C268.433 685.488 301.062 771.083 298.895 862.118" stroke="#525252" stroke-miterlimit="10"/>
<path d="M282.607 0.982821C283.018 30.309 285.232 58.9417 295.691 86.5309C302.623 104.823 309.629 122.347 312.577 141.851C324.039 217.751 306.5 292.73 288.106 365.937C268.393 444.403 252.987 522.061 263.877 603.253C275.917 693.049 312.106 778.186 310.45 869.861" stroke="#525252" stroke-miterlimit="10"/>
<path d="M295.88 0.989306C296.277 31.0224 298.7 60.2745 308.553 88.7725C315.169 107.919 322.087 126.326 325.116 146.489C336.726 223.77 317.477 298.243 296.236 371.949C273.475 450.926 255.498 528.503 268.703 611.042C283.106 701.067 322.868 785.767 321.879 878.202" stroke="#525252" stroke-miterlimit="10"/>
<path d="M309.158 0.996094C309.549 32.5911 312.429 63.0079 322.067 93.1554C328.542 113.406 335.144 132.991 338.011 154.184C348.584 232.293 328.097 304.76 304.077 378.311C278.092 457.874 257.43 535.108 273.172 619.175C290.071 709.409 333.394 793.772 333.206 887.028" stroke="#525252" stroke-miterlimit="10"/>
<path d="M322.43 0.996266C322.8 33.9377 325.977 65.6875 335.372 97.2825C341.605 118.254 347.897 138.875 350.704 160.661C360.927 240.029 338.717 311.25 311.689 384.909C283.199 462.553 259.469 537.754 276.045 621.053C294.547 714.014 343.738 799.77 344.445 896.184" stroke="#525252" stroke-miterlimit="10"/>
<path d="M335.702 1.00345C336.052 34.7258 339.323 67.3912 348.194 99.9354C354.15 121.795 360.335 143.373 363.202 165.919C367.947 203.21 367.604 241.248 359.083 277.952C349.977 317.168 334.356 354.54 319.159 391.696C303.962 428.845 288.348 466.223 279.235 505.439C269.611 546.856 270.56 588.227 279.962 629.584C301.143 722.773 353.935 808.24 355.631 905.603" stroke="#525252" stroke-miterlimit="10"/>
<path d="M348.981 1.00932C349.304 35.5194 352.643 69.0936 361.028 102.567C366.978 126.312 373.237 149.747 376.044 174.152C380.216 210.426 380.203 246.875 371.312 282.442C361.23 322.776 343.597 360.814 326.563 398.562C309.528 436.31 291.902 474.348 281.813 514.682C271.442 556.153 273.313 596.89 283.879 638.193C307.765 731.558 364.071 816.803 366.803 915.129" stroke="#525252" stroke-miterlimit="10"/>
<path d="M362.253 1.01648C362.543 36.3008 365.921 70.7636 373.863 105.139C379.799 130.803 386.112 156.137 388.871 182.406C392.566 217.502 392.782 252.699 383.642 287.014C372.598 328.478 352.898 367.142 333.952 405.429C315.013 443.703 295.307 482.387 284.263 523.845C274.04 562.219 275.628 599.914 285.548 638.187C310.72 735.301 374.065 822.256 377.962 924.649" stroke="#525252" stroke-miterlimit="10"/>
<path d="M375.525 1.01642C375.788 37.0615 379.173 72.3524 386.711 107.596C392.398 134.176 398.583 160.486 401.383 187.577C405.3 225.507 405.287 262.69 393.778 299.401C381.347 339.048 361.015 375.766 341.423 412.202C321.831 448.637 301.499 485.356 289.068 525.003C276.106 566.333 277.694 605.367 289.553 646.697C317.45 743.932 384.214 830.685 389.154 934.047" stroke="#525252" stroke-miterlimit="10"/>
<path d="M388.804 1.0232C389.04 37.7953 392.419 73.8606 399.586 109.926C405.045 137.387 411.095 164.653 413.922 192.552C417.751 230.341 418.296 267.315 406.33 303.744C392.93 344.535 370.512 381.893 349.049 418.813C327.586 455.733 305.161 493.091 291.767 533.883C278.172 575.273 280.932 613.728 293.908 655.058C324.423 752.28 394.478 838.986 400.407 943.217" stroke="#525252" stroke-miterlimit="10"/>
<path d="M402.076 1.03005C402.298 40.1922 406.108 78.5329 413.397 116.981C418.747 145.21 424.347 173.318 426.931 201.977C430.35 239.854 430.539 276.404 417.374 312.637C402.803 352.749 379.342 389.15 356.883 425.162C334.417 461.173 310.962 497.575 296.391 537.686C281.638 578.31 283.57 616.024 296.573 656.735C328.508 756.744 404.782 844.628 411.734 952.029" stroke="#525252" stroke-miterlimit="10"/>
<path d="M415.348 1.02963C415.698 70.9721 433.365 137.219 439.524 206.373C442.882 244.149 443.717 280.449 430.256 316.434C414.803 357.75 389.269 394.671 365.013 431.173C340.757 467.676 315.222 504.597 299.77 545.913C284.512 586.704 287.696 623.638 301.755 664.497C336.147 764.466 415.436 852.161 423.162 960.37" stroke="#525252" stroke-miterlimit="10"/>
<path d="M428.627 1.02989C428.95 72.1371 445.971 139.959 452.156 210.339C455.716 250.827 456.416 289.121 440.371 327.24C423.741 366.752 398.058 401.915 373.513 436.755C348.961 471.595 323.278 506.765 306.654 546.27C298.827 564.872 292.03 585.85 292.582 606.282C293.181 628.553 299.998 651.106 307.617 671.842C344.277 771.629 426.399 859.19 434.725 968.12" stroke="#525252" stroke-miterlimit="10"/>
<path d="M441.899 1.03709C442.202 74.2784 459.156 144.51 465.105 217.105C468.309 256.207 469.372 293.302 453.677 330.074C436.293 370.798 408.645 406.513 382.444 441.838C356.25 477.163 328.595 512.878 311.211 553.602C303.343 572.035 296.64 592.892 297.851 613.17C299.191 635.622 306.136 657.88 314.24 678.703C333.044 727.028 360.678 771.468 385.924 816.568C413.565 865.957 441.866 917.735 446.435 975.162" stroke="#525252" stroke-miterlimit="10"/>
<path d="M455.171 1.03001C455.474 75.6919 472.098 147.62 477.967 221.676C481.076 260.987 482.389 298.23 466.034 335.016C447.889 375.834 419.084 411.266 391.893 446.295C364.703 481.323 335.898 516.756 317.753 557.574C309.602 575.906 302.691 596.749 303.929 617.068C305.302 639.648 312.523 661.993 320.903 682.829C340.535 731.673 369.26 776.402 395.487 821.839C424.03 871.275 453.664 923.363 458.348 981.362" stroke="#525252" stroke-miterlimit="10"/>
<path d="M468.45 1.03004C468.766 77.4692 485.357 151.404 491.023 227.298C493.85 265.12 495.492 301.138 479.858 336.517C461.262 378.594 430.599 414.619 401.928 450.085C373.257 485.551 342.594 521.576 323.998 563.653C306.358 603.563 310.289 639.715 325.903 679.86C346.249 732.177 377.928 779.499 406.39 827.582C435.432 876.64 465.873 928.614 470.469 986.62" stroke="#525252" stroke-miterlimit="10"/>
<path d="M481.722 1.03024C482.065 77.9205 498.13 152.495 503.878 228.853C506.907 269.099 508.582 307.124 490.646 344.394C471.263 384.667 441.058 419.076 412.616 453.101C384.18 487.133 353.968 521.542 334.585 561.809C314.401 603.745 318.17 642.328 335.319 684.708C356.505 737.059 388.898 784.293 417.98 832.409C447.377 881.044 478.478 932.876 482.806 990.794" stroke="#525252" stroke-miterlimit="10"/>
<path d="M495.001 1.02308C495.391 78.6674 511.214 154.177 516.935 231.324C519.91 271.475 521.929 309.722 503.804 346.837C484.078 387.232 453.098 421.445 424.05 455.262C394.996 489.079 364.016 523.293 344.297 563.687C323.944 605.36 327.821 644.468 345.084 686.586C366.695 739.314 399.882 786.716 429.61 835.021C459.472 883.548 491.521 935.589 495.445 993.804" stroke="#525252" stroke-miterlimit="10"/>
<path d="M508.273 1.01655C508.738 79.1456 524.345 155.282 530.059 232.933C533 272.862 535.396 311.351 517.279 348.272C497.391 388.794 465.785 422.859 436.266 456.487C406.754 490.109 375.142 524.175 355.254 564.703C334.983 606.02 338.9 645.822 356.102 687.549C377.962 740.586 411.802 788.096 442.014 836.536C472.179 884.888 505.036 937.117 508.334 995.514" stroke="#525252" stroke-miterlimit="10"/>
<path d="M521.552 1.00936C522.097 79.2798 537.55 155.638 543.277 233.451C546.198 273.165 548.863 311.782 530.867 348.534C510.972 389.163 479.057 423.182 449.336 456.736C419.622 490.29 387.707 524.309 367.806 564.939C347.722 605.952 351.579 646.366 368.64 687.777C390.54 740.943 424.771 788.412 455.252 836.818C485.599 885.022 518.88 937.332 521.572 995.816" stroke="#525252" stroke-miterlimit="10"/>
<path d="M534.824 1.00993C535.41 79.1793 550.775 155.443 556.496 233.155C559.423 272.91 562.021 311.372 544.011 348.164C524.096 388.841 492.316 423.014 462.703 456.737C433.089 490.459 401.309 524.632 381.394 565.309C361.304 606.343 364.972 646.798 382.088 688.269C403.941 741.212 438.299 788.339 468.868 836.408C499.45 884.511 532.664 936.646 535.228 995.204" stroke="#525252" stroke-miterlimit="10"/>
<path d="M548.096 1.00991C548.702 79.011 563.973 155.114 569.673 232.657C572.594 272.445 575.118 310.786 557.155 347.625C537.274 388.403 505.655 422.792 476.17 456.743C446.684 490.695 415.066 525.09 395.184 565.861C375.162 606.915 378.615 647.37 395.824 688.848C417.657 741.461 452.17 788.11 482.839 835.728C513.664 883.588 546.838 935.407 549.314 993.911" stroke="#525252" stroke-miterlimit="10"/>
<path d="M561.375 1.01644C562.001 78.7886 577.157 154.662 582.818 231.977C585.732 271.799 588.175 310.045 570.306 346.945C550.492 387.864 519.069 422.529 489.738 456.763C460.408 490.997 428.984 525.662 409.17 566.582C389.282 607.649 392.479 648.07 409.83 689.521C431.669 741.697 466.357 787.753 497.148 834.812C528.215 882.296 561.395 933.67 563.805 992.02" stroke="#525252" stroke-miterlimit="10"/>
<path d="M574.647 1.0162C575.279 79.0712 590.544 155.228 596.049 232.838C598.701 270.243 601.265 306.598 585.563 341.593C566.227 384.673 533.538 421.055 503.38 456.777C473.228 492.498 440.533 528.88 421.197 571.96C403.732 610.874 407.043 649.154 423.162 688.121C444.712 740.209 479.831 785.874 510.925 832.449C542.53 879.777 576.215 930.97 578.631 989.548" stroke="#525252" stroke-miterlimit="10"/>
<path d="M587.926 1.01681C588.559 78.7284 603.688 154.555 609.133 231.829C611.771 269.254 614.255 305.562 598.701 340.624C579.493 383.926 547.06 420.692 517.103 456.797C487.154 492.903 454.714 529.669 435.506 572.971C418.249 611.871 421.298 650.07 437.612 688.936C459.223 740.425 494.537 785.296 525.785 831.103C557.646 877.805 591.392 928.339 593.801 986.573" stroke="#525252" stroke-miterlimit="10"/>
<path d="M601.198 1.01648C601.817 78.3376 616.799 153.794 622.183 230.691C624.808 268.136 627.197 304.41 611.838 339.553C592.792 383.118 560.628 420.301 530.894 456.831C501.159 493.361 468.995 530.543 449.949 574.108C432.948 612.995 435.701 651.086 452.244 689.818C473.935 740.627 509.458 784.629 540.868 829.588C572.985 875.57 606.824 925.342 609.241 983.167" stroke="#525252" stroke-miterlimit="10"/>
<path d="M614.47 1.01667C615.076 77.3616 629.66 151.855 635.092 227.769C637.885 266.864 640.14 304.552 623.751 341.162C604.644 383.839 573.644 420.584 544.745 456.858C515.845 493.132 484.845 529.877 465.738 572.554C446.893 614.651 450.521 655.57 469.81 696.88C491.778 743.926 525.22 784.838 555.318 826.761C587.993 872.265 622.439 921.546 624.916 979.377" stroke="#525252" stroke-miterlimit="10"/>
<path d="M627.749 1.01693C628.327 76.9041 642.757 150.96 648.108 226.423C650.881 265.531 653.034 303.219 636.902 339.924C617.997 382.917 587.293 420.14 558.642 456.885C529.992 493.63 499.288 530.853 480.383 573.846C461.895 615.903 465.146 656.661 484.758 697.749C506.846 744.027 540.498 783.983 570.77 824.977C603.715 869.592 638.288 917.95 640.812 975.263" stroke="#525252" stroke-miterlimit="10"/>
<path d="M641.021 1.01009C641.573 75.8537 655.626 148.893 660.996 223.299C663.951 264.198 665.923 303.219 648.781 341.492C629.916 383.623 600.377 420.456 572.574 456.905C544.771 493.354 515.232 530.187 496.367 572.318C477.529 614.382 479.03 655.173 498.837 696.644C520.758 742.539 554.887 781.802 585.49 821.961C618.999 865.936 654.239 913.648 656.85 970.874" stroke="#525252" stroke-miterlimit="10"/>
<path d="M654.293 1.00977C654.825 75.9207 668.925 149.027 674.1 223.521C676.772 261.909 678.912 299.071 663.998 335.339C645.698 379.84 615.042 418.665 586.533 456.945C558.023 495.225 527.367 534.051 509.067 578.552C492.72 618.3 494.456 656.802 512.998 695.628C534.743 741.152 569.31 779.6 600.283 818.924C634.365 862.193 670.298 909.191 673.017 966.302" stroke="#525252" stroke-miterlimit="10"/>
</g>
</g>
</g>
<defs>
<clipPath id="clip0_1_343">
<rect width="1011.2" height="790" fill="white" transform="translate(-87 1011.2) rotate(-90)"/>
</clipPath>
</defs>
</svg>
