<svg width="50" height="50" viewBox="0 0 50 50" fill="none" xmlns="http://www.w3.org/2000/svg">
<path d="M30.3549 31.2583L32.1424 35.1021C32.1424 35.1021 40.1779 36.8083 40.1779 40.8666C40.1779 43.75 36.6029 43.75 36.6029 43.75H27.082L22.3945 41.1458" stroke="#1B8FFA" stroke-width="2.43" stroke-linecap="round" stroke-linejoin="round"/>
<path d="M19.6432 31.2583L17.8578 35.1021C17.8578 35.1021 9.82031 36.8083 9.82031 40.8666C9.82031 43.75 13.3953 43.75 13.3953 43.75H17.7078L22.3953 41.1458L28.1245 37.5" stroke="#1B8FFA" stroke-width="2.43" stroke-linecap="round" stroke-linejoin="round"/>
<path d="M6.25 33.1792C6.25 33.1792 10.7146 32.2188 13.3937 31.2583C16.0708 17.8042 24.1042 18.7646 25 18.7646C25.8937 18.7646 33.9292 17.8042 36.6062 31.2583C39.2854 32.2167 43.75 33.1792 43.75 33.1792M25 14.5833C26.1051 14.5833 27.1649 14.1443 27.9463 13.3629C28.7277 12.5815 29.1667 11.5217 29.1667 10.4167C29.1667 9.3116 28.7277 8.25179 27.9463 7.47039C27.1649 6.68899 26.1051 6.25 25 6.25C23.8949 6.25 22.8351 6.68899 22.0537 7.47039C21.2723 8.25179 20.8333 9.3116 20.8333 10.4167C20.8333 11.5217 21.2723 12.5815 22.0537 13.3629C22.8351 14.1443 23.8949 14.5833 25 14.5833Z" stroke="#1B8FFA" stroke-width="2.43" stroke-linecap="round" stroke-linejoin="round"/>
</svg>
