<svg width="50" height="50" viewBox="0 0 50 50" fill="none" xmlns="http://www.w3.org/2000/svg">
<path d="M29.7346 21.7605L37.5013 4.16675M19.4096 22.1501L10.418 4.16675M26.5867 20.9334L18.4076 4.16675M29.918 4.16675L27.7513 9.37508M12.5013 33.3334C12.5013 36.6486 13.8183 39.828 16.1625 42.1723C18.5067 44.5165 21.6861 45.8334 25.0013 45.8334C28.3165 45.8334 31.4959 44.5165 33.8401 42.1723C36.1843 39.828 37.5013 36.6486 37.5013 33.3334C37.5013 30.0182 36.1843 26.8388 33.8401 24.4946C31.4959 22.1504 28.3165 20.8334 25.0013 20.8334C21.6861 20.8334 18.5067 22.1504 16.1625 24.4946C13.8183 26.8388 12.5013 30.0182 12.5013 33.3334Z" stroke="#1B8FFA" stroke-width="2.43" stroke-linecap="round" stroke-linejoin="round"/>
<path d="M21.875 31.25L26.0417 28.125V38.5417" stroke="#1B8FFA" stroke-width="2.43" stroke-linecap="round" stroke-linejoin="round"/>
</svg>
